<?xml version="1.0" encoding="utf-8"?>
<!-- Generator: Adobe Illustrator 16.0.0, SVG Export Plug-In . SVG Version: 6.00 Build 0)  -->
<!DOCTYPE svg PUBLIC "-//W3C//DTD SVG 1.1//EN" "http://www.w3.org/Graphics/SVG/1.1/DTD/svg11.dtd">
<svg version="1.1" id="Layer_1" xmlns="http://www.w3.org/2000/svg" xmlns:xlink="http://www.w3.org/1999/xlink" x="0px" y="0px"
	 width="615px" height="615px" viewBox="0 0 615 615" enable-background="new 0 0 615 615" xml:space="preserve">
<g>
	<path d="M153.76,484.6v15.879c-10.587,5.776-22.81,8.662-36.669,8.662c-11.26,0-20.813-2.262-28.656-6.784
		c-7.844-4.523-14.052-10.754-18.624-18.695c-4.572-7.94-6.857-16.53-6.857-25.769c0-14.678,5.232-27.02,15.699-37.031
		c10.466-10.009,23.375-15.012,38.725-15.012c10.586,0,22.353,2.767,35.297,8.3v15.52c-11.79-6.737-23.314-10.105-34.575-10.105
		c-11.549,0-21.138,3.644-28.765,10.936c-7.627,7.289-11.44,16.421-11.44,27.394c0,11.069,3.754,20.164,11.26,27.285
		c7.507,7.121,17.107,10.683,28.802,10.683C130.179,495.86,142.113,492.107,153.76,484.6z"/>
	<path d="M171.516,407.147h14.437v87.702h45.402v13.137h-59.839V407.147z"/>
	<path d="M293.468,405.703c15.581,0,28.552,4.934,38.917,14.799c10.363,9.865,15.544,22.232,15.544,37.1
		c0,14.871-5.229,27.178-15.688,36.922c-10.462,9.744-23.649,14.616-39.566,14.616c-15.197,0-27.857-4.872-37.98-14.616
		c-10.123-9.744-15.184-21.955-15.184-36.632c0-15.062,5.097-27.525,15.293-37.39C264.999,410.637,277.887,405.703,293.468,405.703z
		 M294.045,419.417c-11.539,0-21.021,3.611-28.449,10.829c-7.428,7.217-11.142,16.434-11.142,27.646
		c0,10.875,3.725,19.921,11.178,27.141c7.452,7.217,16.778,10.826,27.981,10.826c11.25,0,20.637-3.681,28.161-11.044
		c7.522-7.363,11.287-16.53,11.287-27.5c0-10.685-3.765-19.671-11.287-26.96C314.25,423.063,305.006,419.417,294.045,419.417z"/>
	<path d="M435.847,407.147h14.509v57.242c0,7.748-0.567,13.595-1.697,17.539c-1.132,3.948-2.526,7.232-4.186,9.853
		c-1.662,2.625-3.695,4.971-6.101,7.039c-7.988,6.881-18.43,10.321-31.327,10.321c-13.137,0-23.676-3.416-31.617-10.25
		c-2.405-2.118-4.438-4.485-6.098-7.111c-1.662-2.621-3.032-5.833-4.114-9.635c-1.085-3.802-1.625-9.769-1.625-17.902v-57.096
		h14.509v57.242c0,9.479,1.083,16.072,3.247,19.777c2.165,3.706,5.461,6.678,9.89,8.914c4.426,2.237,9.647,3.356,15.663,3.356
		c8.565,0,15.542-2.237,20.932-6.712c2.839-2.405,4.885-5.246,6.135-8.518c1.251-3.272,1.877-8.88,1.877-16.818V407.147z"/>
	<path d="M470.493,507.843V407.147h34c13.714,0,24.564,2.058,32.553,6.172c7.987,4.114,14.341,10.167,19.057,18.153
		c4.716,7.99,7.074,16.699,7.074,26.13c0,6.737-1.301,13.187-3.899,19.344c-2.598,6.162-6.303,11.574-11.115,16.243
		c-4.907,4.812-10.611,8.444-17.107,10.898c-3.802,1.493-7.29,2.492-10.465,2.997c-3.178,0.505-9.241,0.758-18.19,0.758H470.493z
		 M502.976,419.997H484.93v74.996h18.479c7.217,0,12.823-0.493,16.818-1.479c3.992-0.986,7.326-2.239,9.996-3.755
		s5.112-3.378,7.326-5.593c7.121-7.22,10.683-16.337,10.683-27.356c0-10.829-3.655-19.659-10.97-26.492
		c-2.697-2.548-5.788-4.644-9.275-6.279c-3.49-1.637-6.799-2.719-9.925-3.25C514.932,420.262,509.904,419.997,502.976,419.997z"/>
</g>
<g>
	<path d="M77.956,591.138v-58.822h14.737c5.951,0,10.674,1.474,14.169,4.421c3.495,2.947,5.242,6.933,5.242,11.958
		c0,3.425-0.856,6.385-2.568,8.884c-1.713,2.499-4.168,4.364-7.369,5.6c1.88,1.236,3.719,2.92,5.516,5.053
		c1.796,2.133,4.324,5.853,7.579,11.158c2.05,3.341,3.692,5.853,4.927,7.537l3.116,4.21h-10.021l-2.564-3.876
		c-0.084-0.139-0.253-0.379-0.505-0.716l-1.64-2.318l-2.607-4.295l-2.817-4.592c-1.739-2.417-3.331-4.339-4.779-5.769
		c-1.447-1.429-2.754-2.459-3.92-3.088c-1.167-0.632-3.127-0.946-5.881-0.946h-2.192v25.6H77.956z M88.903,539.474h-2.526v18.569
		h3.2c4.267,0,7.193-0.364,8.779-1.095c1.585-0.731,2.821-1.833,3.705-3.307s1.327-3.15,1.327-5.03c0-1.853-0.492-3.53-1.474-5.033
		c-0.983-1.501-2.366-2.561-4.147-3.178C95.983,539.784,93.029,539.474,88.903,539.474z"/>
	<path d="M185.289,532.316h8.463v33.39c0,4.521-0.33,7.931-0.989,10.232c-0.66,2.301-1.474,4.218-2.442,5.747
		c-0.968,1.53-2.155,2.9-3.558,4.106c-4.66,4.015-10.751,6.021-18.274,6.021c-7.663,0-13.811-1.993-18.442-5.979
		c-1.404-1.236-2.589-2.618-3.558-4.148c-0.968-1.528-1.768-3.403-2.4-5.62c-0.631-2.217-0.947-5.699-0.947-10.442v-33.306h8.463
		v33.39c0,5.531,0.631,9.375,1.895,11.537s3.186,3.894,5.769,5.199c2.582,1.305,5.627,1.959,9.137,1.959
		c4.996,0,9.066-1.306,12.21-3.916c1.656-1.404,2.85-3.059,3.579-4.969c0.729-1.909,1.095-5.179,1.095-9.811V532.316z"/>
	<path d="M269.314,532.316h8v58.822h-7.242l-39.327-45.303v45.303h-7.916v-58.822h6.821l39.664,45.688V532.316z"/>
	<path d="M353.889,532.316h8v58.822h-7.242l-39.327-45.303v45.303h-7.916v-58.822h6.821l39.664,45.688V532.316z"/>
	<path d="M391.725,532.316h33.348v7.495h-24.927v17.937h24.084v7.537h-24.084v18.274h25.727v7.494h-34.148V532.316z"/>
	<path d="M452.253,591.138v-58.822h14.737c5.952,0,10.675,1.474,14.17,4.421c3.495,2.947,5.241,6.933,5.241,11.958
		c0,3.425-0.857,6.385-2.568,8.884c-1.712,2.499-4.169,4.364-7.369,5.6c1.88,1.236,3.72,2.92,5.516,5.053
		c1.796,2.133,4.322,5.853,7.579,11.158c2.048,3.341,3.69,5.853,4.926,7.537l3.116,4.21H487.58l-2.566-3.876
		c-0.084-0.139-0.252-0.379-0.503-0.716l-1.642-2.318l-2.605-4.295l-2.819-4.592c-1.736-2.417-3.329-4.339-4.778-5.769
		c-1.446-1.429-2.754-2.459-3.92-3.088c-1.167-0.632-3.126-0.946-5.88-0.946h-2.192v25.6H452.253z M463.201,539.474h-2.526v18.569
		h3.2c4.268,0,7.193-0.364,8.78-1.095c1.585-0.731,2.821-1.833,3.706-3.307c0.884-1.474,1.325-3.15,1.325-5.03
		c0-1.853-0.49-3.53-1.474-5.033c-0.983-1.501-2.365-2.561-4.146-3.178C470.282,539.784,467.327,539.474,463.201,539.474z"/>
	<path d="M535.816,566.491l-6.4-3.886c-4.015-2.452-6.87-4.864-8.567-7.237c-1.699-2.37-2.549-5.1-2.549-8.188
		c0-4.632,1.607-8.394,4.823-11.285c3.212-2.891,7.388-4.337,12.524-4.337c4.912,0,9.417,1.38,13.517,4.136v9.558
		c-4.238-4.077-8.801-6.115-13.685-6.115c-2.752,0-5.011,0.637-6.779,1.907c-1.769,1.273-2.652,2.903-2.652,4.887
		c0,1.761,0.651,3.413,1.954,4.949c1.303,1.538,3.398,3.153,6.283,4.845l6.433,3.807c7.176,4.285,10.762,9.739,10.762,16.365
		c0,4.715-1.577,8.547-4.735,11.495s-7.265,4.421-12.317,4.421c-5.811,0-11.101-1.785-15.874-5.357V575.76
		c4.548,5.761,9.811,8.642,15.79,8.642c2.638,0,4.835-0.733,6.591-2.202c1.754-1.469,2.63-3.309,2.63-5.519
		C543.563,573.102,540.98,569.704,535.816,566.491z"/>
</g>
<path fill="#464646" d="M496.021,198.431c1.208-5.499,1.847-11.212,1.847-17.075c0-43.752-35.466-79.216-79.216-79.216
	c-7.043,0-13.867,0.923-20.366,2.649c-12.275-38.297-48.165-66.021-90.536-66.021c-43.247,0-79.738,28.88-91.261,68.407
	c-11.259-3.278-23.166-5.034-35.484-5.034c-70,0-126.746,56.745-126.746,126.745c0,70.002,56.746,126.745,126.746,126.745h301.021
	c43.749,0,79.216-35.466,79.216-79.216C561.241,237.439,533.095,205.04,496.021,198.431"/>
<circle fill="none" stroke="#FFFFFF" stroke-width="2.5307" cx="180.626" cy="229.289" r="126.534"/>
<circle fill="none" stroke="#FFFFFF" stroke-width="2.5349" cx="307.394" cy="134.875" r="95.615"/>
<circle fill="none" stroke="#FFFFFF" stroke-width="2.5349" cx="419.753" cy="179.858" r="77.826"/>
<circle fill="none" stroke="#FFFFFF" stroke-width="2.5831" cx="481.447" cy="276.551" r="79.304"/>
<circle fill="none" stroke="#FFFFFF" stroke-width="2.7872" cx="482.703" cy="276.606" r="46.679"/>
<circle fill="none" stroke="#FFFFFF" stroke-width="7.6047" cx="481.857" cy="277.453" r="29.111"/>
<circle fill="none" stroke="#FFFFFF" stroke-width="5.0698" cx="180.626" cy="229.289" r="86.72"/>
<circle fill="none" stroke="#FFFFFF" stroke-width="1.9012" cx="180.626" cy="229.289" r="72.179"/>
<circle fill="none" stroke="#FFFFFF" stroke-width="5.0698" cx="419.753" cy="179.858" r="33.976"/>
<line fill="none" stroke="#FFFFFF" stroke-width="5.0698" x1="483.97" y1="306.604" x2="178.091" y2="316.321"/>
<line fill="none" stroke="#FFFFFF" stroke-width="5.0698" x1="492.842" y1="250.414" x2="208.51" y2="146.904"/>
<circle fill="none" stroke="#FFFFFF" stroke-width="5.0698" cx="306.949" cy="133.808" r="39.713"/>
</svg>
