<?xml version="1.0" encoding="utf-8"?>
<!-- Generator: Adobe Illustrator 16.0.0, SVG Export Plug-In . SVG Version: 6.00 Build 0)  -->
<!DOCTYPE svg PUBLIC "-//W3C//DTD SVG 1.1//EN" "http://www.w3.org/Graphics/SVG/1.1/DTD/svg11.dtd">
<svg version="1.1" id="Layer_1" xmlns="http://www.w3.org/2000/svg" xmlns:xlink="http://www.w3.org/1999/xlink" x="0px" y="0px"
	 width="232px" height="232px" viewBox="0 0 232 232" enable-background="new 0 0 232 232" xml:space="preserve">
<linearGradient id="SVGID_1_" gradientUnits="userSpaceOnUse" x1="45.5464" y1="143.3306" x2="45.5464" y2="58.106">
	<stop  offset="0.0133" style="stop-color:#FFFFFF"/>
	<stop  offset="1" style="stop-color:#C2C2C2"/>
</linearGradient>
<path fill="url(#SVGID_1_)" d="M9.649,107.468c0.007,0.042,0.022,0.083,0.029,0.125l-0.026-0.076c0.175,1.1,0.403,2.188,0.684,3.264
	c-2.108,0.934-3.939,1.803-5.5,2.595c0.467,1.523,1.02,3.019,1.664,4.476c1.69-0.393,3.627-0.897,5.816-1.53
	c0.438,0.956,1.565,2.831,1.79,3.21c-1.774,1.473-3.3,2.807-4.587,3.994c0.863,1.339,1.801,2.628,2.819,3.854
	c1.519-0.839,3.246-1.849,5.182-3.054c0.027,0.033,1.464,1.74,2.245,2.533c-1.366,1.861-2.521,3.524-3.481,4.987
	c1.164,1.089,2.387,2.114,3.673,3.056c1.269-1.182,2.698-2.583,4.284-4.221c0.82,0.585,1.669,1.13,2.54,1.642
	c-0.83,2.057-1.519,3.894-2.072,5.496c1.396,0.771,2.832,1.462,4.309,2.062c0.942-1.459,1.982-3.168,3.119-5.145
	c0.037,0.016,0.077,0.024,0.116,0.039l-0.074-0.016c1.027,0.433,2.071,0.815,3.133,1.144c-0.319,2.284-0.55,4.298-0.703,6.04
	c1.541,0.409,3.103,0.732,4.682,0.952c0.558-1.643,1.154-3.552,1.774-5.748c1.041,0.134,2.765,0.196,3.669,0.18
	c0.314,2.282,0.641,4.28,0.968,6.003c1.593-0.027,3.184-0.142,4.762-0.36c0.092-1.73,0.143-3.729,0.144-6.006
	c0.02-0.003,0.038-0.005,0.059-0.007l-0.009,0.001c0.012-0.001,0.023-0.005,0.033-0.006c0.806-0.068,2.523-0.361,3.254-0.562
	c0.859,2.141,1.66,4.001,2.398,5.587c1.539-0.412,3.054-0.906,4.533-1.503c-0.333-1.701-0.769-3.655-1.321-5.868
	c0.865-0.32,2.582-1.158,3.256-1.56c1.296,1.827,2.481,3.41,3.54,4.754c1.403-0.759,2.76-1.597,4.06-2.517
	c-0.719-1.579-1.594-3.373-2.644-5.393c0.78-0.507,1.995-1.471,2.692-2.053c1.751,1.501,3.321,2.781,4.708,3.848
	c1.173-1.077,2.288-2.219,3.325-3.428c-1.081-1.357-2.371-2.889-3.884-4.594c0.676-0.805,1.786-2.482,2.129-2.994
	c1.026,0.377,3.953,1.771,5.578,2.423c0.838-1.354,1.599-2.758,2.267-4.203c-1.409-1.009-3.065-2.134-4.985-3.363
	c0.387-0.872,0.731-1.761,1.048-2.663c2.149,0.385,4.06,0.68,5.724,0.89c0.468-1.523,0.85-3.07,1.134-4.639
	c-1.619-0.623-3.506-1.291-5.673-2.002c0.166-0.993,0.283-1.996,0.362-3c2.212-0.156,4.165-0.34,5.848-0.549
	c0.08-1.592,0.069-3.185-0.038-4.778c-1.676-0.2-3.61-0.381-5.804-0.532c-0.077-1.158-0.203-2.303-0.384-3.427
	c2.13-0.694,3.994-1.356,5.589-1.969c-0.309-1.563-0.703-3.111-1.198-4.627c-1.681,0.217-3.609,0.511-5.789,0.902
	c-0.397-1.199-0.855-2.367-1.37-3.504c1.813-1.223,3.393-2.341,4.737-3.348c-0.724-1.42-1.522-2.796-2.412-4.122
	c-1.512,0.642-3.231,1.426-5.147,2.354c-0.648-0.98-1.343-1.924-2.077-2.836c1.449-1.614,2.703-3.073,3.754-4.366
	c-1.045-1.2-2.157-2.346-3.341-3.414c-1.269,0.965-2.716,2.117-4.293,3.434c-0.779-0.734-1.58-1.433-2.418-2.089
	c1.11-2.022,2.037-3.82,2.799-5.398c-1.295-0.929-2.641-1.782-4.039-2.552c-1.105,1.339-2.338,2.914-3.697,4.743
	c-0.817-0.401-2.283-0.946-3.183-1.164c0.581-2.218,1.044-4.179,1.395-5.889c-1.482-0.582-2.996-1.085-4.537-1.492
	c-0.747,1.568-1.562,3.396-2.434,5.504c-1.017-0.255-3.566-0.599-3.622-0.607c-0.044-2.305-0.135-4.327-0.259-6.074
	c-1.587-0.163-3.18-0.233-4.774-0.2c-0.29,1.708-0.843,5.951-0.843,5.951s-3.18,0.256-3.209,0.258
	c-0.523-2.24-1.028-4.193-1.516-5.872c-1.583,0.174-3.156,0.437-4.709,0.798c0.072,1.732,0.205,3.726,0.414,5.988
	c-0.615,0.167-1.222,0.352-1.822,0.552c-0.31,0.096-0.625,0.173-0.932,0.278c-1.125-1.996-2.156-3.727-3.086-5.194
	c-1.474,0.61-2.909,1.303-4.301,2.082c0.553,1.647,1.241,3.524,2.077,5.644c-0.033,0.021-0.065,0.045-0.1,0.064l0.054-0.042
	c-0.978,0.532-1.931,1.109-2.847,1.736c-1.587-1.677-3.019-3.113-4.283-4.32c-1.281,0.949-2.508,1.969-3.666,3.066
	c0.938,1.46,2.059,3.118,3.387,4.973c-0.754,0.728-2.142,2.416-2.427,2.756c-1.981-1.181-3.748-2.171-5.296-2.99
	c-0.978,1.266-1.876,2.575-2.69,3.946c1.295,1.152,2.826,2.441,4.604,3.864c-0.021,0.038-0.028,0.037-0.028,0.037
	c-0.582,0.951-1.12,1.925-1.605,2.926c-2.211-0.663-4.165-1.201-5.865-1.612c-0.636,1.461-1.196,2.953-1.652,4.48
	c1.484,0.77,3.216,1.617,5.196,2.528c-0.303,0.996-0.571,2-0.78,3.014c-2.304-0.095-4.331-0.135-6.081-0.113
	C3.236,94.486,3.064,96.069,3,97.663c1.687,0.392,3.647,0.8,5.89,1.21c-0.029,0.92-0.002,1.841,0.047,2.762
	c-2.215,0.386-4.158,0.772-5.829,1.154c0.083,1.592,0.254,3.177,0.528,4.747C5.371,107.566,7.371,107.548,9.649,107.468"/>
<path fill="none" stroke="#48484A" d="M9.649,107.468c0.007,0.042,0.022,0.083,0.029,0.125l-0.026-0.076
	c0.175,1.1,0.403,2.188,0.684,3.264c-2.108,0.934-3.939,1.803-5.5,2.595c0.467,1.523,1.02,3.019,1.664,4.476
	c1.69-0.393,3.627-0.897,5.816-1.53c0.438,0.956,1.565,2.831,1.79,3.21c-1.774,1.473-3.3,2.807-4.587,3.994
	c0.863,1.339,1.801,2.628,2.819,3.854c1.519-0.839,3.246-1.849,5.182-3.054c0.027,0.033,1.464,1.74,2.245,2.533
	c-1.366,1.861-2.521,3.524-3.481,4.987c1.164,1.089,2.387,2.114,3.673,3.056c1.269-1.182,2.698-2.583,4.284-4.221
	c0.82,0.585,1.669,1.13,2.54,1.642c-0.83,2.057-1.519,3.894-2.072,5.496c1.396,0.771,2.832,1.462,4.309,2.062
	c0.942-1.459,1.982-3.168,3.119-5.145c0.037,0.016,0.077,0.024,0.116,0.039l-0.074-0.016c1.027,0.433,2.071,0.815,3.133,1.144
	c-0.319,2.284-0.55,4.298-0.703,6.04c1.541,0.409,3.103,0.732,4.682,0.952c0.558-1.643,1.154-3.552,1.774-5.748
	c1.041,0.134,2.765,0.196,3.669,0.18c0.314,2.282,0.641,4.28,0.968,6.003c1.593-0.027,3.184-0.142,4.762-0.36
	c0.092-1.73,0.143-3.729,0.144-6.006c0.02-0.003,0.038-0.005,0.059-0.007l-0.009,0.001c0.012-0.001,0.023-0.005,0.033-0.006
	c0.806-0.068,2.523-0.361,3.254-0.562c0.859,2.141,1.66,4.001,2.398,5.587c1.539-0.412,3.054-0.906,4.533-1.503
	c-0.333-1.701-0.769-3.655-1.321-5.868c0.865-0.32,2.582-1.158,3.256-1.56c1.296,1.827,2.481,3.41,3.54,4.754
	c1.403-0.759,2.76-1.597,4.06-2.517c-0.719-1.579-1.594-3.373-2.644-5.393c0.78-0.507,1.995-1.471,2.692-2.053
	c1.751,1.501,3.321,2.781,4.708,3.848c1.173-1.077,2.288-2.219,3.325-3.428c-1.081-1.357-2.371-2.889-3.884-4.594
	c0.676-0.805,1.786-2.482,2.129-2.994c1.026,0.377,3.953,1.771,5.578,2.423c0.838-1.354,1.599-2.758,2.267-4.203
	c-1.409-1.009-3.065-2.134-4.985-3.363c0.387-0.872,0.731-1.761,1.048-2.663c2.149,0.385,4.06,0.68,5.724,0.89
	c0.468-1.523,0.85-3.07,1.134-4.639c-1.619-0.623-3.506-1.291-5.673-2.002c0.166-0.993,0.283-1.996,0.362-3
	c2.212-0.156,4.165-0.34,5.848-0.549c0.08-1.592,0.069-3.185-0.038-4.778c-1.676-0.2-3.61-0.381-5.804-0.532
	c-0.077-1.158-0.203-2.303-0.384-3.427c2.13-0.694,3.994-1.356,5.589-1.969c-0.309-1.563-0.703-3.111-1.198-4.627
	c-1.681,0.217-3.609,0.511-5.789,0.902c-0.397-1.199-0.855-2.367-1.37-3.504c1.813-1.223,3.393-2.341,4.737-3.348
	c-0.724-1.42-1.522-2.796-2.412-4.122c-1.512,0.642-3.231,1.426-5.147,2.354c-0.648-0.98-1.343-1.924-2.077-2.836
	c1.449-1.614,2.703-3.073,3.754-4.366c-1.045-1.2-2.157-2.346-3.341-3.414c-1.269,0.965-2.716,2.117-4.293,3.434
	c-0.779-0.734-1.58-1.433-2.418-2.089c1.11-2.022,2.037-3.82,2.799-5.398c-1.295-0.929-2.641-1.782-4.039-2.552
	c-1.105,1.339-2.338,2.914-3.697,4.743c-0.817-0.401-2.283-0.946-3.183-1.164c0.581-2.218,1.044-4.179,1.395-5.889
	c-1.482-0.582-2.996-1.085-4.537-1.492c-0.747,1.568-1.562,3.396-2.434,5.504c-1.017-0.255-3.566-0.599-3.622-0.607
	c-0.044-2.305-0.135-4.327-0.259-6.074c-1.587-0.163-3.18-0.233-4.774-0.2c-0.29,1.708-0.843,5.951-0.843,5.951
	s-3.18,0.256-3.209,0.258c-0.523-2.24-1.028-4.193-1.516-5.872c-1.583,0.174-3.156,0.437-4.709,0.798
	c0.072,1.732,0.205,3.726,0.414,5.988c-0.615,0.167-1.222,0.352-1.822,0.552c-0.31,0.096-0.625,0.173-0.932,0.278
	c-1.125-1.996-2.156-3.727-3.086-5.194c-1.474,0.61-2.909,1.303-4.301,2.082c0.553,1.647,1.241,3.524,2.077,5.644
	c-0.033,0.021-0.065,0.045-0.1,0.064l0.054-0.042c-0.978,0.532-1.931,1.109-2.847,1.736c-1.587-1.677-3.019-3.113-4.283-4.32
	c-1.281,0.949-2.508,1.969-3.666,3.066c0.938,1.46,2.059,3.118,3.387,4.973c-0.754,0.728-2.142,2.416-2.427,2.756
	c-1.981-1.181-3.748-2.171-5.296-2.99c-0.978,1.266-1.876,2.575-2.69,3.946c1.295,1.152,2.826,2.441,4.604,3.864
	c-0.021,0.038-0.028,0.037-0.028,0.037c-0.582,0.951-1.12,1.925-1.605,2.926c-2.211-0.663-4.165-1.201-5.865-1.612
	c-0.636,1.461-1.196,2.953-1.652,4.48c1.484,0.77,3.216,1.617,5.196,2.528c-0.303,0.996-0.571,2-0.78,3.014
	c-2.304-0.095-4.331-0.135-6.081-0.113C3.236,94.486,3.064,96.069,3,97.663c1.687,0.392,3.647,0.8,5.89,1.21
	c-0.029,0.92-0.002,1.841,0.047,2.762c-2.215,0.386-4.158,0.772-5.829,1.154c0.083,1.592,0.254,3.177,0.528,4.747
	C5.371,107.566,7.371,107.548,9.649,107.468z"/>
<linearGradient id="SVGID_2_" gradientUnits="userSpaceOnUse" x1="190.7798" y1="143.0288" x2="190.7798" y2="64.6396">
	<stop  offset="0.0133" style="stop-color:#FFFFFF"/>
	<stop  offset="1" style="stop-color:#D4D4D4"/>
</linearGradient>
<path fill="url(#SVGID_2_)" d="M156.812,103.977c-2.036-0.296-3.827-0.599-5.374-0.906c0.013-1.472,0.116-2.944,0.299-4.407
	c1.575-0.071,3.4-0.105,5.467-0.094c0.194-1.272,0.469-2.517,0.803-3.738c-1.84-0.814-3.449-1.573-4.83-2.265
	c0.403-1.419,0.895-2.802,1.465-4.163c1.516,0.344,3.252,0.788,5.204,1.341c0.502-1.101,1.059-2.174,1.673-3.209
	c-1.619-1.304-3.012-2.485-4.193-3.539c0.76-1.261,1.598-2.475,2.499-3.64c1.409,0.749,3.022,1.659,4.824,2.739
	c0.811-0.971,1.676-1.888,2.586-2.763c-1.197-1.669-2.22-3.171-3.068-4.496c1.065-1.015,2.197-1.957,3.376-2.841
	c1.154,1.093,2.454,2.395,3.894,3.901c1.072-0.741,2.19-1.424,3.347-2.04c-0.677-1.96-1.235-3.704-1.676-5.226
	c1.313-0.668,2.667-1.25,4.051-1.757c0.79,1.374,1.662,2.982,2.607,4.832c1.198-0.407,2.424-0.752,3.677-1.024
	c-0.12-2.01-0.188-3.788-0.203-5.333c1.441-0.293,2.899-0.496,4.368-0.61c0.385,1.497,0.789,3.237,1.193,5.215
	c0.621-0.033,1.241-0.054,1.869-0.054c0.592,0,1.18,0.016,1.764,0.046c0.412-2.014,0.816-3.783,1.211-5.306
	c1.466,0.091,2.928,0.281,4.377,0.545c-0.017,1.581-0.083,3.409-0.21,5.477c1.253,0.27,2.481,0.611,3.677,1.015
	c0.921-1.798,1.769-3.367,2.544-4.711c1.392,0.483,2.75,1.051,4.072,1.696c-0.43,1.499-0.978,3.221-1.644,5.146
	c1.432,0.756,2.798,1.61,4.097,2.555c1.459-1.492,2.774-2.77,3.942-3.849c1.188,0.874,2.309,1.82,3.384,2.834
	c-0.881,1.336-1.945,2.854-3.196,4.548c0.795,0.758,1.561,1.646,2.282,2.575c1.811-1.068,3.423-1.967,4.84-2.711
	c0.915,1.154,1.756,2.365,2.529,3.621c-1.212,1.068-2.648,2.27-4.315,3.598l1.815,3.375c2.03-0.546,3.829-0.986,5.395-1.318
	c0.578,1.352,1.062,2.742,1.472,4.156c-1.455,0.711-3.159,1.485-5.121,2.318l0.769,3.806c2.103,0.052,3.95,0.146,5.546,0.27
	c0.165,1.464,0.233,2.935,0.222,4.407c-1.596,0.266-3.449,0.524-5.566,0.76c0,0-0.153,2.27-0.359,3.742
	c1.989,0.608,3.725,1.187,5.217,1.73c-0.234,1.452-0.557,2.887-0.966,4.304c-1.568-0.168-3.38-0.409-5.427-0.736
	c-0.357,1.154-0.778,2.279-1.253,3.377l0.011-0.015c1.784,1.115,3.326,2.136,4.639,3.058c-0.603,1.343-1.294,2.644-2.05,3.908
	c-1.499-0.581-3.216-1.3-5.144-2.166c-0.679,1.062-1.416,2.09-2.206,3.07c1.381,1.519,2.572,2.881,3.568,4.097
	c-0.94,1.132-1.949,2.203-3.02,3.216c-1.262-0.938-2.692-2.066-4.28-3.38c-0.965,0.867-1.983,1.675-3.044,2.428
	c0.922,1.851,1.697,3.5,2.329,4.951c-1.215,0.83-2.483,1.582-3.789,2.269c-0.959-1.256-2.026-2.733-3.198-4.439
	c-1.141,0.559-2.316,1.057-3.521,1.489c0.377,1.97,0.673,3.72,0.888,5.246c-1.392,0.479-2.812,0.862-4.254,1.17
	c-0.576-1.435-1.201-3.107-1.857-5.018c-1.181,0.218-2.381,0.371-3.601,0.464c-0.147,2.062-0.318,3.869-0.512,5.434
	c-1.469,0.099-2.944,0.102-4.415,0.023c-0.188-1.574-0.357-3.402-0.499-5.48c-1.28-0.104-2.538-0.278-3.773-0.523
	c-0.679,1.906-1.32,3.58-1.918,5.017c-1.439-0.296-2.86-0.688-4.258-1.154c0.234-1.551,0.556-3.335,0.967-5.343
	c-1.241-0.463-2.445-1.001-3.613-1.604c-1.206,1.65-2.306,3.081-3.293,4.295c-1.295-0.697-2.546-1.477-3.754-2.322
	c0.666-1.408,1.481-3.025,2.443-4.82c-1.039-0.765-2.027-1.586-2.971-2.462c-1.547,1.218-2.953,2.277-4.192,3.155
	c-1.063-1.017-2.059-2.1-2.992-3.24c0.989-1.15,2.179-2.457,3.539-3.886c-0.754-0.964-1.462-1.968-2.108-3.012
	c-1.85,0.794-3.504,1.459-4.955,1.997c-0.761-1.259-1.442-2.566-2.05-3.909c1.286-0.872,2.796-1.841,4.526-2.893
	c-0.49-1.182-0.914-2.399-1.272-3.644c-1.958,0.262-3.699,0.457-5.218,0.585c-0.397-1.418-0.706-2.857-0.93-4.314
	c1.455-0.493,3.15-1.017,5.075-1.562C156.907,106.583,156.819,105.29,156.812,103.977"/>
<path fill="none" stroke="#000000" d="M156.812,103.977c-2.036-0.296-3.827-0.599-5.374-0.906c0.013-1.472,0.116-2.944,0.299-4.407
	c1.575-0.071,3.4-0.105,5.467-0.094c0.194-1.272,0.469-2.517,0.803-3.738c-1.84-0.814-3.449-1.573-4.83-2.265
	c0.403-1.419,0.895-2.802,1.465-4.163c1.516,0.344,3.252,0.788,5.204,1.341c0.502-1.101,1.059-2.174,1.673-3.209
	c-1.619-1.304-3.012-2.485-4.193-3.539c0.76-1.261,1.598-2.475,2.499-3.64c1.409,0.749,3.022,1.659,4.824,2.739
	c0.811-0.971,1.676-1.888,2.586-2.763c-1.197-1.669-2.22-3.171-3.068-4.496c1.065-1.015,2.197-1.957,3.376-2.841
	c1.154,1.093,2.454,2.395,3.894,3.901c1.072-0.741,2.19-1.424,3.347-2.04c-0.677-1.96-1.235-3.704-1.676-5.226
	c1.313-0.668,2.667-1.25,4.051-1.757c0.79,1.374,1.662,2.982,2.607,4.832c1.198-0.407,2.424-0.752,3.677-1.024
	c-0.12-2.01-0.188-3.788-0.203-5.333c1.441-0.293,2.899-0.496,4.368-0.61c0.385,1.497,0.789,3.237,1.193,5.215
	c0.621-0.033,1.241-0.054,1.869-0.054c0.592,0,1.18,0.016,1.764,0.046c0.412-2.014,0.816-3.783,1.211-5.306
	c1.466,0.091,2.928,0.281,4.377,0.545c-0.017,1.581-0.083,3.409-0.21,5.477c1.253,0.27,2.481,0.611,3.677,1.015
	c0.921-1.798,1.769-3.367,2.544-4.711c1.392,0.483,2.75,1.051,4.072,1.696c-0.43,1.499-0.978,3.221-1.644,5.146
	c1.432,0.756,2.798,1.61,4.097,2.555c1.459-1.492,2.774-2.77,3.942-3.849c1.188,0.874,2.309,1.82,3.384,2.834
	c-0.881,1.336-1.945,2.854-3.196,4.548c0.795,0.758,1.561,1.646,2.282,2.575c1.811-1.068,3.423-1.967,4.84-2.711
	c0.915,1.154,1.756,2.365,2.529,3.621c-1.212,1.068-2.648,2.27-4.315,3.598l1.815,3.375c2.03-0.546,3.829-0.986,5.395-1.318
	c0.578,1.352,1.062,2.742,1.472,4.156c-1.455,0.711-3.159,1.485-5.121,2.318l0.769,3.806c2.103,0.052,3.95,0.146,5.546,0.27
	c0.165,1.464,0.233,2.935,0.222,4.407c-1.596,0.266-3.449,0.524-5.566,0.76c0,0-0.153,2.27-0.359,3.742
	c1.989,0.608,3.725,1.187,5.217,1.73c-0.234,1.452-0.557,2.887-0.966,4.304c-1.568-0.168-3.38-0.409-5.427-0.736
	c-0.357,1.154-0.778,2.279-1.253,3.377l0.011-0.015c1.784,1.115,3.326,2.136,4.639,3.058c-0.603,1.343-1.294,2.644-2.05,3.908
	c-1.499-0.581-3.216-1.3-5.144-2.166c-0.679,1.062-1.416,2.09-2.206,3.07c1.381,1.519,2.572,2.881,3.568,4.097
	c-0.94,1.132-1.949,2.203-3.02,3.216c-1.262-0.938-2.692-2.066-4.28-3.38c-0.965,0.867-1.983,1.675-3.044,2.428
	c0.922,1.851,1.697,3.5,2.329,4.951c-1.215,0.83-2.483,1.582-3.789,2.269c-0.959-1.256-2.026-2.733-3.198-4.439
	c-1.141,0.559-2.316,1.057-3.521,1.489c0.377,1.97,0.673,3.72,0.888,5.246c-1.392,0.479-2.812,0.862-4.254,1.17
	c-0.576-1.435-1.201-3.107-1.857-5.018c-1.181,0.218-2.381,0.371-3.601,0.464c-0.147,2.062-0.318,3.869-0.512,5.434
	c-1.469,0.099-2.944,0.102-4.415,0.023c-0.188-1.574-0.357-3.402-0.499-5.48c-1.28-0.104-2.538-0.278-3.773-0.523
	c-0.679,1.906-1.32,3.58-1.918,5.017c-1.439-0.296-2.86-0.688-4.258-1.154c0.234-1.551,0.556-3.335,0.967-5.343
	c-1.241-0.463-2.445-1.001-3.613-1.604c-1.206,1.65-2.306,3.081-3.293,4.295c-1.295-0.697-2.546-1.477-3.754-2.322
	c0.666-1.408,1.481-3.025,2.443-4.82c-1.039-0.765-2.027-1.586-2.971-2.462c-1.547,1.218-2.953,2.277-4.192,3.155
	c-1.063-1.017-2.059-2.1-2.992-3.24c0.989-1.15,2.179-2.457,3.539-3.886c-0.754-0.964-1.462-1.968-2.108-3.012
	c-1.85,0.794-3.504,1.459-4.955,1.997c-0.761-1.259-1.442-2.566-2.05-3.909c1.286-0.872,2.796-1.841,4.526-2.893
	c-0.49-1.182-0.914-2.399-1.272-3.644c-1.958,0.262-3.699,0.457-5.218,0.585c-0.397-1.418-0.706-2.857-0.93-4.314
	c1.455-0.493,3.15-1.017,5.075-1.562C156.907,106.583,156.819,105.29,156.812,103.977z"/>
<linearGradient id="SVGID_3_" gradientUnits="userSpaceOnUse" x1="60.7583" y1="83.4321" x2="60.7583" y2="28.0444">
	<stop  offset="0" style="stop-color:#FFFFFF"/>
	<stop  offset="1" style="stop-color:#ABABAB"/>
</linearGradient>
<path fill="url(#SVGID_3_)" d="M34.308,64.003c-0.471-1.456-0.84-2.939-1.128-4.448c1.508-0.571,3.267-1.186,5.277-1.831
	c-0.087-1.008-0.087-2.006-0.039-2.996c-2.008-0.469-3.778-0.921-5.303-1.355c0.137-1.524,0.369-3.036,0.685-4.538
	c1.612,0.062,3.469,0.177,5.565,0.355c0.319-1.028,0.735-2.02,1.195-2.986c-1.669-1.151-3.141-2.211-4.384-3.157
	c0.677-1.371,1.448-2.692,2.292-3.975c1.489,0.645,3.202,1.445,5.109,2.394c0.633-0.757,1.325-1.463,2.054-2.134
	c-1.128-1.76-2.097-3.343-2.898-4.732c1.161-0.998,2.387-1.92,3.658-2.777c1.133,1.191,2.414,2.6,3.823,4.233
	c1.026-0.547,2.112-1.003,3.238-1.392c-0.325-2.098-0.564-3.95-0.735-5.566c1.466-0.446,2.955-0.789,4.468-1.054
	c0.559,1.555,1.156,3.369,1.784,5.449c0.985-0.08,1.962-0.08,2.927-0.034c0.514-2.039,1.004-3.828,1.47-5.372
	c1.521,0.163,3.032,0.42,4.525,0.763c-0.087,1.612-0.233,3.473-0.451,5.571c1.031,0.323,2.021,0.741,2.987,1.204
	c1.169-1.637,2.25-3.082,3.213-4.304c1.361,0.704,2.667,1.495,3.935,2.36c-0.66,1.452-1.47,3.116-2.426,4.964
	c0.776,0.648,1.496,1.361,2.18,2.111c1.721-1.06,3.278-1.978,4.645-2.734c0.979,1.178,1.881,2.417,2.713,3.705
	c-1.165,1.072-2.542,2.278-4.122,3.604c0.581,1.097,1.068,2.256,1.466,3.466c2.015-0.288,3.808-0.495,5.372-0.638
	c0.429,1.469,0.753,2.961,0.999,4.477c-1.518,0.525-3.283,1.086-5.298,1.667c0.07,1.02,0.067,2.029-0.002,3.026
	c1.961,0.519,3.691,1.017,5.183,1.49c-0.184,1.517-0.459,3.025-0.819,4.516c-1.575-0.109-3.391-0.271-5.43-0.504
	c-0.348,1.045-0.774,2.057-1.268,3.037c1.577,1.158,2.977,2.226,4.155,3.181c-0.719,1.352-1.526,2.65-2.407,3.907
	c-1.423-0.668-3.056-1.49-4.859-2.452c-0.673,0.776-1.396,1.504-2.174,2.183c1.026,1.714,1.907,3.255,2.638,4.616
	c-1.188,0.965-2.438,1.846-3.737,2.668c-1.058-1.179-2.247-2.569-3.548-4.162c-1.083,0.544-2.209,1.02-3.394,1.388
	c0.246,1.993,0.422,3.767,0.538,5.31c-1.477,0.404-2.975,0.705-4.495,0.925c-0.496-1.512-1.02-3.27-1.562-5.27
	c-1.03,0.056-2.052,0.047-3.059-0.038c-0.546,1.921-1.066,3.619-1.558,5.085c-1.516-0.208-3.018-0.508-4.502-0.895
	c0.134-1.561,0.325-3.354,0.592-5.369c-1.05-0.367-2.074-0.798-3.054-1.314c-1.166,1.533-2.247,2.895-3.208,4.044
	c-1.34-0.743-2.624-1.572-3.868-2.474c0.689-1.402,1.531-3.007,2.51-4.775c-0.769-0.694-1.504-1.425-2.173-2.221
	c-1.709,0.982-3.246,1.827-4.605,2.528c-0.944-1.205-1.809-2.472-2.606-3.781c1.191-1.032,2.593-2.193,4.198-3.46
	c-0.351-0.739-0.666-1.498-0.939-2.281C37.646,63.555,35.865,63.812,34.308,64.003"/>
<path fill="none" stroke="#000000" d="M34.308,64.003c-0.471-1.456-0.84-2.939-1.128-4.448c1.508-0.571,3.267-1.186,5.277-1.831
	c-0.087-1.008-0.087-2.006-0.039-2.996c-2.008-0.469-3.778-0.921-5.303-1.355c0.137-1.524,0.369-3.036,0.685-4.538
	c1.612,0.062,3.469,0.177,5.565,0.355c0.319-1.028,0.735-2.02,1.195-2.986c-1.669-1.151-3.141-2.211-4.384-3.157
	c0.677-1.371,1.448-2.692,2.292-3.975c1.489,0.645,3.202,1.445,5.109,2.394c0.633-0.757,1.325-1.463,2.054-2.134
	c-1.128-1.76-2.097-3.343-2.898-4.732c1.161-0.998,2.387-1.92,3.658-2.777c1.133,1.191,2.414,2.6,3.823,4.233
	c1.026-0.547,2.112-1.003,3.238-1.392c-0.325-2.098-0.564-3.95-0.735-5.566c1.466-0.446,2.955-0.789,4.468-1.054
	c0.559,1.555,1.156,3.369,1.784,5.449c0.985-0.08,1.962-0.08,2.927-0.034c0.514-2.039,1.004-3.828,1.47-5.372
	c1.521,0.163,3.032,0.42,4.525,0.763c-0.087,1.612-0.233,3.473-0.451,5.571c1.031,0.323,2.021,0.741,2.987,1.204
	c1.169-1.637,2.25-3.082,3.213-4.304c1.361,0.704,2.667,1.495,3.935,2.36c-0.66,1.452-1.47,3.116-2.426,4.964
	c0.776,0.648,1.496,1.361,2.18,2.111c1.721-1.06,3.278-1.978,4.645-2.734c0.979,1.178,1.881,2.417,2.713,3.705
	c-1.165,1.072-2.542,2.278-4.122,3.604c0.581,1.097,1.068,2.256,1.466,3.466c2.015-0.288,3.808-0.495,5.372-0.638
	c0.429,1.469,0.753,2.961,0.999,4.477c-1.518,0.525-3.283,1.086-5.298,1.667c0.07,1.02,0.067,2.029-0.002,3.026
	c1.961,0.519,3.691,1.017,5.183,1.49c-0.184,1.517-0.459,3.025-0.819,4.516c-1.575-0.109-3.391-0.271-5.43-0.504
	c-0.348,1.045-0.774,2.057-1.268,3.037c1.577,1.158,2.977,2.226,4.155,3.181c-0.719,1.352-1.526,2.65-2.407,3.907
	c-1.423-0.668-3.056-1.49-4.859-2.452c-0.673,0.776-1.396,1.504-2.174,2.183c1.026,1.714,1.907,3.255,2.638,4.616
	c-1.188,0.965-2.438,1.846-3.737,2.668c-1.058-1.179-2.247-2.569-3.548-4.162c-1.083,0.544-2.209,1.02-3.394,1.388
	c0.246,1.993,0.422,3.767,0.538,5.31c-1.477,0.404-2.975,0.705-4.495,0.925c-0.496-1.512-1.02-3.27-1.562-5.27
	c-1.03,0.056-2.052,0.047-3.059-0.038c-0.546,1.921-1.066,3.619-1.558,5.085c-1.516-0.208-3.018-0.508-4.502-0.895
	c0.134-1.561,0.325-3.354,0.592-5.369c-1.05-0.367-2.074-0.798-3.054-1.314c-1.166,1.533-2.247,2.895-3.208,4.044
	c-1.34-0.743-2.624-1.572-3.868-2.474c0.689-1.402,1.531-3.007,2.51-4.775c-0.769-0.694-1.504-1.425-2.173-2.221
	c-1.709,0.982-3.246,1.827-4.605,2.528c-0.944-1.205-1.809-2.472-2.606-3.781c1.191-1.032,2.593-2.193,4.198-3.46
	c-0.351-0.739-0.666-1.498-0.939-2.281C37.646,63.555,35.865,63.812,34.308,64.003z"/>
<linearGradient id="SVGID_4_" gradientUnits="userSpaceOnUse" x1="132.6294" y1="120.7769" x2="132.6294" y2="1.4629">
	<stop  offset="0" style="stop-color:#FFFFFF"/>
	<stop  offset="1" style="stop-color:#B3B3B3"/>
</linearGradient>
<path fill="url(#SVGID_4_)" d="M78.258,61.178c0-0.126,0.008-0.252,0.01-0.376c-1.943-0.242-3.653-0.492-5.128-0.755
	c-0.02-1.401,0.048-2.803,0.195-4.202c1.499-0.1,3.234-0.173,5.204-0.205c0.129-1.307,0.323-2.595,0.545-3.873
	c-1.887-0.562-3.538-1.097-4.956-1.599c0.208-1.386,0.51-2.759,0.886-4.112c1.503,0.15,3.239,0.366,5.2,0.66
	c0.337-1.23,0.716-2.443,1.137-3.639c-1.735-0.875-3.253-1.687-4.549-2.43c0.458-1.339,1.002-2.647,1.617-3.92
	c1.426,0.406,3.066,0.921,4.892,1.544c0.579-1.251,1.205-2.475,1.877-3.677c-1.543-1.152-2.884-2.202-4.019-3.148
	c0.674-1.228,1.43-2.413,2.25-3.554c1.317,0.64,2.825,1.42,4.495,2.335c0.755-1.091,1.549-2.152,2.379-3.183
	c-1.296-1.357-2.427-2.592-3.372-3.691c0.869-1.098,1.81-2.144,2.807-3.132c1.171,0.831,2.506,1.832,3.968,2.98
	c1.011-1.038,2.063-2.033,3.152-2.987c-1.062-1.544-1.984-2.945-2.741-4.178c1.043-0.959,2.146-1.846,3.295-2.669
	c1.04,1.019,2.213,2.237,3.494,3.625c1.121-0.81,2.266-1.585,3.448-2.307c-0.79-1.73-1.461-3.28-2-4.641
	c1.182-0.755,2.412-1.432,3.678-2.041c0.852,1.196,1.803,2.6,2.837,4.207c1.181-0.576,2.391-1.104,3.616-1.595
	c-0.494-1.844-0.897-3.486-1.207-4.922c1.291-0.549,2.615-1.015,3.964-1.407c0.646,1.325,1.355,2.874,2.114,4.641
	c1.201-0.354,2.419-0.667,3.654-0.939c-0.179-2.014-0.297-3.785-0.352-5.321c1.38-0.319,2.775-0.549,4.183-0.698
	c0.423,1.473,0.865,3.189,1.318,5.15c1.337-0.161,2.685-0.282,4.05-0.346c0.171-2,0.358-3.749,0.567-5.262
	c1.401-0.075,2.807-0.062,4.207,0.033c0.159,1.506,0.3,3.251,0.406,5.233c1.312,0.063,2.608,0.184,3.895,0.337
	c0.487-1.899,0.954-3.563,1.402-4.992c1.395,0.155,2.777,0.401,4.145,0.726c-0.092,1.484-0.237,3.192-0.453,5.122
	c1.402,0.304,2.788,0.662,4.148,1.073c0.781-1.788,1.504-3.352,2.171-4.69c1.365,0.381,2.701,0.846,4.009,1.389
	c-0.328,1.466-0.752,3.152-1.277,5.048c1.265,0.52,2.504,1.09,3.719,1.7c1.094-1.656,2.089-3.09,2.988-4.305
	c1.265,0.603,2.49,1.286,3.677,2.04c-0.582,1.403-1.298,3.007-2.154,4.807c1.103,0.689,2.179,1.418,3.225,2.184
	c1.353-1.451,2.574-2.703,3.661-3.757c1.15,0.805,2.244,1.684,3.291,2.622c-0.807,1.286-1.78,2.755-2.923,4.392
	c0.947,0.842,1.865,1.717,2.754,2.625c1.562-1.171,2.972-2.176,4.218-3.008c0.995,1.005,1.924,2.073,2.792,3.191
	c-0.999,1.098-2.19,2.338-3.56,3.695c0.864,1.071,1.689,2.174,2.473,3.308c1.711-0.863,3.246-1.598,4.593-2.192
	c0.802,1.151,1.525,2.355,2.185,3.596c-1.151,0.89-2.506,1.885-4.059,2.967c0.647,1.158,1.251,2.342,1.815,3.55
	c1.772-0.553,3.358-1.008,4.749-1.363c0.6,1.27,1.115,2.577,1.559,3.908c-1.25,0.669-2.709,1.409-4.363,2.2
	c0.485,1.364,0.918,2.754,1.294,4.167c1.823-0.26,3.45-0.455,4.869-0.585c0.396,1.365,0.7,2.747,0.926,4.141
	c-1.354,0.472-2.929,0.971-4.708,1.49c0.229,1.366,0.404,2.746,0.528,4.143c1.866,0.061,3.521,0.149,4.957,0.271
	c0.152,1.393,0.211,2.796,0.195,4.201c-1.424,0.231-3.073,0.451-4.932,0.657c-0.006,1.344-0.072,2.667-0.172,3.983
	c1.826,0.37,3.443,0.732,4.839,1.089c-0.082,1.397-0.255,2.793-0.504,4.176c-1.441-0.014-3.102-0.063-4.97-0.166
	c-0.221,1.278-0.48,2.542-0.789,3.788c1.862,0.671,3.489,1.299,4.885,1.885c-0.291,1.387-0.674,2.752-1.129,4.091
	c-1.521-0.236-3.273-0.559-5.255-0.977c-0.452,1.283-0.952,2.54-1.495,3.776c1.641,0.941,3.076,1.805,4.301,2.594
	c-0.521,1.302-1.128,2.572-1.803,3.804c-1.396-0.479-3.003-1.075-4.791-1.786c-0.595,1.066-1.228,2.106-1.891,3.127
	c1.436,1.18,2.695,2.259,3.758,3.224c-0.73,1.195-1.535,2.346-2.406,3.454c-1.274-0.693-2.737-1.531-4.352-2.508
	c-0.761,0.962-1.546,1.907-2.371,2.814c1.262,1.473,2.353,2.799,3.261,3.979c-0.938,1.061-1.938,2.061-2.996,3
	c-1.163-0.921-2.482-2.027-3.935-3.308c-1.037,0.945-2.12,1.839-3.229,2.702c1.027,1.73,1.892,3.261,2.603,4.615
	c-1.095,0.877-2.247,1.684-3.441,2.42c-1.011-1.139-2.147-2.486-3.397-4.049c-1.097,0.696-2.21,1.364-3.356,1.983
	c0.717,1.843,1.311,3.484,1.781,4.914c-1.225,0.684-2.493,1.289-3.794,1.822c-0.799-1.277-1.689-2.776-2.651-4.497
	c-1.224,0.516-2.478,0.976-3.745,1.404c0.39,1.839,0.701,3.483,0.933,4.92c-1.334,0.484-2.692,0.881-4.068,1.199
	c-0.572-1.345-1.19-2.916-1.847-4.7c-1.308,0.305-2.629,0.575-3.972,0.784c0.07,1.917,0.096,3.618,0.07,5.089
	c-1.379,0.25-2.772,0.404-4.178,0.482c-0.334-1.445-0.677-3.12-1.021-5.024c-1.104,0.067-2.214,0.111-3.335,0.111
	c-0.469,0-0.934-0.024-1.402-0.035c-0.256,1.958-0.521,3.68-0.791,5.161c-1.401,0.014-2.806-0.061-4.201-0.217
	c-0.093-1.528-0.157-3.302-0.177-5.319c-1.359-0.164-2.704-0.367-4.031-0.63c-0.604,1.856-1.179,3.48-1.718,4.873
	c-1.394-0.25-2.769-0.588-4.12-1.005c0.188-1.486,0.449-3.197,0.795-5.121c-1.318-0.394-2.613-0.839-3.888-1.329
	c-0.922,1.761-1.766,3.296-2.539,4.603c-1.321-0.472-2.611-1.029-3.869-1.655c0.442-1.463,0.99-3.145,1.666-5.036
	c-1.301-0.648-2.575-1.34-3.814-2.088c-1.211,1.477-2.313,2.765-3.301,3.848c-1.198-0.73-2.347-1.54-3.449-2.408
	c0.683-1.261,1.516-2.71,2.477-4.3c-1.158-0.859-2.274-1.767-3.36-2.711c-1.405,1.35-2.678,2.515-3.808,3.49
	c-1.116-0.885-2.166-1.829-3.162-2.829c0.887-1.257,1.955-2.678,3.206-4.264c-1.045-1.101-2.047-2.243-2.998-3.427
	c-1.671,1.023-3.169,1.894-4.488,2.609c-0.899-1.093-1.725-2.243-2.487-3.435c1.105-1.009,2.41-2.14,3.916-3.379
	c-0.753-1.142-1.465-2.315-2.131-3.516c-1.808,0.712-3.42,1.307-4.832,1.782c-0.69-1.223-1.3-2.488-1.842-3.782
	c1.25-0.794,2.716-1.675,4.395-2.627c-0.525-1.204-1.004-2.432-1.442-3.678c-1.865,0.394-3.525,0.709-4.972,0.939
	c-0.48-1.318-0.873-2.667-1.192-4.035c1.342-0.567,2.909-1.185,4.691-1.835c-0.344-1.39-0.633-2.801-0.868-4.229
	c-1.913,0.096-3.61,0.143-5.082,0.139c-0.269-1.392-0.443-2.796-0.54-4.206c1.447-0.355,3.125-0.72,5.031-1.09
	C78.316,63.674,78.258,62.434,78.258,61.178"/>
<path fill="none" stroke="#000000" d="M78.258,61.178c0-0.126,0.008-0.252,0.01-0.376c-1.943-0.242-3.653-0.492-5.128-0.755
	c-0.02-1.401,0.048-2.803,0.195-4.202c1.499-0.1,3.234-0.173,5.204-0.205c0.129-1.307,0.323-2.595,0.545-3.873
	c-1.887-0.562-3.538-1.097-4.956-1.599c0.208-1.386,0.51-2.759,0.886-4.112c1.503,0.15,3.239,0.366,5.2,0.66
	c0.337-1.23,0.716-2.443,1.137-3.639c-1.735-0.875-3.253-1.687-4.549-2.43c0.458-1.339,1.002-2.647,1.617-3.92
	c1.426,0.406,3.066,0.921,4.892,1.544c0.579-1.251,1.205-2.475,1.877-3.677c-1.543-1.152-2.884-2.202-4.019-3.148
	c0.674-1.228,1.43-2.413,2.25-3.554c1.317,0.64,2.825,1.42,4.495,2.335c0.755-1.091,1.549-2.152,2.379-3.183
	c-1.296-1.357-2.427-2.592-3.372-3.691c0.869-1.098,1.81-2.144,2.807-3.132c1.171,0.831,2.506,1.832,3.968,2.98
	c1.011-1.038,2.063-2.033,3.152-2.987c-1.062-1.544-1.984-2.945-2.741-4.178c1.043-0.959,2.146-1.846,3.295-2.669
	c1.04,1.019,2.213,2.237,3.494,3.625c1.121-0.81,2.266-1.585,3.448-2.307c-0.79-1.73-1.461-3.28-2-4.641
	c1.182-0.755,2.412-1.432,3.678-2.041c0.852,1.196,1.803,2.6,2.837,4.207c1.181-0.576,2.391-1.104,3.616-1.595
	c-0.494-1.844-0.897-3.486-1.207-4.922c1.291-0.549,2.615-1.015,3.964-1.407c0.646,1.325,1.355,2.874,2.114,4.641
	c1.201-0.354,2.419-0.667,3.654-0.939c-0.179-2.014-0.297-3.785-0.352-5.321c1.38-0.319,2.775-0.549,4.183-0.698
	c0.423,1.473,0.865,3.189,1.318,5.15c1.337-0.161,2.685-0.282,4.05-0.346c0.171-2,0.358-3.749,0.567-5.262
	c1.401-0.075,2.807-0.062,4.207,0.033c0.159,1.506,0.3,3.251,0.406,5.233c1.312,0.063,2.608,0.184,3.895,0.337
	c0.487-1.899,0.954-3.563,1.402-4.992c1.395,0.155,2.777,0.401,4.145,0.726c-0.092,1.484-0.237,3.192-0.453,5.122
	c1.402,0.304,2.788,0.662,4.148,1.073c0.781-1.788,1.504-3.352,2.171-4.69c1.365,0.381,2.701,0.846,4.009,1.389
	c-0.328,1.466-0.752,3.152-1.277,5.048c1.265,0.52,2.504,1.09,3.719,1.7c1.094-1.656,2.089-3.09,2.988-4.305
	c1.265,0.603,2.49,1.286,3.677,2.04c-0.582,1.403-1.298,3.007-2.154,4.807c1.103,0.689,2.179,1.418,3.225,2.184
	c1.353-1.451,2.574-2.703,3.661-3.757c1.15,0.805,2.244,1.684,3.291,2.622c-0.807,1.286-1.78,2.755-2.923,4.392
	c0.947,0.842,1.865,1.717,2.754,2.625c1.562-1.171,2.972-2.176,4.218-3.008c0.995,1.005,1.924,2.073,2.792,3.191
	c-0.999,1.098-2.19,2.338-3.56,3.695c0.864,1.071,1.689,2.174,2.473,3.308c1.711-0.863,3.246-1.598,4.593-2.192
	c0.802,1.151,1.525,2.355,2.185,3.596c-1.151,0.89-2.506,1.885-4.059,2.967c0.647,1.158,1.251,2.342,1.815,3.55
	c1.772-0.553,3.358-1.008,4.749-1.363c0.6,1.27,1.115,2.577,1.559,3.908c-1.25,0.669-2.709,1.409-4.363,2.2
	c0.485,1.364,0.918,2.754,1.294,4.167c1.823-0.26,3.45-0.455,4.869-0.585c0.396,1.365,0.7,2.747,0.926,4.141
	c-1.354,0.472-2.929,0.971-4.708,1.49c0.229,1.366,0.404,2.746,0.528,4.143c1.866,0.061,3.521,0.149,4.957,0.271
	c0.152,1.393,0.211,2.796,0.195,4.201c-1.424,0.231-3.073,0.451-4.932,0.657c-0.006,1.344-0.072,2.667-0.172,3.983
	c1.826,0.37,3.443,0.732,4.839,1.089c-0.082,1.397-0.255,2.793-0.504,4.176c-1.441-0.014-3.102-0.063-4.97-0.166
	c-0.221,1.278-0.48,2.542-0.789,3.788c1.862,0.671,3.489,1.299,4.885,1.885c-0.291,1.387-0.674,2.752-1.129,4.091
	c-1.521-0.236-3.273-0.559-5.255-0.977c-0.452,1.283-0.952,2.54-1.495,3.776c1.641,0.941,3.076,1.805,4.301,2.594
	c-0.521,1.302-1.128,2.572-1.803,3.804c-1.396-0.479-3.003-1.075-4.791-1.786c-0.595,1.066-1.228,2.106-1.891,3.127
	c1.436,1.18,2.695,2.259,3.758,3.224c-0.73,1.195-1.535,2.346-2.406,3.454c-1.274-0.693-2.737-1.531-4.352-2.508
	c-0.761,0.962-1.546,1.907-2.371,2.814c1.262,1.473,2.353,2.799,3.261,3.979c-0.938,1.061-1.938,2.061-2.996,3
	c-1.163-0.921-2.482-2.027-3.935-3.308c-1.037,0.945-2.12,1.839-3.229,2.702c1.027,1.73,1.892,3.261,2.603,4.615
	c-1.095,0.877-2.247,1.684-3.441,2.42c-1.011-1.139-2.147-2.486-3.397-4.049c-1.097,0.696-2.21,1.364-3.356,1.983
	c0.717,1.843,1.311,3.484,1.781,4.914c-1.225,0.684-2.493,1.289-3.794,1.822c-0.799-1.277-1.689-2.776-2.651-4.497
	c-1.224,0.516-2.478,0.976-3.745,1.404c0.39,1.839,0.701,3.483,0.933,4.92c-1.334,0.484-2.692,0.881-4.068,1.199
	c-0.572-1.345-1.19-2.916-1.847-4.7c-1.308,0.305-2.629,0.575-3.972,0.784c0.07,1.917,0.096,3.618,0.07,5.089
	c-1.379,0.25-2.772,0.404-4.178,0.482c-0.334-1.445-0.677-3.12-1.021-5.024c-1.104,0.067-2.214,0.111-3.335,0.111
	c-0.469,0-0.934-0.024-1.402-0.035c-0.256,1.958-0.521,3.68-0.791,5.161c-1.401,0.014-2.806-0.061-4.201-0.217
	c-0.093-1.528-0.157-3.302-0.177-5.319c-1.359-0.164-2.704-0.367-4.031-0.63c-0.604,1.856-1.179,3.48-1.718,4.873
	c-1.394-0.25-2.769-0.588-4.12-1.005c0.188-1.486,0.449-3.197,0.795-5.121c-1.318-0.394-2.613-0.839-3.888-1.329
	c-0.922,1.761-1.766,3.296-2.539,4.603c-1.321-0.472-2.611-1.029-3.869-1.655c0.442-1.463,0.99-3.145,1.666-5.036
	c-1.301-0.648-2.575-1.34-3.814-2.088c-1.211,1.477-2.313,2.765-3.301,3.848c-1.198-0.73-2.347-1.54-3.449-2.408
	c0.683-1.261,1.516-2.71,2.477-4.3c-1.158-0.859-2.274-1.767-3.36-2.711c-1.405,1.35-2.678,2.515-3.808,3.49
	c-1.116-0.885-2.166-1.829-3.162-2.829c0.887-1.257,1.955-2.678,3.206-4.264c-1.045-1.101-2.047-2.243-2.998-3.427
	c-1.671,1.023-3.169,1.894-4.488,2.609c-0.899-1.093-1.725-2.243-2.487-3.435c1.105-1.009,2.41-2.14,3.916-3.379
	c-0.753-1.142-1.465-2.315-2.131-3.516c-1.808,0.712-3.42,1.307-4.832,1.782c-0.69-1.223-1.3-2.488-1.842-3.782
	c1.25-0.794,2.716-1.675,4.395-2.627c-0.525-1.204-1.004-2.432-1.442-3.678c-1.865,0.394-3.525,0.709-4.972,0.939
	c-0.48-1.318-0.873-2.667-1.192-4.035c1.342-0.567,2.909-1.185,4.691-1.835c-0.344-1.39-0.633-2.801-0.868-4.229
	c-1.913,0.096-3.61,0.143-5.082,0.139c-0.269-1.392-0.443-2.796-0.54-4.206c1.447-0.355,3.125-0.72,5.031-1.09
	C78.316,63.674,78.258,62.434,78.258,61.178z"/>
<circle fill="none" stroke="#48484A" stroke-width="2" cx="46.71" cy="101.346" r="11.273"/>
<circle fill="none" stroke="#48484A" stroke-width="2" cx="131.647" cy="61.8" r="31.123"/>
<circle fill="none" stroke="#000000" stroke-width="0.91" cx="131.648" cy="61.8" r="7.71"/>
<circle fill="none" stroke="#48484A" stroke-width="2" cx="189.91" cy="103.708" r="8.563"/>
<line fill="none" stroke="#000000" stroke-width="2" stroke-linecap="round" stroke-dasharray="1.956,5.669" x1="44.015" y1="112.28" x2="100.557" y2="128.823"/>
<line fill="none" stroke="#58595B" stroke-width="2" stroke-linecap="round" stroke-dasharray="1.956,5.669" x1="37.557" y1="94.822" x2="56.39" y2="55.072"/>
<line fill="none" stroke="#000000" stroke-width="2" stroke-linecap="round" stroke-dasharray="1.956,5.669" x1="64.89" y1="53.489" x2="112.224" y2="86.489"/>
<line fill="none" stroke="#000000" stroke-width="2" stroke-linecap="round" stroke-dasharray="1.956,5.669" x1="131.89" y1="93.155" x2="190.89" y2="95.488"/>
<circle fill="none" stroke="#000000" stroke-width="0.634" cx="189.911" cy="103.709" r="4.012"/>
<circle fill="none" stroke="#000000" stroke-width="0.634" cx="46.891" cy="101.477" r="4.011"/>
<circle fill="none" stroke="#000000" stroke-width="0.634" cx="131.89" cy="61.822" r="4.012"/>
<path fill="#58595B" d="M61.599,56.322c0-0.358-0.29-0.647-0.647-0.647s-0.647,0.289-0.647,0.647c0,0.357,0.29,0.646,0.647,0.646
	S61.599,56.679,61.599,56.322"/>
<text transform="matrix(1 0 0 1 14.875 197.5347)" fill="#231F20" font-family="'GillSans'" font-size="58.2861">CLOUD</text>
<text transform="matrix(1 0 0 1 20.9795 230.3198)"><tspan x="0" y="0" fill="#231F20" font-family="'GillSans'" font-size="34.0002" letter-spacing="5">R</tspan><tspan x="26.282" y="0" fill="#231F20" font-family="'GillSans'" font-size="34.0002" letter-spacing="6">U</tspan><tspan x="57.121" y="0" fill="#231F20" font-family="'GillSans'" font-size="34.0002" letter-spacing="6">NN</tspan><tspan x="123.812" y="0" fill="#231F20" font-family="'GillSans'" font-size="34.0002" letter-spacing="6">ER</tspan><tspan x="174.881" y="0" fill="#231F20" font-family="'GillSans'" font-size="34.0002">S</tspan></text>
<circle fill="none" stroke="#48484A" stroke-width="2" cx="60.904" cy="56.35" r="4.688"/>
<linearGradient id="SVGID_5_" gradientUnits="userSpaceOnUse" x1="101.2651" y1="128.4731" x2="101.2651" y2="119.0947">
	<stop  offset="0.0133" style="stop-color:#FFFFFF"/>
	<stop  offset="1" style="stop-color:#D9D9D9"/>
</linearGradient>
<circle fill="url(#SVGID_5_)" stroke="#000000" stroke-width="2" cx="101.265" cy="123.784" r="4.689"/>
<line fill="none" stroke="#000000" stroke-width="2" stroke-linecap="round" stroke-dasharray="1.956,5.669" x1="104.224" y1="128.156" x2="190.891" y2="112.488"/>
</svg>
