<?xml version="1.0" encoding="utf-8"?>
<!-- Generator: Adobe Illustrator 16.0.0, SVG Export Plug-In . SVG Version: 6.00 Build 0)  -->
<!DOCTYPE svg PUBLIC "-//W3C//DTD SVG 1.1//EN" "http://www.w3.org/Graphics/SVG/1.1/DTD/svg11.dtd">
<svg version="1.1" id="Layer_1" xmlns="http://www.w3.org/2000/svg" xmlns:xlink="http://www.w3.org/1999/xlink" x="0px" y="0px"
	 width="1326px" height="2088.208px" viewBox="0 0 1326 2088.208" enable-background="new 0 0 1326 2088.208" xml:space="preserve">
<path fill="#DED9DD" d="M695.158,537.417"/>
<path fill="#E9E2E9" d="M695.158,537.417"/>
<line fill="#F7F2F6" x1="695.158" y1="537.417" x2="837.158" y2="545.417"/>
<path fill="#CCC5CC" d="M837.158,545.417"/>
<polygon fill="#D7D5D6" points="583.852,127.946 576.68,128.934 576.176,141.878 "/>
<polygon fill="#E1E0DE" points="543.23,163.819 522.045,137.333 508.48,156.217 "/>
<polygon fill="#E5E4E2" points="576.176,141.878 576.68,128.934 522.045,137.333 "/>
<polygon fill="#EDECEA" points="543.23,163.819 576.176,141.878 522.045,137.333 "/>
<polygon fill="#E7E3E2" points="508.48,156.217 522.045,137.333 462.601,159.345 "/>
<polygon fill="#E5E1E2" points="469.699,168.065 508.48,156.217 462.601,159.345 "/>
<polygon fill="#F2F2F4" points="405.426,191 421.657,182.061 397.957,161.481 "/>
<polygon fill="#F2F2F2" points="392.509,205.46 405.426,191 379.309,192.701 "/>
<polygon fill="#FBF4FB" points="379.309,192.701 397.957,161.481 347.87,175.902 "/>
<polygon fill="#EAE8E9" points="405.426,191 397.957,161.481 379.309,192.701 "/>
<polygon fill="#F6F5F3" points="335.656,309.765 278.439,310.73 279.546,333.893 "/>
<polygon fill="#ECECEA" points="371.442,264.029 379.309,192.701 347.87,175.902 "/>
<polygon fill="#E6E2E1" points="371.442,264.029 347.87,175.902 321.447,272.979 "/>
<polygon fill="#EFEFED" points="289.751,349.241 335.656,309.765 279.546,333.893 "/>
<polygon fill="#EFEFED" points="369.52,300.403 371.442,264.029 321.447,272.979 "/>
<polygon fill="#ECECEC" points="351.386,309.628 369.52,300.403 321.447,272.979 "/>
<polygon fill="#F4F5F7" points="335.656,309.765 351.386,309.628 321.447,272.979 "/>
<polygon fill="#F2F0F1" points="335.656,309.765 321.447,272.979 278.439,310.73 "/>
<polygon fill="#F0EEEF" points="240.724,399.199 224.41,350.478 229.417,407.322 "/>
<polygon fill="#F3F1F2" points="279.546,333.893 278.439,310.73 224.41,350.478 "/>
<polygon fill="#EDE9EA" points="278.439,310.73 321.447,272.979 169.281,229.428 "/>
<polygon fill="#E6E4E7" points="224.41,350.478 278.439,310.73 169.281,229.428 "/>
<polygon fill="#E2E2E2" points="194.058,443.304 229.417,407.322 190.442,432.212 "/>
<polygon fill="#F4F3F1" points="229.417,407.322 224.41,350.478 190.442,432.212 "/>
<polygon fill="#DCDADD" points="224.41,350.478 169.281,229.428 141.746,272.867 "/>
<polygon fill="#E8E8EA" points="194.058,443.304 190.442,432.212 157.494,453.975 "/>
<polygon fill="#D8D1D6" points="141.746,272.867 169.281,229.428 125.648,260.121 "/>
<polygon fill="#EFEFEF" points="157.494,453.975 190.442,432.212 142.079,447.05 "/>
<polygon fill="#E6E1E5" points="224.41,350.478 141.746,272.867 104.854,380.828 "/>
<polygon fill="#F4F4F2" points="190.442,432.212 224.41,350.478 104.854,380.828 "/>
<polygon fill="#FAF9F7" points="142.079,447.05 190.442,432.212 104.854,380.828 "/>
<path fill="#BFBAC1" d="M1364.293,1711.407"/>
<polygon fill="#F7F5FA" points="95.855,723.621 71.479,751.265 142.852,768.953 "/>
<polygon fill="#E7E2E8" points="89.605,704.398 85.878,723.753 95.855,723.621 "/>
<polygon fill="#DDD6DD" points="71.895,707.656 85.878,723.753 89.605,704.398 "/>
<polygon fill="#D8D3CD" points="131.065,622.968 123.477,666.042 135.483,622.23 "/>
<polygon fill="#CEC4CD" points="67.77,720.351 62.559,742.32 85.878,723.753 "/>
<polygon fill="#D0C9D0" points="71.895,707.656 67.77,720.351 85.878,723.753 "/>
<polygon fill="#D6CAD4" points="62.559,742.32 71.479,751.265 85.878,723.753 "/>
<polygon fill="#E1D8DB" points="68.223,609.281 70.055,646.5 93.089,606.191 "/>
<polygon fill="#EAE9EE" points="185.839,690.687 203.664,690.714 204.093,640.859 "/>
<polygon fill="#F7F2F6" points="85.878,723.753 71.479,751.265 95.855,723.621 "/>
<polygon fill="#E9E3E3" points="117.852,602.191 126.94,611.804 131.761,609.414 "/>
<polygon fill="#A8A2A4" points="93.089,606.191 70.055,646.5 102.569,652.308 "/>
<polygon fill="#DDDCE1" points="89.605,704.398 95.855,723.621 108.171,686.39 "/>
<polygon fill="#FAF8FB" points="153.305,671.339 124,670.613 154.214,707.57 "/>
<polygon fill="#F5F0F4" points="106.516,685.175 108.171,686.39 114.848,672.757 "/>
<polygon fill="#FEFCFF" points="108.171,686.39 153.996,710.761 154.214,707.57 "/>
<polygon fill="#E3DED8" points="130.895,616.437 126.94,611.804 131.065,622.968 "/>
<polygon fill="#F4EFF3" points="123.477,666.042 114.848,672.757 124,670.613 "/>
<polygon fill="#C7C5CA" points="169.757,700.582 154.214,707.57 170.112,702.054 "/>
<polygon fill="#F4EDF2" points="114.848,672.757 108.171,686.39 124,670.613 "/>
<line fill="#E3DEDA" x1="130.895" y1="616.437" x2="131.761" y2="609.414"/>
<polygon fill="#EBE9EE" points="167.871,658.082 185.839,690.687 204.093,640.859 "/>
<polygon fill="#C2C0C5" points="186.882,632.23 167.871,658.082 204.093,640.859 "/>
<polygon fill="#FAF8FD" points="302.214,646.863 299.332,651.695 312.145,658.785 "/>
<polygon fill="#E0DBE1" points="169.757,700.582 170.112,702.054 185.839,690.687 "/>
<polygon fill="#C7C2C8" points="154.214,707.57 162.729,713.121 170.112,702.054 "/>
<polygon fill="#E6E1DD" points="131.761,609.414 130.895,616.437 135.483,622.23 "/>
<polygon fill="#E0DBD5" points="130.895,616.437 131.065,622.968 135.483,622.23 "/>
<polygon fill="#F7F5FA" points="124,670.613 108.171,686.39 154.214,707.57 "/>
<polygon fill="#D9D4D0" points="131.761,609.414 135.483,622.23 160.539,628.246 "/>
<polygon fill="#F9F7FC" points="108.171,686.39 95.855,723.621 153.996,710.761 "/>
<polygon fill="#F6F4F7" points="123.477,666.042 124,670.613 153.305,671.339 "/>
<polygon fill="#B9B5B6" points="135.483,622.23 123.477,666.042 153.305,671.339 "/>
<polygon fill="#F6F4F9" points="95.855,723.621 142.852,768.953 153.996,710.761 "/>
<polygon fill="#D1CDCA" points="135.483,622.23 153.305,671.339 160.539,628.246 "/>
<polygon fill="#BEB9BD" points="166.987,637.382 167.371,638.281 186.882,632.23 "/>
<polygon fill="#D7D2D8" points="162.729,713.121 167.78,721.679 170.112,702.054 "/>
<polygon fill="#E1E0E5" points="166.987,637.382 153.305,671.339 167.371,638.281 "/>
<polygon fill="#B0ABAF" points="160.539,628.246 166.987,637.382 186.882,632.23 "/>
<polygon fill="#F2F1F6" points="167.371,638.281 153.305,671.339 167.871,658.082 "/>
<polygon fill="#C8C3C9" points="154.214,707.57 153.996,710.761 162.729,713.121 "/>
<polygon fill="#CBC7C8" points="160.539,628.246 153.305,671.339 166.987,637.382 "/>
<polygon fill="#CEC9CF" points="167.78,721.679 153.996,710.761 169.91,730.144 "/>
<polygon fill="#D1D0D5" points="153.996,710.761 142.852,768.953 169.91,730.144 "/>
<polygon fill="#D3CED4" points="162.729,713.121 153.996,710.761 167.78,721.679 "/>
<polygon fill="#FBFAFF" points="153.305,671.339 154.214,707.57 169.757,700.582 "/>
<polygon fill="#F6F4F7" points="204.093,640.859 203.664,690.714 236.214,653.144 "/>
<polygon fill="#FAF9FE" points="185.839,690.687 167.78,721.679 203.664,690.714 "/>
<polygon fill="#ECE9F0" points="203.664,690.714 169.91,730.144 240.882,698.113 "/>
<polygon fill="#DAD5DC" points="167.78,721.679 169.91,730.144 203.664,690.714 "/>
<polygon fill="#D3CED4" points="170.112,702.054 167.78,721.679 185.839,690.687 "/>
<polygon fill="#E3E1E6" points="167.871,658.082 153.305,671.339 185.839,690.687 "/>
<polygon fill="#F9F7FA" points="153.305,671.339 169.757,700.582 185.839,690.687 "/>
<polygon fill="#E3E1E6" points="236.214,653.144 244.944,665.441 246.671,663.16 "/>
<polygon fill="#CDC8CE" points="167.371,638.281 167.871,658.082 186.882,632.23 "/>
<polygon fill="#F2EDF4" points="142.852,768.953 46.589,773.261 200.675,973.269 "/>
<polygon fill="#CFCAD1" points="326.875,647.953 315.276,677.652 351.167,671.222 "/>
<polygon fill="#EBEAF0" points="315.276,677.652 240.882,698.113 325.667,814.242 "/>
<polygon fill="#F9F7FA" points="46.589,773.261 14.453,784.761 200.675,973.269 "/>
<polygon fill="#D3CED4" points="239.477,639.917 236.214,653.144 246.671,663.16 "/>
<polygon fill="#C7C5C8" points="186.882,632.23 204.093,640.859 219.324,613.902 "/>
<polygon fill="#CBC6CC" points="252.703,613.761 258.132,619.109 258.895,609.562 "/>
<polygon fill="#DEDCE1" points="219.324,613.902 204.093,640.859 233.022,623.078 "/>
<polygon fill="#C9C8CD" points="258.132,619.109 278.003,638.148 278.772,623.234 "/>
<polygon fill="#F9F7FC" points="236.214,653.144 203.664,690.714 244.944,665.441 "/>
<polygon fill="#D2D1D6" points="265.093,615.464 258.132,619.109 278.772,623.234 "/>
<polygon fill="#E6E5EA" points="233.022,623.078 204.093,640.859 239.477,639.917 "/>
<polygon fill="#EFEEF3" points="204.093,640.859 236.214,653.144 239.477,639.917 "/>
<polygon fill="#F2F1F6" points="203.664,690.714 240.882,698.113 244.944,665.441 "/>
<polygon fill="#D0CED1" points="252.703,613.761 233.022,623.078 258.132,619.109 "/>
<polygon fill="#EEECEF" points="233.022,623.078 239.477,639.917 258.132,619.109 "/>
<polygon fill="#FEFDFF" points="246.671,663.16 244.944,665.441 261.479,670.152 "/>
<polygon fill="#D0CED3" points="258.895,609.562 258.132,619.109 265.093,615.464 "/>
<polygon fill="#F4F2F7" points="290.886,625.007 288.355,632.601 291.938,631.734 "/>
<polygon fill="#E3E1E6" points="244.944,665.441 240.882,698.113 261.479,670.152 "/>
<polygon fill="#CEC9CF" points="246.671,663.16 261.479,670.152 263.136,663.609 "/>
<polygon fill="#EAE8ED" points="261.479,670.152 240.882,698.113 315.276,677.652 "/>
<polygon fill="#DFDDE2" points="239.477,639.917 246.671,663.16 263.136,663.609 "/>
<polygon fill="#BFBDC2" points="263.136,663.609 261.479,670.152 275.233,657.074 "/>
<polygon fill="#D8D7DC" points="258.132,619.109 239.477,639.917 278.003,638.148 "/>
<polygon fill="#DBDADF" points="239.477,639.917 263.136,663.609 278.003,638.148 "/>
<polygon fill="#FDFBFF" points="263.136,663.609 275.233,657.074 278.003,638.148 "/>
<polygon fill="#DDDEE2" points="278.772,623.234 278.003,638.148 288.355,632.601 "/>
<polygon fill="#DFDAE0" points="278.772,623.234 288.355,632.601 290.886,625.007 "/>
<polygon fill="#E6E5EA" points="301.516,624.898 291.938,631.734 302.214,646.863 "/>
<polygon fill="#D0CBD1" points="275.233,657.074 261.479,670.152 315.276,677.652 "/>
<polygon fill="#FDFCFF" points="288.355,632.601 278.003,638.148 299.332,651.695 "/>
<polygon fill="#EFEDF2" points="290.886,625.007 291.938,631.734 295.082,626.167 "/>
<polygon fill="#DFDEE3" points="240.882,698.113 169.91,730.144 325.667,814.242 "/>
<polygon fill="#EEEDF2" points="291.938,631.734 288.355,632.601 299.332,651.695 "/>
<polygon fill="#EAE9EE" points="278.003,638.148 275.233,657.074 299.332,651.695 "/>
<polygon fill="#F7F7F9" points="291.938,631.734 299.332,651.695 302.214,646.863 "/>
<polygon fill="#E7E5EA" points="295.082,626.167 291.938,631.734 301.516,624.898 "/>
<polygon fill="#EBE8EF" points="169.91,730.144 142.852,768.953 325.667,814.242 "/>
<polygon fill="#C4BFC6" points="312.145,658.785 299.332,651.695 315.276,677.652 "/>
<polygon fill="#B6B1B7" points="299.332,651.695 275.233,657.074 315.276,677.652 "/>
<polygon fill="#FAFBFD" points="325.979,619.23 326.875,647.953 327.957,620.687 "/>
<polygon fill="#CBC8CF" points="142.852,768.953 200.675,973.269 325.667,814.242 "/>
<polygon fill="#D3D0D7" points="359.897,610.664 362.136,619.91 362.343,612.121 "/>
<polygon fill="#E7E2E6" points="325.979,619.23 301.516,624.898 326.875,647.953 "/>
<polygon fill="#FDFDFD" points="301.516,624.898 302.214,646.863 326.875,647.953 "/>
<polygon fill="#D8D1D6" points="315.598,615.07 301.516,624.898 325.979,619.23 "/>
<polygon fill="#DDDBE0" points="326.875,647.953 351.167,671.222 360.112,623.261 "/>
<polygon fill="#C0BBC2" points="312.145,658.785 315.276,677.652 326.875,647.953 "/>
<polygon fill="#FEFEFF" points="302.214,646.863 312.145,658.785 326.875,647.953 "/>
<polygon fill="#E7E5EA" points="351.167,671.222 315.276,677.652 367.848,682.765 "/>
<polygon fill="#CFCDD2" points="327.957,620.687 326.875,647.953 360.112,623.261 "/>
<polygon fill="#CDC8CF" points="359.897,610.664 351.914,605.511 360.112,623.261 "/>
<polygon fill="#D1CFD4" points="351.914,605.511 327.957,620.687 360.112,623.261 "/>
<polygon fill="#D1CFD2" points="325.979,619.23 327.957,620.687 351.292,604.91 "/>
<polygon fill="#CBC9CC" points="315.598,615.07 325.979,619.23 351.292,604.91 "/>
<polygon fill="#AAA8AD" points="351.292,604.91 327.957,620.687 351.914,605.511 "/>
<polygon fill="#BBB6BC" points="325.667,814.242 200.675,973.269 374.667,894.242 "/>
<polygon fill="#F7F5FA" points="815.624,1266.469 779.508,1259.12 799.754,1329.808 "/>
<polygon fill="#E7E2E8" points="829.172,1251.469 810.535,1257.886 815.624,1266.469 "/>
<polygon fill="#DDD6DD" points="817.519,1237.739 810.535,1257.886 829.172,1251.469 "/>
<polygon fill="#D8D3CD" points="884.902,1255.78 877.313,1298.854 889.32,1255.042 "/>
<polygon fill="#CEC4CD" points="804.457,1240.493 782.815,1246.926 810.535,1257.886 "/>
<polygon fill="#D0C9D0" points="817.519,1237.739 804.457,1240.493 810.535,1257.886 "/>
<polygon fill="#D6CAD4" points="782.815,1246.926 779.508,1259.12 810.535,1257.886 "/>
<polygon fill="#EAE9EE" points="889.031,1328.057 897.893,1343.522 941.326,1319.042 "/>
<polygon fill="#F7F2F6" points="810.535,1257.886 779.508,1259.12 815.624,1266.469 "/>
<polygon fill="#DDDCE1" points="829.172,1251.469 815.624,1266.469 854.038,1258.585 "/>
<polygon fill="#FAF8FB" points="889.585,1290.208 875.605,1264.442 858.63,1309.058 "/>
<polygon fill="#F5F0F4" points="854.266,1256.545 854.038,1258.585 869.185,1257.578 "/>
<polygon fill="#FEFCFF" points="854.038,1258.585 855.755,1310.459 858.63,1309.058 "/>
<polygon fill="#F4EFF3" points="879.307,1261.71 869.185,1257.578 875.605,1264.442 "/>
<polygon fill="#C7C5CA" points="872.437,1319.048 858.63,1309.058 871.337,1320.09 "/>
<polygon fill="#F4EDF2" points="869.185,1257.578 854.038,1258.585 875.605,1264.442 "/>
<polygon fill="#EBE9EE" points="908.339,1296.226 889.031,1328.057 941.326,1319.042 "/>
<polygon fill="#E0DBE1" points="872.437,1319.048 871.337,1320.09 889.031,1328.057 "/>
<polygon fill="#C7C2C8" points="858.63,1309.058 858.063,1319.208 871.337,1320.09 "/>
<polygon fill="#F7F5FA" points="875.605,1264.442 854.038,1258.585 858.63,1309.058 "/>
<polygon fill="#F9F7FC" points="854.038,1258.585 815.624,1266.469 855.755,1310.459 "/>
<polygon fill="#F6F4F7" points="879.307,1261.71 875.605,1264.442 889.585,1290.208 "/>
<polygon fill="#B9B5B6" points="923.272,1250.278 879.307,1261.71 889.585,1290.208 "/>
<polygon fill="#F6F4F9" points="815.624,1266.469 799.754,1329.808 855.755,1310.459 "/>
<polygon fill="#D1CDCA" points="923.272,1250.278 889.585,1290.208 930.548,1274.997 "/>
<polygon fill="#D7D2D8" points="858.063,1319.208 853.162,1327.852 871.337,1320.09 "/>
<polygon fill="#E1E0E5" points="925.843,1285.142 889.585,1290.208 925.255,1285.921 "/>
<polygon fill="#F2F1F6" points="925.255,1285.921 889.585,1290.208 908.339,1296.226 "/>
<polygon fill="#C8C3C9" points="858.63,1309.058 855.755,1310.459 858.063,1319.208 "/>
<polygon fill="#CBC7C8" points="930.548,1274.997 889.585,1290.208 925.843,1285.142 "/>
<polygon fill="#CEC9CF" points="853.162,1327.852 855.755,1310.459 846.886,1333.917 "/>
<polygon fill="#D1D0D5" points="855.755,1310.459 799.754,1329.808 846.886,1333.917 "/>
<polygon fill="#D3CED4" points="858.063,1319.208 855.755,1310.459 853.162,1327.852 "/>
<polygon fill="#FBFAFF" points="889.585,1290.208 858.63,1309.058 872.437,1319.048 "/>
<polygon fill="#F6F4F7" points="941.326,1319.042 897.893,1343.522 946.688,1353.01 "/>
<polygon fill="#FAF9FE" points="889.031,1328.057 853.162,1327.852 897.893,1343.522 "/>
<polygon fill="#ECE9F0" points="897.893,1343.522 846.886,1333.917 910.033,1379.475 "/>
<polygon fill="#DAD5DC" points="853.162,1327.852 846.886,1333.917 897.893,1343.522 "/>
<polygon fill="#D3CED4" points="871.337,1320.09 853.162,1327.852 889.031,1328.057 "/>
<polygon fill="#E3E1E6" points="908.339,1296.226 889.585,1290.208 889.031,1328.057 "/>
<polygon fill="#F9F7FA" points="889.585,1290.208 872.437,1319.048 889.031,1328.057 "/>
<polygon fill="#F7F2F6" points="799.754,1329.808 749.237,1247.814 708.666,1448.891 "/>
<polygon fill="#F9F7FA" points="749.237,1247.814 726.468,1223.836 708.666,1448.891 "/>
<polygon fill="#F9F7FC" points="946.688,1353.01 897.893,1343.522 940.381,1366.709 "/>
<polygon fill="#F2F1F6" points="897.893,1343.522 910.033,1379.475 940.381,1366.709 "/>
<polygon fill="#DFDEE3" points="910.033,1379.475 846.886,1333.917 851.629,1510.865 "/>
<polygon fill="#EBE8EF" points="846.886,1333.917 799.754,1329.808 851.629,1510.865 "/>
<polygon fill="#EBEAF0" points="799.754,1329.808 708.666,1448.891 864.309,1503.573 "/>
<polygon fill="#BBB6BC" points="864.309,1503.573 708.666,1448.891 841.784,1573.051 "/>
<polygon fill="#CCCBD0" points="359.897,610.664 360.112,623.261 362.136,619.91 "/>
<polygon fill="#E7E6EB" points="367.848,682.765 315.276,677.652 378.667,755.242 "/>
<polygon fill="#DAD7DE" points="359.897,610.664 362.343,612.121 372.102,609.593 "/>
<polygon fill="#CFCCD3" points="362.343,612.121 362.136,619.91 372.102,609.593 "/>
<polygon fill="#D6D3DA" points="315.276,677.652 325.667,814.242 378.667,755.242 "/>
<polygon fill="#D0CFD4" points="362.136,619.91 360.112,623.261 382.151,632.953 "/>
<polygon fill="#D4D2D7" points="360.112,623.261 351.167,671.222 382.151,632.953 "/>
<polygon fill="#F4F3F8" points="351.167,671.222 367.848,682.765 382.151,632.953 "/>
<polygon fill="#E0DBE2" points="382.151,632.953 367.848,682.765 390.789,633.484 "/>
<polygon fill="#DCDADF" points="390.789,633.484 367.848,682.765 421.773,666.816 "/>
<polyline fill="#C6C3CA" points="421.773,666.816 367.848,682.765 432.597,741.359 "/>
<polygon fill="#A8A3AA" points="421.773,666.816 432.597,741.359 475.867,728.914 "/>
<polygon fill="#C0BBC1" points="367.848,682.765 378.667,755.242 432.597,741.359 "/>
<polygon fill="#EBE9EE" points="390.789,633.484 421.773,666.816 441.089,614.25 "/>
<polygon fill="#EBE9EC" points="481.324,625.132 442.394,614.91 471.16,652.503 "/>
<polygon fill="#ADA8AF" points="421.773,666.816 475.867,728.914 489.503,690.23 "/>
<polygon fill="#ABA8AF" points="471.16,652.503 421.773,666.816 489.503,690.23 "/>
<polygon fill="#F6F4F7" points="441.089,614.25 421.773,666.816 471.16,652.503 "/>
<polyline fill="#DED9DD" points="883.846,819.73 889.846,755.73 832.791,778.058 883.846,819.73 "/>
<polygon fill="#DBDADF" points="749.732,647.753 761.713,668.496 787.846,580.73 "/>
<polygon fill="#F9F4F8" points="703.291,603.757 701.092,611.863 706.029,602.765 "/>
<polygon fill="#FFFFFF" points="703.291,603.757 706.029,602.765 707.549,601.664 "/>
<polygon fill="#FCFCFE" points="689.682,573.718 703.291,603.757 707.549,601.664 "/>
<polygon fill="#FFFFFF" points="707.549,601.664 701.092,611.863 732.107,635.96 "/>
<polygon fill="#FFFFFF" points="706.029,602.765 701.092,611.863 707.549,601.664 "/>
<polygon fill="#FFFFFF" points="689.682,573.718 707.549,601.664 724.408,583.648 "/>
<polygon fill="#FFFFFF" points="724.408,583.648 707.549,601.664 732.107,635.96 "/>
<polygon fill="#EBE9EC" points="795.646,476.777 818.408,525.785 730.166,513.371 "/>
<polygon fill="#CCC7CE" points="749.732,647.753 739.814,647.91 761.713,668.496 "/>
<polygon fill="#E0DBE2" points="732.107,635.96 739.814,647.91 749.732,647.753 "/>
<polyline fill="#F0EEF1" points="730.166,513.371 787.846,580.73 818.408,525.785 730.166,513.371 "/>
<polygon fill="#E8E6EB" points="732.107,635.96 749.732,647.753 787.846,580.73 "/>
<polygon fill="#FAFBFD" points="724.408,583.648 732.107,635.96 787.846,580.73 "/>
<polygon fill="#EBEAEF" points="730.166,513.371 724.408,583.648 787.846,580.73 "/>
<polygon fill="#BCB9C0" points="787.846,580.73 854.568,635.453 854.658,630.554 "/>
<polygon fill="#C1BCC3" points="761.713,668.496 768.846,716.73 820.846,711.73 "/>
<polygon fill="#D2CDD3" points="761.713,668.496 820.846,711.73 827.994,698.48 "/>
<polyline fill="#E1DFE2" points="842.615,497.16 818.408,525.785 848.041,498.562 "/>
<polygon fill="#BDBAC1" points="854.041,622.476 787.846,580.73 854.658,630.554 "/>
<polyline fill="#E8E6E9" points="839.443,493.75 818.408,525.785 842.615,497.16 839.443,493.75 "/>
<polygon fill="#CCCACF" points="818.408,525.785 787.846,580.73 837.846,583.73 "/>
<polygon fill="#F4F4F6" points="795.646,476.777 818.408,525.785 839.443,493.75 "/>
<polygon fill="#CAC7CE" points="837.846,583.73 787.846,580.73 852.986,614.738 "/>
<polygon fill="#C0BDC4" points="852.986,614.738 787.846,580.73 854.041,622.476 "/>
<polygon fill="#D4D3D8" points="854.568,635.453 827.994,698.48 863.811,653.718 "/>
<polygon fill="#D0D1D5" points="787.846,580.73 761.713,668.496 854.568,635.453 "/>
<polygon fill="#C7C4CB" points="761.713,668.496 827.994,698.48 854.568,635.453 "/>
<polygon fill="#E6E1E8" points="863.811,653.718 827.994,698.48 889.846,755.73 "/>
<polygon fill="#E6E1E7" points="820.846,711.73 832.791,778.058 889.846,755.73 "/>
<polygon fill="#E4DFE5" points="827.994,698.48 820.846,711.73 889.846,755.73 "/>
<polygon fill="#FFFFFF" points="872.912,638.281 863.811,653.718 899.814,633.289 "/>
<polygon fill="#F0EEF1" points="863.811,653.718 889.846,755.73 899.814,633.289 "/>
<polygon fill="#FFFFFF" points="899.814,633.289 889.846,755.73 912.701,630.742 "/>
<polygon fill="#D9D8DD" points="943.549,601.824 970.791,619.894 975.479,592.031 "/>
<polygon fill="#C9C7CC" points="934.619,621.824 935.732,623.257 943.549,601.824 "/>
<polygon fill="#E4E3E8" points="975.479,592.031 970.791,619.894 981.053,595.785 "/>
<polygon fill="#D5D0D6" points="943.549,601.824 935.732,623.257 970.791,619.894 "/>
<polygon fill="#F5F4F9" points="970.791,619.894 935.732,623.257 1000.311,731.789 "/>
<polyline fill="#E9E2E9" points="883.846,819.73 1000.311,731.789 889.846,755.73 883.846,819.73 "/>
<polygon fill="#FFFFFF" points="912.701,630.742 889.846,755.73 1000.311,731.789 "/>
<polygon fill="#FAF8FB" points="935.732,623.257 912.701,630.742 1000.311,731.789 "/>
<polyline fill="#F7F2F6" points="1025.846,827.73 1000.311,731.789 883.846,819.73 "/>
<polygon fill="#F4F2F7" points="1029.213,561.832 1045.861,575.019 1049.799,558.636 "/>
<polygon fill="#FAF8FB" points="1054.811,537.98 1049.799,558.636 1066.279,549.378 "/>
<polygon fill="#A7A2A9" points="1057.6,692.058 1093.377,678.054 1101.697,645.89 "/>
<polygon fill="#FFFFFF" points="1029.213,561.832 1049.799,558.636 1054.811,537.98 "/>
<polygon fill="#B6B3BA" points="1057.6,692.058 1000.311,731.789 1080.146,776.73 "/>
<polygon fill="#DAD8DB" points="1029.213,561.832 981.053,595.785 1045.861,575.019 "/>
<polygon fill="#D1CCD2" points="981.053,595.785 970.791,619.894 1045.861,575.019 "/>
<polygon fill="#EBE9EC" points="1045.861,575.019 970.791,619.894 1057.6,692.058 "/>
<polygon fill="#DBD9DC" points="970.791,619.894 1000.311,731.789 1057.6,692.058 "/>
<polyline fill="#CCC5CC" points="1025.846,827.73 1080.146,776.73 1000.311,731.789 1025.846,827.73 "/>
<polygon fill="#D0CED1" points="1045.861,575.019 1057.6,692.058 1101.697,645.89 "/>
<polygon fill="#A8A1A9" points="1093.377,678.054 1057.6,692.058 1114.229,720.246 "/>
<polygon fill="#C1BCC2" points="1057.6,692.058 1080.146,776.73 1114.229,720.246 "/>
<polygon fill="#FFFFFF" points="758.41,1739.909 743.803,1729.527 761.097,1767.138 "/>
<polygon fill="#F0EEF1" points="743.803,1729.527 639.947,1746.792 761.097,1767.138 "/>
<polygon fill="#FFFFFF" points="761.097,1767.138 639.947,1746.792 762.538,1780.195 "/>
<polygon fill="#D9D8DD" points="788.727,1813.39 768.405,1838.997 795.77,1846.037 "/>
<polygon fill="#C9C7CC" points="769.559,1802.792 768.036,1803.779 788.727,1813.39 "/>
<polygon fill="#E4E3E8" points="795.77,1846.037 768.405,1838.997 791.555,1851.272 "/>
<polygon fill="#D5D0D6" points="788.727,1813.39 768.036,1803.779 768.405,1838.997 "/>
<polygon fill="#F5F4F9" points="768.405,1838.997 768.036,1803.779 654.406,1858.892 "/>
<polyline fill="#E9E2E9" points="576.689,1735.37 654.406,1858.892 639.947,1746.792 576.689,1735.37 "/>
<polygon fill="#FFFFFF" points="762.538,1780.195 639.947,1746.792 654.406,1858.892 "/>
<polygon fill="#FAF8FB" points="768.036,1803.779 762.538,1780.195 654.406,1858.892 "/>
<polygon fill="#F4F2F7" points="821.289,1902.145 806.732,1917.612 822.721,1922.928 "/>
<polygon fill="#A7A2A9" points="689.12,1919.353 700.03,1956.192 731.37,1967.217 "/>
<polygon fill="#B6B3BA" points="689.12,1919.353 654.406,1858.892 602.837,1934.617 "/>
<polygon fill="#DAD8DB" points="821.289,1902.145 791.555,1851.272 806.732,1917.612 "/>
<polygon fill="#D1CCD2" points="791.555,1851.272 768.405,1838.997 806.732,1917.612 "/>
<polygon fill="#EBE9EC" points="806.732,1917.612 768.405,1838.997 689.12,1919.353 "/>
<polygon fill="#DBD9DC" points="768.405,1838.997 654.406,1858.892 689.12,1919.353 "/>
<polyline fill="#F7F2F6" points="556.641,1876.175 654.406,1858.892 602.837,1934.617 556.641,1876.175 576.689,1735.37 
	654.406,1858.892 556.641,1876.175 "/>
<polygon fill="#D0CED1" points="806.732,1917.612 689.12,1919.353 731.37,1967.217 "/>
<polygon fill="#A8A1A9" points="700.03,1956.192 689.12,1919.353 656.218,1973.379 "/>
<polygon fill="#C1BCC2" points="689.12,1919.353 602.837,1934.617 656.218,1973.379 "/>
<polyline fill="#DED9DD" points="1107.813,177.702 1146.03,126.016 1085.647,115.639 1107.813,177.702 "/>
<polygon fill="#E6E1E8" points="1176.471,25.23 1122.674,45.036 1146.03,126.016 "/>
<polygon fill="#E6E1E7" points="1109.705,52.684 1085.647,115.639 1146.03,126.016 "/>
<polygon fill="#E4DFE5" points="1122.674,45.036 1109.705,52.684 1146.03,126.016 "/>
<polygon fill="#FFFFFF" points="1192.242,16.72 1176.471,25.23 1217.853,26.352 "/>
<polygon fill="#F0EEF1" points="1176.471,25.23 1146.03,126.016 1217.853,26.352 "/>
<polygon fill="#FFFFFF" points="1217.853,26.352 1146.03,126.016 1230.2,30.832 "/>
<polygon fill="#F5F4F9" points="1285.535,51.572 1253.785,36.33 1252.969,162.618 "/>
<polyline fill="#E9E2E9" points="1107.813,177.702 1252.969,162.618 1146.03,126.016 1107.813,177.702 "/>
<polygon fill="#FFFFFF" points="1230.2,30.832 1146.03,126.016 1252.969,162.618 "/>
<polygon fill="#FAF8FB" points="1253.785,36.33 1230.2,30.832 1252.969,162.618 "/>
<polygon fill="#F7F2F6" points="1107.813,177.702 1252.969,162.618 1225.238,257.948 "/>
<polyline fill="#DED9DD" points="146.996,1083.925 208.362,993.898 139.903,996.897 146.996,1083.925 "/>
<polygon fill="#E6E1E8" points="275.703,832 205.714,878.622 208.362,993.898 "/>
<polygon fill="#E6E1E7" points="187.953,894.208 139.903,996.897 208.362,993.898 "/>
<polygon fill="#E4DFE5" points="205.714,878.622 187.953,894.208 208.362,993.898 "/>
<polygon fill="#FFFFFF" points="297.058,814.242 275.703,832 324.474,820.883 "/>
<polygon fill="#F0EEF1" points="275.703,832 208.362,993.898 324.474,820.883 "/>
<polygon fill="#FFFFFF" points="324.474,820.883 208.362,993.898 337.743,823.837 "/>
<polygon fill="#F5F4F9" points="397.001,838.079 364.035,824.852 323.96,1016.159 "/>
<polyline fill="#E9E2E9" points="146.996,1083.925 323.96,1016.159 208.362,993.898 146.996,1083.925 "/>
<polygon fill="#FFFFFF" points="337.743,823.837 208.362,993.898 323.96,1016.159 "/>
<polygon fill="#FAF8FB" points="364.035,824.852 337.743,823.837 323.96,1016.159 "/>
<polygon fill="#F6F5F3" points="1184.831,1625.834 1127.614,1626.799 1128.722,1649.963 "/>
<polygon fill="#E6E2E1" points="1220.617,1580.099 1197.044,1491.971 1170.622,1589.049 "/>
<polygon fill="#EFEFED" points="1138.926,1665.311 1184.831,1625.834 1128.722,1649.963 "/>
<polygon fill="#EFEFED" points="1218.694,1616.473 1220.617,1580.099 1170.622,1589.049 "/>
<polygon fill="#ECECEC" points="1200.562,1625.698 1218.694,1616.473 1170.622,1589.049 "/>
<polygon fill="#F4F5F7" points="1184.831,1625.834 1200.562,1625.698 1170.622,1589.049 "/>
<polygon fill="#F2F0F1" points="1184.831,1625.834 1170.622,1589.049 1127.614,1626.799 "/>
<polygon fill="#F0EEEF" points="1089.898,1715.269 1073.585,1666.547 1078.591,1723.391 "/>
<polygon fill="#F3F1F2" points="1128.722,1649.963 1127.614,1626.799 1073.585,1666.547 "/>
<polygon fill="#EDE9EA" points="1127.614,1626.799 1170.622,1589.049 1018.456,1545.499 "/>
<polygon fill="#E6E4E7" points="1073.585,1666.547 1127.614,1626.799 1018.456,1545.499 "/>
<polygon fill="#E2E2E2" points="1043.232,1759.374 1078.591,1723.391 1039.617,1748.282 "/>
<polygon fill="#F4F3F1" points="1078.591,1723.391 1073.585,1666.547 1039.617,1748.282 "/>
<polygon fill="#DCDADD" points="1073.585,1666.547 1018.456,1545.499 990.921,1588.936 "/>
<polygon fill="#E8E8EA" points="1043.232,1759.374 1039.617,1748.282 1006.669,1770.044 "/>
<polygon fill="#D8D1D6" points="990.921,1588.936 1018.456,1545.499 974.823,1576.191 "/>
<polygon fill="#EFEFEF" points="1006.669,1770.044 1039.617,1748.282 991.254,1763.12 "/>
<polygon fill="#E6E1E5" points="1073.585,1666.547 990.921,1588.936 954.028,1696.897 "/>
<polygon fill="#F4F4F2" points="1039.617,1748.282 1073.585,1666.547 954.028,1696.897 "/>
<polygon fill="#FAF9F7" points="991.254,1763.12 1039.617,1748.282 954.028,1696.897 "/>
<polygon fill="#F6F5F3" points="173.311,1718.347 230.507,1720.182 230.534,1696.992 "/>
<polygon fill="#E6E2E1" points="135.331,1762.278 154.565,1851.454 185.704,1755.784 "/>
<polygon fill="#EFEFED" points="221.092,1681.164 173.311,1718.347 230.534,1696.992 "/>
<polygon fill="#EFEFED" points="139.031,1726.042 135.331,1762.278 185.704,1755.784 "/>
<polygon fill="#ECECEC" points="157.593,1717.714 139.031,1726.042 185.704,1755.784 "/>
<polygon fill="#F4F5F7" points="173.311,1718.347 157.593,1717.714 185.704,1755.784 "/>
<polygon fill="#F2F0F1" points="173.311,1718.347 185.704,1755.784 230.507,1720.182 "/>
<polygon fill="#F3F1F2" points="230.534,1696.992 230.507,1720.182 286.416,1683.125 "/>
<polygon fill="#EDE9EA" points="230.507,1720.182 185.704,1755.784 335.558,1806.725 "/>
<polygon fill="#E6E4E7" points="286.416,1683.125 230.507,1720.182 335.558,1806.725 "/>
<polygon fill="#DCDADD" points="286.416,1683.125 335.558,1806.725 365.184,1764.687 "/>
<polygon fill="#D8D1D6" points="365.184,1764.687 335.558,1806.725 380.639,1778.205 "/>
</svg>
