<?xml version="1.0" encoding="utf-8"?>
<!-- Generator: Adobe Illustrator 16.0.0, SVG Export Plug-In . SVG Version: 6.00 Build 0)  -->
<!DOCTYPE svg PUBLIC "-//W3C//DTD SVG 1.1//EN" "http://www.w3.org/Graphics/SVG/1.1/DTD/svg11.dtd">
<svg version="1.1" id="Layer_1" xmlns="http://www.w3.org/2000/svg" xmlns:xlink="http://www.w3.org/1999/xlink" x="0px" y="0px"
	 width="989.262px" height="704.852px" viewBox="648.41 276.148 989.262 704.852"
	 enable-background="new 648.41 276.148 989.262 704.852" xml:space="preserve">
<polygon fill="#A9ACB3" points="669.074,546.336 648.41,546.953 673.461,592.977 "/>
<polygon fill="#798699" points="813.551,616.512 820.551,643.449 821.008,643.457 "/>
<polygon fill="#858C9E" points="648.41,546.953 669.074,546.336 671,542 "/>
<polygon fill="#9498A4" points="691,546 669.074,546.336 692,556 "/>
<polygon fill="#A1A5B0" points="687,537 671,542 691,546 "/>
<polygon fill="#A3A8AE" points="770,571 784,589 787,574 "/>
<polygon fill="#9599A5" points="671,542 669.074,546.336 691,546 "/>
<polygon fill="#79859B" points="669.195,512.184 671,542 687,537 "/>
<polygon fill="#AFB0B5" points="692,556 673.461,592.977 715,593 "/>
<polygon fill="#AEAEB8" points="691.148,453.656 687.766,454.621 694,460 "/>
<polygon fill="#828DA1" points="668,509 669.195,512.184 690,504 "/>
<polygon fill="#838EA2" points="669.195,512.184 687,537 690,504 "/>
<polygon fill="#D2D3CE" points="714,509 733,518 739,490 "/>
<polygon fill="#BBBBB9" points="692,556 715,593 724.168,562.238 "/>
<polygon fill="#AEAFB1" points="669.074,546.336 673.461,592.977 692,556 "/>
<polygon fill="#99A0B2" points="668,509 690,504 694,460 "/>
<polygon fill="#AAADB6" points="700,509 706,533 714,509 "/>
<polygon fill="#9AA0AE" points="690,504 687,537 700,509 "/>
<polygon fill="#B6BBBE" points="687.766,454.621 668,509 694,460 "/>
<polygon fill="#ABAEB7" points="703,488 700,509 714,509 "/>
<polygon fill="#9B9FAB" points="691,546 692,556 706,533 "/>
<polygon fill="#9DA3AF" points="700,509 687,537 706,533 "/>
<polygon fill="#969CA8" points="687,537 691,546 706,533 "/>
<polygon fill="#A7ADB9" points="690,504 700,509 703,488 "/>
<polygon fill="#BFC0C5" points="694,460 690,504 703,488 "/>
<polygon fill="#A9ACB1" points="706,533 692,556 724.168,562.238 "/>
<polygon fill="#8C8F96" points="750,596 785.152,656.098 793.297,631.227 "/>
<polygon fill="#C1C2C4" points="839.91,522.754 810,543 844.68,539.043 "/>
<polygon fill="#D0D0CE" points="722.547,479.988 714,509 739,490 "/>
<polygon fill="#CCCCCE" points="694,460 703,488 722.547,479.988 "/>
<polygon fill="#B7B9B8" points="810,543 806,563 844.68,539.043 "/>
<polygon fill="#C7C9C8" points="703,488 714,509 722.547,479.988 "/>
<polygon fill="#C2C3BE" points="724.168,562.238 745,560 748,547 "/>
<polygon fill="#B5B9BC" points="714,509 706,533 733,518 "/>
<polygon fill="#A1A4A9" points="806,563 784,589 813.551,616.512 "/>
<polygon fill="#C4C6C5" points="722.547,479.988 753,487 755.293,444.48 "/>
<polygon fill="#C0C1BC" points="745,560 724.168,562.238 750,596 "/>
<polygon fill="#AEAFB1" points="724.168,562.238 715,593 750,596 "/>
<polygon fill="#9D9FAB" points="793.527,535.68 806,563 810,543 "/>
<polygon fill="#8E909C" points="784,589 793.297,631.227 813.551,616.512 "/>
<polygon fill="#9B9EA7" points="800,503 793.527,535.68 810,543 "/>
<polygon fill="#CBCCC7" points="706,533 724.168,562.238 748,547 "/>
<polygon fill="#BABAB8" points="733,518 706,533 748,547 "/>
<polygon fill="#D3D3D1" points="722.547,479.988 739,490 753,487 "/>
<polygon fill="#CDCDCD" points="694,460 722.547,479.988 755.293,444.48 "/>
<polygon fill="#B4B7BE" points="691.148,453.656 694,460 755.293,444.48 "/>
<polygon fill="#B7B9B8" points="745,560 750,596 770,571 "/>
<polygon fill="#C9CAC5" points="733,518 748,547 764,512 "/>
<polygon fill="#D0D1CC" points="753,487 739,490 764,512 "/>
<polygon fill="#D2D3CE" points="739,490 733,518 764,512 "/>
<polygon fill="#BDBDBD" points="748,547 745,560 770,571 "/>
<polygon fill="#B2B3B7" points="770,571 787,574 793.527,535.68 "/>
<polygon fill="#ABACB0" points="748,547 770,571 793.527,535.68 "/>
<polygon fill="#AAAAB4" points="753,487 800,503 807.832,460.371 "/>
<polygon fill="#ADAEB0" points="770,571 750,596 784,589 "/>
<polygon fill="#C2C2C2" points="834.391,479.5 827.32,478.977 839.91,522.754 "/>
<polygon fill="#B4B8C3" points="755.293,444.48 753,487 790.434,440.461 "/>
<polygon fill="#9DA0A7" points="784,589 750,596 793.297,631.227 "/>
<polygon fill="#A4A5A7" points="764,512 748,547 793.527,535.68 "/>
<polygon fill="#A0A3AA" points="764,512 793.527,535.68 800,503 "/>
<polygon fill="#A2A7AD" points="793.527,535.68 787,574 806,563 "/>
<polygon fill="#999DA8" points="753,487 764,512 800,503 "/>
<polygon fill="#A6A9B0" points="787,574 784,589 806,563 "/>
<polygon fill="#B3B7BA" points="827.32,478.977 800,503 839.91,522.754 "/>
<polygon fill="#ACB0B9" points="790.434,440.461 753,487 807.832,460.371 "/>
<polygon fill="#C3C3C3" points="807.832,460.371 800,503 827.32,478.977 "/>
<polygon fill="#B9BBBA" points="800,503 810,543 839.91,522.754 "/>
<polygon fill="#818591" points="793.297,631.227 785.152,656.098 820.551,643.449 "/>
<polygon fill="#A2A7AD" points="813.551,616.512 793.297,631.227 820.551,643.449 "/>
<polygon fill="#747C91" points="856.621,472.164 834.391,479.5 858.426,478.219 "/>
<polygon fill="#B6BBBF" points="814.711,397.02 790.434,440.461 821.047,440.156 "/>
<polygon fill="#ABAFBA" points="790.434,440.461 807.832,460.371 821.047,440.156 "/>
<polygon fill="#9598A9" points="855.25,428.895 839.531,443.332 856.621,472.164 "/>
<polygon fill="#A0A6B2" points="839.531,443.332 821.047,440.156 841.387,461.59 "/>
<polygon fill="#B1B4BB" points="821.047,440.156 807.832,460.371 841.387,461.59 "/>
<polygon fill="#C8C8C6" points="807.832,460.371 827.32,478.977 841.387,461.59 "/>
<polygon fill="#C7C7C5" points="827.32,478.977 834.391,479.5 841.387,461.59 "/>
<polygon fill="#A8ABB2" points="834.391,479.5 839.91,522.754 858.426,478.219 "/>
<polygon fill="#798194" points="839.531,443.332 841.387,461.59 856.621,472.164 "/>
<polygon fill="#CBCBC9" points="845.277,373.461 814.711,397.02 855.25,428.895 "/>
<polygon fill="#B0B3BC" points="837.023,368.852 814.711,397.02 845.277,373.461 "/>
<polygon fill="#AFB1BD" points="860.492,584.73 813.551,616.512 877.043,625.875 "/>
<polygon fill="#7F8A9E" points="1162.766,726.133 1193,761 1193.555,721.777 "/>
<polygon fill="#B9BDC0" points="814.711,397.02 821.047,440.156 855.25,428.895 "/>
<polygon fill="#BABDC2" points="821.047,440.156 839.531,443.332 855.25,428.895 "/>
<polygon fill="#B9BABE" points="893.684,404.832 878.23,415.27 898.867,420.117 "/>
<polygon fill="#7C8393" points="841.387,461.59 834.391,479.5 856.621,472.164 "/>
<polygon fill="#919AA9" points="813.551,616.512 821.008,643.457 877.043,625.875 "/>
<polygon fill="#AFB7C2" points="957.922,364.973 954.391,369.68 963.219,384.387 "/>
<polygon fill="#A1A9B4" points="898.867,420.117 878.23,415.27 906.527,444.406 "/>
<polygon fill="#B9B9B7" points="844.68,539.043 806,563 860.492,584.73 "/>
<polygon fill="#A3A7AA" points="806,563 813.551,616.512 860.492,584.73 "/>
<polygon fill="#B7BCC0" points="845.277,373.461 855.25,428.895 875.137,402.391 "/>
<polygon fill="#A1A8B2" points="877.043,625.875 821.008,643.457 878,648 "/>
<polygon fill="#B0B1B3" points="839.91,522.754 844.68,539.043 876.172,490.461 "/>
<polygon fill="#9CA3AB" points="858.426,478.219 839.91,522.754 876.172,490.461 "/>
<polygon fill="#BEC2C3" points="860.492,584.73 877.043,625.875 891.707,581.855 "/>
<polygon fill="#C1C2C4" points="875.137,402.391 878.23,415.27 878.641,410.355 "/>
<polygon fill="#C0C4C7" points="875.137,402.391 855.25,428.895 878.23,415.27 "/>
<polygon fill="#C6C4C5" points="878.641,410.355 878.23,415.27 893.684,404.832 "/>
<polygon fill="#A0A4AF" points="855.25,428.895 892.547,468.07 906.527,444.406 "/>
<polygon fill="#ACAFB4" points="919.645,573.527 918.945,573.699 923,644 "/>
<polygon fill="#9397A0" points="876.172,490.461 844.68,539.043 882.926,560.758 "/>
<polygon fill="#717C90" points="856.621,472.164 858.426,478.219 884.723,484.055 "/>
<polygon fill="#A1A5B0" points="858.426,478.219 876.172,490.461 884.723,484.055 "/>
<polygon fill="#979FB4" points="909.652,367.004 901.168,376.285 927.371,367.965 "/>
<polygon fill="#A6AFB6" points="880.012,388.07 893.684,404.832 901.168,376.285 "/>
<polygon fill="#9A9EA9" points="878.23,415.27 855.25,428.895 906.527,444.406 "/>
<polygon fill="#9DA1AD" points="855.25,428.895 856.621,472.164 892.547,468.07 "/>
<polygon fill="#979AA9" points="856.621,472.164 884.723,484.055 892.547,468.07 "/>
<polygon fill="#B5B8BD" points="875.137,402.391 878.641,410.355 893.684,404.832 "/>
<polygon fill="#ABAEB7" points="880.012,388.07 875.137,402.391 893.684,404.832 "/>
<polygon fill="#7B8396" points="903.992,549.934 906.336,572.223 908.23,550.164 "/>
<polygon fill="#868D9D" points="906.527,444.406 892.547,468.07 909.664,455.754 "/>
<polygon fill="#7E8693" points="876.172,490.461 882.926,560.758 903.992,549.934 "/>
<polygon fill="#88909D" points="884.723,484.055 876.172,490.461 903.992,549.934 "/>
<polygon fill="#8E93A6" points="878,648 911,677 914,655 "/>
<polygon fill="#ABAEB7" points="973.375,791.023 973.613,795.223 973.969,793.074 "/>
<polygon fill="#9EA1AA" points="915.984,805.008 932.656,810.34 935.863,787.449 "/>
<polygon fill="#AFB3B6" points="918.945,573.699 891.707,581.855 923,644 "/>
<polygon fill="#9498A3" points="908.23,550.164 925.43,544.988 929.125,491.27 "/>
<polygon fill="#C0C1C3" points="909.664,455.754 892.547,468.07 929.125,491.27 "/>
<polygon fill="#96979C" points="969,916 1005,935 1008.57,914.906 "/>
<polygon fill="#B1B5B8" points="942.727,543.262 971.262,559.949 971.836,557.793 "/>
<polygon fill="#ABB2BA" points="1089.773,571.324 1073.977,580.891 1091.637,590.711 "/>
<polygon fill="#CACBCD" points="877.043,625.875 878,648 914,655 "/>
<polygon fill="#BDC4CA" points="976.828,358.18 975.867,368.238 985.328,351.207 "/>
<polygon fill="#808998" points="918.305,551.648 918.945,573.699 919.645,573.527 "/>
<polygon fill="#8A90A0" points="908.23,550.164 906.336,572.223 918.305,551.648 "/>
<polygon fill="#6C7789" points="947.938,533.59 942.727,543.262 948.027,533.977 "/>
<polygon fill="#848D9E" points="918.305,551.648 906.336,572.223 918.945,573.699 "/>
<polygon fill="#B8BCBF" points="877.043,625.875 914,655 923,644 "/>
<polygon fill="#7A8599" points="915.984,805.008 908,833 932.656,810.34 "/>
<polygon fill="#D0D2D1" points="891.707,581.855 877.043,625.875 923,644 "/>
<polygon fill="#9094A0" points="906.336,572.223 891.707,581.855 918.945,573.699 "/>
<polygon fill="#9199A6" points="940.586,455.371 929.125,491.27 951.68,463.812 "/>
<polygon fill="#9EA2AD" points="918.305,551.648 919.645,573.527 925.43,544.988 "/>
<polygon fill="#6E7C97" points="898.867,420.117 906.527,444.406 924.457,422.613 "/>
<polygon fill="#8C98A8" points="893.684,404.832 898.867,420.117 924.457,422.613 "/>
<polygon fill="#7C8BA0" points="901.168,376.285 893.684,404.832 924.457,422.613 "/>
<polygon fill="#B4BBC3" points="909.652,367.004 927.371,367.965 939.129,356.949 "/>
<polygon fill="#9FA3AC" points="908.23,550.164 918.305,551.648 925.43,544.988 "/>
<polygon fill="#B1B6BA" points="969.832,618.895 967.996,619.188 1003,649 "/>
<polygon fill="#9EA2AB" points="884.723,484.055 903.992,549.934 929.125,491.27 "/>
<polygon fill="#888E9A" points="903.992,549.934 908.23,550.164 929.125,491.27 "/>
<polygon fill="#B4B7BC" points="892.547,468.07 884.723,484.055 929.125,491.27 "/>
<polygon fill="#ADB0B5" points="925.43,544.988 919.645,573.527 942.727,543.262 "/>
<polygon fill="#B7BBBE" points="909.664,455.754 929.125,491.27 940.586,455.371 "/>
<polygon fill="#8590A4" points="906.527,444.406 909.664,455.754 940.586,455.371 "/>
<polygon fill="#C6C9CE" points="973.43,359.008 975.867,368.238 976.828,358.18 "/>
<polygon fill="#8890A3" points="914,655 911,677 942.758,677.953 "/>
<polygon fill="#929AA7" points="923,644 914,655 942.758,677.953 "/>
<polygon fill="#8A95A7" points="901.168,376.285 924.457,422.613 946.613,386.273 "/>
<polygon fill="#B6BDC3" points="927.371,367.965 901.168,376.285 946.613,386.273 "/>
<polygon fill="#A0A7B1" points="925.43,544.988 942.727,543.262 947.938,533.59 "/>
<polygon fill="#A6ABB1" points="929.125,491.27 925.43,544.988 947.938,533.59 "/>
<polygon fill="#8E95A5" points="949,792 964.367,836.758 973.613,795.223 "/>
<polygon fill="#6C7E94" points="939.129,356.949 957.922,364.973 958.691,347.473 "/>
<polygon fill="#8E91A0" points="935.863,787.449 932.656,810.34 949,792 "/>
<polygon fill="#A4A2A7" points="985.508,894.305 969,916 1008.57,914.906 "/>
<polygon fill="#979DA9" points="954.914,317.961 952.605,316.918 958.691,347.473 "/>
<polygon fill="#8D94A6" points="952.605,316.918 939.129,356.949 958.691,347.473 "/>
<polygon fill="#BBBEC5" points="939.129,356.949 927.371,367.965 954.391,369.68 "/>
<polygon fill="#A2AAB7" points="927.371,367.965 946.613,386.273 954.391,369.68 "/>
<polygon fill="#959BA7" points="932.656,810.34 908,833 955.582,854.738 "/>
<polygon fill="#7A7F92" points="908,833 913,865 955.582,854.738 "/>
<polygon fill="#A2A7AD" points="919.645,573.527 967.996,619.188 971.262,559.949 "/>
<polygon fill="#989CA8" points="989,772 993.957,805.766 1011.871,787.84 "/>
<polygon fill="#80889B" points="932.656,810.34 955.582,854.738 964.367,836.758 "/>
<polygon fill="#A2A9AF" points="951.68,463.812 929.125,491.27 964.336,497.145 "/>
<polygon fill="#8A929F" points="949,792 932.656,810.34 964.367,836.758 "/>
<polygon fill="#797E91" points="955.582,854.738 913,865 957,900 "/>
<polygon fill="#B6B8B5" points="929.125,491.27 947.938,533.59 964.336,497.145 "/>
<polygon fill="#AAADB6" points="939.129,356.949 954.391,369.68 957.922,364.973 "/>
<polygon fill="#4D6281" points="958.691,347.473 957.922,364.973 961.035,348.734 "/>
<polygon fill="#778296" points="954.914,317.961 958.691,347.473 961.035,348.734 "/>
<polygon fill="#C3C4C8" points="973.43,359.008 957.922,364.973 975.867,368.238 "/>
<polygon fill="#8D99AF" points="954.391,369.68 946.613,386.273 963.219,384.387 "/>
<polygon fill="#97A1AB" points="947,680 1000.762,670.246 1003,649 "/>
<polygon fill="#9C9FA6" points="957,900 969,916 985.508,894.305 "/>
<polygon fill="#B9BCC1" points="973.43,359.008 976.828,358.18 985.328,351.207 "/>
<polygon fill="#B5B8BF" points="923,644 942.758,677.953 967.996,619.188 "/>
<polygon fill="#BCC0C3" points="942.758,677.953 947,680 967.996,619.188 "/>
<polygon fill="#CBCBCD" points="919.645,573.527 923,644 967.996,619.188 "/>
<polygon fill="#7485A1" points="975.867,368.238 963.219,384.387 986.191,387.316 "/>
<polygon fill="#96A3B6" points="957.922,364.973 963.219,384.387 975.867,368.238 "/>
<polygon fill="#CECECE" points="977.121,617.57 1006.5,599.539 1007.883,589.746 "/>
<polygon fill="#B0B5B9" points="942.727,543.262 971.836,557.793 973.262,547.914 "/>
<polygon fill="#B4B4BC" points="968.172,535.328 942.727,543.262 973.262,547.914 "/>
<polygon fill="#A2A6AF" points="942.727,543.262 919.645,573.527 971.262,559.949 "/>
<polygon fill="#AEB2B5" points="971.262,559.949 967.996,619.188 977.121,617.57 "/>
<polygon fill="#969EB1" points="967.996,619.188 969.832,618.895 977.121,617.57 "/>
<polygon fill="#9EA1A8" points="996,847 955.582,854.738 1003.344,868.402 "/>
<polygon fill="#949AAA" points="952.605,316.918 954.914,317.961 975.137,296.695 "/>
<polygon fill="#7C879B" points="961.035,348.734 957.922,364.973 973.43,359.008 "/>
<polygon fill="#A3A8AB" points="951.68,463.812 964.336,497.145 973.84,490.684 "/>
<polygon fill="#96A1B5" points="1036.051,341.309 1022.625,360.102 1037.078,359.867 "/>
<polygon fill="#6C7C96" points="1010,665 1004.473,684.199 1021.348,681.145 "/>
<polygon fill="#CDCDCD" points="967.996,619.188 947,680 1003,649 "/>
<polygon fill="#9799A5" points="964.367,836.758 955.582,854.738 996,847 "/>
<polygon fill="#ADB1B0" points="955.582,854.738 957,900 985.508,894.305 "/>
<polygon fill="#ABACAE" points="955.582,854.738 985.508,894.305 1003.344,868.402 "/>
<polygon fill="#AAAEB9" points="973.969,793.074 973.613,795.223 993.957,805.766 "/>
<polygon fill="#969AA5" points="989,772 973.969,793.074 993.957,805.766 "/>
<polygon fill="#99A0B0" points="1075.77,290.871 1090.648,340.75 1113.547,297.934 "/>
<polygon fill="#8F95A5" points="973.613,795.223 964.367,836.758 993.957,805.766 "/>
<polygon fill="#AFB1BD" points="990.117,299.66 975.137,296.695 992.586,317.621 "/>
<polygon fill="#B2B7BD" points="975.137,296.695 954.914,317.961 992.586,317.621 "/>
<polygon fill="#808CA2" points="1000.762,670.246 1004.473,684.199 1010,665 "/>
<polygon fill="#999FAB" points="954.914,317.961 961.035,348.734 992.586,317.621 "/>
<polygon fill="#8F96A6" points="961.035,348.734 985.328,351.207 992.586,317.621 "/>
<polygon fill="#878A99" points="996,847 1003.344,868.402 1004.074,837.824 "/>
<polygon fill="#8691A3" points="1003,649 1000.762,670.246 1010,665 "/>
<polygon fill="#D6D6D4" points="1022.625,360.102 1020,405.039 1037.078,359.867 "/>
<polygon fill="#C0C2C1" points="971.836,557.793 971.262,559.949 1001.676,555.785 "/>
<polygon fill="#9198A8" points="947,680 958.512,689.617 1000.762,670.246 "/>
<polygon fill="#B9BAB5" points="971.262,559.949 977.121,617.57 1007.883,589.746 "/>
<polygon fill="#C2C4C1" points="1001.676,555.785 971.262,559.949 1007.883,589.746 "/>
<polygon fill="#B5B6BB" points="977.121,617.57 1003,649 1006.5,599.539 "/>
<polygon fill="#B5B8BD" points="1012.508,297.188 1021.941,334.848 1026.766,295.914 "/>
<polygon fill="#B1B3BF" points="990.117,299.66 1012.508,297.188 1014.129,294.605 "/>
<polygon fill="#BEC0BF" points="973.262,547.914 971.836,557.793 1001.676,555.785 "/>
<polygon fill="#B0B5B9" points="977.121,617.57 969.832,618.895 1003,649 "/>
<polygon fill="#99A1B4" points="1013.754,362.414 986.191,387.316 1020,405.039 "/>
<polygon fill="#878E9E" points="993.957,805.766 964.367,836.758 1004.074,837.824 "/>
<polygon fill="#9498A4" points="964.367,836.758 996,847 1004.074,837.824 "/>
<polygon fill="#77839B" points="1000.762,670.246 958.512,689.617 1004.473,684.199 "/>
<polygon fill="#AEB2BE" points="975.137,296.695 990.117,299.66 1014.129,294.605 "/>
<polygon fill="#CED3CD" points="1021.941,334.848 1013.754,362.414 1022.625,360.102 "/>
<polygon fill="#C0C3C8" points="1013.754,362.414 1020,405.039 1022.625,360.102 "/>
<polygon fill="#ABAFB8" points="990.117,299.66 992.586,317.621 1012.508,297.188 "/>
<polygon fill="#C5C7C4" points="1053.137,401.023 1020,405.039 1063.391,430.188 "/>
<polygon fill="#9EA7B8" points="985.328,351.207 975.867,368.238 1013.754,362.414 "/>
<polygon fill="#8190A7" points="975.867,368.238 986.191,387.316 1013.754,362.414 "/>
<polygon fill="#B0B4B7" points="1011.871,787.84 993.957,805.766 1014,805 "/>
<polygon fill="#C8CAC7" points="1007.883,589.746 1006.5,599.539 1019.336,588.074 "/>
<polygon fill="#BBBEC3" points="1077.613,348.973 1052.594,346.566 1079.91,379.262 "/>
<polygon fill="#CACECF" points="985.328,351.207 1013.754,362.414 1021.941,334.848 "/>
<polygon fill="#C0C4C5" points="1071.566,416.473 1063.391,430.188 1080.957,429.238 "/>
<polygon fill="#A0A6B2" points="1012.508,297.188 992.586,317.621 1021.941,334.848 "/>
<polygon fill="#9FA6AE" points="992.586,317.621 985.328,351.207 1021.941,334.848 "/>
<polygon fill="#B9B9C1" points="1014.129,294.605 1012.508,297.188 1026.766,295.914 "/>
<polygon fill="#878FA2" points="1026.766,295.914 1021.941,334.848 1036.051,341.309 "/>
<polygon fill="#ABB1BD" points="1021.941,334.848 1022.625,360.102 1036.051,341.309 "/>
<polygon fill="#AFB6C0" points="1037.078,359.867 1020,405.039 1053.137,401.023 "/>
<polygon fill="#7F8EA1" points="1003,649 1010,665 1040.781,660.27 "/>
<polygon fill="#77859F" points="1010,665 1021.348,681.145 1040.781,660.27 "/>
<polygon fill="#C0C3C8" points="1006.5,599.539 1003,649 1040.781,660.27 "/>
<polygon fill="#C7C6CC" points="1077.613,348.973 1088.641,366.172 1089.434,351.133 "/>
<polygon fill="#A2A8B6" points="1063.391,430.188 1062.059,444.621 1080.957,429.238 "/>
<polygon fill="#98A0AD" points="1075.77,290.871 1052.594,346.566 1077.613,348.973 "/>
<polygon fill="#96A1B3" points="1040.781,660.27 1021.348,681.145 1046.461,659.617 "/>
<polygon fill="#B7BEC6" points="1036.051,341.309 1037.078,359.867 1052.594,346.566 "/>
<polygon fill="#C9CDCE" points="1091.637,590.711 1115.105,619.465 1120.156,595.141 "/>
<polygon fill="#A9ACB5" points="1088.641,366.172 1079.91,379.262 1090.023,366.539 "/>
<polygon fill="#8B94A5" points="1058.715,651.02 1046.461,659.617 1073.645,659.805 "/>
<polygon fill="#C0C1C5" points="1040.781,660.27 1046.461,659.617 1058.715,651.02 "/>
<polygon fill="#CECDD2" points="1062.551,594.109 1046.379,584.973 1063.141,605.434 "/>
<polygon fill="#D0D1D3" points="1040.781,660.27 1058.715,651.02 1063.141,605.434 "/>
<polygon fill="#BEC2C5" points="1006.5,599.539 1040.781,660.27 1063.141,605.434 "/>
<polygon fill="#AFB4BA" points="1019.336,588.074 1006.5,599.539 1063.141,605.434 "/>
<polygon fill="#BCBFC4" points="1046.379,584.973 1019.336,588.074 1063.141,605.434 "/>
<polygon fill="#93969D" points="1042,932 1034.117,932.293 1110.5,981 "/>
<polygon fill="#CCCBD0" points="1081.688,347.344 1077.613,348.973 1089.434,351.133 "/>
<polygon fill="#BBBEC3" points="1053.137,401.023 1063.391,430.188 1071.566,416.473 "/>
<polygon fill="#9BA3B0" points="1036.051,341.309 1052.594,346.566 1075.77,290.871 "/>
<polygon fill="#D0D2CF" points="1071.566,416.473 1080.957,429.238 1093.332,415.004 "/>
<polygon fill="#BFC2C9" points="1063.141,605.434 1058.715,651.02 1073.645,659.805 "/>
<polygon fill="#7886A0" points="1073.645,659.805 1046.461,659.617 1087.434,684.141 "/>
<polygon fill="#A7A9B5" points="1026.766,295.914 1036.051,341.309 1075.77,290.871 "/>
<polygon fill="#ADB1BC" points="1077.613,348.973 1079.91,379.262 1088.641,366.172 "/>
<polygon fill="#AAB1B7" points="1075.77,290.871 1077.613,348.973 1081.688,347.344 "/>
<polygon fill="#A3AAB4" points="1103.688,570.68 1091.637,590.711 1120.156,595.141 "/>
<polygon fill="#929398" points="1034.117,932.293 1005,935 1110.5,981 "/>
<polygon fill="#C2C3C8" points="1052.594,346.566 1037.078,359.867 1079.91,379.262 "/>
<polygon fill="#B9BCC3" points="1037.078,359.867 1053.137,401.023 1079.91,379.262 "/>
<polygon fill="#979EB1" points="1053.137,401.023 1071.566,416.473 1079.91,379.262 "/>
<polygon fill="#A9B0B8" points="1080.957,429.238 1062.059,444.621 1090.902,459.367 "/>
<polygon fill="#B7BAC1" points="1079.91,379.262 1095.816,410.68 1100.344,367.352 "/>
<polygon fill="#CFCFCF" points="1073.977,580.891 1062.551,594.109 1091.637,590.711 "/>
<polygon fill="#B1B8C2" points="1089.434,351.133 1088.641,366.172 1090.023,366.539 "/>
<polygon fill="#A7A8AC" points="1095.805,911.77 1114,941 1125.125,912.664 "/>
<polygon fill="#9598A7" points="1081.688,347.344 1089.434,351.133 1090.648,340.75 "/>
<polygon fill="#C2C2CA" points="1090.023,366.539 1079.91,379.262 1100.344,367.352 "/>
<polygon fill="#BCBDBF" points="1075.77,290.871 1081.688,347.344 1090.648,340.75 "/>
<polygon fill="#D3D5D0" points="1062.551,594.109 1063.141,605.434 1091.637,590.711 "/>
<polygon fill="#959FAB" points="1090.648,340.75 1089.434,351.133 1096.957,355.918 "/>
<polygon fill="#C3C4C9" points="1089.434,351.133 1090.023,366.539 1096.957,355.918 "/>
<polygon fill="#858FA8" points="1071.566,416.473 1093.332,415.004 1095.816,410.68 "/>
<polygon fill="#97A1AD" points="1079.91,379.262 1071.566,416.473 1095.816,410.68 "/>
<polygon fill="#BBC0C6" points="1080.957,429.238 1090.902,459.367 1095.863,434.852 "/>
<polygon fill="#A0A3B2" points="1093.332,415.004 1080.957,429.238 1095.863,434.852 "/>
<polygon fill="#8C94AB" points="1073.645,659.805 1087.434,684.141 1097.895,660.672 "/>
<polygon fill="#97A2B4" points="1096.957,355.918 1090.023,366.539 1100.344,367.352 "/>
<polygon fill="#ACADB2" points="1042,932 1110.5,981 1114,941 "/>
<polygon fill="#ABACB1" points="1095.805,911.77 1042,932 1114,941 "/>
<polygon fill="#B7BCC0" points="1089.773,571.324 1091.637,590.711 1103.688,570.68 "/>
<polygon fill="#959DB0" points="1100.344,367.352 1095.816,410.68 1114.145,412.379 "/>
<polygon fill="#A8A9AB" points="1125.125,912.664 1114,941 1133.887,924.852 "/>
<polygon fill="#979EB0" points="1230.844,373.094 1242.16,379.555 1244.078,377.773 "/>
<polygon fill="#8490A6" points="1093.332,415.004 1095.863,434.852 1114.145,412.379 "/>
<polygon fill="#8693A4" points="1095.816,410.68 1093.332,415.004 1114.145,412.379 "/>
<polygon fill="#C8C9CD" points="1063.141,605.434 1073.645,659.805 1115.105,619.465 "/>
<polygon fill="#A3A9B5" points="1073.645,659.805 1097.895,660.672 1115.105,619.465 "/>
<polygon fill="#BDBEC2" points="1091.637,590.711 1063.141,605.434 1115.105,619.465 "/>
<polygon fill="#CCCCCE" points="1176.199,542.688 1172.047,569.68 1178.984,542.559 "/>
<polygon fill="#808CA4" points="1114.145,412.379 1095.863,434.852 1125.465,434.707 "/>
<polygon fill="#8D98AE" points="1162.809,299.461 1147.707,315.234 1166.75,302.809 "/>
<polygon fill="#979FAC" points="1113.547,297.934 1090.648,340.75 1125.074,314.426 "/>
<polygon fill="#A4A8B4" points="1120.078,301.977 1113.547,297.934 1125.074,314.426 "/>
<polygon fill="#B3B8BE" points="1128,655 1111,720 1155.242,660.621 "/>
<polygon fill="#8C8C94" points="1125.125,912.664 1133.887,924.852 1147.469,909 "/>
<polygon fill="#A3ABB8" points="1138.094,333.121 1096.957,355.918 1138.848,336.633 "/>
<polygon fill="#8997B1" points="1096.957,355.918 1100.344,367.352 1138.848,336.633 "/>
<polygon fill="#CCCCCA" points="1097.895,660.672 1087.434,684.141 1128,655 "/>
<polygon fill="#CACBC5" points="1087.434,684.141 1111,720 1128,655 "/>
<polygon fill="#D0CED1" points="1203.523,332.012 1206.785,348.777 1210.262,347.828 "/>
<polygon fill="#B5B9C2" points="1115.105,619.465 1128,655 1155.242,660.621 "/>
<polygon fill="#CBCCD0" points="1115.105,619.465 1097.895,660.672 1128,655 "/>
<polygon fill="#B8B9BB" points="1252.227,529.539 1206.219,561.867 1257.289,597.598 "/>
<polygon fill="#9FA5B3" points="1090.648,340.75 1096.957,355.918 1138.094,333.121 "/>
<polygon fill="#A3AAB4" points="1125.074,314.426 1090.648,340.75 1138.094,333.121 "/>
<polygon fill="#A0A4B0" points="1126.852,551.234 1103.688,570.68 1140.02,557.723 "/>
<polygon fill="#A0A7B1" points="1103.688,570.68 1120.156,595.141 1140.02,557.723 "/>
<polygon fill="#B7BAC1" points="1220,645 1247,646 1251.309,601.039 "/>
<polygon fill="#D7D7CF" points="1138.094,333.121 1138.848,336.633 1143.906,320.953 "/>
<polygon fill="#BBBFC2" points="1172.047,569.68 1120.156,595.141 1187.457,625.637 "/>
<polygon fill="#A0AAB6" points="1140.02,557.723 1120.156,595.141 1141.305,558.5 "/>
<polygon fill="#C4C8CB" points="1157.145,545.688 1141.305,558.5 1160.004,556.379 "/>
<polygon fill="#CDCED0" points="1152.152,366.559 1100.344,367.352 1155.262,390.008 "/>
<polygon fill="#99A1B4" points="1100.344,367.352 1114.145,412.379 1155.262,390.008 "/>
<polygon fill="#838BA2" points="1215.781,328.789 1215.676,330.094 1217.477,334.887 "/>
<polygon fill="#8D98AC" points="1114.145,412.379 1125.465,434.707 1155.262,390.008 "/>
<polygon fill="#B5B9C2" points="1138.848,336.633 1100.344,367.352 1152.152,366.559 "/>
<polygon fill="#8590A4" points="1155.242,660.621 1111,720 1162.766,726.133 "/>
<polygon fill="#B2B6BF" points="1192.668,354.051 1217.609,403.383 1230.844,373.094 "/>
<polygon fill="#8590A4" points="1191,701 1162.766,726.133 1193.555,721.777 "/>
<polygon fill="#ACACAC" points="1114,941 1110.5,981 1157,961 "/>
<polygon fill="#A9A9AB" points="1133.887,924.852 1114,941 1157,961 "/>
<polygon fill="#818CA2" points="1147.707,315.234 1143.906,320.953 1189.621,335.738 "/>
<polygon fill="#C5C9CC" points="1189.262,344.387 1170.371,375.602 1192.668,354.051 "/>
<polygon fill="#CED3CF" points="1157.145,545.688 1160.004,556.379 1176.199,542.688 "/>
<polygon fill="#D7D7D7" points="1152.152,366.559 1155.262,390.008 1170.371,375.602 "/>
<polygon fill="#96979C" points="1133.887,924.852 1157,961 1168.332,932.594 "/>
<polygon fill="#898D99" points="1147.469,909 1133.887,924.852 1168.332,932.594 "/>
<polygon fill="#BABFC3" points="1196.402,564.719 1187.457,625.637 1202.793,623.113 "/>
<polygon fill="#758595" points="1180.965,303.383 1166.75,302.809 1189.621,335.738 "/>
<polygon fill="#C1C6CC" points="1160.004,556.379 1141.305,558.5 1172.047,569.68 "/>
<polygon fill="#AAB1B9" points="1141.305,558.5 1120.156,595.141 1172.047,569.68 "/>
<polygon fill="#C9CACE" points="1160.004,556.379 1172.047,569.68 1176.199,542.688 "/>
<polygon fill="#A9ADB6" points="1178.984,542.559 1204.441,562.773 1206.219,561.867 "/>
<polygon fill="#A6ACB8" points="1162.809,299.461 1166.75,302.809 1180.965,303.383 "/>
<polygon fill="#D3D5D2" points="1115.105,619.465 1155.242,660.621 1187.457,625.637 "/>
<polygon fill="#CCCECD" points="1120.156,595.141 1115.105,619.465 1187.457,625.637 "/>
<polygon fill="#717D95" points="1193,761 1196,811 1205,798 "/>
<polygon fill="#CFD3D4" points="1138.848,336.633 1152.152,366.559 1189.262,344.387 "/>
<polygon fill="#B4B6C2" points="1152.152,366.559 1170.371,375.602 1189.262,344.387 "/>
<polygon fill="#B0B1B3" points="1181.344,922.859 1225,957 1227,928 "/>
<polygon fill="#CACACA" points="1235.215,476.184 1232.273,503.512 1250.719,494.527 "/>
<polygon fill="#8C94A7" points="1143.906,320.953 1138.848,336.633 1189.621,335.738 "/>
<polygon fill="#C9CED2" points="1138.848,336.633 1189.262,344.387 1189.621,335.738 "/>
<polygon fill="#989EAC" points="1166.75,302.809 1147.707,315.234 1189.621,335.738 "/>
<polygon fill="#CACECD" points="1189.621,335.738 1189.262,344.387 1203.523,332.012 "/>
<polygon fill="#A7AEB6" points="1155.242,660.621 1162.766,726.133 1191,701 "/>
<polygon fill="#A8ACB7" points="1193.434,312.738 1189.621,335.738 1203.523,332.012 "/>
<polygon fill="#7C899C" points="1203.523,332.012 1215.676,330.094 1215.781,328.789 "/>
<polygon fill="#74809A" points="1180.965,303.383 1189.621,335.738 1193.434,312.738 "/>
<polygon fill="#CFD1D0" points="1178.984,542.559 1172.047,569.68 1196.402,564.719 "/>
<polygon fill="#B6BDC3" points="1172.047,569.68 1187.457,625.637 1196.402,564.719 "/>
<polygon fill="#A6ADB5" points="1155.242,660.621 1191,701 1203.945,697.645 "/>
<polygon fill="#858C9E" points="1217.477,334.887 1210.262,347.828 1218,336.094 "/>
<polygon fill="#CCCECD" points="1206.219,561.867 1251.309,601.039 1257.289,597.598 "/>
<polygon fill="#AEB1B6" points="1178.984,542.559 1196.402,564.719 1204.441,562.773 "/>
<polygon fill="#97A0AF" points="1170.371,375.602 1155.262,390.008 1217.609,403.383 "/>
<polygon fill="#CCCECD" points="1196.402,564.719 1202.793,623.113 1204.441,562.773 "/>
<polygon fill="#98A0AD" points="1193.555,721.777 1193,761 1207,745 "/>
<polygon fill="#C5C9CC" points="1203.523,332.012 1189.262,344.387 1206.785,348.777 "/>
<polygon fill="#979DA9" points="1237.688,363.297 1230.844,373.094 1244.078,377.773 "/>
<polygon fill="#AFB3BC" points="1202.793,623.113 1220,645 1251.309,601.039 "/>
<polygon fill="#A7ADB9" points="1192.668,354.051 1170.371,375.602 1217.609,403.383 "/>
<polygon fill="#B5BBC7" points="1189.262,344.387 1192.668,354.051 1206.785,348.777 "/>
<polygon fill="#8792A6" points="1191,701 1193.555,721.777 1209,702 "/>
<polygon fill="#8F97AA" points="1203.945,697.645 1191,701 1209,702 "/>
<polygon fill="#909CB2" points="1217.609,403.383 1155.262,390.008 1220.488,409.844 "/>
<polygon fill="#939FAF" points="1206.785,348.777 1192.668,354.051 1230.844,373.094 "/>
<polygon fill="#949AA8" points="1288.285,469.305 1304.871,487.941 1314.953,463.746 "/>
<polygon fill="#A4A8B3" points="1207,745 1193,761 1222.465,760.547 "/>
<polygon fill="#AAAEB7" points="1202.793,623.113 1187.457,625.637 1220,645 "/>
<polygon fill="#BBBEC3" points="1247.109,338.688 1251.363,378.645 1259.152,331.973 "/>
<polygon fill="#C8CAC7" points="1207,745 1222.465,760.547 1232,740 "/>
<polygon fill="#8894A4" points="1215.676,330.094 1203.523,332.012 1217.477,334.887 "/>
<polygon fill="#989EAC" points="1203.523,332.012 1210.262,347.828 1217.477,334.887 "/>
<polygon fill="#8B98A9" points="1193.434,312.738 1203.523,332.012 1215.781,328.789 "/>
<polygon fill="#BCBDC2" points="1209,702 1232,740 1238,676 "/>
<polygon fill="#C6CACD" points="1220,645 1203.945,697.645 1238,676 "/>
<polygon fill="#929EB4" points="1237.688,363.297 1244.078,377.773 1245.508,376.953 "/>
<polygon fill="#D4D4D4" points="1187.457,625.637 1155.242,660.621 1220,645 "/>
<polygon fill="#C8C9CB" points="1155.242,660.621 1203.945,697.645 1220,645 "/>
<polygon fill="#C5C7C6" points="1209.309,467.168 1166.789,476.703 1220.297,489.582 "/>
<polygon fill="#A0A8B2" points="1203.945,697.645 1209,702 1238,676 "/>
<polygon fill="#98A0AD" points="1209,702 1193.555,721.777 1232,740 "/>
<polygon fill="#B7BEC8" points="1210.262,347.828 1206.785,348.777 1230.844,373.094 "/>
<polygon fill="#8D9095" points="1157,961 1110.5,981 1225,957 "/>
<polygon fill="#8B92A4" points="1193,761 1205,798 1222.465,760.547 "/>
<polygon fill="#9EA1A6" points="1168.332,932.594 1157,961 1225,957 "/>
<polygon fill="#91969C" points="1181.344,922.859 1168.332,932.594 1225,957 "/>
<polygon fill="#8B92A5" points="1193.434,312.738 1215.781,328.789 1241.062,310.207 "/>
<polygon fill="#A8ABB4" points="1235.215,476.184 1250.719,494.527 1251.402,490.113 "/>
<polygon fill="#99A1AE" points="1193.555,721.777 1207,745 1232,740 "/>
<polygon fill="#838EA4" points="1180.965,303.383 1193.434,312.738 1241.062,310.207 "/>
<polygon fill="#9FA5B1" points="1241.062,310.207 1215.781,328.789 1247.109,338.688 "/>
<polygon fill="#D2D2D0" points="1232.273,503.512 1220.297,489.582 1233.59,509.098 "/>
<polygon fill="#A8AEBC" points="1230.844,373.094 1217.609,403.383 1233.562,384.996 "/>
<polygon fill="#8995A5" points="1215.781,328.789 1217.477,334.887 1247.109,338.688 "/>
<polygon fill="#C4C5C9" points="1220.297,489.582 1232.273,503.512 1235.215,476.184 "/>
<polygon fill="#8F96A9" points="1217.477,334.887 1218,336.094 1247.109,338.688 "/>
<polygon fill="#9EA7B6" points="1218,336.094 1210.262,347.828 1237.688,363.297 "/>
<polygon fill="#949FB3" points="1210.262,347.828 1230.844,373.094 1237.688,363.297 "/>
<polygon fill="#848CA1" points="1261.5,480.477 1284.293,490.031 1288.285,469.305 "/>
<polygon fill="#BCC1C4" points="1238,676 1232,740 1275,725 "/>
<polygon fill="#9BA4B5" points="1233.562,384.996 1217.609,403.383 1241.898,387.914 "/>
<polygon fill="#8A92A7" points="1217.609,403.383 1220.488,409.844 1241.898,387.914 "/>
<polygon fill="#CACED1" points="1233.562,384.996 1241.898,387.914 1242.16,379.555 "/>
<polygon fill="#CACED1" points="1230.844,373.094 1233.562,384.996 1242.16,379.555 "/>
<polygon fill="#7A8299" points="1258,794 1196,811 1273,844 "/>
<polygon fill="#A0A6B4" points="1241.062,310.207 1247.109,338.688 1259.152,331.973 "/>
<polygon fill="#CBCBCD" points="1275,725 1232,740 1289,774 "/>
<polygon fill="#D1D2CD" points="1232.273,503.512 1233.59,509.098 1250.719,494.527 "/>
<polygon fill="#DBDCD6" points="1220,645 1238,676 1247,646 "/>
<polygon fill="#D3D4CF" points="1250.719,494.527 1233.59,509.098 1252.227,529.539 "/>
<polygon fill="#B3B6BD" points="1233.59,509.098 1206.219,561.867 1252.227,529.539 "/>
<polygon fill="#D0D1D3" points="1218,336.094 1237.688,363.297 1247.109,338.688 "/>
<polygon fill="#7F8899" points="1284.293,490.031 1304.465,489.125 1304.871,487.941 "/>
<polygon fill="#C1C2C6" points="1206.219,561.867 1204.441,562.773 1251.309,601.039 "/>
<polygon fill="#BAC3C8" points="1204.441,562.773 1202.793,623.113 1251.309,601.039 "/>
<polygon fill="#909DAD" points="1245.508,376.953 1244.078,377.773 1251.363,378.645 "/>
<polygon fill="#8B98AB" points="1242.16,379.555 1241.898,387.914 1251.363,378.645 "/>
<polygon fill="#8F9CAC" points="1244.078,377.773 1242.16,379.555 1251.363,378.645 "/>
<polygon fill="#95A2B3" points="1237.688,363.297 1245.508,376.953 1251.363,378.645 "/>
<polygon fill="#C0C3CA" points="1247.109,338.688 1237.688,363.297 1251.363,378.645 "/>
<polygon fill="#9AA0AE" points="1269.609,459.09 1261.5,480.477 1288.285,469.305 "/>
<polygon fill="#B0B4BD" points="1251.402,490.113 1250.719,494.527 1261.5,480.477 "/>
<polygon fill="#828E9C" points="1288.285,469.305 1284.293,490.031 1304.871,487.941 "/>
<polygon fill="#A6ACBA" points="1280.422,300.441 1259.152,331.973 1280.656,300.457 "/>
<polygon fill="#858C9E" points="1205,798 1196,811 1258,794 "/>
<polygon fill="#D0D1CC" points="1232,740 1222.465,760.547 1258,794 "/>
<polygon fill="#9CA2AE" points="1222.465,760.547 1205,798 1258,794 "/>
<polygon fill="#8A93A4" points="1297.188,424.711 1288.285,469.305 1314.953,463.746 "/>
<polygon fill="#D1D3D2" points="1284.574,586.512 1257.289,597.598 1291,632 "/>
<polygon fill="#75879F" points="1241.898,387.914 1220.488,409.844 1269.609,459.09 "/>
<polygon fill="#C8C9CB" points="1350.863,350.906 1338.477,352.508 1352.098,355.773 "/>
<polygon fill="#ABAEBD" points="1280.656,300.457 1297.637,354.676 1305.57,290.559 "/>
<polygon fill="#BBBEC3" points="1280.656,300.457 1259.152,331.973 1297.637,354.676 "/>
<polygon fill="#D2D2D0" points="1297.039,644.281 1247,646 1299,654 "/>
<polygon fill="#9BA1AF" points="1241.062,310.207 1259.152,331.973 1280.422,300.441 "/>
<polygon fill="#9AA2AF" points="1180.965,303.383 1241.062,310.207 1280.422,300.441 "/>
<polygon fill="#CBCBCB" points="1250.719,494.527 1252.227,529.539 1284.293,490.031 "/>
<polygon fill="#7A8599" points="1261.5,480.477 1250.719,494.527 1284.293,490.031 "/>
<polygon fill="#A7ACB0" points="1252.227,529.539 1257.289,597.598 1284.574,586.512 "/>
<polygon fill="#B7B8BD" points="1232,740 1258,794 1289,774 "/>
<polygon fill="#BCBFC4" points="1336.742,333.262 1297.637,354.676 1337.039,334.039 "/>
<polygon fill="#C4C6C5" points="1247,646 1297,677 1299,654 "/>
<polygon fill="#D8D9D4" points="1291,632 1247,646 1297.039,644.281 "/>
<polygon fill="#C7C8CA" points="1251.309,601.039 1247,646 1291,632 "/>
<polygon fill="#D7D7D5" points="1257.289,597.598 1251.309,601.039 1291,632 "/>
<polygon fill="#59657B" points="1352.949,628.855 1363.223,641.625 1367.793,625.309 "/>
<polygon fill="#BEBFC1" points="1299,654 1297,677 1326,696 "/>
<polygon fill="#BFC0C5" points="1297.637,354.676 1251.363,378.645 1306,377 "/>
<polygon fill="#D6D8D5" points="1275,725 1297,713 1297,677 "/>
<polygon fill="#9CA5B6" points="1251.363,378.645 1297.188,424.711 1306,377 "/>
<polygon fill="#D7D8D3" points="1297,713 1322,747 1326,696 "/>
<polygon fill="#D2D4D3" points="1306,377 1322.105,371.953 1324.766,364.582 "/>
<polygon fill="#D8D8D6" points="1297.637,354.676 1306,377 1324.766,364.582 "/>
<polygon fill="#B6B7BC" points="1247,646 1238,676 1297,677 "/>
<polygon fill="#D5D7D4" points="1238,676 1275,725 1297,677 "/>
<polygon fill="#C5C5C5" points="1297.637,354.676 1324.766,364.582 1337.039,334.039 "/>
<polygon fill="#A5ABB9" points="1251.363,378.645 1241.898,387.914 1297.188,424.711 "/>
<polygon fill="#828EA4" points="1241.898,387.914 1269.609,459.09 1297.188,424.711 "/>
<polygon fill="#999FAB" points="1295.949,496.012 1284.293,490.031 1302.754,517.523 "/>
<polygon fill="#7A89A0" points="1269.609,459.09 1288.285,469.305 1297.188,424.711 "/>
<polygon fill="#C8C9CD" points="1259.152,331.973 1251.363,378.645 1297.637,354.676 "/>
<polygon fill="#C2C2C2" points="1252.227,529.539 1284.574,586.512 1302.754,517.523 "/>
<polygon fill="#C7C7C7" points="1284.293,490.031 1252.227,529.539 1302.754,517.523 "/>
<polygon fill="#ACAFB4" points="1304.465,489.125 1295.949,496.012 1308.633,514.812 "/>
<polygon fill="#9DA1AD" points="1295.949,496.012 1302.754,517.523 1308.633,514.812 "/>
<polygon fill="#A5A8B1" points="1314.953,463.746 1304.871,487.941 1331.945,474.164 "/>
<polygon fill="#9EA4B2" points="1304.465,489.125 1331.719,516.121 1337.062,487.027 "/>
<polygon fill="#898F9D" points="1284.293,490.031 1295.949,496.012 1304.465,489.125 "/>
<polygon fill="#9298A6" points="1339.73,597.883 1335.957,604.012 1341.562,611.168 "/>
<polygon fill="#7F8AA0" points="1348.387,340.332 1350.863,350.906 1369.234,338.422 "/>
<polygon fill="#97A3B3" points="1280.422,300.441 1280.656,300.457 1305.57,290.559 "/>
<polygon fill="#CACCCB" points="1297,677 1297,713 1326,696 "/>
<polygon fill="#D1D3D0" points="1291,632 1297.039,644.281 1330.953,619.434 "/>
<polygon fill="#757E8F" points="1284.574,586.512 1330.953,619.434 1335.957,604.012 "/>
<polygon fill="#878E9E" points="1258,794 1273,844 1311,802 "/>
<polygon fill="#A7ABB4" points="1289,774 1258,794 1311,802 "/>
<polygon fill="#5E7086" points="1335.957,604.012 1330.953,619.434 1341.562,611.168 "/>
<polygon fill="#B6B7B9" points="1344.207,531.164 1326.719,522.578 1349.77,539.527 "/>
<polygon fill="#D9DAD5" points="1275,725 1289,774 1322,747 "/>
<polygon fill="#D9DAD5" points="1297,713 1275,725 1322,747 "/>
<polygon fill="#BABABC" points="1376.215,465.285 1373.57,527.598 1381.086,462.82 "/>
<polygon fill="#B6BABD" points="1326.719,522.578 1284.574,586.512 1349.77,539.527 "/>
<polygon fill="#899299" points="1284.574,586.512 1291,632 1330.953,619.434 "/>
<polygon fill="#CFCDD0" points="1305.57,290.559 1335.723,281.582 1341.055,276.148 "/>
<polygon fill="#A0A7B1" points="1337.062,487.027 1331.719,516.121 1347.992,497.898 "/>
<polygon fill="#7B879D" points="1308.633,514.812 1302.754,517.523 1326.719,522.578 "/>
<polygon fill="#BBBFC2" points="1302.754,517.523 1284.574,586.512 1326.719,522.578 "/>
<polygon fill="#8C929E" points="1284.574,586.512 1339.73,597.883 1349.77,539.527 "/>
<polygon fill="#788494" points="1308.633,514.812 1326.719,522.578 1331.719,516.121 "/>
<polygon fill="#9EA8B2" points="1335.723,281.582 1336.742,333.262 1337.039,334.039 "/>
<polygon fill="#898F9F" points="1304.465,489.125 1308.633,514.812 1331.719,516.121 "/>
<polygon fill="#8F96A0" points="1304.871,487.941 1304.465,489.125 1337.062,487.027 "/>
<polygon fill="#7C8C9C" points="1369.234,338.422 1350.863,350.906 1371.973,357.012 "/>
<polygon fill="#CECECE" points="1356.629,454.648 1376.215,465.285 1381.086,462.82 "/>
<polygon fill="#4B5B75" points="1350.215,602.664 1352.949,628.855 1367.793,625.309 "/>
<polygon fill="#9CA2B0" points="1337.039,334.039 1345.863,344.523 1348.387,340.332 "/>
<polygon fill="#BDC1C4" points="1324.766,364.582 1338.477,352.508 1338.762,351.188 "/>
<polygon fill="#B2B6C1" points="1335.723,281.582 1305.57,290.559 1336.742,333.262 "/>
<polygon fill="#C6C5CA" points="1305.57,290.559 1297.637,354.676 1336.742,333.262 "/>
<polygon fill="#BCBDC1" points="1322,747 1289,774 1339,774 "/>
<polygon fill="#9CA2AE" points="1289,774 1311,802 1339,774 "/>
<polygon fill="#969CA8" points="1331.945,474.164 1304.871,487.941 1337.062,487.027 "/>
<polygon fill="#A6A9B2" points="1337.039,334.039 1338.762,351.188 1342,348 "/>
<polygon fill="#80889B" points="1339,774 1311,802 1346,792 "/>
<polygon fill="#7F8698" points="1331.719,516.121 1326.719,522.578 1344.207,531.164 "/>
<polygon fill="#C1C4C9" points="1337.039,334.039 1324.766,364.582 1338.762,351.188 "/>
<polygon fill="#CDCEC8" points="1338.762,351.188 1338.477,352.508 1342,348 "/>
<polygon fill="#CCCECD" points="1350.91,641.867 1299,654 1353,662 "/>
<polygon fill="#7A8392" points="1284.574,586.512 1335.957,604.012 1339.73,597.883 "/>
<polygon fill="#D1D1CF" points="1415,734 1390,772 1420.984,743.871 "/>
<polygon fill="#ADB1BC" points="1337.039,334.039 1342,348 1345.863,344.523 "/>
<polygon fill="#9EA4B2" points="1348.387,340.332 1369.234,338.422 1375.285,308.098 "/>
<polygon fill="#A9AEB4" points="1297.188,424.711 1314.953,463.746 1342.406,453.246 "/>
<polygon fill="#A2A6B1" points="1314.953,463.746 1331.945,474.164 1342.406,453.246 "/>
<polygon fill="#C9CBCA" points="1330.953,619.434 1297.039,644.281 1346.793,635.043 "/>
<polygon fill="#BBBEC3" points="1306,377 1297.188,424.711 1345.215,402.949 "/>
<polygon fill="#D4D6D3" points="1322.105,371.953 1306,377 1345.215,402.949 "/>
<polygon fill="#A3A9B5" points="1297.188,424.711 1342.406,453.246 1345.215,402.949 "/>
<polygon fill="#D1D1CF" points="1376.211,423.102 1356.629,454.648 1381.086,462.82 "/>
<polygon fill="#858DA0" points="1339,774 1346,792 1359.691,797.895 "/>
<polygon fill="#B9BCC1" points="1299,654 1326,696 1353,662 "/>
<polygon fill="#BEBFC1" points="1356.629,454.648 1342.406,453.246 1357.344,477.387 "/>
<polygon fill="#808DA0" points="1348.387,340.332 1345.863,344.523 1350.863,350.906 "/>
<polygon fill="#C6C5CA" points="1338.477,352.508 1324.766,364.582 1352.098,355.773 "/>
<polygon fill="#D8D9D4" points="1297.039,644.281 1299,654 1346.793,635.043 "/>
<polygon fill="#D5D5D3" points="1363.223,641.625 1353,662 1370.977,663.098 "/>
<polygon fill="#CFCFCF" points="1350.91,641.867 1353,662 1363.223,641.625 "/>
<polygon fill="#BABDC2" points="1322.105,371.953 1345.215,402.949 1352.098,355.773 "/>
<polygon fill="#526178" points="1350.215,602.664 1341.562,611.168 1352.949,628.855 "/>
<polygon fill="#BEBFC3" points="1344.207,531.164 1349.77,539.527 1350.805,537.809 "/>
<polygon fill="#C5C5C7" points="1353,662 1359.492,698.07 1370.977,663.098 "/>
<polygon fill="#BBBFC0" points="1342.406,453.246 1331.945,474.164 1357.344,477.387 "/>
<polygon fill="#898F9D" points="1339.73,597.883 1341.562,611.168 1350.215,602.664 "/>
<polygon fill="#949CA9" points="1331.945,474.164 1337.062,487.027 1357.344,477.387 "/>
<polygon fill="#C3C4C6" points="1352.949,628.855 1350.91,641.867 1363.223,641.625 "/>
<polygon fill="#838A9A" points="1339.73,597.883 1350.215,602.664 1368.031,548.211 "/>
<polygon fill="#C7CFD2" points="1449.098,600.285 1446.5,615.398 1452.527,616.68 "/>
<polygon fill="#CFD1CE" points="1342,348 1338.477,352.508 1350.863,350.906 "/>
<polygon fill="#81819B" points="1345.863,344.523 1342,348 1350.863,350.906 "/>
<polygon fill="#505E78" points="1330.953,619.434 1346.793,635.043 1352.949,628.855 "/>
<polygon fill="#526279" points="1341.562,611.168 1330.953,619.434 1352.949,628.855 "/>
<polygon fill="#D1D3CE" points="1346.793,635.043 1299,654 1350.91,641.867 "/>
<polygon fill="#B2B5BE" points="1324.766,364.582 1322.105,371.953 1352.098,355.773 "/>
<polygon fill="#D0D2D1" points="1346.793,635.043 1350.91,641.867 1352.949,628.855 "/>
<polygon fill="#B1B4B9" points="1353,662 1326,696 1359.492,698.07 "/>
<polygon fill="#848C9F" points="1339,774 1359.691,797.895 1368,797 "/>
<polygon fill="#B6B7BB" points="1337.039,334.039 1348.387,340.332 1375.285,308.098 "/>
<polygon fill="#949AA6" points="1349.77,539.527 1339.73,597.883 1368.031,548.211 "/>
<polygon fill="#C3C5C0" points="1337.062,487.027 1347.992,497.898 1357.344,477.387 "/>
<polygon fill="#C5C6C8" points="1347.992,497.898 1350.047,497.719 1357.344,477.387 "/>
<polygon fill="#CDCDCB" points="1326,696 1322,747 1359.492,698.07 "/>
<polygon fill="#838A9D" points="1331.719,516.121 1344.207,531.164 1360.922,519.039 "/>
<polygon fill="#939BA8" points="1347.992,497.898 1331.719,516.121 1360.922,519.039 "/>
<polygon fill="#C6C8C5" points="1357.344,477.387 1350.047,497.719 1360.922,519.039 "/>
<polygon fill="#B0B1B5" points="1344.207,531.164 1350.805,537.809 1360.922,519.039 "/>
<polygon fill="#AEB1B6" points="1350.047,497.719 1347.992,497.898 1360.922,519.039 "/>
<polygon fill="#B2B5BE" points="1350.805,537.809 1349.77,539.527 1368.031,548.211 "/>
<polygon fill="#C0C1C5" points="1375.285,308.098 1369.234,338.422 1376.219,308.238 "/>
<polygon fill="#C1C0C5" points="1335.723,281.582 1337.039,334.039 1375.285,308.098 "/>
<polygon fill="#C4C5C9" points="1341.055,276.148 1335.723,281.582 1375.285,308.098 "/>
<polygon fill="#C5C6C8" points="1352.098,355.773 1371.547,359.598 1371.973,357.012 "/>
<polygon fill="#ABAEB7" points="1352.098,355.773 1345.215,402.949 1371.344,397.91 "/>
<polygon fill="#CCCCCE" points="1350.863,350.906 1352.098,355.773 1371.973,357.012 "/>
<polygon fill="#CDCCCA" points="1352.098,355.773 1371.344,397.91 1371.547,359.598 "/>
<polygon fill="#B7B8BA" points="1360.922,519.039 1350.805,537.809 1373.57,527.598 "/>
<polygon fill="#ABAFB8" points="1350.805,537.809 1368.031,548.211 1373.57,527.598 "/>
<polygon fill="#D2D4CF" points="1371.344,397.91 1345.215,402.949 1376.211,423.102 "/>
<polygon fill="#C7C7C9" points="1356.629,454.648 1357.344,477.387 1376.215,465.285 "/>
<polygon fill="#B3B4B9" points="1342.406,453.246 1356.629,454.648 1376.211,423.102 "/>
<polygon fill="#959DAA" points="1390,772 1368,797 1403,824 "/>
<polygon fill="#B5B5BF" points="1345.215,402.949 1342.406,453.246 1376.211,423.102 "/>
<polygon fill="#A5A9B2" points="1357.344,477.387 1360.922,519.039 1376.215,465.285 "/>
<polygon fill="#C0C2C1" points="1360.922,519.039 1373.57,527.598 1376.215,465.285 "/>
<polygon fill="#AEB1B6" points="1392.465,639.73 1370.977,663.098 1393,674 "/>
<polygon fill="#B3B4B9" points="1386,857 1400,857 1403,824 "/>
<polygon fill="#8790A1" points="1373.57,527.598 1368.031,548.211 1394.133,554.754 "/>
<polygon fill="#818996" points="1367.793,625.309 1403.625,630.461 1406.621,616.141 "/>
<polygon fill="#999FAB" points="1322,747 1339,774 1390,772 "/>
<polygon fill="#A1A7B3" points="1359.492,698.07 1322,747 1390,772 "/>
<polygon fill="#C7C7C7" points="1370.977,663.098 1359.492,698.07 1393,674 "/>
<polygon fill="#8D919D" points="1405,548 1394.133,554.754 1414.277,605.172 "/>
<polygon fill="#8790A1" points="1339,774 1368,797 1390,772 "/>
<polygon fill="#CBCCC7" points="1376.211,423.102 1381.086,462.82 1392.223,433.766 "/>
<polygon fill="#8B94A5" points="1373.57,527.598 1394.133,554.754 1405,548 "/>
<polygon fill="#5A6B7F" points="1367.793,625.309 1363.223,641.625 1392.465,639.73 "/>
<polygon fill="#B4B8BB" points="1363.223,641.625 1370.977,663.098 1392.465,639.73 "/>
<polygon fill="#C6C6C4" points="1403,824 1400,857 1412,844 "/>
<polygon fill="#828896" points="1495.082,662.883 1475.273,683.641 1507.652,679.355 "/>
<polygon fill="#848B9B" points="1368.031,548.211 1350.215,602.664 1394.133,554.754 "/>
<polygon fill="#B9BEC1" points="1446.5,615.398 1447,644 1452.527,616.68 "/>
<polygon fill="#C2C4C3" points="1412,844 1461,863 1465,826 "/>
<polygon fill="#C8C8C6" points="1403,824 1412,844 1465,826 "/>
<polygon fill="#A6ABB1" points="1412,844 1400,857 1422,885 "/>
<polygon fill="#A2A5AE" points="1490.438,636.883 1466.961,630.734 1495.082,662.883 "/>
<polygon fill="#727B8A" points="1367.793,625.309 1392.465,639.73 1403.625,630.461 "/>
<polygon fill="#737C8D" points="1350.215,602.664 1367.793,625.309 1406.621,616.141 "/>
<polygon fill="#848C99" points="1350.215,602.664 1406.621,616.141 1414.277,605.172 "/>
<polygon fill="#A4ABB5" points="1446.5,615.398 1403.625,630.461 1447,644 "/>
<polygon fill="#C3C3C3" points="1469.391,473.805 1444.551,493.598 1493.984,482.91 "/>
<polygon fill="#A4A9AD" points="1394.133,554.754 1350.215,602.664 1414.277,605.172 "/>
<polygon fill="#CBCBCD" points="1359.492,698.07 1390,772 1415,734 "/>
<polygon fill="#C4C6C5" points="1393,674 1359.492,698.07 1415,734 "/>
<polygon fill="#9DA5AF" points="1403.625,630.461 1431.16,660.773 1447,644 "/>
<polygon fill="#9DA4AE" points="1392.465,639.73 1393,674 1431.16,660.773 "/>
<polygon fill="#98A0AD" points="1403.625,630.461 1392.465,639.73 1431.16,660.773 "/>
<polygon fill="#C7C9C8" points="1437.445,452.27 1422.871,447.098 1444.551,493.598 "/>
<polygon fill="#B0B1B6" points="1493.73,481.121 1493.055,479.219 1493.984,482.91 "/>
<polygon fill="#ABAEB5" points="1431.16,660.773 1439,663 1447,644 "/>
<polygon fill="#C9C9C9" points="1422.871,447.098 1381.086,462.82 1444.551,493.598 "/>
<polygon fill="#A7AAAF" points="1439,663 1431.16,660.773 1443,696 "/>
<polygon fill="#A2A7AD" points="1431.16,660.773 1393,674 1443,696 "/>
<polygon fill="#A9ABB7" points="1373.57,527.598 1405,548 1444.551,493.598 "/>
<polygon fill="#D7D7CF" points="1393,674 1415,734 1443,696 "/>
<polygon fill="#BFC1C0" points="1381.086,462.82 1373.57,527.598 1444.551,493.598 "/>
<polygon fill="#ADB2B5" points="1406.621,616.141 1403.625,630.461 1446.5,615.398 "/>
<polygon fill="#B5B5B7" points="1403,824 1465,826 1469,789 "/>
<polygon fill="#B4B7BE" points="1414.277,605.172 1406.621,616.141 1446.5,615.398 "/>
<polygon fill="#B5B6B8" points="1443,696 1463,737 1475.273,683.641 "/>
<polygon fill="#D1D0CE" points="1444.551,493.598 1405,548 1460,536 "/>
<polygon fill="#C2C6C7" points="1414.277,605.172 1446.5,615.398 1449.098,600.285 "/>
<polygon fill="#A8ABB0" points="1405,548 1414.277,605.172 1449.098,600.285 "/>
<polygon fill="#91949D" points="1412,844 1422,885 1447,872 "/>
<polygon fill="#CECFCA" points="1461.84,612.66 1452.527,616.68 1466.961,630.734 "/>
<polygon fill="#C8C9C4" points="1443,696 1415,734 1463,737 "/>
<polygon fill="#7B8591" points="1466.988,601.371 1461.84,612.66 1479,617 "/>
<polygon fill="#CECECE" points="1449.098,600.285 1452.527,616.68 1461.84,612.66 "/>
<polygon fill="#CCCCCC" points="1468,771 1420.984,743.871 1469,789 "/>
<polygon fill="#9EA2AB" points="1412,844 1447,872 1461,863 "/>
<polygon fill="#CBCBC9" points="1415,734 1420.984,743.871 1463,737 "/>
<polygon fill="#9DA0A5" points="1449.098,600.285 1466.988,601.371 1468,575 "/>
<polygon fill="#D3D4CE" points="1469,789 1465,826 1481.336,820.656 "/>
<polygon fill="#D6D7D2" points="1447,644 1475.273,683.641 1495.082,662.883 "/>
<polygon fill="#A5A9AA" points="1460,536 1405,548 1468,575 "/>
<polygon fill="#C4C4C4" points="1452.527,616.68 1447,644 1466.961,630.734 "/>
<polygon fill="#657187" points="1449.098,600.285 1461.84,612.66 1466.988,601.371 "/>
<polygon fill="#BABBBD" points="1405,548 1449.098,600.285 1468,575 "/>
<polygon fill="#D1D1CF" points="1463,737 1420.984,743.871 1468,771 "/>
<polygon fill="#D3D3D1" points="1390,772 1403,824 1469,789 "/>
<polygon fill="#D3D3D1" points="1420.984,743.871 1390,772 1469,789 "/>
<polygon fill="#C9CAC5" points="1437.445,452.27 1444.551,493.598 1469.391,473.805 "/>
<polygon fill="#C8CAC9" points="1461.84,612.66 1466.961,630.734 1479,617 "/>
<polygon fill="#BBBCC0" points="1479,617 1466.961,630.734 1490.438,636.883 "/>
<polygon fill="#C2C4C3" points="1444.551,493.598 1460,536 1493.984,482.91 "/>
<polygon fill="#B0B4B7" points="1447,644 1439,663 1475.273,683.641 "/>
<polygon fill="#ACB0B3" points="1439,663 1443,696 1475.273,683.641 "/>
<polygon fill="#CCCCCA" points="1465,826 1461,863 1481.336,820.656 "/>
<path fill="#C5C5C3" d="M1542,904"/>
<line fill="none" x1="1539.305" y1="859.055" x2="1516" y2="857"/>
<polygon fill="#CECECC" points="1466.961,630.734 1447,644 1495.082,662.883 "/>
<polygon fill="#C0C2C1" points="1460,536 1468,575 1484,558 "/>
<polygon fill="#C4C6C3" points="1484,558 1468,575 1500,590 "/>
<polygon fill="#BABABA" points="1463,737 1468,771 1514.988,756.125 "/>
<polygon fill="#878E98" points="1466.988,601.371 1479,617 1500,590 "/>
<polygon fill="#ADB0B7" points="1530.375,603.008 1516,620 1557,632 "/>
<polygon fill="#B3B7BA" points="1468,575 1466.988,601.371 1500,590 "/>
<polygon fill="#777F92" points="1495.082,662.883 1507.652,679.355 1508.766,653.969 "/>
<polygon fill="#B9BABC" points="1460,536 1484,558 1493.984,482.91 "/>
<polygon fill="#B2B2B4" points="1520.461,591.812 1519.18,606.734 1530.375,603.008 "/>
<polygon fill="#D3D2CE" points="1469,789 1481.336,820.656 1514.988,756.125 "/>
<polygon fill="#CDCFCA" points="1519.18,606.734 1516,620 1530.375,603.008 "/>
<polygon fill="#868D9F" points="1490.438,636.883 1495.082,662.883 1508.766,653.969 "/>
<polygon fill="#BCBEBD" points="1484,558 1500,590 1512.996,583.023 "/>
<polygon fill="#9CA0AB" points="1484,558 1517.695,569.422 1518.555,565.574 "/>
<polygon fill="#C9C8C4" points="1516,857 1553,829 1553.645,816.727 "/>
<polygon fill="#D1D2CD" points="1468,771 1469,789 1514.988,756.125 "/>
<polygon fill="#B4B4B4" points="1475.273,683.641 1463,737 1514.047,694.672 "/>
<polygon fill="#C7C8C3" points="1507.652,679.355 1475.273,683.641 1514.047,694.672 "/>
<polygon fill="#C0C0C0" points="1500,590 1479,617 1516,620 "/>
<polygon fill="#CDCDCD" points="1481.336,820.656 1516,857 1553.645,816.727 "/>
<polygon fill="#C5C5C3" points="1481.336,820.656 1461,863 1516,857 "/>
<polygon fill="#9DA4AC" points="1490.438,636.883 1508.766,653.969 1516,620 "/>
<polygon fill="#ADB1B4" points="1479,617 1490.438,636.883 1516,620 "/>
<polygon fill="#7A808C" points="1615.766,754.742 1627.426,762.77 1634.688,754.004 "/>
<polygon fill="#BBBBBB" points="1500,590 1519.18,606.734 1520.461,591.812 "/>
<polygon fill="#AFB3B6" points="1484,558 1512.996,583.023 1517.695,569.422 "/>
<polygon fill="#C2C2C0" points="1500,590 1516,620 1519.18,606.734 "/>
<polygon fill="#9C9CA4" points="1512.996,583.023 1500,590 1520.461,591.812 "/>
<polygon fill="#676F82" points="1518.555,565.574 1517.695,569.422 1528.617,565.879 "/>
<polygon fill="#90929F" points="1514.988,756.125 1531.168,743.402 1531.957,727.828 "/>
<polygon fill="#A6A7A9" points="1514.988,756.125 1481.336,820.656 1553.645,816.727 "/>
<polygon fill="#B1B5B8" points="1531.168,743.402 1514.988,756.125 1531.242,743.637 "/>
<polygon fill="#888B9C" points="1531.168,743.402 1531.242,743.637 1531.957,727.828 "/>
<polygon fill="#BBBBBB" points="1514.047,694.672 1463,737 1531.957,727.828 "/>
<polygon fill="#BCBCBA" points="1463,737 1514.988,756.125 1531.957,727.828 "/>
<polygon fill="#9399A5" points="1508.766,653.969 1554,663 1557,632 "/>
<polygon fill="#B5B6BA" points="1493.984,482.91 1484,558 1537.254,518.184 "/>
<polygon fill="#B4B6B5" points="1484,558 1518.555,565.574 1537.254,518.184 "/>
<polygon fill="#92959E" points="1587.812,771.922 1602.707,783.934 1612.629,770.895 "/>
<polygon fill="#AEAFB3" points="1537.254,518.184 1518.555,565.574 1542.359,550.008 "/>
<polygon fill="#868C98" points="1518.555,565.574 1528.617,565.879 1542.359,550.008 "/>
<polygon fill="#A4A6B2" points="1516,620 1508.766,653.969 1557,632 "/>
<polygon fill="#848C97" points="1531.957,727.828 1531.242,743.637 1548.094,754.73 "/>
<polygon fill="#BABABA" points="1531.242,743.637 1514.988,756.125 1548.094,754.73 "/>
<polygon fill="#BBBAB6" points="1548.094,754.73 1514.988,756.125 1553.645,816.727 "/>
<polygon fill="#D1D0CC" points="1516,857 1539.305,859.055 1553,829 "/>
<polygon fill="#878D9B" points="1554,663 1514.047,694.672 1555.871,697.516 "/>
<polygon fill="#A1A1A9" points="1514.047,694.672 1531.957,727.828 1555.871,697.516 "/>
<polygon fill="#CBCBC9" points="1560.527,615.5 1557,632 1561.688,626.535 "/>
<polygon fill="#7D8496" points="1508.766,653.969 1507.652,679.355 1554,663 "/>
<polygon fill="#A4A7AE" points="1507.652,679.355 1514.047,694.672 1554,663 "/>
<polygon fill="#BBBDBC" points="1550.281,596.184 1560.527,615.5 1561.039,604.762 "/>
<polygon fill="#C1C2C4" points="1550.281,596.184 1530.375,603.008 1560.527,615.5 "/>
<polygon fill="#B4B8BB" points="1530.375,603.008 1557,632 1560.527,615.5 "/>
<polygon fill="#BBBBB9" points="1553.645,816.727 1589.559,798.938 1591.27,787.453 "/>
<polygon fill="#ABABAD" points="1592,747 1587.812,771.922 1612.629,770.895 "/>
<polygon fill="#CACBC5" points="1560.527,615.5 1561.688,626.535 1585,638 "/>
<polygon fill="#979AA3" points="1531.957,727.828 1548.094,754.73 1579,747 "/>
<polygon fill="#A5A9AA" points="1555.871,697.516 1531.957,727.828 1579,747 "/>
<polygon fill="#BEBEBE" points="1609.992,621.855 1585,638 1610,646 "/>
<polygon fill="#CCCDC8" points="1557,632 1554,663 1582.617,660.75 "/>
<polygon fill="#BDBDBB" points="1587.812,771.922 1553.645,816.727 1591.27,787.453 "/>
<polygon fill="#9EA1A8" points="1554,663 1555.871,697.516 1582.617,660.75 "/>
<polygon fill="#CBCBC9" points="1561.688,626.535 1557,632 1585,638 "/>
<polygon fill="#C8C8C6" points="1557,632 1582.617,660.75 1585,638 "/>
<polygon fill="#B4B5B9" points="1560.527,615.5 1585,638 1590.754,590.777 "/>
<polygon fill="#A3A4A8" points="1579,747 1548.094,754.73 1587.812,771.922 "/>
<polygon fill="#CDCCC8" points="1561.039,604.762 1560.527,615.5 1590.754,590.777 "/>
<polygon fill="#A2A3A5" points="1553.645,816.727 1553,829 1589.559,798.938 "/>
<polygon fill="#C1C0BE" points="1548.094,754.73 1553.645,816.727 1587.812,771.922 "/>
<polygon fill="#98999E" points="1602.707,783.934 1603.129,784.039 1612.629,770.895 "/>
<polygon fill="#A8ACB5" points="1616,663 1582.617,660.75 1617,673 "/>
<polygon fill="#A1A2A6" points="1579,747 1587.812,771.922 1592,747 "/>
<polygon fill="#A4A3A9" points="1579,747 1592,747 1595,698 "/>
<polygon fill="#8C929E" points="1582.617,660.75 1595,698 1617,673 "/>
<polygon fill="#A4A9AD" points="1555.871,697.516 1579,747 1595,698 "/>
<polygon fill="#A1A1AB" points="1602.707,783.934 1589.559,798.938 1603.129,784.039 "/>
<polygon fill="#B0B0B2" points="1592,747 1612.629,770.895 1615.766,754.742 "/>
<polygon fill="#8D939F" points="1582.617,660.75 1555.871,697.516 1595,698 "/>
<polygon fill="#C0BFBB" points="1591.27,787.453 1589.559,798.938 1602.707,783.934 "/>
<polygon fill="#B3B4B6" points="1587.812,771.922 1591.27,787.453 1602.707,783.934 "/>
<polygon fill="#BBBCBE" points="1585,638 1582.617,660.75 1610,646 "/>
<polygon fill="#A2A3A8" points="1590.754,590.777 1585,638 1609.992,621.855 "/>
<polygon fill="#ABACB0" points="1595,698 1592,747 1615.766,754.742 "/>
<polygon fill="#B3B4B6" points="1610,646 1582.617,660.75 1616,663 "/>
<polygon fill="#A0A3AC" points="1616,663 1617,673 1621,673 "/>
<polygon fill="#9498A3" points="1617,673 1595,698 1621,673 "/>
<polygon fill="#828991" points="1615.766,754.742 1612.629,770.895 1627.426,762.77 "/>
<polygon fill="#6B7483" points="1615.766,754.742 1634.688,754.004 1637.672,750.805 "/>
<polygon fill="#838594" points="1595,698 1615.766,754.742 1637.672,750.805 "/>
<polygon fill="#ABAFB0" points="1621,673 1595,698 1637.672,750.805 "/>
</svg>
