<?xml version="1.0" encoding="utf-8"?>
<!-- Generator: Adobe Illustrator 16.0.0, SVG Export Plug-In . SVG Version: 6.00 Build 0)  -->
<!DOCTYPE svg PUBLIC "-//W3C//DTD SVG 1.1//EN" "http://www.w3.org/Graphics/SVG/1.1/DTD/svg11.dtd">
<svg version="1.1" id="Layer_1" xmlns="http://www.w3.org/2000/svg" xmlns:xlink="http://www.w3.org/1999/xlink" x="0px" y="0px"
	 width="685.411px" height="293.972px" viewBox="0 0 685.411 293.972" enable-background="new 0 0 685.411 293.972"
	 xml:space="preserve">
<polygon fill="#B8B8B6" points="134.223,88.894 115.371,121.847 137.973,127.023 "/>
<polygon fill="#F0F1F3" points="34.227,92.074 0,116.605 45.02,103.644 "/>
<polygon fill="#C2BEBD" points="67.508,159.351 72.707,170.421 75.012,167.269 "/>
<polygon fill="#9E9693" points="33.625,174.687 0.743,162.554 33.661,180.328 "/>
<polygon fill="#88847B" points="0,116.605 0.743,162.554 33.625,174.687 "/>
<polygon fill="#C8C7C3" points="49.52,96.75 45.02,103.644 49.606,97.824 "/>
<polygon fill="#9D9E99" points="67.508,159.351 33.625,174.687 72.707,170.421 "/>
<polygon fill="#C1C0BE" points="34.227,92.074 45.02,103.644 49.52,96.75 "/>
<polygon fill="#E7EBEE" points="49.782,45.304 43.313,60.066 55.008,57.132 "/>
<polygon fill="#F0F1F3" points="43.313,60.066 42.61,71.484 55.008,57.132 "/>
<polygon fill="#96938E" points="33.625,174.687 33.661,180.328 72.707,170.421 "/>
<polygon fill="#F0F1F3" points="42.61,71.484 34.227,92.074 55.297,90.746 "/>
<polygon fill="#C7C6C2" points="34.227,92.074 49.52,96.75 55.297,90.746 "/>
<polygon fill="#BDBAB5" points="49.52,96.75 49.606,97.824 55.297,90.746 "/>
<polygon fill="#A19D9A" points="55.297,90.746 49.606,97.824 59.973,116.023 "/>
<polygon fill="#ACA89C" points="59.973,116.023 33.625,174.687 67.508,159.351 "/>
<polygon fill="#B6AEAB" points="0,116.605 33.625,174.687 59.973,116.023 "/>
<polygon fill="#9B9794" points="45.02,103.644 0,116.605 59.973,116.023 "/>
<polygon fill="#9C9897" points="49.606,97.824 45.02,103.644 59.973,116.023 "/>
<polygon fill="#B2B2AA" points="72.082,45.742 55.008,57.132 75.215,59.402 "/>
<polygon fill="#A29A97" points="55.008,57.132 42.61,71.484 59.973,82.023 "/>
<polygon fill="#A8A39F" points="42.61,71.484 55.297,90.746 59.973,82.023 "/>
<polygon fill="#A29D97" points="59.973,82.023 80.551,101.351 81.934,78.253 "/>
<polygon fill="#E7EBEE" points="49.782,45.304 55.008,57.132 72.082,45.742 "/>
<polygon fill="#928D87" points="33.661,180.328 69.946,205.285 72.707,170.421 "/>
<polygon fill="#A09D98" points="55.008,57.132 59.973,82.023 75.215,59.402 "/>
<polygon fill="#8C8481" points="72.707,170.421 69.946,205.285 82.883,198.519 "/>
<polygon fill="#989590" points="115.371,121.847 110.973,153.023 137.973,127.023 "/>
<polygon fill="#A29F9A" points="59.973,82.023 55.297,90.746 80.551,101.351 "/>
<polygon fill="#ADA9A8" points="55.297,90.746 59.973,116.023 80.551,101.351 "/>
<polygon fill="#ADA3A1" points="59.973,116.023 67.508,159.351 109.926,118.339 "/>
<polygon fill="#BBB7B8" points="137.973,127.023 110.973,153.023 147.973,179.023 "/>
<polygon fill="#A7A6A4" points="81.934,78.253 80.551,101.351 87.758,87.293 "/>
<polygon fill="#A9A4A1" points="87.758,87.293 80.551,101.351 98.973,105.023 "/>
<polygon fill="#ABAAA8" points="109.926,118.339 110.973,153.023 115.371,121.847 "/>
<polygon fill="#BBB6B0" points="75.012,167.269 72.707,170.421 92.446,193.371 "/>
<polygon fill="#A29D99" points="72.707,170.421 82.883,198.519 92.446,193.371 "/>
<polygon fill="#BDB9B6" points="75.012,167.269 92.446,193.371 110.973,153.023 "/>
<polygon fill="#AFA9A9" points="98.973,105.023 80.551,101.351 109.926,118.339 "/>
<polygon fill="#C5BFBF" points="80.551,101.351 59.973,116.023 109.926,118.339 "/>
<polygon fill="#8D867C" points="109.926,118.339 67.508,159.351 110.973,153.023 "/>
<polygon fill="#958C85" points="67.508,159.351 75.012,167.269 110.973,153.023 "/>
<polygon fill="#ADA9A8" points="98.973,105.023 109.926,118.339 124.008,88.273 "/>
<polygon fill="#A19D92" points="169.953,188.257 141.043,219.722 173.317,190.062 "/>
<polygon fill="#ACABA9" points="109.926,118.339 115.371,121.847 124.008,88.273 "/>
<polygon fill="#BDBDBD" points="124.008,88.273 115.371,121.847 134.223,88.894 "/>
<polygon fill="#BEBDB8" points="153.344,52.523 140.707,53.89 153.625,68.343 "/>
<polygon fill="#9D9894" points="140.707,53.89 142.426,73.218 153.625,68.343 "/>
<polygon fill="#BDB8B4" points="110.973,153.023 92.446,193.371 147.973,179.023 "/>
<polygon fill="#A39E98" points="147.973,179.023 141.043,219.722 167.496,186.691 "/>
<polygon fill="#817F84" points="219.028,102.906 208.973,123.023 225.973,135.023 "/>
<polygon fill="#A29E9B" points="142.426,73.218 134.223,88.894 153.625,68.343 "/>
<polygon fill="#9D998E" points="167.496,186.691 141.043,219.722 169.953,188.257 "/>
<polygon fill="#9F9F97" points="173.973,153.023 167.496,186.691 188.973,171.023 "/>
<polygon fill="#A5A09A" points="173.317,190.062 141.043,219.722 177.793,192.308 "/>
<polygon fill="#CDCCC7" points="153.344,52.523 153.625,68.343 168.035,55.785 "/>
<polygon fill="#AAA5A1" points="147.973,179.023 167.496,186.691 173.973,153.023 "/>
<polygon fill="#C1C3C2" points="134.223,88.894 137.973,127.023 168.86,120.019 "/>
<polygon fill="#969792" points="137.973,127.023 147.973,179.023 173.973,153.023 "/>
<polygon fill="#979B9E" points="168.86,120.019 137.973,127.023 173.973,153.023 "/>
<polygon fill="#A7A29C" points="167.496,186.691 169.953,188.257 188.973,171.023 "/>
<polygon fill="#CACCCB" points="184.313,89.253 168.86,120.019 184.973,129.023 "/>
<polygon fill="#888C8F" points="168.86,120.019 173.973,153.023 184.973,129.023 "/>
<polygon fill="#AEAEAE" points="168.035,55.785 153.625,68.343 184.313,89.253 "/>
<polygon fill="#EFEFEF" points="153.625,68.343 134.223,88.894 184.313,89.253 "/>
<polygon fill="#DFE1E0" points="134.223,88.894 168.86,120.019 184.313,89.253 "/>
<polygon fill="#A59E98" points="188.973,171.023 177.793,192.308 195.696,205.136 "/>
<polygon fill="#A8A39D" points="169.953,188.257 173.317,190.062 188.973,171.023 "/>
<polygon fill="#B2ABA3" points="173.317,190.062 177.793,192.308 188.973,171.023 "/>
<polygon fill="#C7C8CA" points="192.801,51.578 184.313,89.253 213.411,86.859 "/>
<polygon fill="#999089" points="177.793,192.308 141.043,219.722 195.696,205.136 "/>
<polygon fill="#ACACAE" points="168.035,55.785 184.313,89.253 192.801,51.578 "/>
<polygon fill="#808487" points="184.973,129.023 173.973,153.023 195.973,148.023 "/>
<polygon fill="#878F91" points="184.313,89.253 184.973,129.023 208.973,123.023 "/>
<polygon fill="#767B7F" points="184.973,129.023 195.973,148.023 208.973,123.023 "/>
<polygon fill="#C6C6C6" points="216.86,92.195 184.313,89.253 219.028,102.906 "/>
<polygon fill="#CECECE" points="213.411,86.859 184.313,89.253 216.86,92.195 "/>
<polygon fill="#B0B0B0" points="184.313,89.253 208.973,123.023 219.028,102.906 "/>
<polygon fill="#CCCCCE" points="242.875,32.031 231.36,41.238 277.973,59.023 "/>
<polygon fill="#A9A4A0" points="255.973,124.023 225.973,135.023 261.973,147.148 "/>
<polygon fill="#807E7F" points="208.973,123.023 195.973,148.023 225.973,135.023 "/>
<polygon fill="#AEAFB1" points="213.411,86.859 216.86,92.195 231.36,41.238 "/>
<polygon fill="#98999D" points="192.801,51.578 213.411,86.859 231.36,41.238 "/>
<polygon fill="#9A9E9F" points="331.051,67.929 353.973,102.023 361.879,64.855 "/>
<polygon fill="#D7D7D7" points="216.86,92.195 255.973,124.023 277.973,59.023 "/>
<polygon fill="#DCDCDC" points="231.36,41.238 216.86,92.195 277.973,59.023 "/>
<polygon fill="#A6A19E" points="219.028,102.906 225.973,135.023 255.973,124.023 "/>
<polygon fill="#C7C3C2" points="216.86,92.195 219.028,102.906 255.973,124.023 "/>
<polygon fill="#8F9297" points="277.973,59.023 255.973,124.023 292.973,96.023 "/>
<polygon fill="#828483" points="292.973,96.023 255.973,124.023 297.973,128.023 "/>
<polygon fill="#F2F3F5" points="270.539,9.187 242.875,32.031 290.059,27.218 "/>
<polygon fill="#F0F1F3" points="242.875,32.031 277.973,59.023 290.059,27.218 "/>
<polygon fill="#8A8782" points="255.973,124.023 261.973,147.148 297.973,128.023 "/>
<polygon fill="#E9E9EB" points="360.594,0 313.164,32.613 361.879,64.855 "/>
<polygon fill="#A0A0A0" points="292.973,96.023 297.973,128.023 302.973,109.023 "/>
<polygon fill="#959AA0" points="290.059,27.218 277.973,59.023 312.438,32.503 "/>
<polygon fill="#868E91" points="277.973,59.023 292.973,96.023 314.973,62.023 "/>
<polygon fill="#8D9296" points="313.164,32.613 312.438,32.503 314.973,62.023 "/>
<polygon fill="#7F888D" points="312.438,32.503 277.973,59.023 314.973,62.023 "/>
<polygon fill="#8E8D92" points="331.051,67.929 292.973,96.023 334.973,103.023 "/>
<polygon fill="#9E9D9B" points="292.973,96.023 302.973,109.023 334.973,103.023 "/>
<polygon fill="#888B90" points="314.973,62.023 292.973,96.023 331.051,67.929 "/>
<polygon fill="#8C8D91" points="313.164,32.613 314.973,62.023 331.051,67.929 "/>
<polygon fill="#7C7D82" points="370.114,96.711 353.973,102.023 374.973,108.023 "/>
<polygon fill="#878B8E" points="331.051,67.929 334.973,103.023 353.973,102.023 "/>
<polygon fill="#B7BBBE" points="313.164,32.613 331.051,67.929 361.879,64.855 "/>
<polygon fill="#848587" points="361.879,64.855 353.973,102.023 370.114,96.711 "/>
<polygon fill="#E7EBEE" points="360.594,0 361.879,64.855 384.188,54.628 "/>
<polygon fill="#A8ACAF" points="384.188,54.628 361.879,64.855 385.227,54.886 "/>
<polygon fill="#858A90" points="361.879,64.855 370.114,96.711 385.227,54.886 "/>
<polygon fill="#AFB0AB" points="426.168,88.859 389.973,121.023 428.121,103.644 "/>
<polygon fill="#F4F4F4" points="527.774,80.097 514.508,78.464 527.879,97.097 "/>
<polygon fill="#DBDADF" points="360.594,0 384.188,54.628 409.348,18.671 "/>
<polygon fill="#D5D6D8" points="384.188,54.628 385.227,54.886 409.348,18.671 "/>
<polygon fill="#E3E3E5" points="460.325,42.98 458.184,61.156 471.797,46.609 "/>
<polygon fill="#CAC6C3" points="448.418,269.925 427.348,261.699 449.715,280.773 "/>
<polygon fill="#9E9FA3" points="385.227,54.886 370.114,96.711 426.168,88.859 "/>
<polygon fill="#949599" points="370.114,96.711 374.973,108.023 426.168,88.859 "/>
<polygon fill="#BDBCBA" points="374.973,108.023 389.973,121.023 426.168,88.859 "/>
<polygon fill="#F7F9F8" points="409.348,18.671 385.227,54.886 433.426,33.91 "/>
<polygon fill="#908F8B" points="468.739,205.343 460.34,222.878 473.817,230.785 "/>
<polygon fill="#DEDEE0" points="385.227,54.886 426.168,88.859 433.426,33.91 "/>
<polygon fill="#89827C" points="460.34,222.878 464.68,242.414 473.817,230.785 "/>
<polygon fill="#A5A6AA" points="426.168,88.859 428.121,103.644 437.391,82.246 "/>
<polygon fill="#D7DBDE" points="433.426,33.91 426.168,88.859 437.391,82.246 "/>
<polygon fill="#F6F6F6" points="458.184,61.156 437.391,82.246 458.828,67.261 "/>
<polygon fill="#F6F8F7" points="458.828,67.261 437.391,82.246 476.168,90.093 "/>
<polygon fill="#D3D2D7" points="436.008,239.257 448.418,269.925 464.68,242.414 "/>
<polygon fill="#FEFEFF" points="458.184,61.156 458.828,67.261 471.797,46.609 "/>
<polygon fill="#D9D8D4" points="436.008,239.257 427.348,261.699 448.418,269.925 "/>
<polygon fill="#F7F7F9" points="457.293,41.976 433.426,33.91 458.184,61.156 "/>
<polygon fill="#E5E5E7" points="433.426,33.91 437.391,82.246 458.184,61.156 "/>
<polygon fill="#F5F5F7" points="457.293,41.976 458.184,61.156 460.325,42.98 "/>
<polygon fill="#B5B4B0" points="499.598,111.199 501.86,121.164 514.637,115.886 "/>
<polygon fill="#A5A4A0" points="476.578,231.972 480.371,233.687 489.973,201.023 "/>
<polygon fill="#F8F7F5" points="548.149,102.062 541.735,128 552.086,109.871 "/>
<polygon fill="#C6C7C9" points="437.391,82.246 428.121,103.644 476.168,90.093 "/>
<polygon fill="#C2C1BF" points="468.739,205.343 476.578,231.972 489.973,201.023 "/>
<polygon fill="#B8B7B5" points="477.168,254.632 493.77,266.605 498.403,258.144 "/>
<polygon fill="#AAA9A5" points="473.817,230.785 464.68,242.414 476.578,231.972 "/>
<polygon fill="#837C76" points="493.719,270.148 483.723,284.277 495.243,293.972 "/>
<polygon fill="#979390" points="468.739,205.343 473.817,230.785 476.578,231.972 "/>
<polygon fill="#B6B5B3" points="484.145,244.55 477.168,254.632 498.403,258.144 "/>
<polygon fill="#ADADAB" points="480.371,233.687 464.68,242.414 484.145,244.55 "/>
<polygon fill="#AAA9A7" points="464.68,242.414 448.418,269.925 477.168,254.632 "/>
<polygon fill="#8F8681" points="477.168,254.632 448.418,269.925 483.723,284.277 "/>
<polygon fill="#A9A9A7" points="476.578,231.972 464.68,242.414 480.371,233.687 "/>
<polygon fill="#949492" points="464.68,242.414 477.168,254.632 484.145,244.55 "/>
<polygon fill="#CECDCB" points="488.961,179.253 468.739,205.343 489.973,201.023 "/>
<polygon fill="#928B85" points="448.418,269.925 449.715,280.773 483.723,284.277 "/>
<polygon fill="#D8D8D8" points="471.797,46.609 496.071,70.91 498.914,57.246 "/>
<polygon fill="#C9C8C3" points="484.145,244.55 498.403,258.144 499.973,238.023 "/>
<polygon fill="#EFEFEF" points="520.75,68.961 514.508,78.464 522.364,70.668 "/>
<polygon fill="#E3E3E1" points="496.071,70.91 499.598,111.199 510.934,106.585 "/>
<polygon fill="#A4A39F" points="492.36,160.808 475.973,161.023 492.508,162.425 "/>
<polygon fill="#B6B3AE" points="469.973,145.023 475.973,161.023 492.36,160.808 "/>
<polygon fill="#B5B4AF" points="475.973,161.023 488.961,179.253 492.508,162.425 "/>
<polygon fill="#DDDCD7" points="480.371,233.687 484.145,244.55 492.578,232.953 "/>
<polygon fill="#A9A8A4" points="489.973,201.023 480.371,233.687 492.578,232.953 "/>
<polygon fill="#8A8987" points="477.168,254.632 483.723,284.277 493.719,270.148 "/>
<polygon fill="#F6F6F6" points="458.828,67.261 476.168,90.093 496.071,70.91 "/>
<polygon fill="#BAB9B7" points="477.168,254.632 493.719,270.148 493.77,266.605 "/>
<polygon fill="#D1CDCA" points="469.973,145.023 492.36,160.808 496.871,121.304 "/>
<polygon fill="#F2F2F2" points="471.797,46.609 458.828,67.261 496.071,70.91 "/>
<polygon fill="#C5C0BC" points="489.739,117.351 469.973,145.023 496.871,121.304 "/>
<polygon fill="#D0CFCD" points="489.739,117.351 496.871,121.304 499.598,111.199 "/>
<polygon fill="#BCB7B4" points="499.598,111.199 501.368,121.734 501.86,121.164 "/>
<polygon fill="#D1D2D4" points="496.071,70.91 476.168,90.093 499.598,111.199 "/>
<polygon fill="#C0C5BF" points="511.735,107.035 510.934,106.585 514.637,115.886 "/>
<polygon fill="#CECDC8" points="492.578,232.953 484.145,244.55 499.973,238.023 "/>
<polygon fill="#C0C0C0" points="476.168,90.093 489.739,117.351 499.598,111.199 "/>
<polygon fill="#999894" points="489.973,201.023 492.578,232.953 499.973,238.023 "/>
<polygon fill="#CCCEC9" points="510.934,106.585 499.598,111.199 514.637,115.886 "/>
<polygon fill="#E4E4E4" points="496.071,70.91 514.508,78.464 520.75,68.961 "/>
<polygon fill="#BFBAB7" points="499.598,111.199 496.871,121.304 501.368,121.734 "/>
<polygon fill="#C1C1B7" points="496.871,121.304 492.36,160.808 501.368,121.734 "/>
<polygon fill="#D1D1D1" points="496.071,70.91 510.934,106.585 514.508,78.464 "/>
<polygon fill="#8F8A84" points="493.719,270.148 495.243,293.972 505.95,292.828 "/>
<polygon fill="#BFBBB8" points="493.77,266.605 493.719,270.148 507.305,267.085 "/>
<polygon fill="#B9B6B1" points="498.403,258.144 493.77,266.605 507.305,267.085 "/>
<polygon fill="#C3C0BB" points="493.719,270.148 505.95,292.828 507.305,267.085 "/>
<polygon fill="#989795" points="499.973,238.023 498.403,258.144 514.766,258.546 "/>
<polygon fill="#F2F2F2" points="514.508,78.464 519.161,102.488 527.879,97.097 "/>
<polygon fill="#AFABA8" points="501.86,121.164 501.368,121.734 514.637,115.886 "/>
<polygon fill="#DFE0E4" points="498.914,57.246 496.071,70.91 520.75,68.961 "/>
<polygon fill="#888783" points="498.403,258.144 507.305,267.085 514.766,258.546 "/>
<polygon fill="#B7B7B5" points="510.934,106.585 511.735,107.035 519.161,102.488 "/>
<polygon fill="#C6C6C6" points="514.508,78.464 510.934,106.585 519.161,102.488 "/>
<polygon fill="#C4C5C0" points="511.735,107.035 514.637,115.886 519.161,102.488 "/>
<polygon fill="#C8C7C5" points="514.637,115.886 501.368,121.734 525.012,145.148 "/>
<polygon fill="#F7F7F7" points="522.364,70.668 514.508,78.464 527.774,80.097 "/>
<polygon fill="#C1C1C1" points="501.368,121.734 492.36,160.808 525.012,145.148 "/>
<polygon fill="#DCDCDA" points="642.071,94.738 627.313,102.339 643.7,116.289 "/>
<polygon fill="#CDCDCD" points="527.774,80.097 541.708,96.066 543.508,79.085 "/>
<polygon fill="#CFCFD1" points="514.637,115.886 525.012,145.148 541.735,128 "/>
<polygon fill="#E8E8E8" points="527.774,80.097 527.879,97.097 541.708,96.066 "/>
<polygon fill="#E0E1E3" points="525.012,145.148 531.434,148.933 541.735,128 "/>
<polygon fill="#EDEFEC" points="522.364,70.668 527.774,80.097 538.922,65.843 "/>
<polygon fill="#F9F9F7" points="519.161,102.488 514.637,115.886 541.735,128 "/>
<polygon fill="#FCFDF8" points="527.879,97.097 519.161,102.488 541.735,128 "/>
<polygon fill="#F6F7F9" points="541.735,128 531.434,148.933 545.524,154.757 "/>
<polygon fill="#EEECED" points="538.922,65.843 527.774,80.097 543.508,79.085 "/>
<polygon fill="#F6FAF9" points="548.149,102.062 552.086,109.871 554.922,108.961 "/>
<polygon fill="#D0CFCD" points="541.708,96.066 527.879,97.097 548.149,102.062 "/>
<polygon fill="#FCFCFC" points="527.879,97.097 541.735,128 548.149,102.062 "/>
<polygon fill="#C8C9CD" points="554.922,108.961 563.739,131.98 569.446,115.906 "/>
<polygon fill="#F7F8FA" points="552.086,109.871 541.735,128 563.739,131.98 "/>
<polygon fill="#DDDDDD" points="554.922,108.961 552.086,109.871 563.739,131.98 "/>
<polygon fill="#ACADAF" points="541.735,128 545.524,154.757 563.739,131.98 "/>
<polygon fill="#CDCDCD" points="563.739,131.98 545.524,154.757 578.973,142.289 "/>
<polygon fill="#EBEBED" points="563.739,131.98 578.973,142.289 581.024,121.984 "/>
<polygon fill="#ACAAAF" points="569.446,115.906 563.739,131.98 581.024,121.984 "/>
<polygon fill="#E9E8EE" points="596.313,125.851 578.973,142.289 598.461,145.461 "/>
<polygon fill="#ABA49E" points="615.305,142.093 623.075,155.054 626.579,145.101 "/>
<polygon fill="#EFEFEF" points="578.973,142.289 591.247,156.554 598.461,145.461 "/>
<polygon fill="#EFEFEF" points="578.973,142.289 545.524,154.757 591.247,156.554 "/>
<polygon fill="#CECAC7" points="613.36,119.449 596.313,125.851 615.305,142.093 "/>
<polygon fill="#D0CFD4" points="581.024,121.984 578.973,142.289 596.313,125.851 "/>
<polygon fill="#C9C5BC" points="598.461,145.461 609.754,147.839 615.305,142.093 "/>
<polygon fill="#C9CAC4" points="598.461,145.461 591.247,156.554 609.754,147.839 "/>
<polygon fill="#B8B3AD" points="613.36,119.449 615.305,142.093 626.579,145.101 "/>
<polygon fill="#C5C4C2" points="596.313,125.851 598.461,145.461 615.305,142.093 "/>
<polygon fill="#C6C2BF" points="615.305,142.093 609.754,147.839 623.075,155.054 "/>
<polygon fill="#C5BDBB" points="652.145,107.464 668.356,112.961 672.645,105.164 "/>
<polygon fill="#CEC9C3" points="613.36,119.449 626.579,145.101 643.7,116.289 "/>
<polygon fill="#C1C0BE" points="627.313,102.339 613.36,119.449 643.7,116.289 "/>
<polygon fill="#D0CFCB" points="652.145,107.464 643.7,116.289 662.204,126.132 "/>
<polygon fill="#C0BCBB" points="652.145,107.464 662.204,126.132 668.356,112.961 "/>
<polygon fill="#B1ADAA" points="643.7,116.289 626.579,145.101 662.204,126.132 "/>
<polygon fill="#BBB7B4" points="668.356,112.961 678.641,127.746 685.411,125.816 "/>
<polygon fill="#ACABA7" points="672.645,105.164 668.356,112.961 685.411,125.816 "/>
<polygon fill="#BDB9B8" points="668.356,112.961 662.204,126.132 678.641,127.746 "/>
</svg>
