<?xml version="1.0" encoding="utf-8"?>
<!-- Generator: Adobe Illustrator 16.0.0, SVG Export Plug-In . SVG Version: 6.00 Build 0)  -->
<!DOCTYPE svg PUBLIC "-//W3C//DTD SVG 1.1//EN" "http://www.w3.org/Graphics/SVG/1.1/DTD/svg11.dtd">
<svg version="1.1" id="Layer_1" xmlns="http://www.w3.org/2000/svg" xmlns:xlink="http://www.w3.org/1999/xlink" x="0px" y="0px"
	 width="592.39px" height="403.011px" viewBox="675.965 394.17 592.39 403.011"
	 enable-background="new 675.965 394.17 592.39 403.011" xml:space="preserve">
<polygon fill="#DACBB8" points="681.909,721.582 701.422,733.562 702.25,719.078 "/>
<polygon fill="#FBECD9" points="677.62,677.348 695.777,650.152 697.059,641.812 "/>
<polygon fill="#DECDBD" points="1239.323,602.059 1244.948,615.188 1260,600 "/>
<polygon fill="#CEBCAE" points="685.637,566.762 701.891,571.684 705.637,550.578 "/>
<polygon fill="#FBEBD4" points="1237.452,582.871 1239.323,602.059 1260,600 "/>
<polygon fill="#FEF1DE" points="1237.812,540.871 1237.452,582.871 1260,600 "/>
<polygon fill="#948D87" points="682.781,703.418 694.879,705.711 695.672,694.902 "/>
<polygon fill="#F8E7D3" points="677.754,728.695 681.909,721.582 682.781,703.418 "/>
<polygon fill="#C1B1A1" points="690.663,679.602 677.62,677.348 691.445,680.793 "/>
<polygon fill="#B4A699" points="677.62,677.348 682.781,703.418 691.445,680.793 "/>
<polygon fill="#EBDAC6" points="690.663,679.602 691.445,680.793 692.105,679.34 "/>
<polygon fill="#B3A9A0" points="691.445,680.793 682.781,703.418 695.672,694.902 "/>
<polygon fill="#E7D7C8" points="686.195,545.535 685.637,566.762 705.637,550.578 "/>
<polygon fill="#F8EBDA" points="675.965,475.656 678.312,475.18 694.297,440.773 "/>
<polygon fill="#EBDBC4" points="694.879,705.711 681.909,721.582 702.25,719.078 "/>
<polygon fill="#D1C3BA" points="1239.323,602.059 1227.336,603.355 1244.948,615.188 "/>
<polygon fill="#C1B6A2" points="681.909,721.582 695.516,739.773 701.422,733.562 "/>
<polygon fill="#BCAB9B" points="681.909,721.582 677.754,728.695 695.516,739.773 "/>
<polygon fill="#EAD9C7" points="682.781,703.418 681.909,721.582 694.879,705.711 "/>
<polygon fill="#A5A198" points="715.34,483.617 715,484.492 720.152,495.441 "/>
<polygon fill="#F7E7D7" points="733.12,424.961 728.831,436.227 734.129,425.418 "/>
<polygon fill="#E5D9C9" points="677.62,677.348 690.663,679.602 695.777,650.152 "/>
<polygon fill="#D8C7B5" points="690.663,679.602 692.105,679.34 695.777,650.152 "/>
<polygon fill="#C6B8AB" points="678.312,475.18 675.965,475.656 699.594,485.973 "/>
<polygon fill="#E5DBD1" points="702.441,426.137 707.784,428.25 712.827,421.902 "/>
<polygon fill="#DED2C4" points="699.594,485.973 708.323,492.07 709.159,476.832 "/>
<polygon fill="#CCC1BB" points="707.784,428.25 702.715,430.316 710.922,443.523 "/>
<polygon fill="#DACBB6" points="702.25,719.078 708.241,728.004 718.77,710.43 "/>
<polygon fill="#D6C7B2" points="692.105,679.34 691.445,680.793 704.379,687.324 "/>
<polygon fill="#8F8375" points="691.445,680.793 695.672,694.902 704.379,687.324 "/>
<polygon fill="#CCC0AA" points="692.105,679.34 704.379,687.324 707.066,672.914 "/>
<polygon fill="#F5E6D1" points="695.777,650.152 692.105,679.34 707.066,672.914 "/>
<polygon fill="#F2E2D2" points="678.312,475.18 709.159,476.832 711.477,465.789 "/>
<polygon fill="#C0B3A3" points="702.25,719.078 701.422,733.562 708.241,728.004 "/>
<polygon fill="#AB9F93" points="707.066,672.914 704.379,687.324 707.719,673.211 "/>
<polygon fill="#F1E5D5" points="702.441,426.137 702.715,430.316 707.784,428.25 "/>
<polygon fill="#D0C4B6" points="678.312,475.18 699.594,485.973 709.159,476.832 "/>
<polygon fill="#FAEDDC" points="697.059,641.812 695.777,650.152 708.34,654.77 "/>
<polygon fill="#F2E1CF" points="695.777,650.152 707.066,672.914 708.34,654.77 "/>
<polygon fill="#D4C4B4" points="707.066,672.914 707.719,673.211 708.34,654.77 "/>
<polygon fill="#E6D9C8" points="723.086,454.938 711.477,465.789 726.863,463.762 "/>
<polygon fill="#E1D3C6" points="686.195,545.535 705.637,550.578 708.409,538.203 "/>
<polygon fill="#FFF0DD" points="694.297,440.773 678.312,475.18 711.477,465.789 "/>
<polygon fill="#BDB3A7" points="711.477,465.789 715.34,483.617 726.863,463.762 "/>
<polygon fill="#E0D0C0" points="705.637,550.578 701.891,571.684 710.555,563.348 "/>
<polygon fill="#BBB3B0" points="707.784,428.25 710.922,443.523 719.863,437.938 "/>
<polygon fill="#EBE4D4" points="710.922,443.523 694.297,440.773 711.477,465.789 "/>
<polygon fill="#D8CAC1" points="734.129,425.418 728.831,436.227 736.051,449.141 "/>
<polygon fill="#D1C5B9" points="709.159,476.832 715,484.492 715.34,483.617 "/>
<polygon fill="#CCBAAC" points="707.719,673.211 704.379,687.324 712.461,685.871 "/>
<polygon fill="#B4ABA4" points="726.863,463.762 715.34,483.617 728.406,482.316 "/>
<polygon fill="#FBECD9" points="708.409,538.203 705.637,550.578 713.781,539.301 "/>
<polygon fill="#CEC5B6" points="709.159,476.832 708.323,492.07 715,484.492 "/>
<polygon fill="#988E8D" points="711.477,465.789 709.159,476.832 715.34,483.617 "/>
<polygon fill="#E4D8C2" points="694.879,705.711 702.25,719.078 718.77,710.43 "/>
<polygon fill="#D6CABC" points="712.461,685.871 704.379,687.324 718.77,710.43 "/>
<polygon fill="#D4C6B9" points="695.672,694.902 694.879,705.711 718.77,710.43 "/>
<polygon fill="#C3B5A8" points="704.379,687.324 695.672,694.902 718.77,710.43 "/>
<polygon fill="#9E9693" points="715,484.492 708.323,492.07 720.152,495.441 "/>
<polygon fill="#C6B6A9" points="707.719,673.211 712.461,685.871 720.577,666.93 "/>
<polygon fill="#949391" points="715.34,483.617 720.152,495.441 728.406,482.316 "/>
<polygon fill="#FAEDDC" points="734.323,632.152 732.409,640.062 746.598,628.434 "/>
<polygon fill="#F5E6D1" points="708.34,654.77 707.719,673.211 720.577,666.93 "/>
<polygon fill="#A7A3A4" points="707.784,428.25 719.863,437.938 720.473,428.848 "/>
<polygon fill="#D0C7BE" points="720.473,428.848 719.863,437.938 722.031,435.504 "/>
<polygon fill="#D3CAC3" points="712.827,421.902 707.784,428.25 720.473,428.848 "/>
<polygon fill="#D1C3B8" points="726.863,463.762 728.406,482.316 732,465.551 "/>
<polygon fill="#E0D4C6" points="710.922,443.523 711.477,465.789 723.086,454.938 "/>
<polygon fill="#F4E5D2" points="713.781,539.301 705.637,550.578 724.702,548.367 "/>
<polygon fill="#D2C2B2" points="718.77,710.43 708.241,728.004 726.066,725.57 "/>
<polygon fill="#FAEDDC" points="724.238,529.312 713.781,539.301 724.702,548.367 "/>
<polygon fill="#F9EAD3" points="705.637,550.578 710.555,563.348 724.702,548.367 "/>
<polygon fill="#FAEDDC" points="732.566,645.129 727.452,656.141 735.547,657.906 "/>
<polygon fill="#FCF3E1" points="724.504,454.363 723.086,454.938 726.863,463.762 "/>
<polygon fill="#FCFCF0" points="708.34,654.77 720.577,666.93 727.452,656.141 "/>
<polygon fill="#CCC4B9" points="722.031,435.504 719.863,437.938 728.831,436.227 "/>
<polygon fill="#DAD2C5" points="720.473,428.848 722.031,435.504 728.831,436.227 "/>
<polygon fill="#B2A89E" points="720.577,666.93 730.57,675.863 735.547,657.906 "/>
<polygon fill="#9E948A" points="712.461,685.871 718.77,710.43 729.816,693.02 "/>
<polygon fill="#F5E6D1" points="720.577,666.93 712.461,685.871 730.57,675.863 "/>
<polygon fill="#D0BFB5" points="727.452,656.141 720.577,666.93 735.547,657.906 "/>
<polygon fill="#E0D3C3" points="730.57,675.863 744.469,682.066 746.02,675.727 "/>
<polygon fill="#E5D8C8" points="724.702,548.367 710.555,563.348 733.616,566.52 "/>
<polygon fill="#E2D7D3" points="724.238,529.312 724.702,548.367 735.27,525.375 "/>
<polygon fill="#C1B5A9" points="735.547,657.906 730.57,675.863 746.02,675.727 "/>
<polygon fill="#D4C7B7" points="736.086,704.695 718.77,710.43 736.156,712.266 "/>
<polygon fill="#C1B4A4" points="718.77,710.43 726.066,725.57 736.156,712.266 "/>
<polygon fill="#C5BBAF" points="729.816,693.02 718.77,710.43 736.086,704.695 "/>
<polygon fill="#F1E3D6" points="726.863,463.762 732,465.551 737.202,459.91 "/>
<polygon fill="#B0A299" points="730.57,675.863 729.816,693.02 744.469,682.066 "/>
<polygon fill="#F0E3D2" points="724.504,454.363 726.863,463.762 737.202,459.91 "/>
<polygon fill="#C7B7A7" points="736.156,712.266 726.066,725.57 737.336,728.07 "/>
<polygon fill="#E0D4C4" points="724.702,548.367 733.616,566.52 738.391,552.84 "/>
<polygon fill="#D9CCBC" points="736.086,704.695 736.156,712.266 739.734,707.695 "/>
<polygon fill="#D8CDC7" points="733.12,424.961 734.129,425.418 742.141,411.359 "/>
<polygon fill="#BAB0A6" points="767.969,662.758 769.016,672.426 769.051,662.168 "/>
<polygon fill="#878789" points="732,465.551 728.406,482.316 740.594,480.559 "/>
<polygon fill="#C1B7AB" points="746.02,675.727 747.534,675.379 753.734,671.883 "/>
<polygon fill="#D0BFB5" points="732.566,645.129 735.547,657.906 746.452,650.754 "/>
<polygon fill="#FCFCF0" points="732.409,640.062 732.566,645.129 746.452,650.754 "/>
<polygon fill="#C9BDB1" points="746.745,551.695 749.098,553.457 755.656,545.23 "/>
<polygon fill="#D5CBBF" points="738.391,552.84 746.745,551.695 748.823,538.148 "/>
<polygon fill="#DBCEBE" points="746.02,675.727 744.469,682.066 747.534,675.379 "/>
<polygon fill="#A39B98" points="734.129,425.418 736.051,449.141 752.07,455.277 "/>
<polygon fill="#D2C9C0" points="737.202,459.91 732,465.551 748.098,468.738 "/>
<polygon fill="#A1A39E" points="732,465.551 740.594,480.559 748.098,468.738 "/>
<polygon fill="#DACEC2" points="746.745,551.695 738.391,552.84 749.098,553.457 "/>
<polygon fill="#BBB2AB" points="738.391,552.84 733.616,566.52 749.098,553.457 "/>
<polygon fill="#ECE0D0" points="735.27,525.375 724.702,548.367 748.823,538.148 "/>
<polygon fill="#F5E6D1" points="724.702,548.367 738.391,552.84 748.823,538.148 "/>
<polygon fill="#E0D3C3" points="734.129,425.418 752.07,455.277 769.12,441.754 "/>
<polygon fill="#C3B9B0" points="761.258,655.559 767.969,662.758 769.051,662.168 "/>
<polygon fill="#AEA198" points="746.02,675.727 753.734,671.883 754.156,660.141 "/>
<polygon fill="#BEB2A4" points="735.547,657.906 746.02,675.727 754.156,660.141 "/>
<polygon fill="#928B85" points="761.609,679.301 761.598,680.246 766.195,692.711 "/>
<polygon fill="#A69F97" points="754.156,660.141 760.206,663.504 761.258,655.559 "/>
<polygon fill="#D1C3B8" points="770.745,478.82 790.043,487.695 792.109,467.184 "/>
<polygon fill="#BDB0A7" points="767.969,662.758 747.534,675.379 769.016,672.426 "/>
<polygon fill="#C9BDB1" points="754.156,660.141 753.734,671.883 760.206,663.504 "/>
<polygon fill="#C8BDB7" points="753.734,671.883 747.534,675.379 761.609,679.301 "/>
<polygon fill="#ABA29B" points="747.534,675.379 744.469,682.066 761.598,680.246 "/>
<polygon fill="#FFF5E3" points="742.141,411.359 734.129,425.418 769.12,441.754 "/>
<polygon fill="#AA9F9D" points="769.051,662.168 769.016,672.426 775.773,671.277 "/>
<polygon fill="#B6A7A2" points="761.598,680.246 744.469,682.066 766.195,692.711 "/>
<polygon fill="#B9B0A7" points="762.098,591.887 770.027,600.184 770.141,582.555 "/>
<polygon fill="#AAA097" points="761.609,679.301 747.534,675.379 767.969,662.758 "/>
<polygon fill="#CEC4B8" points="761.258,655.559 760.206,663.504 767.969,662.758 "/>
<polygon fill="#B8AEA5" points="747.534,675.379 761.598,680.246 769.016,672.426 "/>
<polygon fill="#A19694" points="761.609,679.301 767.969,662.758 769.016,672.426 "/>
<polygon fill="#A29B93" points="761.598,680.246 761.609,679.301 769.016,672.426 "/>
<polygon fill="#BFB3A7" points="760.206,663.504 753.734,671.883 769.016,672.426 "/>
<polygon fill="#B8AEA5" points="753.734,671.883 761.609,679.301 769.016,672.426 "/>
<polygon fill="#C3B7AB" points="767.969,662.758 760.206,663.504 769.016,672.426 "/>
<polygon fill="#B4A9A5" points="788.875,673.07 782.641,681.297 789.852,683.387 "/>
<polygon fill="#F9ECDB" points="742.141,411.359 769.12,441.754 778.426,420.898 "/>
<polygon fill="#FAEADB" points="768.691,405.668 742.141,411.359 778.426,420.898 "/>
<polygon fill="#A29994" points="770.141,582.555 770.027,600.184 784.312,603 "/>
<polygon fill="#EBDECD" points="768.066,460.867 770.745,478.82 792.109,467.184 "/>
<polygon fill="#E2D2C2" points="793.859,643.973 811.969,660.434 812.625,630.59 "/>
<polygon fill="#9E908D" points="775.773,671.277 769.016,672.426 782.641,681.297 "/>
<polygon fill="#CEC4B8" points="774.098,623.398 769.12,626.805 779.234,631.266 "/>
<polygon fill="#AAA09E" points="769.12,626.805 768.023,639.664 779.234,631.266 "/>
<polygon fill="#A29896" points="769.016,672.426 761.609,679.301 782.641,681.297 "/>
<polygon fill="#C6BCB3" points="770.141,582.555 784.312,603 799.648,581.32 "/>
<polygon fill="#FCEDDA" points="830.441,651.27 830.719,650.887 833.086,631.848 "/>
<polygon fill="#EADDCC" points="788.441,623.711 793.859,643.973 812.625,630.59 "/>
<polygon fill="#DED2C4" points="792.109,467.184 790.043,487.695 795.34,467.715 "/>
<polygon fill="#BAADA4" points="779.234,631.266 768.023,639.664 791.648,646.496 "/>
<polygon fill="#CAC0B6" points="775.773,671.277 782.641,681.297 788.875,673.07 "/>
<polygon fill="#C3B9AF" points="812.625,630.59 830.441,651.27 833.086,631.848 "/>
<polygon fill="#D0BFB5" points="788.441,623.711 779.234,631.266 793.859,643.973 "/>
<polygon fill="#AEA19B" points="779.234,631.266 791.648,646.496 793.859,643.973 "/>
<polygon fill="#FFF7E5" points="790.909,453.008 792.109,467.184 795.34,467.715 "/>
<polygon fill="#F7E7D7" points="811.534,611.918 796.663,613.332 812.625,630.59 "/>
<polygon fill="#E2D8CF" points="774.491,564.426 770.141,582.555 799.648,581.32 "/>
<polygon fill="#F7ECDA" points="790.909,453.008 795.34,467.715 804.34,447.125 "/>
<polygon fill="#C4B5B0" points="793.859,643.973 791.648,646.496 811.969,660.434 "/>
<polygon fill="#C6BCB2" points="795.34,467.715 790.043,487.695 812.383,475.035 "/>
<path fill="#585B6A" d="M799.688,509.672"/>
<polygon fill="#E2D2C3" points="796.663,613.332 788.441,623.711 812.625,630.59 "/>
<polygon fill="#CCC2B9" points="804.34,447.125 795.34,467.715 812.383,475.035 "/>
<path fill="#304766" d="M799.688,509.672"/>
<polygon fill="#F6E6D6" points="811.534,611.918 812.625,630.59 820.258,625.445 "/>
<polygon fill="#ECE0D0" points="811.534,611.918 820.258,625.445 836.711,619.426 "/>
<polygon fill="#CAC1BC" points="825.547,447.211 804.34,447.125 826.762,457.094 "/>
<polygon fill="#CCC2B9" points="804.34,447.125 812.383,475.035 826.762,457.094 "/>
<polygon fill="#ECDFCE" points="820.258,625.445 812.625,630.59 833.086,631.848 "/>
<polygon fill="#DFCDBF" points="812.625,630.59 811.969,660.434 830.441,651.27 "/>
<polygon fill="#BBAAA2" points="811.969,660.434 829.461,668.473 830.441,651.27 "/>
<polygon fill="#E5D5C8" points="830.719,650.887 830.441,651.27 839.961,665.711 "/>
<polygon fill="#D8CFBE" points="833.086,631.848 830.441,651.27 846.219,643.109 "/>
<polygon fill="#C4B6AD" points="830.441,651.27 829.461,668.473 839.961,665.711 "/>
<polygon fill="#C9BCB3" points="846.219,643.109 830.441,651.27 851.395,660.176 "/>
<polygon fill="#A29994" points="830.441,651.27 839.961,665.711 851.395,660.176 "/>
<polygon fill="#FCFCF0" points="996.521,615.959 1010.604,638.014 1011.122,609.959 "/>
<polygon fill="#F6E8DB" points="1135.465,679.408 1140.152,688.662 1144.062,677.127 "/>
<polygon fill="#FFF8E9" points="1140.152,688.662 1140.37,689.74 1144.062,677.127 "/>
<polygon fill="#D7CCC6" points="817.934,526.931 812.448,533.65 820.793,534.685 "/>
<polygon fill="#ECE0D0" points="1111.073,676.057 1104.359,676.092 1117.341,689.943 "/>
<polygon fill="#C3B9AF" points="1104.359,676.092 1091.102,687.971 1117.341,689.943 "/>
<polygon fill="#D8CEC2" points="1176.027,679.808 1174.52,695.304 1187.034,702.271 "/>
<polygon fill="#D9C8BE" points="801.887,541.248 813.141,555.029 817.227,539.521 "/>
<polygon fill="#F1E1D1" points="1144.062,677.127 1140.37,689.74 1166.172,703.654 "/>
<polygon fill="#FFEFDD" points="1144.062,677.127 1174.52,695.304 1176.027,679.808 "/>
<polygon fill="#F5E6D1" points="1111.073,676.057 1117.341,689.943 1118.531,681.393 "/>
<polygon fill="#EDDECB" points="982.553,660.814 1000.704,666.451 1001.154,637.592 "/>
<polygon fill="#FFF2DF" points="1144.062,677.127 1166.172,703.654 1174.52,695.304 "/>
<polygon fill="#FFFAE7" points="996.521,615.959 989.536,622.682 1001.154,637.592 "/>
<polygon fill="#B3AAA5" points="786.723,547.06 800.366,551.494 801.887,541.248 "/>
<polygon fill="#CDC1B3" points="966.658,754.161 954.264,762.231 979.558,774.907 "/>
<polygon fill="#C4BBB4" points="798.695,532.799 786.723,547.06 801.887,541.248 "/>
<polygon fill="#FFF8E8" points="1144.062,677.127 1176.027,679.808 1178.538,674.015 "/>
<polygon fill="#FFF5E2" points="1139.991,668.775 1144.062,677.127 1178.538,674.015 "/>
<polygon fill="#BFB3A7" points="966.658,754.161 979.558,774.907 979.862,761.259 "/>
<polygon fill="#FDF8E4" points="1139.991,668.775 1178.538,674.015 1188.086,668.967 "/>
<polygon fill="#C9BCB4" points="800.366,551.494 800.11,552.724 813.141,555.029 "/>
<polygon fill="#FCEDDA" points="975.975,624.572 982.553,660.814 1001.154,637.592 "/>
<polygon fill="#FBF2E3" points="989.536,622.682 975.975,624.572 1001.154,637.592 "/>
<polygon fill="#BBB3B0" points="798.695,532.799 801.887,541.248 810.719,530.388 "/>
<polygon fill="#FEF3E1" points="1178.538,674.015 1176.027,679.808 1188.086,668.967 "/>
<polygon fill="#EADCD1" points="812.448,533.65 817.227,539.521 820.793,534.685 "/>
<polygon fill="#B7ADAB" points="810.719,530.388 801.887,541.248 812.448,533.65 "/>
<polygon fill="#C7BDB4" points="801.887,541.248 800.366,551.494 813.141,555.029 "/>
<polygon fill="#F5E6D3" points="1001.154,637.592 1000.704,666.451 1010.604,638.014 "/>
<polygon fill="#FCF1DF" points="996.521,615.959 1001.154,637.592 1010.604,638.014 "/>
<polygon fill="#F2E2D3" points="820.793,534.685 817.227,539.521 824.563,543.049 "/>
<polygon fill="#D4C7C1" points="812.448,533.65 801.887,541.248 817.227,539.521 "/>
<polygon fill="#AAAFA8" points="810.719,530.388 812.448,533.65 817.934,526.931 "/>
<polygon fill="#E5D5C5" points="1010.604,638.014 1000.704,666.451 1019.928,647.166 "/>
<polygon fill="#F7E7D7" points="846.758,539.092 851.906,549.115 853.969,537.72 "/>
<polygon fill="#EADACD" points="817.227,539.521 813.141,555.029 824.563,543.049 "/>
<polygon fill="#EEE1D1" points="1216.316,666.847 1198.441,665.229 1216.452,692.24 "/>
<polygon fill="#EBDBCB" points="982.394,773.114 979.558,774.907 988.44,797.181 "/>
<polygon fill="#CABCB1" points="1019.928,647.166 1000.704,666.451 1021.329,659.244 "/>
<polygon fill="#E8DCD0" points="1139.991,668.775 1188.086,668.967 1198.441,665.229 "/>
<polygon fill="#FFF5E3" points="1011.122,609.959 1010.604,638.014 1028.248,611.201 "/>
<polygon fill="#FDF0DD" points="1198.441,665.229 1188.086,668.967 1205.288,697.033 "/>
<polygon fill="#FFF2E1" points="1188.086,668.967 1176.027,679.808 1205.288,697.033 "/>
<polygon fill="#A69C9A" points="1019.928,647.166 1021.329,659.244 1032.373,659.158 "/>
<polygon fill="#F4E2D4" points="820.793,534.685 824.563,543.049 835.883,525.443 "/>
<polygon fill="#F2E2D2" points="835.883,525.443 846.758,539.092 848.422,524.658 "/>
<polygon fill="#D8C7BD" points="1176.027,679.808 1187.034,702.271 1205.288,697.033 "/>
<polygon fill="#C9BCB4" points="824.563,543.049 813.141,555.029 834.899,558.017 "/>
<polygon fill="#FFFCEC" points="1198.441,665.229 1205.288,697.033 1216.452,692.24 "/>
<polygon fill="#EEDED1" points="848.422,524.658 846.758,539.092 853.969,537.72 "/>
<polygon fill="#DAC9B7" points="979.558,774.907 973.533,793.88 988.44,797.181 "/>
<polygon fill="#E1D3C6" points="824.563,543.049 834.899,558.017 846.758,539.092 "/>
<polygon fill="#F7E6D4" points="835.883,525.443 824.563,543.049 846.758,539.092 "/>
<polygon fill="#E2D6C8" points="1216.316,666.847 1216.452,692.24 1222.684,679.545 "/>
<polygon fill="#D1C3BA" points="1019.928,647.166 1032.373,659.158 1043.579,636.807 "/>
<polygon fill="#E9DAC7" points="1028.248,611.201 1010.604,638.014 1043.579,636.807 "/>
<polygon fill="#F2E1CD" points="1010.604,638.014 1019.928,647.166 1043.579,636.807 "/>
<polygon fill="#AE9E91" points="956.331,783.562 963.293,786.731 979.558,774.907 "/>
<polygon fill="#DCCEC3" points="846.758,539.092 834.899,558.017 850.09,552.888 "/>
<polygon fill="#DED1C1" points="954.264,762.231 956.331,783.562 979.558,774.907 "/>
<polygon fill="#D0BFAF" points="963.293,786.731 973.533,793.88 979.558,774.907 "/>
<polygon fill="#E9D9C9" points="851.906,549.115 850.09,552.888 861.477,561.443 "/>
<polygon fill="#F8E8D8" points="846.758,539.092 850.09,552.888 851.906,549.115 "/>
<polygon fill="#F8E9D6" points="1212.477,545.789 1229.323,574.633 1237.812,540.871 "/>
<polygon fill="#C7B7A8" points="982.394,773.114 988.44,797.181 999.472,793.79 "/>
<polygon fill="#D0C6BD" points="1222.684,679.545 1216.452,692.24 1227.663,694.814 "/>
<polygon fill="#E2D5C5" points="979.862,761.259 979.558,774.907 982.394,773.114 "/>
<polygon fill="#F3E3D6" points="1229.387,575.438 1237.452,582.871 1237.812,540.871 "/>
<polygon fill="#C2BBB3" points="1222.684,679.545 1227.663,694.814 1231.676,685.217 "/>
<polygon fill="#EADDCC" points="979.862,761.259 982.394,773.114 991.99,752.204 "/>
<polygon fill="#F3E3D6" points="875.034,525.162 853.969,537.72 876.805,543.482 "/>
<polygon fill="#EDDFD2" points="848.422,524.658 853.969,537.72 875.034,525.162 "/>
<polygon fill="#FFF3E0" points="853.969,537.72 851.906,549.115 876.805,543.482 "/>
<polygon fill="#E4D4C7" points="851.906,549.115 861.477,561.443 876.805,543.482 "/>
<polygon fill="#DDCBBD" points="982.394,773.114 999.472,793.79 1010.843,767.759 "/>
<polygon fill="#D6C8BB" points="991.99,752.204 982.394,773.114 1010.843,767.759 "/>
<polygon fill="#DDD3C9" points="1106.686,433.423 1092.439,440.361 1113.782,441.224 "/>
<polygon fill="#B4A6A5" points="1091.404,457.189 1113.729,460.653 1113.782,441.224 "/>
<polygon fill="#D2CABD" points="1095.938,775.531 1106.957,773.184 1107.023,767.539 "/>
<polygon fill="#A4968D" points="1012.495,738.797 1009.777,746.207 1021.323,759.023 "/>
<polygon fill="#ADA5A2" points="1095.938,775.531 1098.105,785.574 1106.957,773.184 "/>
<polygon fill="#928A95" points="1124.102,774.691 1123.715,775.141 1125.465,787.418 "/>
<polygon fill="#A2999C" points="1123.715,775.141 1111.527,792.594 1125.465,787.418 "/>
<polygon fill="#B3A9A7" points="1106.957,773.184 1098.105,785.574 1111.527,792.594 "/>
<polygon fill="#D1BCA9" points="1032.02,760.875 1041.219,760.273 1043.641,739.176 "/>
<polygon fill="#FEF1E1" points="1106.82,766.02 1107.023,767.539 1120.727,759.195 "/>
<polygon fill="#CFC2B2" points="1032.87,718.105 1038.909,720.391 1040.305,711.895 "/>
<polygon fill="#B8AEA5" points="1130.812,760.508 1124.102,774.691 1131.988,764.105 "/>
<polygon fill="#CEC5C6" points="1120.727,759.195 1107.023,767.539 1124.102,774.691 "/>
<polygon fill="#CEC4BB" points="1106.957,773.184 1111.527,792.594 1123.715,775.141 "/>
<polygon fill="#E1D0C8" points="1107.023,767.539 1106.957,773.184 1123.715,775.141 "/>
<polygon fill="#CDC0B7" points="1092.439,440.361 1091.404,457.189 1113.782,441.224 "/>
<polygon fill="#A5A1A0" points="1134.641,776.656 1125.465,787.418 1136.172,791.852 "/>
<polygon fill="#B5ACA3" points="1130.812,760.508 1123.715,775.141 1131.988,764.105 "/>
<polygon fill="#878289" points="1162.868,463.626 1152.068,473.979 1163.045,470.509 "/>
<polygon fill="#BCB2B1" points="1131.988,764.105 1124.102,774.691 1134.641,776.656 "/>
<polygon fill="#9D9998" points="1124.102,774.691 1107.023,767.539 1130.812,760.508 "/>
<polygon fill="#6B6974" points="1123.715,775.141 1124.102,774.691 1131.988,764.105 "/>
<polygon fill="#9D9998" points="1107.023,767.539 1123.715,775.141 1130.812,760.508 "/>
<polygon fill="#C1B9B6" points="1130.812,760.508 1131.988,764.105 1143.284,757.492 "/>
<polygon fill="#AEA6A4" points="1120.727,759.195 1124.102,774.691 1131.988,764.105 "/>
<polygon fill="#CAC6BD" points="1130.812,760.508 1120.727,759.195 1131.988,764.105 "/>
<polygon fill="#CDBDAD" points="1032.87,718.105 1018.219,728.957 1038.909,720.391 "/>
<polygon fill="#91888D" points="1123.825,441.349 1113.729,460.653 1125.92,461.349 "/>
<polygon fill="#D7CDCB" points="1106.686,433.423 1113.782,441.224 1114.954,428.068 "/>
<polygon fill="#ABA09C" points="1124.102,774.691 1125.465,787.418 1134.641,776.656 "/>
<polygon fill="#F5E6D1" points="1038.909,720.391 1018.219,728.957 1043.641,739.176 "/>
<polygon fill="#F4E3CF" points="1018.219,728.957 1012.495,738.797 1043.641,739.176 "/>
<polygon fill="#BEA996" points="1021.323,759.023 1032.02,760.875 1043.641,739.176 "/>
<polygon fill="#DAC4AD" points="1012.495,738.797 1021.323,759.023 1043.641,739.176 "/>
<polygon fill="#98847D" points="1050.723,751.238 1050.223,762.719 1056.027,757.492 "/>
<polygon fill="#D0C3BA" points="1113.782,441.224 1113.729,460.653 1123.825,441.349 "/>
<polygon fill="#BFB4B0" points="1143.284,757.492 1131.988,764.105 1146.738,775.27 "/>
<polygon fill="#EBDFD1" points="1113.782,441.224 1123.825,441.349 1125.385,436.416 "/>
<polygon fill="#ABA2A5" points="1121.561,472.177 1112.279,480.974 1124.104,482.982 "/>
<polygon fill="#D4C7C1" points="1131.988,764.105 1134.641,776.656 1146.738,775.27 "/>
<polygon fill="#CBBEB6" points="1134.641,776.656 1136.172,791.852 1146.738,775.27 "/>
<polygon fill="#E5D9C9" points="1114.954,428.068 1113.782,441.224 1125.385,436.416 "/>
<polygon fill="#68676F" points="1125.92,461.349 1134.471,458.661 1135.896,454.552 "/>
<polygon fill="#958E86" points="1123.825,441.349 1125.92,461.349 1135.896,454.552 "/>
<polygon fill="#EDDECB" points="1038.909,720.391 1043.641,739.176 1049.625,718.93 "/>
<polygon fill="#B49F8A" points="1041.219,760.273 1050.223,762.719 1050.723,751.238 "/>
<polygon fill="#E2D3C0" points="1040.305,711.895 1038.909,720.391 1049.625,718.93 "/>
<polygon fill="#DDC3AC" points="1043.641,739.176 1041.219,760.273 1050.723,751.238 "/>
<polygon fill="#D3C6B5" points="1040.305,711.895 1049.625,718.93 1050.125,716.965 "/>
<polygon fill="#BAA594" points="1056.027,757.492 1062.073,768.664 1067.613,758.762 "/>
<polygon fill="#D8CCBC" points="1155.418,773.816 1146.738,775.27 1155.663,787.215 "/>
<polygon fill="#BAB5B1" points="1124.104,482.982 1129.061,495.466 1131.217,476.474 "/>
<polygon fill="#A69D9E" points="1121.561,472.177 1124.104,482.982 1131.217,476.474 "/>
<polygon fill="#C3BEBB" points="1125.92,461.349 1121.561,472.177 1131.217,476.474 "/>
<polygon fill="#E5D8C8" points="1143.284,757.492 1146.738,775.27 1155.418,773.816 "/>
<polygon fill="#BDB4AF" points="1146.738,775.27 1136.172,791.852 1155.663,787.215 "/>
<polygon fill="#8C878E" points="1146.791,445.177 1153.291,455.548 1156.49,456.056 "/>
<polygon fill="#BEB5B6" points="1123.825,441.349 1135.896,454.552 1139.282,432.544 "/>
<polygon fill="#988878" points="1056.027,757.492 1050.223,762.719 1062.073,768.664 "/>
<polygon fill="#D2C7C1" points="1125.385,436.416 1123.825,441.349 1139.282,432.544 "/>
<polygon fill="#8B868C" points="1146.791,445.177 1151.006,457.068 1153.291,455.548 "/>
<polygon fill="#848287" points="1135.896,454.552 1134.471,458.661 1147.993,464.498 "/>
<polygon fill="#CEB9A8" points="1056.027,757.492 1067.613,758.762 1070.43,740.438 "/>
<polygon fill="#FCFCF0" points="1049.625,718.93 1043.641,739.176 1070.43,740.438 "/>
<polygon fill="#ECDCC5" points="1043.641,739.176 1050.723,751.238 1070.43,740.438 "/>
<polygon fill="#C7B4A5" points="1050.723,751.238 1056.027,757.492 1070.43,740.438 "/>
<polygon fill="#C1B6B0" points="1139.282,432.544 1135.896,454.552 1146.791,445.177 "/>
<polygon fill="#AFA299" points="1237.452,582.871 1227.336,603.355 1239.323,602.059 "/>
<polygon fill="#CEBBAC" points="1070.43,740.438 1067.613,758.762 1086.266,748.484 "/>
<polygon fill="#DEC9B8" points="1074.598,737.426 1070.43,740.438 1086.266,748.484 "/>
<polygon fill="#A69DA0" points="1146.791,445.177 1135.896,454.552 1151.006,457.068 "/>
<polygon fill="#A39FA0" points="1135.896,454.552 1147.993,464.498 1151.006,457.068 "/>
<polygon fill="#FAEDDC" points="1049.625,718.93 1070.43,740.438 1076.109,722.262 "/>
<polygon fill="#EBDAC8" points="1070.43,740.438 1074.598,737.426 1076.109,722.262 "/>
<polygon fill="#746F75" points="1153.291,455.548 1151.006,457.068 1156.49,456.056 "/>
<polygon fill="#D8CBBB" points="1157.2,480.001 1157.936,504.275 1165.482,483.177 "/>
<polygon fill="#F5E6D1" points="1076.109,722.262 1074.598,737.426 1091.051,740.004 "/>
<polygon fill="#7D7A83" points="1151.006,457.068 1147.993,464.498 1156.49,456.056 "/>
<polygon fill="#E4D4C7" points="1157.2,480.001 1129.061,495.466 1157.936,504.275 "/>
<polygon fill="#D7CDC1" points="1131.217,476.474 1129.061,495.466 1157.2,480.001 "/>
<polygon fill="#9C918B" points="1229.387,575.438 1216.676,587.227 1237.452,582.871 "/>
<polygon fill="#D4CAC1" points="1229.375,394.17 1232.77,407.581 1235.823,398.925 "/>
<polygon fill="#D0C5C1" points="1197.852,432.718 1190.418,432.132 1200.327,434.272 "/>
<polygon fill="#8B868A" points="1156.49,456.056 1147.993,464.498 1162.868,463.626 "/>
<polygon fill="#9D9998" points="1147.993,464.498 1152.068,473.979 1162.868,463.626 "/>
<polygon fill="#BDAB9D" points="1074.598,737.426 1086.266,748.484 1091.051,740.004 "/>
<polygon fill="#D2C5BD" points="1200.327,434.272 1190.418,432.132 1204.168,444.338 "/>
<polygon fill="#BFB3B5" points="1197.852,432.718 1200.327,434.272 1207.977,428.531 "/>
<polygon fill="#D9CDBF" points="1200.327,434.272 1204.168,444.338 1207.977,428.531 "/>
<polygon fill="#FDEDD6" points="1097.188,600.121 1096.215,620.113 1098.207,600.52 "/>
<polygon fill="#E6D5C5" points="1082.723,611.461 1096.215,620.113 1097.188,600.121 "/>
<polygon fill="#9B9597" points="1157.936,504.275 1163.697,509.407 1172.572,485.396 "/>
<polygon fill="#BAADA5" points="1165.482,483.177 1157.936,504.275 1172.572,485.396 "/>
<polygon fill="#FEFBE8" points="1087.363,572.234 1097.188,600.121 1098.207,600.52 "/>
<polygon fill="#DECCBE" points="1198.031,572.715 1216.676,587.227 1229.323,574.633 "/>
<polygon fill="#E4D1C0" points="1072.37,599.898 1082.723,611.461 1097.188,600.121 "/>
<polygon fill="#ECDACC" points="1087.363,572.234 1072.37,599.898 1097.188,600.121 "/>
<polygon fill="#F1E1D2" points="1225.965,467.397 1211.316,475.565 1229.801,485.601 "/>
<polygon fill="#C7B8B1" points="1229.323,574.633 1216.676,587.227 1229.387,575.438 "/>
<polygon fill="#D7C7B7" points="1096.215,620.113 1107.105,624.309 1116.566,612.281 "/>
<polygon fill="#F2E0CA" points="1098.207,600.52 1096.215,620.113 1116.566,612.281 "/>
<polygon fill="#D0C2B9" points="1211.316,475.565 1212.82,488.093 1229.801,485.601 "/>
<polygon fill="#F2E4D7" points="1212.477,545.789 1198.031,572.715 1229.323,574.633 "/>
<polygon fill="#B0AAAC" points="1243.527,499.824 1254.625,504.459 1257.741,494.706 "/>
<polygon fill="#C2B5AC" points="1239.262,490.679 1243.527,499.824 1244.168,489.425 "/>
<polygon fill="#F2E4CA" points="1225.965,467.397 1229.801,485.601 1234.93,478.285 "/>
<polygon fill="#CFC4BE" points="1265.148,395.66 1235.823,398.925 1268.355,409.127 "/>
<polygon fill="#BFB4AE" points="1238.051,459.644 1234.93,478.285 1246.598,469.776 "/>
<polygon fill="#F4E4D4" points="1107.707,555.961 1098.207,600.52 1122.832,602.559 "/>
<polygon fill="#CEC0B7" points="1098.207,600.52 1116.566,612.281 1122.832,602.559 "/>
<polygon fill="#F3E6D6" points="1225.965,467.397 1234.93,478.285 1238.051,459.644 "/>
<polygon fill="#DCD2C8" points="1217.77,440.914 1230.438,453.601 1238.859,438.979 "/>
<polygon fill="#B3A8A4" points="1244.168,489.425 1243.527,499.824 1257.741,494.706 "/>
<polygon fill="#C9BBB8" points="1252.582,479.531 1244.168,489.425 1257.741,494.706 "/>
<polygon fill="#F8E9D6" points="1107.707,555.961 1122.832,602.559 1137.902,567.344 "/>
<polygon fill="#E8D7C3" points="1138.586,568.633 1135.809,597.293 1158.316,592.719 "/>
<polygon fill="#AF9E96" points="1122.832,602.559 1135.809,597.293 1138.586,568.633 "/>
<polygon fill="#E5D5C5" points="1137.902,567.344 1122.832,602.559 1138.586,568.633 "/>
<polygon fill="#B8AFA8" points="1234.93,478.285 1244.168,489.425 1252.582,479.531 "/>
<polygon fill="#CEC5C0" points="1246.598,469.776 1234.93,478.285 1252.582,479.531 "/>
<polygon fill="#DECEBF" points="1107.707,555.961 1137.902,567.344 1144.391,554.832 "/>
<polygon fill="#D3C8C2" points="1137.902,529.633 1116.988,528.863 1144.391,554.832 "/>
<polygon fill="#F2E4D7" points="1116.988,528.863 1107.707,555.961 1144.391,554.832 "/>
<polygon fill="#BDAD9D" points="1137.902,567.344 1138.586,568.633 1144.391,554.832 "/>
<polygon fill="#F9E8D4" points="1162.413,558.379 1138.586,568.633 1165.25,579.262 "/>
<polygon fill="#FFF3DB" points="1138.586,568.633 1158.316,592.719 1165.25,579.262 "/>
<polygon fill="#EDE3D9" points="1229.375,394.17 1235.823,398.925 1265.148,395.66 "/>
<polygon fill="#CBBDB2" points="1179.288,545.949 1162.413,558.379 1180.465,563.668 "/>
<polygon fill="#F5E4D4" points="1144.391,554.832 1138.586,568.633 1162.413,558.379 "/>
<polygon fill="#FFEFDD" points="1165.25,579.262 1174.991,585.219 1180.465,563.668 "/>
<polygon fill="#D1BEAF" points="1158.316,592.719 1165.245,602.59 1174.991,585.219 "/>
<polygon fill="#F9E7D3" points="1165.25,579.262 1158.316,592.719 1174.991,585.219 "/>
<polygon fill="#EFDFCF" points="1162.413,558.379 1165.25,579.262 1180.465,563.668 "/>
<polygon fill="#C0AFA8" points="1198.031,572.715 1192.148,569.02 1198.727,590.043 "/>
<polygon fill="#D1C1B4" points="1171.543,534.68 1162.413,558.379 1179.288,545.949 "/>
<polygon fill="#CCBCAF" points="1174.991,585.219 1165.245,602.59 1182.754,602.594 "/>
<polygon fill="#E3D6C6" points="1192.148,569.02 1174.991,585.219 1198.727,590.043 "/>
<polygon fill="#DECEC1" points="1180.465,563.668 1174.991,585.219 1192.148,569.02 "/>
<polygon fill="#DCCCBC" points="1180.465,563.668 1192.148,569.02 1195.469,548.602 "/>
<polygon fill="#C2B1A7" points="1174.991,585.219 1182.754,602.594 1198.727,590.043 "/>
<polygon fill="#D6C7B4" points="1195.469,548.602 1192.148,569.02 1198.031,572.715 "/>
<polygon fill="#FFF0DD" points="1179.288,545.949 1180.465,563.668 1195.469,548.602 "/>
<polygon fill="#AB9995" points="1216.676,587.227 1227.336,603.355 1237.452,582.871 "/>
<polygon fill="#FFF4E2" points="1179.288,545.949 1195.469,548.602 1199.832,542.266 "/>
<polygon fill="#FEF5E3" points="1195.469,548.602 1198.031,572.715 1212.477,545.789 "/>
<polygon fill="#FAEADB" points="1199.832,542.266 1195.469,548.602 1212.477,545.789 "/>
</svg>
