<?xml version="1.0" encoding="utf-8"?>
<!-- Generator: Adobe Illustrator 14.0.0, SVG Export Plug-In . SVG Version: 6.00 Build 43363)  -->
<!DOCTYPE svg PUBLIC "-//W3C//DTD SVG 1.1//EN" "http://www.w3.org/Graphics/SVG/1.1/DTD/svg11.dtd">
<svg version="1.1" id="Layer_1" xmlns="http://www.w3.org/2000/svg" xmlns:xlink="http://www.w3.org/1999/xlink" x="0px" y="0px"
	 width="595.28px" height="841.89px" viewBox="0 0 595.28 841.89" enable-background="new 0 0 595.28 841.89" xml:space="preserve">
<polygon fill="#E4E3E4" points="134.102,334.921 107,350.89 138.73,348.627 "/>
<polygon fill="#CECECF" points="107,350.89 129.012,368.429 138.73,348.627 "/>
<polygon fill="#DADADC" points="102.273,336.421 107,350.89 120.781,327.706 "/>
<polygon fill="#A9A19E" points="171.066,491.347 176.781,496.651 193,469.89 "/>
<polygon fill="#C7C7C7" points="209.281,381.656 192.633,395.019 211.637,404.233 "/>
<polygon fill="#DAD9D9" points="129.012,368.429 122,378.89 131.805,383.187 "/>
<polygon fill="#E2E3E5" points="120.781,327.706 107,350.89 134.102,334.921 "/>
<polygon fill="#9E9F9E" points="149,429.89 140.312,430.683 151,446.89 "/>
<polygon fill="#B8B6B5" points="131.805,383.187 150.242,395.706 150.461,387.733 "/>
<polygon fill="#B9B4B1" points="168.629,490.116 149,493.89 171.066,491.347 "/>
<polygon fill="#928982" points="176.781,496.651 149,493.89 179.23,500.12 "/>
<polygon fill="#C1BDBC" points="131.805,383.187 146.07,409.785 150.242,395.706 "/>
<polygon fill="#EFEFEF" points="129.012,368.429 131.805,383.187 145.148,377.011 "/>
<polygon fill="#D9D9DA" points="138.73,348.627 129.012,368.429 145.148,377.011 "/>
<polygon fill="#DCDCDA" points="131.805,383.187 122,378.89 146.07,409.785 "/>
<polygon fill="#D7D7D7" points="146.07,409.785 140.312,430.683 149,429.89 "/>
<polygon fill="#DCDBDB" points="145.148,377.011 131.805,383.187 150.461,387.733 "/>
<polygon fill="#BBBBB9" points="151,446.89 166.039,457.37 179.559,435.519 "/>
<polygon fill="#FBFBF9" points="146.07,409.785 149,429.89 156.812,423.421 "/>
<polygon fill="#DFE0DB" points="149,429.89 151,446.89 156.812,423.421 "/>
<polygon fill="#CECDC9" points="166.039,457.37 157,474.89 168.629,490.116 "/>
<polygon fill="#ACAAA7" points="141,462.89 157,474.89 166.039,457.37 "/>
<polygon fill="#B0ADA8" points="150.242,395.706 146.07,409.785 163.859,399.104 "/>
<polygon fill="#B9B6B1" points="146.07,409.785 156.812,423.421 163.859,399.104 "/>
<polygon fill="#B7B5B2" points="150.461,387.733 150.242,395.706 163.859,399.104 "/>
<polygon fill="#C0BDBA" points="157,474.89 149,493.89 168.629,490.116 "/>
<polygon fill="#A1A09F" points="151,446.89 141,462.89 166.039,457.37 "/>
<polygon fill="#DCDBD9" points="156.812,423.421 151,446.89 179.559,435.519 "/>
<polygon fill="#C6C3BE" points="163.859,399.104 156.812,423.421 175.02,412.785 "/>
<polygon fill="#918A84" points="171.066,491.347 149,493.89 176.781,496.651 "/>
<polygon fill="#FFFFFE" points="175.02,412.785 156.812,423.421 179.559,435.519 "/>
<polygon fill="#E4E0DB" points="166.039,457.37 168.629,490.116 193,469.89 "/>
<polygon fill="#C4BFBC" points="168.629,490.116 171.066,491.347 193,469.89 "/>
<polygon fill="#A39994" points="176.781,496.651 179.23,500.12 193,469.89 "/>
<polygon fill="#E9E6E1" points="179.559,435.519 166.039,457.37 193,469.89 "/>
<polygon fill="#CBC9CA" points="209.281,381.656 216.676,383.413 218.707,376.531 "/>
<polygon fill="#C7C6C2" points="214.789,415.104 193,469.89 215.555,481.585 "/>
<polygon fill="#B8B8B8" points="218.707,376.531 216.676,383.413 234.062,363.777 "/>
<polygon fill="#DBDAD8" points="192.633,395.019 175.02,412.785 211.637,404.233 "/>
<polygon fill="#A59A90" points="179.23,500.12 214,517.89 215.555,481.585 "/>
<polygon fill="#C2C1BD" points="179.559,435.519 193,469.89 214.789,415.104 "/>
<polygon fill="#C3C2C0" points="175.02,412.785 179.559,435.519 214.789,415.104 "/>
<polygon fill="#E1DFDE" points="211.637,404.233 175.02,412.785 214.789,415.104 "/>
<polygon fill="#A7A29E" points="193,469.89 179.23,500.12 215.555,481.585 "/>
<polygon fill="#CFCFCF" points="209.281,381.656 211.637,404.233 216.676,383.413 "/>
<polygon fill="#E2E2E2" points="248.578,359.815 248.223,361.913 252.004,358.742 "/>
<polygon fill="#F3F1F2" points="234.062,363.777 248.223,361.913 248.578,359.815 "/>
<polygon fill="#E2E2E2" points="248.223,361.913 234.062,363.777 256.594,405.858 "/>
<polygon fill="#D1D1D3" points="234.062,363.777 216.676,383.413 256.594,405.858 "/>
<polygon fill="#D8D7D7" points="211.637,404.233 214.789,415.104 256.594,405.858 "/>
<polygon fill="#BEBDBF" points="216.676,383.413 211.637,404.233 256.594,405.858 "/>
<polygon fill="#897C6F" points="215.555,481.585 214,517.89 266,517.89 "/>
<polygon fill="#C5C6C8" points="248.223,361.913 256.594,405.858 269.148,357.788 "/>
<polygon fill="#FDFDFD" points="252.004,358.742 248.223,361.913 269.148,357.788 "/>
<polygon fill="#BDBDBD" points="256.594,405.858 214.789,415.104 278.289,444.671 "/>
<polygon fill="#C7C7C2" points="214.789,415.104 215.555,481.585 278.289,444.671 "/>
<polygon fill="#968C83" points="297.938,462.765 266,517.89 313,525.89 "/>
<polygon fill="#958E88" points="215.555,481.585 266,517.89 278.289,444.671 "/>
<polygon fill="#BCBBB7" points="278.289,444.671 266,517.89 297.938,462.765 "/>
<polygon fill="#F6F5F7" points="269.148,357.788 256.594,405.858 309.82,372.222 "/>
<polygon fill="#ADACAA" points="299.109,337.757 281.707,340.007 309.82,372.222 "/>
<polygon fill="#F4F4F1" points="281.707,340.007 269.148,357.788 309.82,372.222 "/>
<polygon fill="#DCDCDA" points="297.938,462.765 337.965,477.96 346.527,417.511 "/>
<polygon fill="#B4B2AD" points="358.453,368.097 360.184,409.226 360.355,368.709 "/>
<polygon fill="#AFADB0" points="299.109,337.757 309.82,372.222 313.691,334.042 "/>
<polygon fill="#E2E2E4" points="309.82,372.222 256.594,405.858 317.18,380.281 "/>
<polygon fill="#D4D4D3" points="256.594,405.858 278.289,444.671 317.18,380.281 "/>
<polygon fill="#E2E2E2" points="317.18,380.281 278.289,444.671 346.527,417.511 "/>
<polygon fill="#B4B3B1" points="313.691,334.042 309.82,372.222 330.309,351.769 "/>
<polygon fill="#E5E7E6" points="309.82,372.222 317.18,380.281 330.309,351.769 "/>
<polygon fill="#A9A59E" points="297.938,462.765 313,525.89 337.965,477.96 "/>
<polygon fill="#DCDCDC" points="278.289,444.671 297.938,462.765 346.527,417.511 "/>
<polygon fill="#B9B4B1" points="411.543,361.968 416.629,368.781 416.836,363.847 "/>
<polygon fill="#A7A5A1" points="330.309,351.769 358.453,368.097 361.801,328.011 "/>
<polygon fill="#C5C5C5" points="313.691,334.042 330.309,351.769 349.441,314.113 "/>
<polygon fill="#ADA7A4" points="358.453,368.097 360.355,368.709 361.801,328.011 "/>
<polygon fill="#B4B3B1" points="313.527,321.921 313.691,334.042 349.441,314.113 "/>
<polygon fill="#9E9894" points="330.309,351.769 317.18,380.281 358.453,368.097 "/>
<polygon fill="#D5D6D6" points="358.453,368.097 317.18,380.281 360.184,409.226 "/>
<polygon fill="#E9E6E7" points="349.441,314.113 330.309,351.769 361.801,328.011 "/>
<polygon fill="#F4F3F3" points="317.18,380.281 346.527,417.511 360.184,409.226 "/>
<polygon fill="#FDFDFB" points="389.082,396.522 360.184,409.226 389.375,397.894 "/>
<polygon fill="#E6E5E6" points="360.184,409.226 378.832,461.671 389.375,397.894 "/>
<polygon fill="#9F8F82" points="337.965,477.96 313,525.89 376,526.89 "/>
<polygon fill="#D0CFCC" points="386.984,335.218 392.902,365.495 406.27,348.187 "/>
<polygon fill="#BEB7B1" points="337.965,477.96 376,526.89 378.832,461.671 "/>
<polygon fill="#E6E5E6" points="360.184,409.226 346.527,417.511 378.832,461.671 "/>
<polygon fill="#ECEDE7" points="346.527,417.511 337.965,477.96 378.832,461.671 "/>
<polygon fill="#CDC8C2" points="378.832,461.671 376,526.89 411.055,463.167 "/>
<polygon fill="#CDC8C4" points="412.887,357.999 411.543,361.968 416.836,363.847 "/>
<polygon fill="#D5D4CF" points="361.801,328.011 360.355,368.709 386.984,335.218 "/>
<polygon fill="#A39C94" points="392.902,365.495 360.355,368.709 392.949,372.377 "/>
<polygon fill="#F4F2F1" points="360.355,368.709 360.184,409.226 389.082,396.522 "/>
<polygon fill="#C6C1BC" points="386.984,335.218 360.355,368.709 392.902,365.495 "/>
<polygon fill="#A09990" points="360.355,368.709 389.082,396.522 392.949,372.377 "/>
<polygon fill="#ABA79E" points="406.27,348.187 411.543,361.968 412.887,357.999 "/>
<polygon fill="#A9A19E" points="392.949,372.377 389.082,396.522 411.109,402.792 "/>
<polygon fill="#C7C3BC" points="406.27,348.187 392.902,365.495 411.543,361.968 "/>
<polygon fill="#9D948A" points="431.031,476.659 376,526.89 432.762,520.269 "/>
<polygon fill="#E8E4E3" points="389.082,396.522 389.375,397.894 411.109,402.792 "/>
<polygon fill="#BAB5B2" points="416.836,363.847 416.629,368.781 419.148,361.729 "/>
<polygon fill="#ACA59F" points="392.902,365.495 392.949,372.377 411.543,361.968 "/>
<polygon fill="#CBC9C7" points="431.031,476.659 437.496,479.011 446.176,462.976 "/>
<polygon fill="#CCC8C2" points="411.055,463.167 376,526.89 431.031,476.659 "/>
<polygon fill="#B8B8B0" points="411.543,361.968 392.949,372.377 416.629,368.781 "/>
<polygon fill="#AAA7A0" points="392.949,372.377 411.109,402.792 416.629,368.781 "/>
<polygon fill="#D1D0CE" points="378.832,461.671 411.055,463.167 419.164,415.249 "/>
<polygon fill="#BDB7B3" points="412.887,357.999 416.836,363.847 419.148,361.729 "/>
<polygon fill="#F4F2F1" points="389.375,397.894 378.832,461.671 419.164,415.249 "/>
<polygon fill="#BCB4B1" points="411.109,402.792 389.375,397.894 419.164,415.249 "/>
<polygon fill="#9E9489" points="411.109,402.792 419.164,415.249 428.086,398.882 "/>
<polygon fill="#9F9488" points="435.98,372.019 428.086,398.882 447.938,385.421 "/>
<polygon fill="#ADA095" points="416.629,368.781 411.109,402.792 428.086,398.882 "/>
<polygon fill="#CDCCC6" points="431.031,476.659 432.762,520.269 437.496,479.011 "/>
<polygon fill="#BDB4AC" points="416.629,368.781 428.086,398.882 435.98,372.019 "/>
<polygon fill="#B1ACA8" points="419.148,361.729 416.629,368.781 435.98,372.019 "/>
<polygon fill="#A49F9B" points="419.148,361.729 435.98,372.019 437.043,360.425 "/>
<polygon fill="#ADAAA2" points="448.574,430.69 411.055,463.167 449.016,451.62 "/>
<polygon fill="#CECDCA" points="411.055,463.167 431.031,476.659 446.176,462.976 "/>
<polygon fill="#CCCCC7" points="411.055,463.167 446.176,462.976 449.016,451.62 "/>
<polygon fill="#BEBDBD" points="446.176,462.976 437.496,479.011 449.289,475.987 "/>
<polygon fill="#B8ACAC" points="437.043,360.425 435.98,372.019 449.617,355.699 "/>
<polygon fill="#D2CECB" points="428.086,398.882 419.164,415.249 448.574,430.69 "/>
<polygon fill="#AAA9A5" points="419.164,415.249 411.055,463.167 448.574,430.69 "/>
<polygon fill="#C0BBB8" points="435.98,372.019 447.938,385.421 449.617,355.699 "/>
<polygon fill="#A99687" points="471.449,509.882 492.086,511.339 493.047,500.577 "/>
<polygon fill="#C0BBAB" points="468.438,501.929 471.316,510.272 471.449,509.882 "/>
<polygon fill="#B7B0AA" points="456.199,475.315 449.289,475.987 468.438,501.929 "/>
<polygon fill="#BBB7AE" points="437.496,479.011 432.762,520.269 468.438,501.929 "/>
<polygon fill="#C1BEB9" points="449.289,475.987 437.496,479.011 468.438,501.929 "/>
<polygon fill="#A09486" points="471.316,510.272 432.762,520.269 476.102,529.261 "/>
<polygon fill="#ACA49A" points="468.438,501.929 471.449,509.882 493.047,500.577 "/>
<polygon fill="#999385" points="468.438,501.929 432.762,520.269 471.316,510.272 "/>
<polygon fill="#C1B8A9" points="471.449,509.882 471.316,510.272 476.102,529.261 "/>
<polygon fill="#A89B8D" points="471.449,509.882 476.102,529.261 492.086,511.339 "/>
</svg>
