<?xml version="1.0" encoding="utf-8"?>
<!-- Generator: Adobe Illustrator 16.0.0, SVG Export Plug-In . SVG Version: 6.00 Build 0)  -->
<!DOCTYPE svg PUBLIC "-//W3C//DTD SVG 1.1//EN" "http://www.w3.org/Graphics/SVG/1.1/DTD/svg11.dtd">
<svg version="1.1" xmlns="http://www.w3.org/2000/svg" xmlns:xlink="http://www.w3.org/1999/xlink" x="0px" y="0px"
	 width="873.186px" height="2249.048px" viewBox="0 0 873.186 2249.048" enable-background="new 0 0 873.186 2249.048"
	 xml:space="preserve">
<g id="background" display="none">
</g>
<g id="new_guides">
</g>
<g id="sky">
</g>
<g id="sea">
</g>
<g id="fields">
	<path fill="#CDDC29" d="M554.686,191.667"/>
	<polygon fill="#DEDDA5" points="438.424,255.292 329.041,317.51 439.131,382.74 552.635,317.51 	"/>
	<polygon fill="#B7CD8B" points="438.908,380.292 546.126,443.316 654.909,380.253 547.036,317.85 	"/>
	<polygon fill="#DEDDA5" points="655.573,255.173 547.036,317.85 654.909,380.253 764.58,316.92 	"/>
	<polygon fill="#B7CD8B" points="654.809,506.169 763.935,569.166 873.061,506.167 763.784,443.316 	"/>
	<polygon fill="#CFD68A" points="441.953,637.416 654.809,506.169 546.126,443.316 329.061,568.667 	"/>
	<polygon fill="#DEDDA5" points="330.008,443.316 111.867,569.218 219.811,631.542 437.936,505.542 	"/>
	<polygon fill="#B7CD8B" points="219.811,631.542 328.996,694.604 438.035,631.635 329.061,568.667 	"/>
	<polygon fill="#C3CE41" points="110.811,694.667 2.811,632.167 111.867,569.218 219.811,631.542 	"/>
	<polygon fill="#C0D192" points="220.553,255.409 111.867,317.346 220.826,380.292 332.146,319.85 	"/>
	<polygon fill="#C3CF5E" points="546.896,191.995 438.424,255.292 547.036,317.85 655.573,255.173 	"/>
	<polygon fill="#D1D791" points="764.977,191.995 655.573,255.173 764.58,316.92 873.186,253.722 	"/>
	<polygon fill="#C3CE41" points="110.512,191.886 2.71,254.376 111.867,317.346 220.553,255.409 	"/>
	<polygon fill="#A8C883" points="329.55,192.42 220.553,255.409 329.041,317.51 438.424,255.292 	"/>
	<polygon fill="#C3CE41" points="547.283,66.283 438.424,128.699 546.896,191.995 656.604,129.413 	"/>
	<polygon fill="#D1D791" points="656.604,129.413 546.896,191.995 655.573,255.173 764.977,191.995 	"/>
	<polygon fill="#A8C883" points="765.307,66.25 656.604,129.413 764.977,191.995 874.687,128.667 	"/>
	<polygon fill="#D3D088" points="110.686,66.167 1.724,128.917 111.514,192.256 219.661,129.333 	"/>
	<polygon fill="#CFD8A9" points="329.146,66.25 219.661,129.333 329.55,192.42 438.424,128.699 	"/>
	<polygon fill="#E1DD90" points="219.686,3.167 110.686,66.167 219.661,129.333 329.146,66.25 	"/>
	<polygon fill="#D1D791" points="219.661,129.333 110.512,191.886 220.553,255.409 329.55,192.42 	"/>
	<polygon fill="#C6D281" points="437.936,505.542 220.826,380.292 330.008,317.51 546.126,443.316 	"/>
	<polygon fill="#DEDDA5" points="547.074,568.667 328.996,694.604 438.199,757.667 656.186,631.676 	"/>
	<polygon fill="#BAD535" points="656.186,757.542 872.945,632.151 817.686,600.23 763.935,569.166 547.396,694.554 	"/>
	<polygon fill="#C3CF5E" points="656.186,883.542 873.89,757.542 765.07,694.554 547.061,820.417 	"/>
	<polygon fill="#B7CD8B" points="438.199,757.667 547.061,820.417 656.186,757.542 547.396,694.554 	"/>
	<polygon fill="#B7CD8B" points="221.469,1260.233 328.936,1322.917 437.869,1259.93 330.018,1197.548 	"/>
	<polygon fill="#CFD68A" points="656.186,1385.917 872.943,1260.591 763.829,1197.667 546.975,1322.986 	"/>
	<polygon fill="#B7CD8B" points="438.061,1386.042 547.123,1449.007 656.186,1385.917 546.975,1322.986 	"/>
	<polygon fill="#BAD535" points="111.747,1071.723 221.01,1134.562 329.02,1072.334 220.413,1009.708 	"/>
	<polygon fill="#DEDDA5" points="438.061,1135.167 220.413,1009.708 328.997,946.869 546.896,1072.307 	"/>
	<polygon fill="#CFD68A" points="545.936,1197.667 763.903,1071.688 656.311,1009.292 438.061,1135.167 	"/>
	<polygon fill="#B7CD8B" points="330.018,1197.548 437.869,1259.93 545.936,1197.667 438.061,1135.167 	"/>
	<polygon fill="#CFD8A9" points="219.811,757.667 1.693,883.403 220.413,1009.708 438.424,883.542 	"/>
	<polygon fill="#BAD535" points="328.936,1322.917 438.061,1386.042 546.975,1322.986 437.869,1259.93 	"/>
	<polygon fill="#BAD535" points="110.734,1323.597 1.699,1260.632 110.716,1197.654 219.769,1260.632 	"/>
	<polygon fill="#C0D192" points="219.811,631.542 110.811,694.667 219.811,757.667 328.996,694.604 	"/>
	<polygon fill="#A8C883" points="656.311,1009.292 438.424,883.542 547.061,820.417 764.977,946.372 	"/>
	<polygon fill="#B7CD8B" points="219.775,1763.716 328.887,1826.725 437.998,1763.799 328.936,1700.792 	"/>
	<polygon fill="#DEDDA5" points="656.061,1638.042 437.998,1763.799 552.979,1847.954 764.977,1700.748 	"/>
	<polygon fill="#CFD68A" points="655.019,1889 873.186,1763.236 764.977,1700.748 547.061,1826.667 	"/>
	<polygon fill="#B7CD8B" points="437.974,1889.583 546.353,1952.334 655.019,1889 547.061,1826.667 	"/>
	<polygon fill="#DEDDA5" points="437.854,1511.843 219.773,1637.78 328.936,1700.792 547.061,1574.917 	"/>
	<polygon fill="#CFD68A" points="547.061,1574.917 764.977,1448.876 656.186,1385.917 437.854,1511.843 	"/>
	<polygon fill="#C8D38A" points="328.936,1700.792 437.998,1763.799 547.061,1700.844 437.99,1637.859 	"/>
	<polygon fill="#E1DD90" points="110.127,1449.211 2.229,1386.853 111.342,1323.926 219.238,1386.234 	"/>
	<polygon fill="#D1D791" points="328.887,1826.725 437.974,1889.583 547.061,1826.667 437.998,1763.799 	"/>
	<polygon fill="#E1DD90" points="111.873,1826.167 1.64,1761.77 110.734,1700.749 219.775,1763.716 	"/>
	<polygon fill="#D1D791" points="110.734,1448.876 219.775,1511.843 328.587,1449.007 219.238,1386.234 	"/>
	<polygon fill="#E1DD90" points="328.995,1574.917 219.775,1511.843 328.587,1449.007 437.854,1511.843 	"/>
	<polygon fill="#BDCE75" points="219.773,1637.78 1.693,1511.844 111.2,1449.007 328.995,1574.917 	"/>
	<polygon fill="#B7CD8B" points="219.212,2140.334 329.02,2203.667 438.02,2140.334 328.857,2077.38 	"/>
	<polygon fill="#CFD68A" points="656.35,2140.524 872.943,2014.968 764.48,1952.334 547.235,2077.121 	"/>
	<polygon fill="#DEDDA5" points="437.974,1889.583 221.012,2015.063 329.353,2077.667 546.353,1952.334 	"/>
	<polygon fill="#C8D38A" points="328.857,2077.38 438.02,2140.334 547.235,2077.121 438.807,2014.486 	"/>
	<polygon fill="#D1D791" points="111.873,1826.167 221.658,1889.5 328.887,1826.725 219.775,1763.716 	"/>
	<polygon fill="#E1DD90" points="330.041,1952.089 221.658,1889.5 328.887,1826.725 437.974,1889.583 	"/>
	<polygon fill="#BDCE75" points="221.012,2015.063 2.81,1889.057 111.873,1826.167 330.041,1952.089 	"/>
	<polygon fill="#BFCD5D" points="656.061,1638.042 547.061,1574.917 656.109,1511.944 765.157,1574.917 	"/>
	<polygon fill="#BFCD5D" points="111.877,2077.417 2.767,2014.968 111.89,1952.048 221.012,2015.063 	"/>
	<polygon fill="#A8C883" points="219.775,1763.716 1.693,1637.78 110.811,1574.854 328.936,1700.792 	"/>
</g>
<g id="Layer_8">
	<path fill="#97ABA9" d="M765.357,1273.006l-77.974,44.2c-7.277,4.124-11.479,10.418-11.526,17.268s4.066,13.201,11.287,17.427
		l75.772,44.336c2.274,1.331,2.872,2.506,2.898,2.706c-0.027,0.22-0.632,1.392-2.912,2.71l-519.268,300.206
		c-7.266,4.201-11.396,10.525-11.332,17.352c0.063,6.827,4.312,13.073,11.658,17.137l76.732,42.447
		c1.998,1.105,2.732,2.101,2.883,2.459c-0.143,0.362-0.855,1.374-2.826,2.523L71.847,1929.073l17.005,9.76l240.467-140.372
		c7.243-4.227,11.353-10.569,11.274-17.401c-0.078-6.833-4.331-13.08-11.671-17.14l-76.732-42.447
		c-1.947-1.078-2.693-2.052-2.864-2.422c0.163-0.372,0.892-1.359,2.818-2.474l519.267-300.207
		c7.229-4.179,11.386-10.511,11.403-17.372c0.019-6.861-4.104-13.216-11.312-17.433l-75.772-44.337
		c-2.227-1.304-2.835-2.436-2.876-2.605c0.044-0.23,0.667-1.354,2.912-2.627l72.944-41.349L765.357,1273.006z"/>
	<path fill="#97ABA9" d="M767.853,1144.713L574.914,1032.47c-7.238-4.212-11.363-10.551-11.316-17.394
		c0.046-6.842,4.257-13.125,11.552-17.236l185.999-104.854c6.854-3.864,13.096-14.549,13.096-22.417v-89.984
		c0-7.919-6.221-18.78-13.052-22.787l-296.705-174.03c-7.262-4.259-11.338-10.605-11.185-17.411
		c0.154-6.805,4.513-12.96,11.959-16.888l79.297-41.822c2-1.055,2.759-2.027,2.924-2.387c-0.144-0.369-0.841-1.386-2.772-2.561
		l-77.705-47.29c-7.127-4.338-11.145-10.764-11.021-17.63c0.123-6.866,4.368-13.143,11.646-17.223l294.352-164.99l16.899,10.018
		L475.941,435.387c-2.346,1.314-2.939,2.482-2.961,2.701c0.014,0.214,0.565,1.402,2.862,2.8l77.705,47.29
		c7.166,4.362,11.156,10.779,10.946,17.606c-0.21,6.827-4.585,12.987-12.006,16.901l-79.297,41.822
		c-1.809,0.954-2.6,1.84-2.84,2.236c0.222,0.406,0.972,1.327,2.737,2.363l296.705,174.029c12.028,7.056,21.45,23.506,21.45,37.451
		v89.984c0,14-9.553,30.352-21.748,37.226l-185.999,104.854c-2.215,1.249-2.854,2.361-2.904,2.591
		c0.048,0.136,0.672,1.257,2.87,2.536l186.869,108.358L767.853,1144.713z"/>
	<path fill="#97ABA9" d="M183.098,736.447l35.38-20.361c6.83-3.931,19.235-3.873,26.027,0.121l76.027,44.695
		c12.107,7.119,31.027,7.035,43.072-0.192l206.982-124.192l-8.746-14.577L354.857,746.132c-6.71,4.026-18.964,4.081-25.71,0.115
		l-76.027-44.696c-12.058-7.089-30.999-7.176-43.123-0.2l-43.904,25.267L183.098,736.447z"/>
	<g>
		<g>
			
				<rect x="762.702" y="261.449" transform="matrix(0.4889 0.8723 -0.8723 0.4889 621.272 -531.4837)" fill="#FFFFFF" width="3" height="6"/>
			<path fill="#FFFFFF" d="M84.025,1933.942l-1.512-2.592l10.383-6.059l1.512,2.592L84.025,1933.942z M105.673,1921.253
				l-1.512-2.592l10.383-6.059l1.512,2.592L105.673,1921.253z M126.439,1909.136l-1.512-2.592l10.383-6.059l1.512,2.592
				L126.439,1909.136z M147.206,1897.019l-1.512-2.592l10.383-6.059l1.512,2.592L147.206,1897.019z M167.972,1884.902l-1.512-2.592
				l10.383-6.059l1.512,2.592L167.972,1884.902z M188.738,1872.785l-1.512-2.592l10.383-6.059l1.512,2.592L188.738,1872.785z
				 M209.505,1860.667l-1.512-2.592l10.383-6.06l1.512,2.592L209.505,1860.667z M230.271,1848.549l-1.512-2.592l10.383-6.059
				l1.512,2.592L230.271,1848.549z M251.036,1836.432l-1.512-2.592l10.383-6.059l1.512,2.592L251.036,1836.432z M271.803,1824.315
				l-1.512-2.592l10.383-6.059l1.512,2.592L271.803,1824.315z M292.569,1812.198l-1.512-2.592l10.383-6.059l1.512,2.592
				L292.569,1812.198z M313.335,1800.081l-1.512-2.592l10.383-6.059l1.512,2.592L313.335,1800.081z M333.246,1785.639l-2.704-1.301
				c0.488-1.014,0.734-2.053,0.734-3.09c0-2.106-1.027-4.196-2.972-6.042l2.065-2.176c2.556,2.427,3.906,5.268,3.906,8.218
				C334.276,1782.739,333.931,1784.216,333.246,1785.639z M318.401,1769.149l-10.52-5.819l1.451-2.625l10.52,5.819L318.401,1769.149
				z M297.362,1757.511l-10.52-5.819l1.452-2.625l10.52,5.819L297.362,1757.511z M276.323,1745.873l-10.519-5.818l1.452-2.625
				l10.52,5.818L276.323,1745.873z M255.285,1734.235l-7.253-4.013c-1.234-0.683-2.352-1.438-3.321-2.245l1.919-2.307
				c0.825,0.688,1.785,1.335,2.854,1.927l7.253,4.013L255.285,1734.235z M243.403,1716.729l-2.82-1.023
				c1.082-2.981,3.584-5.674,7.238-7.786l1.921-1.11l1.501,2.598l-1.921,1.11C246.288,1712.271,244.241,1714.419,243.403,1716.729z
				 M261.651,1703.39l-1.502-2.598l10.406-6.018l1.502,2.598L261.651,1703.39z M282.465,1691.356l-1.501-2.598l10.408-6.017
				l1.501,2.598L282.465,1691.356z M303.28,1679.323l-1.502-2.598l10.407-6.018l1.502,2.598L303.28,1679.323z M324.095,1667.289
				l-1.502-2.598l10.408-6.017l1.501,2.598L324.095,1667.289z M344.909,1655.255l-1.502-2.598l10.408-6.018l1.502,2.598
				L344.909,1655.255z M365.724,1643.221l-1.501-2.598l10.407-6.017l1.502,2.598L365.724,1643.221z M386.539,1631.188l-1.502-2.598
				l10.407-6.018l1.502,2.598L386.539,1631.188z M407.354,1619.154l-1.502-2.598l10.407-6.017l1.502,2.598L407.354,1619.154z
				 M428.167,1607.12l-1.501-2.598l10.407-6.017l1.502,2.598L428.167,1607.12z M448.982,1595.086l-1.502-2.598l10.408-6.017
				l1.502,2.598L448.982,1595.086z M469.798,1583.052l-1.502-2.598l10.407-6.017l1.502,2.598L469.798,1583.052z M490.612,1571.019
				l-1.502-2.598l10.407-6.017l1.502,2.598L490.612,1571.019z M511.427,1558.985l-1.502-2.598l10.407-6.017l1.502,2.598
				L511.427,1558.985z M532.241,1546.952l-1.502-2.598l10.408-6.017l1.502,2.598L532.241,1546.952z M553.057,1534.917l-1.502-2.598
				l10.407-6.017l1.502,2.598L553.057,1534.917z M573.871,1522.884l-1.502-2.598l10.407-6.018l1.502,2.598L573.871,1522.884z
				 M594.686,1510.85l-1.502-2.598l10.407-6.017l1.502,2.598L594.686,1510.85z M615.5,1498.817l-1.502-2.598l10.408-6.018
				l1.502,2.598L615.5,1498.817z M636.315,1486.783l-1.502-2.598l10.407-6.017l1.502,2.598L636.315,1486.783z M657.13,1474.75
				l-1.502-2.598l10.407-6.018l1.502,2.598L657.13,1474.75z M677.944,1462.715l-1.502-2.598l10.407-6.017l1.502,2.598
				L677.944,1462.715z M698.759,1450.682l-1.502-2.598l10.408-6.018l1.502,2.598L698.759,1450.682z M719.574,1438.648l-1.502-2.598
				l10.407-6.017l1.502,2.598L719.574,1438.648z M740.389,1426.614l-1.502-2.598l10.407-6.017l1.502,2.598L740.389,1426.614z
				 M761.203,1414.581l-1.502-2.598l7.387-4.271c0.982-0.567,1.873-1.186,2.646-1.837l1.932,2.295
				c-0.907,0.764-1.942,1.483-3.076,2.14L761.203,1414.581z M773.177,1396.859c-0.768-2.495-2.857-4.799-6.043-6.663l-1.472-0.861
				l1.516-2.59l1.472,0.861c3.845,2.251,6.402,5.146,7.395,8.37L773.177,1396.859z M755.287,1383.264l-10.376-6.071l1.516-2.59
				l10.376,6.071L755.287,1383.264z M734.535,1371.122l-10.376-6.071l1.516-2.59l10.376,6.071L734.535,1371.122z M713.783,1358.979
				l-10.375-6.071l1.516-2.59l10.375,6.071L713.783,1358.979z M693.032,1346.836l-1.671-0.978c-3.751-2.196-6.278-5.005-7.309-8.123
				l2.848-0.941c0.799,2.415,2.865,4.653,5.977,6.475l1.671,0.978L693.032,1346.836z M690.236,1327.8l-1.928-2.299
				c0.947-0.794,2.026-1.536,3.209-2.206l7.303-4.14l1.479,2.609l-7.304,4.141C691.972,1326.486,691.044,1327.124,690.236,1327.8z
				 M710.759,1315.837l-1.48-2.609l10.458-5.929l1.48,2.609L710.759,1315.837z M731.674,1303.981l-1.479-2.609l10.458-5.929
				l1.48,2.609L731.674,1303.981z M752.591,1292.125l-1.479-2.609l10.459-5.928l1.479,2.609L752.591,1292.125z M773.507,1280.268
				l-1.479-2.609l10.458-5.928l1.479,2.609L773.507,1280.268z M776.857,1141.458l-10.391-6.045l1.508-2.594l10.391,6.045
				L776.857,1141.458z M756.075,1129.368l-10.391-6.045l1.508-2.594l10.391,6.045L756.075,1129.368z M735.294,1117.278
				l-10.392-6.046l1.508-2.594l10.392,6.046L735.294,1117.278z M714.512,1105.187l-10.391-6.045l1.508-2.594l10.391,6.045
				L714.512,1105.187z M693.729,1093.097l-10.391-6.045l1.508-2.594l10.391,6.045L693.729,1093.097z M672.947,1081.007
				l-10.392-6.046l1.509-2.594l10.391,6.046L672.947,1081.007z M652.166,1068.917l-10.392-6.045l1.508-2.594l10.392,6.045
				L652.166,1068.917z M631.384,1056.827l-10.391-6.045l1.508-2.594l10.391,6.045L631.384,1056.827z M610.602,1044.737
				l-10.391-6.045l1.508-2.594l10.391,6.045L610.602,1044.737z M589.819,1032.646l-10.391-6.045l1.509-2.594l10.39,6.045
				L589.819,1032.646z M571.371,1016.516c-0.061-0.437-0.092-0.882-0.092-1.325c0.001-3.763,2.196-7.357,6.18-10.122l1.711,2.465
				c-3.153,2.188-4.89,4.907-4.891,7.658c0,0.304,0.021,0.61,0.062,0.91L571.371,1016.516z M589.476,1001.627l-1.473-2.613
				l10.472-5.903l1.473,2.613L589.476,1001.627z M610.42,989.821l-1.473-2.613l10.472-5.904l1.473,2.613L610.42,989.821z
				 M631.364,978.013l-1.473-2.613l10.472-5.903l1.473,2.613L631.364,978.013z M652.309,966.207l-1.473-2.613l10.472-5.903
				l1.473,2.613L652.309,966.207z M673.252,954.4l-1.473-2.613l10.473-5.903l1.473,2.613L673.252,954.4z M694.196,942.592
				l-1.473-2.613l10.473-5.903l1.473,2.613L694.196,942.592z M715.141,930.786l-1.473-2.613l10.472-5.903l1.473,2.613
				L715.141,930.786z M736.085,918.979l-1.473-2.613l10.472-5.904l1.473,2.613L736.085,918.979z M757.029,907.172l-1.473-2.613
				l9.711-5.475c0.236-0.133,0.472-0.272,0.707-0.416l1.564,2.56c-0.265,0.162-0.531,0.319-0.799,0.47L757.029,907.172z
				 M776.689,892.696l-2.388-1.816c2.33-3.061,4.265-6.555,5.597-10.103l2.809,1.055
				C781.273,885.648,779.193,889.406,776.689,892.696z M784.926,869.546h-3v-12.021h3V869.546z M784.926,845.503h-3v-12.021h3
				V845.503z M784.926,821.46h-3v-12.021h3V821.46z M784.926,797.417h-3v-12.021h3V797.417z M781.013,773.83
				c-0.911-3.553-2.485-7.219-4.551-10.603l2.561-1.563c2.219,3.634,3.912,7.583,4.896,11.421L781.013,773.83z M769.082,754.397
				c-1.2-1.027-2.434-1.915-3.666-2.637l-6.239-3.66l1.518-2.588l6.239,3.66c1.385,0.812,2.764,1.803,4.1,2.946L769.082,754.397z
				 M748.808,742.019l-10.37-6.082l1.518-2.588l10.37,6.082L748.808,742.019z M728.068,729.854l-10.369-6.082l1.518-2.588
				l10.369,6.082L728.068,729.854z M707.33,717.69l-10.37-6.083l1.518-2.588l10.37,6.083L707.33,717.69z M686.591,705.526
				l-10.369-6.082l1.518-2.588l10.369,6.082L686.591,705.526z M665.853,693.362l-10.37-6.082l1.518-2.588l10.37,6.082
				L665.853,693.362z M645.113,681.198l-10.369-6.082l1.518-2.588l10.369,6.082L645.113,681.198z M624.375,669.034l-10.37-6.082
				l1.518-2.588l10.37,6.082L624.375,669.034z M603.636,656.87l-10.369-6.082l1.518-2.588l10.369,6.082L603.636,656.87z
				 M582.897,644.706l-10.37-6.082l1.518-2.588l10.37,6.082L582.897,644.706z M562.158,632.542l-10.369-6.083l1.518-2.588
				l10.369,6.083L562.158,632.542z M541.42,620.377l-10.369-6.082l1.518-2.588l10.369,6.082L541.42,620.377z M520.681,608.213
				l-10.369-6.082l1.518-2.588l10.369,6.082L520.681,608.213z M499.942,596.049l-10.369-6.082l1.518-2.588l10.369,6.082
				L499.942,596.049z M479.203,583.885l-10.369-6.082l1.518-2.588l10.369,6.082L479.203,583.885z M461.014,567.499
				c-0.022-0.259-0.033-0.517-0.033-0.775c0-3.901,2.428-7.548,6.836-10.269l1.576,2.553c-3.49,2.154-5.412,4.894-5.412,7.716
				c0,0.172,0.007,0.345,0.021,0.518L461.014,567.499z M479.913,553.407l-1.398-2.653l10.633-5.608l1.398,2.653L479.913,553.407z
				 M501.181,542.19l-1.4-2.653l10.633-5.608l1.4,2.653L501.181,542.19z M522.445,530.975l-1.399-2.653l10.635-5.608l1.399,2.653
				L522.445,530.975z M543.713,519.758l-1.4-2.653l6.192-3.266c1.48-0.781,2.748-1.667,3.77-2.632l2.062,2.18
				c-1.219,1.152-2.71,2.198-4.431,3.106L543.713,519.758z M554.403,502.085c-0.968-1.96-2.826-3.815-5.373-5.366l-2.973-1.809
				l1.56-2.562l2.973,1.809c3.077,1.873,5.266,4.093,6.503,6.6L554.403,502.085z M535.79,488.661l-10.27-6.25l1.56-2.562l10.27,6.25
				L535.79,488.661z M515.251,476.162l-10.271-6.25l1.56-2.562l10.271,6.25L515.251,476.162z M494.713,463.663l-10.27-6.25
				l1.56-2.562l10.27,6.25L494.713,463.663z M474.173,451.164l-2.848-1.733c-3.07-1.87-5.344-4.201-6.574-6.742l2.701-1.307
				c0.978,2.02,2.856,3.917,5.434,5.486l2.848,1.733L474.173,451.164z M469.415,432.101l-2.141-2.102
				c1.212-1.233,2.712-2.355,4.459-3.335l5.983-3.354l1.467,2.617l-5.983,3.354C471.701,430.122,470.428,431.07,469.415,432.101z
				 M489.67,420.05l-1.467-2.617l10.486-5.878l1.467,2.617L489.67,420.05z M510.643,408.294l-1.467-2.617l10.486-5.878l1.467,2.617
				L510.643,408.294z M531.615,396.538l-1.467-2.617l10.486-5.878l1.467,2.617L531.615,396.538z M552.588,384.782l-1.467-2.617
				l10.487-5.878l1.467,2.617L552.588,384.782z M573.562,373.026l-1.467-2.617l10.486-5.878l1.467,2.617L573.562,373.026z
				 M594.534,361.271l-1.467-2.617l10.486-5.878l1.467,2.617L594.534,361.271z M615.507,349.515l-1.467-2.617l10.486-5.878
				l1.467,2.617L615.507,349.515z M636.48,337.759l-1.467-2.617l10.486-5.877l1.467,2.617L636.48,337.759z M657.453,326.003
				l-1.467-2.617l10.486-5.878l1.467,2.617L657.453,326.003z M678.426,314.248l-1.467-2.617l10.486-5.878l1.467,2.617
				L678.426,314.248z M699.398,302.492l-1.467-2.617l10.486-5.878l1.467,2.617L699.398,302.492z M720.372,290.736l-1.467-2.617
				l10.486-5.878l1.467,2.617L720.372,290.736z M741.345,278.98l-1.467-2.617l10.486-5.878l1.467,2.617L741.345,278.98z"/>
		</g>
		<g>
			<path fill="#FFFFFF" d="M342.55,759.211c-2.856,0-5.664-0.281-8.346-0.836l0.607-2.938c3.62,0.749,7.558,0.959,11.389,0.606
				l0.275,2.987C345.18,759.15,343.858,759.211,342.55,759.211z M358.43,755.911l-1.286-2.71c0.697-0.331,1.369-0.689,1.998-1.066
				l8.126-4.876l1.544,2.572l-8.127,4.876C359.972,755.134,359.214,755.539,358.43,755.911z M322.81,753.721l-10.248-6.025
				l1.521-2.586l10.249,6.025L322.81,753.721z M379.005,743.714l-1.543-2.572l10.195-6.117l1.543,2.572L379.005,743.714z
				 M302.312,741.67l-10.249-6.025l1.521-2.586l10.249,6.025L302.312,741.67z M399.396,731.48l-1.545-2.572l10.195-6.117
				l1.544,2.572L399.396,731.48z M281.814,729.62l-10.249-6.025l1.521-2.586l10.248,6.025L281.814,729.62z M187.346,726.318
				l-1.496-2.601l10.304-5.93l1.496,2.601L187.346,726.318z M419.784,719.247l-1.544-2.572l10.194-6.117l1.544,2.572
				L419.784,719.247z M261.317,717.569l-10.25-6.025l1.521-2.586l10.248,6.025L261.317,717.569z M207.954,714.458l-1.496-2.601
				l7.713-4.438c0.887-0.51,1.841-0.984,2.834-1.409l1.18,2.758c-0.885,0.379-1.732,0.8-2.518,1.252L207.954,714.458z
				 M240.62,707.082c-2.742-0.618-5.633-0.931-8.592-0.931c-0.961-0.031-1.866,0.032-2.794,0.095l-0.205-2.993
				c0.989-0.068,1.991-0.102,2.979-0.102c0.007,0,0.015,0,0.021,0c3.181,0,6.292,0.338,9.25,1.004L240.62,707.082z M440.173,707.013
				l-1.543-2.572l10.194-6.117l1.543,2.572L440.173,707.013z M460.562,694.779l-1.543-2.572l10.194-6.117l1.543,2.572
				L460.562,694.779z M480.951,682.546l-1.543-2.572l10.194-6.117l1.543,2.572L480.951,682.546z M501.34,670.312l-1.543-2.572
				l10.194-6.117l1.543,2.572L501.34,670.312z M521.729,658.079l-1.543-2.572l10.194-6.117l1.543,2.572L521.729,658.079z
				 M542.118,645.845l-1.543-2.572l10.194-6.117l1.543,2.572L542.118,645.845z"/>
		</g>
	</g>
	<g>
		<path fill="#97ABA9" d="M760.491,1140.797c6.831,4.008,13.052,14.868,13.052,22.787v89.984c0,7.869-6.242,18.553-13.096,22.418
			l8.348,14.809c12.195-6.875,21.748-23.227,21.748-37.227v-89.984c0-13.944-9.422-30.395-21.45-37.45L760.491,1140.797z"/>
		<path fill="#FFFFFF" d="M775.988,1275.696l-2.388-1.816c2.33-3.061,4.265-6.555,5.597-10.103l2.809,1.055
			C780.572,1268.649,778.492,1272.406,775.988,1275.696z"/>
		<rect x="781.225" y="1240.525" fill="#FFFFFF" width="3" height="12.021"/>
		<rect x="781.225" y="1216.482" fill="#FFFFFF" width="3" height="12.021"/>
		<rect x="781.225" y="1192.439" fill="#FFFFFF" width="3" height="12.021"/>
		<rect x="781.225" y="1168.396" fill="#FFFFFF" width="3" height="12.021"/>
		<path fill="#FFFFFF" d="M780.312,1156.83c-0.911-3.554-2.485-7.22-4.551-10.603l2.561-1.564c2.219,3.635,3.912,7.584,4.896,11.422
			L780.312,1156.83z"/>
		<path fill="#FFFFFF" d="M771.679,1139.73c-1.2-1.027-2.434-1.914-3.666-2.637l-6.239-3.66l1.518-2.588l6.239,3.66
			c1.385,0.812,2.764,1.803,4.1,2.945L771.679,1139.73z"/>
	</g>
</g>
<g id="hils">
	<g>
		<path fill="#A0C232" d="M500.087,300.584c40.069,0,30.052-72,85.774-72c55.721,0,45.703,72,82.017,72
			S500.087,300.584,500.087,300.584z"/>
		<path fill="#C4D82E" d="M432.375,302.042c30.608,0,22.956-55,65.521-55c42.564,0,34.912,55,62.652,55
			C588.287,302.042,432.375,302.042,432.375,302.042z"/>
		<path fill="#BFD85A" d="M492.485,338.947c40.069,0,30.052-72,85.774-72c55.721,0,45.703,72,82.017,72
			S492.485,338.947,492.485,338.947z"/>
	</g>
	<g>
		<path fill="#A0C232" d="M795.625,387.951c-40.069,0-30.052-72-85.774-72c-55.721,0-45.703,72-82.017,72
			S795.625,387.951,795.625,387.951z"/>
		<path fill="#C4D82E" d="M820.985,387.951c-30.608,0-22.956-55-65.521-55c-42.564,0-34.912,55-62.652,55
			C665.073,387.951,820.985,387.951,820.985,387.951z"/>
		<path fill="#AED136" d="M732.625,387.951c-40.069,0-30.052-72-85.774-72c-55.721,0-45.703,72-82.017,72
			S732.625,387.951,732.625,387.951z"/>
	</g>
	<g>
		<path fill="#A0C232" d="M739.665,452.253c-48.683,0-36.512-87.478-104.213-87.478c-67.699,0-55.528,87.478-99.647,87.478
			C491.685,452.253,739.665,452.253,739.665,452.253z"/>
		<path fill="#AED136" d="M668.665,452.253c-40.069,0-30.052-72-85.774-72c-55.721,0-45.703,72-82.017,72
			S668.665,452.253,668.665,452.253z"/>
		<path fill="#C4D82E" d="M710.025,468.253c-30.608,0-22.956-55-65.521-55c-42.564,0-34.912,55-62.652,55
			C554.113,468.253,710.025,468.253,710.025,468.253z"/>
		<path fill="#ABD037" d="M697.525,476.164c-18.037,0-13.527-32.411-38.611-32.411c-25.083,0-20.573,32.411-36.92,32.411
			S697.525,476.164,697.525,476.164z"/>
		<path fill="#E2E41A" d="M728.963,483.164c-15.811,0-11.857-28.411-33.846-28.411c-21.987,0-18.034,28.411-32.363,28.411
			S728.963,483.164,728.963,483.164z"/>
	</g>
	<g>
		<path fill="#AED136" d="M506.746,644.667c-40.069,0-30.052-72-85.774-72c-55.721,0-45.703,72-82.017,72
			S506.746,644.667,506.746,644.667z"/>
		<path fill="#A0C232" d="M604.493,728.02c-40.069,0-30.052-72-85.774-72c-55.721,0-45.703,72-82.017,72
			S604.493,728.02,604.493,728.02z"/>
		<path fill="#C4D82E" d="M546.978,741.778c-30.608,0-22.956-55-65.521-55c-42.564,0-34.912,55-62.652,55
			C391.065,741.778,546.978,741.778,546.978,741.778z"/>
	</g>
	<path fill="#96B62E" d="M323.365,536.852c-40.069,0-30.052-72-85.774-72c-55.721,0-45.703,72-82.017,72
		S323.365,536.852,323.365,536.852z"/>
	<path fill="#A0C232" d="M260.365,504.958c-40.069,0-30.052-72-85.774-72c-55.721,0-45.703,72-82.017,72
		S260.365,504.958,260.365,504.958z"/>
	<g>
		<path fill="#A0C232" d="M138.105,225.687c40.069,0,30.052-72,85.774-72c55.721,0,45.703,72,82.017,72
			S138.105,225.687,138.105,225.687z"/>
		<path fill="#C4D82E" d="M111.745,225.687c30.608,0,22.956-55,65.521-55c42.564,0,34.912,55,62.652,55
			C267.657,225.687,111.745,225.687,111.745,225.687z"/>
		<path fill="#CDDC29" d="M195.526,233.687c18.922,0,14.19-34,40.504-34s21.582,34,38.73,34
			C291.908,233.687,195.526,233.687,195.526,233.687z"/>
	</g>
	<g>
		<path fill="#A1AB32" d="M245.029,535.697c26.021,0,19.515-46.756,55.701-46.756c36.185,0,29.679,46.756,53.261,46.756
			C377.571,535.697,245.029,535.697,245.029,535.697z"/>
		<path fill="#C4D82E" d="M92.685,539.819c30.608,0,22.956-55,65.521-55c42.564,0,34.912,55,62.652,55
			C248.597,539.819,92.685,539.819,92.685,539.819z"/>
		<path fill="#AED136" d="M40.105,576.366c40.069,0,30.052-72,85.774-72c55.721,0,45.703,72,82.017,72
			S40.105,576.366,40.105,576.366z"/>
	</g>
	<path fill="#B4C82A" d="M300.915,547.319c-19.479,0-14.608-35-41.695-35s-22.217,35-39.87,35
		C201.698,547.319,300.915,547.319,300.915,547.319z"/>
</g>
<g id="logo" display="none">
	<path display="inline" fill="#020202" d="M357.037,125.91c-0.67,0-1.33,0.036-1.985,0.092c0.241-1.664,0.37-3.363,0.37-5.093
		c0-19.618-15.901-35.52-35.521-35.52c-15.654,0-28.936,10.132-33.664,24.192c-2.727-4.085-7.375-6.778-12.655-6.778
		c-8.398,0-15.207,6.808-15.207,15.207c0,1.731,0.304,3.389,0.837,4.939c-11.051,2.081-19.413,11.777-19.413,23.432
		c0,13.172,10.678,23.98,23.851,23.851c14.688-0.145,84.184-0.373,94.898-0.373c12.34,0,20.827-9.276,20.827-21.612
		C379.376,135.911,369.374,125.91,357.037,125.91"/>
	<path display="inline" fill="#020202" d="M240.281,150.745c0.004,0.027,0.014,0.054,0.019,0.081l-0.017-0.049
		c0.114,0.712,0.261,1.417,0.443,2.115c-1.366,0.605-2.552,1.168-3.563,1.681c0.302,0.987,0.661,1.956,1.078,2.9
		c1.095-0.254,2.35-0.581,3.768-0.991c0.284,0.62,1.014,1.834,1.16,2.08c-1.149,0.955-2.138,1.819-2.972,2.588
		c0.559,0.867,1.167,1.703,1.826,2.497c0.984-0.543,2.103-1.198,3.357-1.979c0.018,0.021,0.949,1.127,1.455,1.641
		c-0.885,1.206-1.633,2.284-2.255,3.231c0.753,0.706,1.546,1.37,2.379,1.98c0.822-0.766,1.748-1.674,2.775-2.735
		c0.531,0.379,1.082,0.732,1.646,1.063c-0.537,1.333-0.984,2.523-1.342,3.561c0.905,0.5,1.835,0.947,2.792,1.336
		c0.61-0.945,1.284-2.053,2.021-3.333c0.024,0.01,0.05,0.016,0.075,0.025l-0.048-0.01c0.666,0.28,1.342,0.528,2.03,0.741
		c-0.207,1.48-0.356,2.785-0.456,3.913c0.999,0.265,2.011,0.475,3.034,0.617c0.362-1.064,0.748-2.301,1.149-3.724
		c0.674,0.086,1.792,0.127,2.377,0.116c0.204,1.479,0.416,2.773,0.627,3.889c1.032-0.018,2.062-0.092,3.085-0.233
		c0.06-1.121,0.093-2.416,0.094-3.891c0.013-0.002,0.024-0.003,0.038-0.004l-0.006,0c0.008,0,0.015-0.003,0.021-0.003
		c0.522-0.044,1.634-0.234,2.108-0.364c0.557,1.387,1.076,2.592,1.554,3.62c0.997-0.267,1.979-0.587,2.937-0.974
		c-0.216-1.102-0.498-2.368-0.855-3.802c0.56-0.208,1.672-0.75,2.109-1.01c0.839,1.184,1.607,2.209,2.293,3.08
		c0.909-0.492,1.788-1.035,2.63-1.631c-0.466-1.023-1.033-2.185-1.713-3.494c0.505-0.329,1.292-0.953,1.744-1.33
		c1.134,0.973,2.151,1.802,3.05,2.493c0.76-0.698,1.482-1.438,2.154-2.221c-0.7-0.879-1.536-1.872-2.517-2.976
		c0.438-0.521,1.157-1.608,1.379-1.94c0.665,0.244,2.561,1.148,3.614,1.57c0.543-0.877,1.036-1.787,1.469-2.723
		c-0.913-0.654-1.986-1.383-3.23-2.179c0.25-0.565,0.474-1.141,0.679-1.726c1.392,0.25,2.63,0.441,3.708,0.577
		c0.303-0.987,0.55-1.989,0.734-3.005c-1.049-0.404-2.271-0.837-3.675-1.297c0.107-0.644,0.183-1.293,0.234-1.944
		c1.433-0.101,2.699-0.22,3.789-0.355c0.052-1.032,0.044-2.063-0.024-3.096c-1.086-0.129-2.339-0.247-3.761-0.345
		c-0.05-0.75-0.131-1.492-0.249-2.22c1.38-0.45,2.587-0.879,3.621-1.276c-0.2-1.013-0.455-2.015-0.776-2.998
		c-1.089,0.141-2.338,0.331-3.75,0.584c-0.257-0.777-0.554-1.534-0.888-2.271c1.174-0.792,2.198-1.517,3.069-2.169
		c-0.469-0.92-0.986-1.812-1.562-2.671c-0.98,0.416-2.093,0.924-3.334,1.525c-0.42-0.635-0.871-1.247-1.346-1.837
		c0.939-1.046,1.751-1.991,2.432-2.829c-0.677-0.778-1.397-1.52-2.164-2.212c-0.822,0.625-1.76,1.371-2.782,2.225
		c-0.505-0.476-1.023-0.928-1.566-1.354c0.719-1.31,1.319-2.475,1.813-3.498c-0.839-0.602-1.711-1.154-2.617-1.653
		c-0.716,0.868-1.515,1.888-2.395,3.073c-0.53-0.259-1.479-0.612-2.062-0.754c0.376-1.437,0.676-2.708,0.904-3.815
		c-0.96-0.377-1.941-0.703-2.939-0.967c-0.484,1.016-1.012,2.2-1.577,3.566c-0.659-0.165-2.31-0.388-2.347-0.393
		c-0.028-1.493-0.087-2.804-0.167-3.935c-1.028-0.106-2.061-0.151-3.093-0.13c-0.188,1.107-0.546,3.856-0.546,3.856
		s-2.06,0.166-2.079,0.167c-0.339-1.451-0.666-2.717-0.982-3.805c-1.025,0.113-2.045,0.283-3.051,0.518
		c0.047,1.122,0.133,2.414,0.269,3.879c-0.398,0.108-0.792,0.228-1.181,0.357c-0.201,0.062-0.405,0.112-0.604,0.18
		c-0.729-1.293-1.397-2.415-2-3.365c-0.955,0.396-1.885,0.844-2.787,1.349c0.358,1.067,0.804,2.284,1.346,3.657
		c-0.021,0.013-0.042,0.029-0.065,0.041l0.035-0.027c-0.634,0.345-1.251,0.719-1.845,1.125c-1.028-1.087-1.956-2.017-2.775-2.799
		c-0.83,0.615-1.625,1.276-2.375,1.987c0.607,0.946,1.334,2.02,2.194,3.222c-0.489,0.472-1.388,1.565-1.572,1.786
		c-1.284-0.765-2.429-1.407-3.432-1.937c-0.633,0.82-1.215,1.668-1.743,2.556c0.839,0.747,1.831,1.582,2.983,2.504
		c-0.014,0.024-0.018,0.024-0.018,0.024c-0.377,0.616-0.726,1.247-1.04,1.896c-1.433-0.43-2.699-0.778-3.8-1.044
		c-0.412,0.946-0.775,1.913-1.071,2.902c0.962,0.499,2.084,1.047,3.367,1.638c-0.196,0.646-0.37,1.296-0.505,1.953
		c-1.493-0.062-2.806-0.088-3.939-0.074c-0.166,1.02-0.277,2.046-0.319,3.078c1.093,0.254,2.363,0.519,3.816,0.784
		c-0.019,0.596-0.001,1.193,0.031,1.79c-1.435,0.25-2.694,0.5-3.777,0.748c0.054,1.032,0.165,2.059,0.342,3.076
		C237.509,150.809,238.805,150.797,240.281,150.745"/>
	<path display="inline" fill="none" stroke="#FFFFFF" stroke-width="0.991" d="M240.281,150.745
		c0.004,0.027,0.014,0.054,0.019,0.081l-0.017-0.049c0.114,0.712,0.261,1.417,0.443,2.115c-1.366,0.605-2.552,1.168-3.563,1.681
		c0.302,0.987,0.661,1.956,1.078,2.9c1.095-0.254,2.35-0.581,3.768-0.991c0.284,0.62,1.014,1.834,1.16,2.08
		c-1.149,0.955-2.138,1.819-2.972,2.588c0.559,0.867,1.167,1.703,1.826,2.497c0.984-0.543,2.103-1.198,3.357-1.979
		c0.018,0.021,0.949,1.127,1.455,1.641c-0.885,1.206-1.633,2.284-2.255,3.231c0.753,0.706,1.546,1.37,2.379,1.98
		c0.822-0.766,1.748-1.674,2.775-2.735c0.531,0.379,1.082,0.732,1.646,1.063c-0.537,1.333-0.984,2.523-1.342,3.561
		c0.905,0.5,1.835,0.947,2.792,1.336c0.61-0.945,1.284-2.053,2.021-3.333c0.024,0.01,0.05,0.016,0.075,0.025l-0.048-0.01
		c0.666,0.28,1.342,0.528,2.03,0.741c-0.207,1.48-0.356,2.785-0.456,3.913c0.999,0.265,2.011,0.475,3.034,0.617
		c0.362-1.064,0.748-2.301,1.149-3.724c0.674,0.086,1.792,0.127,2.377,0.116c0.204,1.479,0.416,2.773,0.627,3.889
		c1.032-0.018,2.062-0.092,3.085-0.233c0.06-1.121,0.093-2.416,0.094-3.891c0.013-0.002,0.024-0.003,0.038-0.004l-0.006,0
		c0.008,0,0.015-0.003,0.021-0.003c0.522-0.044,1.634-0.234,2.108-0.364c0.557,1.387,1.076,2.592,1.554,3.62
		c0.997-0.267,1.979-0.587,2.937-0.974c-0.216-1.102-0.498-2.368-0.855-3.802c0.56-0.208,1.672-0.75,2.109-1.01
		c0.839,1.184,1.607,2.209,2.293,3.08c0.909-0.492,1.788-1.035,2.63-1.631c-0.466-1.023-1.033-2.185-1.713-3.494
		c0.505-0.329,1.292-0.953,1.744-1.33c1.134,0.973,2.151,1.802,3.05,2.493c0.76-0.698,1.482-1.438,2.154-2.221
		c-0.7-0.879-1.536-1.872-2.517-2.976c0.438-0.521,1.157-1.608,1.379-1.94c0.665,0.244,2.561,1.148,3.614,1.57
		c0.543-0.877,1.036-1.787,1.469-2.723c-0.913-0.654-1.986-1.383-3.23-2.179c0.25-0.565,0.474-1.141,0.679-1.726
		c1.392,0.25,2.63,0.441,3.708,0.577c0.303-0.987,0.55-1.989,0.734-3.005c-1.049-0.404-2.271-0.837-3.675-1.297
		c0.107-0.644,0.183-1.293,0.234-1.944c1.433-0.101,2.699-0.22,3.789-0.355c0.052-1.032,0.044-2.063-0.024-3.096
		c-1.086-0.129-2.339-0.247-3.761-0.345c-0.05-0.75-0.131-1.492-0.249-2.22c1.38-0.45,2.587-0.879,3.621-1.276
		c-0.2-1.013-0.455-2.015-0.776-2.998c-1.089,0.141-2.338,0.331-3.75,0.584c-0.257-0.777-0.554-1.534-0.888-2.271
		c1.174-0.792,2.198-1.517,3.069-2.169c-0.469-0.92-0.986-1.812-1.562-2.671c-0.98,0.416-2.093,0.924-3.334,1.525
		c-0.42-0.635-0.871-1.247-1.346-1.837c0.939-1.046,1.751-1.991,2.432-2.829c-0.677-0.778-1.397-1.52-2.164-2.212
		c-0.822,0.625-1.76,1.371-2.782,2.225c-0.505-0.476-1.023-0.928-1.566-1.354c0.719-1.31,1.319-2.475,1.813-3.498
		c-0.839-0.602-1.711-1.154-2.617-1.653c-0.716,0.868-1.515,1.888-2.395,3.073c-0.53-0.259-1.479-0.612-2.062-0.754
		c0.376-1.437,0.676-2.708,0.904-3.815c-0.96-0.377-1.941-0.703-2.939-0.967c-0.484,1.016-1.012,2.2-1.577,3.566
		c-0.659-0.165-2.31-0.388-2.347-0.393c-0.028-1.493-0.087-2.804-0.167-3.935c-1.028-0.106-2.061-0.151-3.093-0.13
		c-0.188,1.107-0.546,3.856-0.546,3.856s-2.06,0.166-2.079,0.167c-0.339-1.451-0.666-2.717-0.982-3.805
		c-1.025,0.113-2.045,0.283-3.051,0.518c0.047,1.122,0.133,2.414,0.269,3.879c-0.398,0.108-0.792,0.228-1.181,0.357
		c-0.201,0.062-0.405,0.112-0.604,0.18c-0.729-1.293-1.397-2.415-2-3.365c-0.955,0.396-1.885,0.844-2.787,1.349
		c0.358,1.067,0.804,2.284,1.346,3.657c-0.021,0.013-0.042,0.029-0.065,0.041l0.035-0.027c-0.634,0.345-1.251,0.719-1.845,1.125
		c-1.028-1.087-1.956-2.017-2.775-2.799c-0.83,0.615-1.625,1.276-2.375,1.987c0.607,0.946,1.334,2.02,2.194,3.222
		c-0.489,0.472-1.388,1.565-1.572,1.786c-1.284-0.765-2.429-1.407-3.432-1.937c-0.633,0.82-1.215,1.668-1.743,2.556
		c0.839,0.747,1.831,1.582,2.983,2.504c-0.014,0.024-0.018,0.024-0.018,0.024c-0.377,0.616-0.726,1.247-1.04,1.896
		c-1.433-0.43-2.699-0.778-3.8-1.044c-0.412,0.946-0.775,1.913-1.071,2.902c0.962,0.499,2.084,1.047,3.367,1.638
		c-0.196,0.646-0.37,1.296-0.505,1.953c-1.493-0.062-2.806-0.088-3.939-0.074c-0.166,1.02-0.277,2.046-0.319,3.078
		c1.093,0.254,2.363,0.519,3.816,0.784c-0.019,0.596-0.001,1.193,0.031,1.79c-1.435,0.25-2.694,0.5-3.777,0.748
		c0.054,1.032,0.165,2.059,0.342,3.076C237.509,150.809,238.805,150.797,240.281,150.745z"/>
	<path display="inline" fill="#020202" d="M335.628,148.483c-1.319-0.192-2.479-0.388-3.481-0.587
		c0.008-0.954,0.075-1.908,0.193-2.855c1.021-0.046,2.203-0.068,3.542-0.061c0.126-0.825,0.304-1.631,0.52-2.422
		c-1.191-0.527-2.234-1.019-3.129-1.467c0.261-0.919,0.579-1.815,0.949-2.697c0.981,0.223,2.106,0.51,3.371,0.869
		c0.325-0.713,0.687-1.408,1.084-2.079c-1.049-0.845-1.951-1.61-2.717-2.293c0.492-0.817,1.035-1.604,1.619-2.358
		c0.913,0.485,1.958,1.075,3.126,1.775c0.524-0.629,1.086-1.223,1.675-1.79c-0.775-1.082-1.438-2.055-1.987-2.913
		c0.689-0.658,1.423-1.268,2.187-1.841c0.748,0.708,1.591,1.552,2.523,2.527c0.694-0.479,1.419-0.922,2.168-1.322
		c-0.438-1.27-0.801-2.399-1.086-3.386c0.852-0.433,1.728-0.81,2.625-1.138c0.512,0.89,1.076,1.932,1.688,3.13
		c0.777-0.264,1.571-0.487,2.383-0.663c-0.078-1.303-0.122-2.455-0.132-3.456c0.934-0.189,1.879-0.321,2.83-0.395
		c0.249,0.97,0.512,2.097,0.773,3.379c0.402-0.021,0.804-0.035,1.211-0.035c0.384,0,0.765,0.01,1.143,0.03
		c0.267-1.305,0.529-2.451,0.784-3.438c0.95,0.059,1.897,0.182,2.836,0.353c-0.011,1.024-0.054,2.208-0.136,3.548
		c0.812,0.175,1.607,0.396,2.382,0.658c0.597-1.165,1.146-2.182,1.648-3.052c0.901,0.313,1.782,0.681,2.639,1.099
		c-0.278,0.972-0.634,2.087-1.065,3.334c0.928,0.49,1.813,1.043,2.654,1.655c0.945-0.967,1.798-1.794,2.555-2.494
		c0.77,0.566,1.496,1.179,2.192,1.836c-0.57,0.866-1.261,1.849-2.071,2.947c0.516,0.491,1.012,1.066,1.479,1.668
		c1.173-0.692,2.217-1.275,3.135-1.756c0.594,0.748,1.138,1.532,1.639,2.346c-0.785,0.692-1.716,1.471-2.795,2.331l1.176,2.187
		c1.315-0.354,2.48-0.639,3.495-0.854c0.374,0.876,0.688,1.776,0.953,2.692c-0.942,0.461-2.047,0.962-3.317,1.502l0.498,2.466
		c1.361,0.034,2.559,0.095,3.593,0.175c0.106,0.949,0.151,1.902,0.144,2.855c-1.034,0.172-2.234,0.339-3.606,0.492
		c0,0-0.1,1.471-0.232,2.425c1.288,0.394,2.413,0.769,3.38,1.121c-0.152,0.941-0.361,1.871-0.626,2.789
		c-1.017-0.109-2.189-0.265-3.516-0.477c-0.232,0.748-0.505,1.477-0.812,2.188l0.007-0.009c1.156,0.722,2.155,1.384,3.006,1.981
		c-0.391,0.87-0.838,1.713-1.328,2.532c-0.971-0.376-2.084-0.842-3.332-1.403c-0.44,0.688-0.918,1.354-1.43,1.989
		c0.895,0.984,1.666,1.866,2.312,2.654c-0.609,0.733-1.263,1.428-1.956,2.084c-0.817-0.608-1.744-1.339-2.773-2.19
		c-0.625,0.562-1.285,1.085-1.972,1.573c0.597,1.199,1.1,2.268,1.509,3.208c-0.787,0.538-1.609,1.025-2.455,1.47
		c-0.621-0.813-1.312-1.771-2.072-2.876c-0.738,0.362-1.5,0.685-2.281,0.965c0.244,1.276,0.436,2.41,0.575,3.399
		c-0.901,0.31-1.821,0.559-2.756,0.758c-0.374-0.93-0.778-2.013-1.204-3.251c-0.765,0.141-1.542,0.24-2.332,0.3
		c-0.096,1.336-0.207,2.507-0.332,3.521c-0.951,0.064-1.907,0.066-2.86,0.015c-0.122-1.02-0.231-2.204-0.323-3.551
		c-0.83-0.067-1.645-0.18-2.445-0.339c-0.439,1.235-0.855,2.319-1.242,3.25c-0.933-0.191-1.854-0.446-2.759-0.748
		c0.152-1.005,0.36-2.161,0.626-3.462c-0.804-0.3-1.584-0.648-2.341-1.039c-0.781,1.069-1.493,1.996-2.133,2.783
		c-0.839-0.452-1.649-0.957-2.433-1.505c0.432-0.912,0.96-1.96,1.583-3.123c-0.673-0.495-1.313-1.027-1.925-1.595
		c-1.002,0.789-1.913,1.476-2.716,2.044c-0.689-0.659-1.334-1.36-1.938-2.099c0.641-0.746,1.411-1.592,2.293-2.518
		c-0.489-0.625-0.947-1.275-1.366-1.951c-1.198,0.514-2.271,0.945-3.211,1.293c-0.492-0.815-0.935-1.663-1.328-2.532
		c0.834-0.565,1.812-1.193,2.933-1.875c-0.317-0.766-0.592-1.554-0.824-2.361c-1.269,0.17-2.396,0.296-3.381,0.379
		c-0.257-0.918-0.457-1.851-0.602-2.795c0.942-0.319,2.041-0.659,3.288-1.012C335.689,150.172,335.633,149.333,335.628,148.483"/>
	<path display="inline" fill="none" stroke="#FFFFFF" stroke-width="1.07" d="M335.628,148.483
		c-1.319-0.192-2.479-0.388-3.481-0.587c0.008-0.954,0.075-1.908,0.193-2.855c1.021-0.046,2.203-0.068,3.542-0.061
		c0.126-0.825,0.304-1.631,0.52-2.422c-1.191-0.527-2.234-1.019-3.129-1.467c0.261-0.919,0.579-1.815,0.949-2.697
		c0.981,0.223,2.106,0.51,3.371,0.869c0.325-0.713,0.687-1.408,1.084-2.079c-1.049-0.845-1.951-1.61-2.717-2.293
		c0.492-0.817,1.035-1.604,1.619-2.358c0.913,0.485,1.958,1.075,3.126,1.775c0.524-0.629,1.086-1.223,1.675-1.79
		c-0.775-1.082-1.438-2.055-1.987-2.913c0.689-0.658,1.423-1.268,2.187-1.841c0.748,0.708,1.591,1.552,2.523,2.527
		c0.694-0.479,1.419-0.922,2.168-1.322c-0.438-1.27-0.801-2.399-1.086-3.386c0.852-0.433,1.728-0.81,2.625-1.138
		c0.512,0.89,1.076,1.932,1.688,3.13c0.777-0.264,1.571-0.487,2.383-0.663c-0.078-1.303-0.122-2.455-0.132-3.456
		c0.934-0.189,1.879-0.321,2.83-0.395c0.249,0.97,0.512,2.097,0.773,3.379c0.402-0.021,0.804-0.035,1.211-0.035
		c0.384,0,0.765,0.01,1.143,0.03c0.267-1.305,0.529-2.451,0.784-3.438c0.95,0.059,1.897,0.182,2.836,0.353
		c-0.011,1.024-0.054,2.208-0.136,3.548c0.812,0.175,1.607,0.396,2.382,0.658c0.597-1.165,1.146-2.182,1.648-3.052
		c0.901,0.313,1.782,0.681,2.639,1.099c-0.278,0.972-0.634,2.087-1.065,3.334c0.928,0.49,1.813,1.043,2.654,1.655
		c0.945-0.967,1.798-1.794,2.555-2.494c0.77,0.566,1.496,1.179,2.192,1.836c-0.57,0.866-1.261,1.849-2.071,2.947
		c0.516,0.491,1.012,1.066,1.479,1.668c1.173-0.692,2.217-1.275,3.135-1.756c0.594,0.748,1.138,1.532,1.639,2.346
		c-0.785,0.692-1.716,1.471-2.795,2.331l1.176,2.187c1.315-0.354,2.48-0.639,3.495-0.854c0.374,0.876,0.688,1.776,0.953,2.692
		c-0.942,0.461-2.047,0.962-3.317,1.502l0.498,2.466c1.361,0.034,2.559,0.095,3.593,0.175c0.106,0.949,0.151,1.902,0.144,2.855
		c-1.034,0.172-2.234,0.339-3.606,0.492c0,0-0.1,1.471-0.232,2.425c1.288,0.394,2.413,0.769,3.38,1.121
		c-0.152,0.941-0.361,1.871-0.626,2.789c-1.017-0.109-2.189-0.265-3.516-0.477c-0.232,0.748-0.505,1.477-0.812,2.188l0.007-0.009
		c1.156,0.722,2.155,1.384,3.006,1.981c-0.391,0.87-0.838,1.713-1.328,2.532c-0.971-0.376-2.084-0.842-3.332-1.403
		c-0.44,0.688-0.918,1.354-1.43,1.989c0.895,0.984,1.666,1.866,2.312,2.654c-0.609,0.733-1.263,1.428-1.956,2.084
		c-0.817-0.608-1.744-1.339-2.773-2.19c-0.625,0.562-1.285,1.085-1.972,1.573c0.597,1.199,1.1,2.268,1.509,3.208
		c-0.787,0.538-1.609,1.025-2.455,1.47c-0.621-0.813-1.312-1.771-2.072-2.876c-0.738,0.362-1.5,0.685-2.281,0.965
		c0.244,1.276,0.436,2.41,0.575,3.399c-0.901,0.31-1.821,0.559-2.756,0.758c-0.374-0.93-0.778-2.013-1.204-3.251
		c-0.765,0.141-1.542,0.24-2.332,0.3c-0.096,1.336-0.207,2.507-0.332,3.521c-0.951,0.064-1.907,0.066-2.86,0.015
		c-0.122-1.02-0.231-2.204-0.323-3.551c-0.83-0.067-1.645-0.18-2.445-0.339c-0.439,1.235-0.855,2.319-1.242,3.25
		c-0.933-0.191-1.854-0.446-2.759-0.748c0.152-1.005,0.36-2.161,0.626-3.462c-0.804-0.3-1.584-0.648-2.341-1.039
		c-0.781,1.069-1.493,1.996-2.133,2.783c-0.839-0.452-1.649-0.957-2.433-1.505c0.432-0.912,0.96-1.96,1.583-3.123
		c-0.673-0.495-1.313-1.027-1.925-1.595c-1.002,0.789-1.913,1.476-2.716,2.044c-0.689-0.659-1.334-1.36-1.938-2.099
		c0.641-0.746,1.411-1.592,2.293-2.518c-0.489-0.625-0.947-1.275-1.366-1.951c-1.198,0.514-2.271,0.945-3.211,1.293
		c-0.492-0.815-0.935-1.663-1.328-2.532c0.834-0.565,1.812-1.193,2.933-1.875c-0.317-0.766-0.592-1.554-0.824-2.361
		c-1.269,0.17-2.396,0.296-3.381,0.379c-0.257-0.918-0.457-1.851-0.602-2.795c0.942-0.319,2.041-0.659,3.288-1.012
		C335.689,150.172,335.633,149.333,335.628,148.483z"/>
	<path display="inline" fill="#020202" d="M256.257,122.584c-0.305-0.944-0.544-1.904-0.731-2.882
		c0.977-0.37,2.117-0.768,3.419-1.186c-0.056-0.653-0.056-1.3-0.025-1.941c-1.301-0.304-2.448-0.597-3.436-0.878
		c0.088-0.987,0.239-1.967,0.444-2.94c1.044,0.04,2.248,0.115,3.605,0.23c0.207-0.666,0.476-1.309,0.774-1.935
		c-1.081-0.746-2.035-1.433-2.84-2.045c0.438-0.888,0.938-1.744,1.485-2.576c0.964,0.418,2.074,0.937,3.31,1.551
		c0.41-0.49,0.858-0.948,1.331-1.382c-0.731-1.141-1.358-2.166-1.877-3.066c0.752-0.646,1.546-1.244,2.37-1.799
		c0.734,0.771,1.564,1.685,2.477,2.742c0.665-0.354,1.368-0.649,2.098-0.901c-0.211-1.359-0.366-2.56-0.476-3.606
		c0.95-0.289,1.915-0.511,2.895-0.683c0.362,1.007,0.749,2.183,1.156,3.53c0.638-0.052,1.271-0.052,1.896-0.022
		c0.333-1.321,0.65-2.48,0.953-3.48c0.985,0.105,1.964,0.272,2.932,0.494c-0.057,1.044-0.151,2.25-0.292,3.609
		c0.668,0.209,1.31,0.48,1.936,0.78c0.757-1.061,1.458-1.997,2.082-2.789c0.882,0.456,1.728,0.969,2.55,1.529
		c-0.428,0.941-0.953,2.019-1.572,3.216c0.503,0.42,0.969,0.882,1.413,1.368c1.115-0.687,2.124-1.282,3.01-1.771
		c0.634,0.763,1.218,1.566,1.757,2.4c-0.755,0.694-1.647,1.476-2.67,2.335c0.376,0.71,0.692,1.461,0.95,2.246
		c1.306-0.187,2.467-0.321,3.48-0.414c0.278,0.952,0.488,1.918,0.647,2.9c-0.983,0.341-2.127,0.704-3.433,1.08
		c0.045,0.661,0.043,1.315-0.001,1.961c1.271,0.336,2.392,0.659,3.358,0.965c-0.12,0.983-0.297,1.959-0.531,2.926
		c-1.021-0.07-2.197-0.175-3.518-0.326c-0.226,0.677-0.501,1.333-0.822,1.967c1.022,0.75,1.929,1.442,2.692,2.061
		c-0.466,0.876-0.989,1.717-1.56,2.531c-0.922-0.433-1.98-0.965-3.148-1.588c-0.436,0.502-0.904,0.974-1.409,1.414
		c0.665,1.111,1.236,2.109,1.709,2.991c-0.77,0.625-1.58,1.196-2.421,1.729c-0.686-0.764-1.456-1.665-2.299-2.696
		c-0.702,0.353-1.431,0.661-2.199,0.899c0.159,1.292,0.273,2.441,0.349,3.44c-0.957,0.262-1.927,0.457-2.912,0.599
		c-0.321-0.979-0.661-2.118-1.012-3.414c-0.667,0.036-1.33,0.03-1.982-0.024c-0.354,1.245-0.69,2.344-1.009,3.294
		c-0.982-0.135-1.956-0.329-2.917-0.58c0.087-1.011,0.21-2.173,0.383-3.479c-0.68-0.238-1.343-0.517-1.979-0.851
		c-0.755,0.993-1.456,1.875-2.078,2.62c-0.869-0.481-1.7-1.018-2.506-1.603c0.446-0.909,0.992-1.948,1.626-3.094
		c-0.499-0.45-0.975-0.923-1.408-1.439c-1.107,0.636-2.103,1.184-2.983,1.638c-0.612-0.781-1.172-1.602-1.688-2.45
		c0.771-0.668,1.68-1.421,2.72-2.242c-0.228-0.479-0.432-0.97-0.608-1.478C258.42,122.294,257.266,122.46,256.257,122.584"/>
	<path display="inline" fill="none" stroke="#FFFFFF" stroke-width="1.588" d="M256.257,122.584
		c-0.305-0.944-0.544-1.904-0.731-2.882c0.977-0.37,2.117-0.768,3.419-1.186c-0.056-0.653-0.056-1.3-0.025-1.941
		c-1.301-0.304-2.448-0.597-3.436-0.878c0.088-0.987,0.239-1.967,0.444-2.94c1.044,0.04,2.248,0.115,3.605,0.23
		c0.207-0.666,0.476-1.309,0.774-1.935c-1.081-0.746-2.035-1.433-2.84-2.045c0.438-0.888,0.938-1.744,1.485-2.576
		c0.964,0.418,2.074,0.937,3.31,1.551c0.41-0.49,0.858-0.948,1.331-1.382c-0.731-1.141-1.358-2.166-1.877-3.066
		c0.752-0.646,1.546-1.244,2.37-1.799c0.734,0.771,1.564,1.685,2.477,2.742c0.665-0.354,1.368-0.649,2.098-0.901
		c-0.211-1.359-0.366-2.56-0.476-3.606c0.95-0.289,1.915-0.511,2.895-0.683c0.362,1.007,0.749,2.183,1.156,3.53
		c0.638-0.052,1.271-0.052,1.896-0.022c0.333-1.321,0.65-2.48,0.953-3.48c0.985,0.105,1.964,0.272,2.932,0.494
		c-0.057,1.044-0.151,2.25-0.292,3.609c0.668,0.209,1.31,0.48,1.936,0.78c0.757-1.061,1.458-1.997,2.082-2.789
		c0.882,0.456,1.728,0.969,2.55,1.529c-0.428,0.941-0.953,2.019-1.572,3.216c0.503,0.42,0.969,0.882,1.413,1.368
		c1.115-0.687,2.124-1.282,3.01-1.771c0.634,0.763,1.218,1.566,1.757,2.4c-0.755,0.694-1.647,1.476-2.67,2.335
		c0.376,0.71,0.692,1.461,0.95,2.246c1.306-0.187,2.467-0.321,3.48-0.414c0.278,0.952,0.488,1.918,0.647,2.9
		c-0.983,0.341-2.127,0.704-3.433,1.08c0.045,0.661,0.043,1.315-0.001,1.961c1.271,0.336,2.392,0.659,3.358,0.965
		c-0.12,0.983-0.297,1.959-0.531,2.926c-1.021-0.07-2.197-0.175-3.518-0.326c-0.226,0.677-0.501,1.333-0.822,1.967
		c1.022,0.75,1.929,1.442,2.692,2.061c-0.466,0.876-0.989,1.717-1.56,2.531c-0.922-0.433-1.98-0.965-3.148-1.588
		c-0.436,0.502-0.904,0.974-1.409,1.414c0.665,1.111,1.236,2.109,1.709,2.991c-0.77,0.625-1.58,1.196-2.421,1.729
		c-0.686-0.764-1.456-1.665-2.299-2.696c-0.702,0.353-1.431,0.661-2.199,0.899c0.159,1.292,0.273,2.441,0.349,3.44
		c-0.957,0.262-1.927,0.457-2.912,0.599c-0.321-0.979-0.661-2.118-1.012-3.414c-0.667,0.036-1.33,0.03-1.982-0.024
		c-0.354,1.245-0.69,2.344-1.009,3.294c-0.982-0.135-1.956-0.329-2.917-0.58c0.087-1.011,0.21-2.173,0.383-3.479
		c-0.68-0.238-1.343-0.517-1.979-0.851c-0.755,0.993-1.456,1.875-2.078,2.62c-0.869-0.481-1.7-1.018-2.506-1.603
		c0.446-0.909,0.992-1.948,1.626-3.094c-0.499-0.45-0.975-0.923-1.408-1.439c-1.107,0.636-2.103,1.184-2.983,1.638
		c-0.612-0.781-1.172-1.602-1.688-2.45c0.771-0.668,1.68-1.421,2.72-2.242c-0.228-0.479-0.432-0.97-0.608-1.478
		C258.42,122.294,257.266,122.46,256.257,122.584z"/>
	<path display="inline" fill="#020202" d="M284.732,120.754c0-0.082,0.005-0.164,0.007-0.244c-1.259-0.157-2.367-0.319-3.323-0.489
		c-0.013-0.908,0.031-1.816,0.126-2.723c0.971-0.064,2.095-0.112,3.372-0.133c0.083-0.847,0.209-1.681,0.353-2.509
		c-1.223-0.364-2.292-0.71-3.211-1.036c0.135-0.897,0.33-1.787,0.574-2.664c0.974,0.097,2.099,0.237,3.37,0.428
		c0.218-0.797,0.463-1.583,0.736-2.357c-1.124-0.567-2.107-1.093-2.947-1.575c0.297-0.868,0.649-1.715,1.048-2.54
		c0.924,0.263,1.986,0.597,3.169,1c0.375-0.811,0.781-1.603,1.216-2.382c-1-0.747-1.869-1.427-2.604-2.04
		c0.437-0.796,0.926-1.563,1.458-2.303c0.854,0.415,1.83,0.92,2.913,1.513c0.489-0.707,1.003-1.394,1.541-2.062
		c-0.839-0.879-1.572-1.68-2.185-2.392c0.563-0.711,1.173-1.389,1.819-2.029c0.758,0.539,1.624,1.187,2.571,1.931
		c0.655-0.672,1.336-1.317,2.042-1.935c-0.688-1-1.285-1.908-1.776-2.707c0.675-0.622,1.391-1.196,2.135-1.729
		c0.674,0.66,1.434,1.449,2.264,2.349c0.726-0.525,1.468-1.027,2.234-1.495c-0.512-1.121-0.946-2.125-1.295-3.006
		c0.766-0.49,1.562-0.928,2.383-1.323c0.552,0.775,1.168,1.685,1.837,2.726c0.766-0.374,1.549-0.715,2.343-1.034
		c-0.32-1.195-0.582-2.258-0.781-3.189c0.836-0.356,1.694-0.658,2.568-0.912c0.418,0.858,0.878,1.862,1.37,3.007
		c0.778-0.229,1.567-0.432,2.368-0.608c-0.116-1.305-0.192-2.452-0.228-3.448c0.894-0.207,1.798-0.355,2.71-0.452
		c0.273,0.954,0.561,2.066,0.854,3.336c0.866-0.104,1.739-0.183,2.624-0.224c0.11-1.296,0.232-2.429,0.368-3.409
		c0.907-0.049,1.818-0.04,2.726,0.021c0.103,0.976,0.194,2.106,0.263,3.39c0.85,0.041,1.69,0.12,2.523,0.219
		c0.315-1.23,0.618-2.309,0.908-3.235c0.904,0.101,1.8,0.26,2.686,0.471c-0.06,0.961-0.153,2.068-0.294,3.318
		c0.909,0.197,1.807,0.429,2.688,0.695c0.506-1.158,0.975-2.171,1.406-3.039c0.885,0.247,1.75,0.548,2.598,0.9
		c-0.213,0.95-0.487,2.042-0.828,3.271c0.819,0.337,1.622,0.707,2.409,1.102c0.709-1.073,1.354-2.002,1.937-2.79
		c0.819,0.391,1.613,0.833,2.382,1.322c-0.377,0.909-0.841,1.948-1.396,3.115c0.715,0.446,1.411,0.918,2.089,1.415
		c0.877-0.94,1.668-1.751,2.372-2.435c0.746,0.522,1.454,1.091,2.133,1.699c-0.522,0.833-1.153,1.785-1.894,2.845
		c0.613,0.545,1.208,1.112,1.784,1.701c1.012-0.758,1.925-1.41,2.732-1.949c0.645,0.651,1.246,1.343,1.809,2.067
		c-0.646,0.712-1.419,1.515-2.306,2.394c0.56,0.694,1.095,1.409,1.602,2.144c1.108-0.559,2.104-1.036,2.976-1.42
		c0.52,0.746,0.988,1.526,1.416,2.33c-0.746,0.577-1.624,1.222-2.63,1.923c0.419,0.75,0.811,1.517,1.176,2.3
		c1.148-0.358,2.177-0.653,3.077-0.883c0.389,0.823,0.723,1.669,1.01,2.532c-0.81,0.434-1.755,0.913-2.827,1.425
		c0.314,0.884,0.595,1.784,0.839,2.7c1.181-0.168,2.235-0.295,3.154-0.379c0.257,0.884,0.454,1.78,0.6,2.683
		c-0.877,0.306-1.897,0.629-3.05,0.965c0.147,0.885,0.262,1.779,0.342,2.684c1.21,0.04,2.282,0.097,3.212,0.176
		c0.099,0.902,0.137,1.812,0.127,2.722c-0.923,0.15-1.991,0.292-3.195,0.426c-0.004,0.871-0.047,1.728-0.111,2.58
		c1.183,0.24,2.23,0.475,3.135,0.706c-0.053,0.905-0.165,1.81-0.326,2.706c-0.934-0.009-2.01-0.041-3.22-0.108
		c-0.144,0.829-0.312,1.647-0.512,2.455c1.207,0.435,2.261,0.841,3.165,1.221c-0.188,0.898-0.437,1.783-0.731,2.65
		c-0.985-0.152-2.121-0.362-3.404-0.633c-0.293,0.832-0.617,1.646-0.969,2.446c1.062,0.61,1.993,1.17,2.786,1.681
		c-0.338,0.843-0.73,1.666-1.168,2.464c-0.904-0.311-1.945-0.696-3.104-1.157c-0.385,0.691-0.795,1.365-1.225,2.026
		c0.931,0.765,1.746,1.464,2.435,2.089c-0.473,0.774-0.994,1.52-1.559,2.238c-0.826-0.449-1.773-0.992-2.819-1.625
		c-0.493,0.624-1.002,1.236-1.536,1.823c0.817,0.955,1.523,1.813,2.112,2.578c-0.607,0.688-1.255,1.335-1.941,1.944
		c-0.753-0.597-1.608-1.313-2.549-2.144c-0.672,0.613-1.374,1.191-2.092,1.751c0.665,1.121,1.226,2.112,1.687,2.99
		c-0.71,0.568-1.456,1.091-2.23,1.568c-0.654-0.738-1.391-1.611-2.201-2.624c-0.71,0.451-1.432,0.884-2.174,1.285
		c0.464,1.194,0.849,2.257,1.153,3.184c-0.793,0.443-1.615,0.835-2.458,1.181c-0.518-0.828-1.095-1.799-1.718-2.914
		c-0.793,0.334-1.605,0.632-2.427,0.91c0.253,1.191,0.455,2.256,0.604,3.188c-0.864,0.314-1.744,0.571-2.636,0.777
		c-0.371-0.872-0.771-1.889-1.196-3.045c-0.848,0.198-1.703,0.373-2.573,0.508c0.045,1.242,0.062,2.344,0.045,3.297
		c-0.893,0.162-1.796,0.262-2.706,0.312c-0.217-0.936-0.438-2.021-0.661-3.255c-0.715,0.043-1.435,0.072-2.161,0.072
		c-0.304,0-0.604-0.016-0.908-0.022c-0.166,1.269-0.338,2.384-0.513,3.344c-0.908,0.009-1.817-0.04-2.722-0.141
		c-0.061-0.99-0.103-2.139-0.115-3.446c-0.88-0.106-1.752-0.238-2.611-0.408c-0.392,1.203-0.764,2.255-1.113,3.157
		c-0.903-0.162-1.794-0.381-2.669-0.651c0.122-0.962,0.291-2.071,0.515-3.318c-0.854-0.255-1.693-0.543-2.519-0.861
		c-0.597,1.141-1.144,2.136-1.645,2.982c-0.856-0.306-1.692-0.667-2.507-1.072c0.286-0.948,0.642-2.038,1.08-3.263
		c-0.843-0.42-1.668-0.868-2.472-1.353c-0.784,0.957-1.498,1.792-2.138,2.493c-0.776-0.473-1.521-0.998-2.235-1.561
		c0.443-0.816,0.982-1.755,1.604-2.786c-0.75-0.557-1.473-1.145-2.177-1.756c-0.91,0.875-1.735,1.629-2.467,2.261
		c-0.723-0.573-1.403-1.185-2.048-1.833c0.575-0.814,1.267-1.735,2.077-2.763c-0.677-0.713-1.326-1.453-1.942-2.221
		c-1.083,0.663-2.053,1.228-2.908,1.691c-0.583-0.708-1.118-1.454-1.611-2.226c0.716-0.654,1.562-1.387,2.537-2.189
		c-0.488-0.74-0.949-1.5-1.381-2.278c-1.171,0.461-2.216,0.847-3.13,1.154c-0.447-0.792-0.842-1.612-1.193-2.45
		c0.81-0.514,1.759-1.085,2.847-1.702c-0.34-0.78-0.65-1.576-0.934-2.383c-1.208,0.255-2.284,0.459-3.221,0.608
		c-0.311-0.854-0.566-1.728-0.772-2.614c0.87-0.368,1.885-0.768,3.039-1.189c-0.223-0.9-0.41-1.815-0.562-2.74
		c-1.239,0.062-2.338,0.093-3.292,0.09c-0.174-0.902-0.287-1.812-0.35-2.725c0.938-0.23,2.024-0.466,3.26-0.706
		C284.77,122.371,284.732,121.567,284.732,120.754"/>
	<path display="inline" fill="none" stroke="#FFFFFF" stroke-width="1.071" d="M284.732,120.754c0-0.082,0.005-0.164,0.007-0.244
		c-1.259-0.157-2.367-0.319-3.323-0.489c-0.013-0.908,0.031-1.816,0.126-2.723c0.971-0.064,2.095-0.112,3.372-0.133
		c0.083-0.847,0.209-1.681,0.353-2.509c-1.223-0.364-2.292-0.71-3.211-1.036c0.135-0.897,0.33-1.787,0.574-2.664
		c0.974,0.097,2.099,0.237,3.37,0.428c0.218-0.797,0.463-1.583,0.736-2.357c-1.124-0.567-2.107-1.093-2.947-1.575
		c0.297-0.868,0.649-1.715,1.048-2.54c0.924,0.263,1.986,0.597,3.169,1c0.375-0.811,0.781-1.603,1.216-2.382
		c-1-0.747-1.869-1.427-2.604-2.04c0.437-0.796,0.926-1.563,1.458-2.303c0.854,0.415,1.83,0.92,2.913,1.513
		c0.489-0.707,1.003-1.394,1.541-2.062c-0.839-0.879-1.572-1.68-2.185-2.392c0.563-0.711,1.173-1.389,1.819-2.029
		c0.758,0.539,1.624,1.187,2.571,1.931c0.655-0.672,1.336-1.317,2.042-1.935c-0.688-1-1.285-1.908-1.776-2.707
		c0.675-0.622,1.391-1.196,2.135-1.729c0.674,0.66,1.434,1.449,2.264,2.349c0.726-0.525,1.468-1.027,2.234-1.495
		c-0.512-1.121-0.946-2.125-1.295-3.006c0.766-0.49,1.562-0.928,2.383-1.323c0.552,0.775,1.168,1.685,1.837,2.726
		c0.766-0.374,1.549-0.715,2.343-1.034c-0.32-1.195-0.582-2.258-0.781-3.189c0.836-0.356,1.694-0.658,2.568-0.912
		c0.418,0.858,0.878,1.862,1.37,3.007c0.778-0.229,1.567-0.432,2.368-0.608c-0.116-1.305-0.192-2.452-0.228-3.448
		c0.894-0.207,1.798-0.355,2.71-0.452c0.273,0.954,0.561,2.066,0.854,3.336c0.866-0.104,1.739-0.183,2.624-0.224
		c0.11-1.296,0.232-2.429,0.368-3.409c0.907-0.049,1.818-0.04,2.726,0.021c0.103,0.976,0.194,2.106,0.263,3.39
		c0.85,0.041,1.69,0.12,2.523,0.219c0.315-1.23,0.618-2.309,0.908-3.235c0.904,0.101,1.8,0.26,2.686,0.471
		c-0.06,0.961-0.153,2.068-0.294,3.318c0.909,0.197,1.807,0.429,2.688,0.695c0.506-1.158,0.975-2.171,1.406-3.039
		c0.885,0.247,1.75,0.548,2.598,0.9c-0.213,0.95-0.487,2.042-0.828,3.271c0.819,0.337,1.622,0.707,2.409,1.102
		c0.709-1.073,1.354-2.002,1.937-2.79c0.819,0.391,1.613,0.833,2.382,1.322c-0.377,0.909-0.841,1.948-1.396,3.115
		c0.715,0.446,1.411,0.918,2.089,1.415c0.877-0.94,1.668-1.751,2.372-2.435c0.746,0.522,1.454,1.091,2.133,1.699
		c-0.522,0.833-1.153,1.785-1.894,2.845c0.613,0.545,1.208,1.112,1.784,1.701c1.012-0.758,1.925-1.41,2.732-1.949
		c0.645,0.651,1.246,1.343,1.809,2.067c-0.646,0.712-1.419,1.515-2.306,2.394c0.56,0.694,1.095,1.409,1.602,2.144
		c1.108-0.559,2.104-1.036,2.976-1.42c0.52,0.746,0.988,1.526,1.416,2.33c-0.746,0.577-1.624,1.222-2.63,1.923
		c0.419,0.75,0.811,1.517,1.176,2.3c1.148-0.358,2.177-0.653,3.077-0.883c0.389,0.823,0.723,1.669,1.01,2.532
		c-0.81,0.434-1.755,0.913-2.827,1.425c0.314,0.884,0.595,1.784,0.839,2.7c1.181-0.168,2.235-0.295,3.154-0.379
		c0.257,0.884,0.454,1.78,0.6,2.683c-0.877,0.306-1.897,0.629-3.05,0.965c0.147,0.885,0.262,1.779,0.342,2.684
		c1.21,0.04,2.282,0.097,3.212,0.176c0.099,0.902,0.137,1.812,0.127,2.722c-0.923,0.15-1.991,0.292-3.195,0.426
		c-0.004,0.871-0.047,1.728-0.111,2.58c1.183,0.24,2.23,0.475,3.135,0.706c-0.053,0.905-0.165,1.81-0.326,2.706
		c-0.934-0.009-2.01-0.041-3.22-0.108c-0.144,0.829-0.312,1.647-0.512,2.455c1.207,0.435,2.261,0.841,3.165,1.221
		c-0.188,0.898-0.437,1.783-0.731,2.65c-0.985-0.152-2.121-0.362-3.404-0.633c-0.293,0.832-0.617,1.646-0.969,2.446
		c1.062,0.61,1.993,1.17,2.786,1.681c-0.338,0.843-0.73,1.666-1.168,2.464c-0.904-0.311-1.945-0.696-3.104-1.157
		c-0.385,0.691-0.795,1.365-1.225,2.026c0.931,0.765,1.746,1.464,2.435,2.089c-0.473,0.774-0.994,1.52-1.559,2.238
		c-0.826-0.449-1.773-0.992-2.819-1.625c-0.493,0.624-1.002,1.236-1.536,1.823c0.817,0.955,1.523,1.813,2.112,2.578
		c-0.607,0.688-1.255,1.335-1.941,1.944c-0.753-0.597-1.608-1.313-2.549-2.144c-0.672,0.613-1.374,1.191-2.092,1.751
		c0.665,1.121,1.226,2.112,1.687,2.99c-0.71,0.568-1.456,1.091-2.23,1.568c-0.654-0.738-1.391-1.611-2.201-2.624
		c-0.71,0.451-1.432,0.884-2.174,1.285c0.464,1.194,0.849,2.257,1.153,3.184c-0.793,0.443-1.615,0.835-2.458,1.181
		c-0.518-0.828-1.095-1.799-1.718-2.914c-0.793,0.334-1.605,0.632-2.427,0.91c0.253,1.191,0.455,2.256,0.604,3.188
		c-0.864,0.314-1.744,0.571-2.636,0.777c-0.371-0.872-0.771-1.889-1.196-3.045c-0.848,0.198-1.703,0.373-2.573,0.508
		c0.045,1.242,0.062,2.344,0.045,3.297c-0.893,0.162-1.796,0.262-2.706,0.312c-0.217-0.936-0.438-2.021-0.661-3.255
		c-0.715,0.043-1.435,0.072-2.161,0.072c-0.304,0-0.604-0.016-0.908-0.022c-0.166,1.269-0.338,2.384-0.513,3.344
		c-0.908,0.009-1.817-0.04-2.722-0.141c-0.061-0.99-0.103-2.139-0.115-3.446c-0.88-0.106-1.752-0.238-2.611-0.408
		c-0.392,1.203-0.764,2.255-1.113,3.157c-0.903-0.162-1.794-0.381-2.669-0.651c0.122-0.962,0.291-2.071,0.515-3.318
		c-0.854-0.255-1.693-0.543-2.519-0.861c-0.597,1.141-1.144,2.136-1.645,2.982c-0.856-0.306-1.692-0.667-2.507-1.072
		c0.286-0.948,0.642-2.038,1.08-3.263c-0.843-0.42-1.668-0.868-2.472-1.353c-0.784,0.957-1.498,1.792-2.138,2.493
		c-0.776-0.473-1.521-0.998-2.235-1.561c0.443-0.816,0.982-1.755,1.604-2.786c-0.75-0.557-1.473-1.145-2.177-1.756
		c-0.91,0.875-1.735,1.629-2.467,2.261c-0.723-0.573-1.403-1.185-2.048-1.833c0.575-0.814,1.267-1.735,2.077-2.763
		c-0.677-0.713-1.326-1.453-1.942-2.221c-1.083,0.663-2.053,1.228-2.908,1.691c-0.583-0.708-1.118-1.454-1.611-2.226
		c0.716-0.654,1.562-1.387,2.537-2.189c-0.488-0.74-0.949-1.5-1.381-2.278c-1.171,0.461-2.216,0.847-3.13,1.154
		c-0.447-0.792-0.842-1.612-1.193-2.45c0.81-0.514,1.759-1.085,2.847-1.702c-0.34-0.78-0.65-1.576-0.934-2.383
		c-1.208,0.255-2.284,0.459-3.221,0.608c-0.311-0.854-0.566-1.728-0.772-2.614c0.87-0.368,1.885-0.768,3.039-1.189
		c-0.223-0.9-0.41-1.815-0.562-2.74c-1.239,0.062-2.338,0.093-3.292,0.09c-0.174-0.902-0.287-1.812-0.35-2.725
		c0.938-0.23,2.024-0.466,3.26-0.706C284.77,122.371,284.732,121.567,284.732,120.754z"/>
	<circle display="inline" fill="none" stroke="#FFFFFF" stroke-width="2" cx="264.293" cy="146.779" r="7.304"/>
	<circle display="inline" fill="none" stroke="#FFFFFF" stroke-width="2" cx="319.324" cy="121.157" r="20.165"/>
	<circle display="inline" fill="none" stroke="#FFFFFF" stroke-width="0.91" cx="319.324" cy="121.157" r="4.995"/>
	<circle display="inline" fill="none" stroke="#FFFFFF" stroke-width="2" cx="357.072" cy="148.309" r="5.548"/>
	
		<line display="inline" fill="none" stroke="#FFFFFF" stroke-width="2" stroke-linecap="round" stroke-dasharray="1.956,5.669" x1="262.546" y1="153.863" x2="299.18" y2="164.581"/>
	
		<line display="inline" fill="none" stroke="#FFFFFF" stroke-width="2" stroke-linecap="round" stroke-dasharray="1.956,5.669" x1="258.362" y1="142.551" x2="270.564" y2="116.797"/>
	
		<line display="inline" fill="none" stroke="#FFFFFF" stroke-width="2" stroke-linecap="round" stroke-dasharray="1.956,5.669" x1="276.071" y1="115.772" x2="306.739" y2="137.152"/>
	
		<line display="inline" fill="none" stroke="#FFFFFF" stroke-width="2" stroke-linecap="round" stroke-dasharray="1.956,5.669" x1="319.48" y1="141.472" x2="357.706" y2="142.983"/>
	<circle display="inline" fill="none" stroke="#FFFFFF" stroke-width="0.634" cx="357.073" cy="148.31" r="2.599"/>
	<circle display="inline" fill="none" stroke="#FFFFFF" stroke-width="0.634" cx="264.41" cy="146.863" r="2.599"/>
	<circle display="inline" fill="none" stroke="#FFFFFF" stroke-width="0.634" cx="319.48" cy="121.171" r="2.6"/>
	<path display="inline" fill="#FFFFFF" d="M273.939,117.607c0-0.231-0.188-0.419-0.419-0.419c-0.231,0-0.419,0.188-0.419,0.419
		s0.188,0.419,0.419,0.419C273.751,118.026,273.939,117.839,273.939,117.607"/>
	
		<text transform="matrix(1 0 0 1 243.667 212.3384)" display="inline" fill="#231F20" font-family="'GillSans'" font-size="37.7635">CLOUD</text>
	<text transform="matrix(1 0 0 1 247.6221 233.5801)" display="inline"><tspan x="0" y="0" fill="#231F20" font-family="'GillSans'" font-size="22.0287" letter-spacing="3">R</tspan><tspan x="17.028" y="0" fill="#231F20" font-family="'GillSans'" font-size="22.0287" letter-spacing="4">U</tspan><tspan x="37.008" y="0" fill="#231F20" font-family="'GillSans'" font-size="22.0287" letter-spacing="4">NN</tspan><tspan x="80.218" y="0" fill="#231F20" font-family="'GillSans'" font-size="22.0287" letter-spacing="4">ER</tspan><tspan x="113.306" y="0" fill="#231F20" font-family="'GillSans'" font-size="22.0287">S</tspan></text>
	<circle display="inline" fill="none" stroke="#FFFFFF" stroke-width="2" cx="273.489" cy="117.625" r="3.038"/>
	<circle display="inline" fill="none" stroke="#FFFFFF" stroke-width="2" cx="299.639" cy="161.316" r="3.038"/>
	
		<line display="inline" fill="none" stroke="#FFFFFF" stroke-width="2" stroke-linecap="round" stroke-dasharray="1.956,5.669" x1="301.556" y1="164.148" x2="357.707" y2="153.998"/>
</g>
<g id="Layer_2" display="none">
	<rect x="-192.314" y="5.667" display="inline" fill="none" stroke="#000000" stroke-miterlimit="10" width="1010" height="748"/>
	<rect x="-192.314" y="753.773" display="inline" fill="none" stroke="#000000" stroke-miterlimit="10" width="1010" height="748"/>
	
		<rect x="-192.314" y="1500.581" display="inline" fill="none" stroke="#000000" stroke-miterlimit="10" width="1010" height="748"/>
</g>
</svg>
