<?xml version="1.0" encoding="utf-8"?>
<!-- Generator: Adobe Illustrator 14.0.0, SVG Export Plug-In . SVG Version: 6.00 Build 43363)  -->
<!DOCTYPE svg PUBLIC "-//W3C//DTD SVG 1.1//EN" "http://www.w3.org/Graphics/SVG/1.1/DTD/svg11.dtd">
<svg version="1.1" id="Layer_1" xmlns="http://www.w3.org/2000/svg" xmlns:xlink="http://www.w3.org/1999/xlink" x="0px" y="0px"
	 width="114.105px" height="115.098px" viewBox="241.09 363.784 114.105 115.098"
	 enable-background="new 241.09 363.784 114.105 115.098" xml:space="preserve">
<polygon fill="#E3E3E1" points="315.606,370.483 274.75,410.034 320.297,372.581 "/>
<polygon fill="#B2ADA9" points="263.516,422.496 265.461,423.492 274.75,410.034 "/>
<polygon fill="#B8B5B0" points="241.676,387.261 244.887,404.413 251.809,392.124 "/>
<polygon fill="#DCDAD8" points="268.84,377.89 251.809,392.124 274.75,410.034 "/>
<polygon fill="#AAA59C" points="249.008,431.914 249.012,432.507 251.125,417.358 "/>
<polygon fill="#A79F97" points="265.461,423.492 249.012,432.507 281.059,442.671 "/>
<polygon fill="#908B85" points="251.125,417.358 249.012,432.507 263.516,422.496 "/>
<polygon fill="#C8CAC3" points="241.676,387.261 251.809,392.124 252.922,378.854 "/>
<polygon fill="#D0CFCA" points="241.09,386.21 241.676,387.261 252.922,378.854 "/>
<polygon fill="#ADA7A3" points="263.516,422.496 249.012,432.507 265.461,423.492 "/>
<polygon fill="#B8AFAC" points="274.75,410.034 265.461,423.492 281.059,442.671 "/>
<polygon fill="#CBC9C4" points="252.922,378.854 251.809,392.124 268.84,377.89 "/>
<polygon fill="#BEBBB6" points="251.809,392.124 244.887,404.413 274.75,410.034 "/>
<polygon fill="#97928B" points="251.125,417.358 263.516,422.496 274.75,410.034 "/>
<polygon fill="#99948D" points="244.887,404.413 251.125,417.358 274.75,410.034 "/>
<polygon fill="#DEDDDB" points="268.84,377.89 274.75,410.034 285.637,365.601 "/>
<polygon fill="#C9C9C7" points="285.637,365.601 274.75,410.034 293.855,364.94 "/>
<polygon fill="#8D7D6D" points="281.059,442.671 249.012,432.507 312.16,478.882 "/>
<polygon fill="#DADAD7" points="293.855,364.94 274.75,410.034 315.606,370.483 "/>
<polygon fill="#C9C3BF" points="300.852,363.784 293.855,364.94 315.606,370.483 "/>
<polygon fill="#B5ACA5" points="281.059,442.671 312.16,478.882 355.196,409.495 "/>
<polygon fill="#BEBCB8" points="320.297,372.581 274.75,410.034 355.196,409.495 "/>
<polygon fill="#C6C2BD" points="274.75,410.034 281.059,442.671 355.196,409.495 "/>
</svg>
