<?xml version="1.0" encoding="utf-8"?>
<!-- Generator: Adobe Illustrator 16.0.0, SVG Export Plug-In . SVG Version: 6.00 Build 0)  -->
<!DOCTYPE svg PUBLIC "-//W3C//DTD SVG 1.1//EN" "http://www.w3.org/Graphics/SVG/1.1/DTD/svg11.dtd">
<svg version="1.1" id="Layer_1" xmlns="http://www.w3.org/2000/svg" xmlns:xlink="http://www.w3.org/1999/xlink" x="0px" y="0px"
	 width="654.476px" height="503.392px" viewBox="0 0 654.476 503.392" enable-background="new 0 0 654.476 503.392"
	 xml:space="preserve">
<path fill="#E1DD90" d="M-170.245,382.781"/>
<polygon fill="#B7CD8B" points="544.323,314.757 652.572,377.49 761.355,314.427 653.482,252.024 "/>
<polygon fill="#B7CD8B" points="-108.343,314.757 -0.094,377.49 108.689,314.427 0.816,252.024 "/>
<polygon fill="#CFD68A" points="548.399,571.59 761.255,440.343 652.572,377.49 435.507,502.841 "/>
<polygon fill="#CFD68A" points="-98.686,126.594 114.17,-4.653 5.487,-67.506 -211.578,57.845 "/>
<polygon fill="#CFD68A" points="-104.686,571.59 108.17,440.343 -0.513,377.49 -217.578,502.841 "/>
<polygon fill="#CFD68A" points="544.87,62.873 763.051,-62.313 655.02,-129.271 435.592,0.424 "/>
<polygon fill="#C3CE41" points="218.313,251.52 0.173,377.421 218.313,503.392 436.454,377.49 "/>
<polygon fill="#CED691" points="109.157,188.55 0,251.385 109.507,314.466 218.313,251.52 "/>
<polygon fill="#DBD75B" points="762.947,63.133 654.476,126.429 763.088,188.988 871.625,126.311 "/>
<polygon fill="#DBD75B" points="0.07,63.133 -108.402,126.429 0.21,188.988 108.748,126.311 "/>
<polygon fill="#C3CE41" points="216.958,126.06 109.157,188.55 218.313,251.52 326.999,189.583 "/>
<polygon fill="#A8C883" points="435.996,126.594 326.999,189.583 435.487,251.684 544.87,189.465 "/>
<polygon fill="#C3CE41" points="653.729,0.457 544.87,62.873 653.342,126.169 763.051,63.587 "/>
<polygon fill="#D3D088" points="217.132,0.34 108.17,63.091 217.96,126.43 326.107,63.507 "/>
<polygon fill="#CFD8A9" points="435.592,0.424 326.107,63.507 435.996,126.594 544.87,62.873 "/>
<polygon fill="#C6D281" points="544.382,439.716 327.272,314.466 435.487,251.684 652.572,377.49 "/>
</svg>
