<?xml version="1.0" encoding="utf-8"?>
<!-- Generator: Adobe Illustrator 16.0.0, SVG Export Plug-In . SVG Version: 6.00 Build 0)  -->
<!DOCTYPE svg PUBLIC "-//W3C//DTD SVG 1.1//EN" "http://www.w3.org/Graphics/SVG/1.1/DTD/svg11.dtd">
<svg version="1.1" id="Layer_1" xmlns="http://www.w3.org/2000/svg" xmlns:xlink="http://www.w3.org/1999/xlink" x="0px" y="0px"
	 width="232px" height="232px" viewBox="0 0 232 232" enable-background="new 0 0 232 232" xml:space="preserve">
<path d="M186.476,69.811c-0.986,0-1.96,0.053-2.925,0.136c0.355-2.451,0.546-4.956,0.546-7.505c0-28.907-23.432-52.339-52.34-52.339
	c-23.068,0-42.639,14.93-49.606,35.648c-4.018-6.019-10.867-9.987-18.647-9.987c-12.375,0-22.408,10.031-22.408,22.407
	c0,2.551,0.448,4.994,1.234,7.279c-16.285,3.066-28.606,17.353-28.606,34.527c0,19.409,15.735,35.336,35.144,35.145
	c21.644-0.213,124.048-0.549,139.836-0.549c18.182,0,30.688-13.669,30.688-31.845C219.393,84.548,204.654,69.811,186.476,69.811"/>
<path d="M11.094,106.511c0.006,0.042,0.021,0.082,0.028,0.124l-0.026-0.075c0.173,1.084,0.398,2.157,0.675,3.218
	c-2.078,0.921-3.884,1.778-5.423,2.559c0.46,1.501,1.006,2.977,1.641,4.413c1.667-0.387,3.576-0.884,5.734-1.508
	c0.432,0.942,1.542,2.791,1.765,3.165c-1.749,1.453-3.253,2.768-4.522,3.938c0.851,1.32,1.775,2.591,2.779,3.8
	c1.498-0.827,3.2-1.823,5.109-3.011c0.026,0.033,1.443,1.716,2.213,2.498c-1.347,1.835-2.485,3.475-3.432,4.917
	c1.147,1.073,2.353,2.084,3.621,3.012c1.251-1.165,2.66-2.546,4.223-4.161c0.809,0.577,1.646,1.114,2.504,1.619
	c-0.818,2.028-1.498,3.838-2.042,5.418c1.376,0.76,2.792,1.441,4.248,2.033c0.929-1.438,1.954-3.124,3.075-5.072
	c0.037,0.016,0.076,0.024,0.115,0.039l-0.073-0.015c1.013,0.426,2.042,0.804,3.089,1.127c-0.314,2.252-0.542,4.237-0.693,5.955
	c1.519,0.403,3.059,0.722,4.616,0.939c0.55-1.62,1.137-3.502,1.749-5.667c1.026,0.132,2.726,0.193,3.617,0.177
	c0.31,2.25,0.632,4.22,0.955,5.918c1.57-0.027,3.139-0.14,4.694-0.355c0.091-1.706,0.141-3.677,0.142-5.921
	c0.02-0.003,0.038-0.005,0.058-0.007l-0.009,0.001c0.012-0.001,0.023-0.005,0.033-0.006c0.794-0.067,2.487-0.356,3.208-0.553
	c0.847,2.11,1.637,3.944,2.364,5.508c1.518-0.406,3.011-0.894,4.47-1.481c-0.329-1.677-0.758-3.604-1.302-5.786
	c0.853-0.316,2.545-1.142,3.21-1.538c1.277,1.801,2.446,3.362,3.49,4.687c1.383-0.748,2.721-1.574,4.002-2.481
	c-0.709-1.557-1.572-3.325-2.606-5.316c0.769-0.5,1.966-1.45,2.654-2.024c1.726,1.48,3.274,2.742,4.642,3.793
	c1.156-1.062,2.256-2.188,3.278-3.379c-1.066-1.338-2.338-2.848-3.83-4.529c0.667-0.793,1.761-2.447,2.099-2.952
	c1.011,0.372,3.897,1.747,5.5,2.389c0.826-1.335,1.576-2.719,2.235-4.144c-1.389-0.995-3.021-2.104-4.915-3.315
	c0.381-0.86,0.721-1.736,1.033-2.625c2.119,0.38,4.003,0.67,5.644,0.877c0.461-1.501,0.837-3.027,1.118-4.574
	c-1.596-0.614-3.457-1.273-5.593-1.974c0.164-0.979,0.278-1.968,0.356-2.958c2.181-0.153,4.106-0.335,5.766-0.541
	c0.079-1.57,0.068-3.14-0.038-4.711c-1.652-0.197-3.559-0.375-5.722-0.524c-0.076-1.142-0.2-2.271-0.378-3.379
	c2.1-0.684,3.938-1.336,5.51-1.941c-0.305-1.541-0.693-3.067-1.181-4.562c-1.657,0.214-3.558,0.503-5.708,0.889
	c-0.391-1.183-0.843-2.334-1.351-3.455c1.788-1.206,3.345-2.308,4.67-3.301c-0.713-1.4-1.5-2.757-2.377-4.064
	c-1.491,0.633-3.186,1.406-5.075,2.321c-0.639-0.966-1.324-1.897-2.048-2.796c1.429-1.591,2.665-3.03,3.701-4.304
	c-1.03-1.184-2.126-2.313-3.293-3.366c-1.251,0.951-2.678,2.087-4.233,3.386c-0.768-0.724-1.558-1.413-2.384-2.06
	c1.094-1.993,2.008-3.766,2.759-5.322c-1.276-0.916-2.604-1.756-3.982-2.516c-1.089,1.32-2.305,2.873-3.645,4.676
	c-0.806-0.396-2.251-0.933-3.138-1.148c0.573-2.186,1.029-4.12,1.375-5.805c-1.461-0.574-2.954-1.07-4.473-1.471
	c-0.736,1.545-1.54,3.348-2.399,5.426c-1.003-0.251-3.516-0.59-3.571-0.599c-0.043-2.272-0.133-4.266-0.255-5.988
	c-1.564-0.161-3.135-0.23-4.707-0.198c-0.286,1.684-0.832,5.868-0.832,5.868s-3.135,0.252-3.164,0.254
	c-0.516-2.208-1.014-4.134-1.495-5.789c-1.561,0.172-3.112,0.431-4.643,0.787c0.071,1.708,0.202,3.673,0.408,5.903
	c-0.606,0.165-1.204,0.347-1.796,0.544c-0.306,0.095-0.616,0.171-0.919,0.274c-1.109-1.968-2.125-3.675-3.042-5.121
	c-1.454,0.602-2.868,1.285-4.24,2.053c0.545,1.624,1.223,3.475,2.047,5.564c-0.032,0.021-0.064,0.044-0.099,0.063l0.053-0.042
	c-0.964,0.525-1.904,1.094-2.807,1.712c-1.565-1.654-2.976-3.069-4.223-4.259c-1.263,0.936-2.473,1.941-3.614,3.023
	c0.925,1.439,2.03,3.074,3.339,4.903c-0.743,0.717-2.111,2.382-2.393,2.717c-1.953-1.165-3.695-2.141-5.221-2.948
	c-0.964,1.249-1.85,2.539-2.652,3.89c1.277,1.136,2.786,2.407,4.539,3.81c-0.021,0.038-0.028,0.037-0.028,0.037
	c-0.574,0.937-1.104,1.897-1.583,2.884c-2.18-0.654-4.106-1.184-5.782-1.589c-0.627,1.44-1.179,2.911-1.629,4.417
	c1.463,0.759,3.171,1.594,5.123,2.492c-0.299,0.982-0.563,1.972-0.769,2.972c-2.271-0.094-4.27-0.133-5.995-0.111
	c-0.252,1.552-0.422,3.113-0.485,4.684c1.664,0.386,3.596,0.789,5.807,1.193c-0.029,0.907-0.002,1.814,0.046,2.723
	c-2.184,0.381-4.1,0.761-5.747,1.138c0.082,1.57,0.25,3.132,0.521,4.68C6.876,106.608,8.848,106.59,11.094,106.511"/>
<path stroke="#FFFFFF" stroke-width="0.991" d="M11.094,106.511c0.006,0.042,0.021,0.082,0.028,0.124l-0.026-0.075
	c0.173,1.084,0.398,2.157,0.675,3.218c-2.078,0.921-3.884,1.778-5.423,2.559c0.46,1.501,1.006,2.977,1.641,4.413
	c1.667-0.387,3.576-0.884,5.734-1.508c0.432,0.942,1.542,2.791,1.765,3.165c-1.749,1.453-3.253,2.768-4.522,3.938
	c0.851,1.32,1.775,2.591,2.779,3.8c1.498-0.827,3.2-1.823,5.109-3.011c0.026,0.033,1.443,1.716,2.213,2.498
	c-1.347,1.835-2.485,3.475-3.432,4.917c1.147,1.073,2.353,2.084,3.621,3.012c1.251-1.165,2.66-2.546,4.223-4.161
	c0.809,0.577,1.646,1.114,2.504,1.619c-0.818,2.028-1.498,3.838-2.042,5.418c1.376,0.76,2.792,1.441,4.248,2.033
	c0.929-1.438,1.954-3.124,3.075-5.072c0.037,0.016,0.076,0.024,0.115,0.039l-0.073-0.015c1.013,0.426,2.042,0.804,3.089,1.127
	c-0.314,2.252-0.542,4.237-0.693,5.955c1.519,0.403,3.059,0.722,4.616,0.939c0.55-1.62,1.137-3.502,1.749-5.667
	c1.026,0.132,2.726,0.193,3.617,0.177c0.31,2.25,0.632,4.22,0.955,5.918c1.57-0.027,3.139-0.14,4.694-0.355
	c0.091-1.706,0.141-3.677,0.142-5.921c0.02-0.003,0.038-0.005,0.058-0.007l-0.009,0.001c0.012-0.001,0.023-0.005,0.033-0.006
	c0.794-0.067,2.487-0.356,3.208-0.553c0.847,2.11,1.637,3.944,2.364,5.508c1.518-0.406,3.011-0.894,4.47-1.481
	c-0.329-1.677-0.758-3.604-1.302-5.786c0.853-0.316,2.545-1.142,3.21-1.538c1.277,1.801,2.446,3.362,3.49,4.687
	c1.383-0.748,2.721-1.574,4.002-2.481c-0.709-1.557-1.572-3.325-2.606-5.316c0.769-0.5,1.966-1.45,2.654-2.024
	c1.726,1.48,3.274,2.742,4.642,3.793c1.156-1.062,2.256-2.188,3.278-3.379c-1.066-1.338-2.338-2.848-3.83-4.529
	c0.667-0.793,1.761-2.447,2.099-2.952c1.011,0.372,3.897,1.747,5.5,2.389c0.826-1.335,1.576-2.719,2.235-4.144
	c-1.389-0.995-3.021-2.104-4.915-3.315c0.381-0.86,0.721-1.736,1.033-2.625c2.119,0.38,4.003,0.67,5.644,0.877
	c0.461-1.501,0.837-3.027,1.118-4.574c-1.596-0.614-3.457-1.273-5.593-1.974c0.164-0.979,0.278-1.968,0.356-2.958
	c2.181-0.153,4.106-0.335,5.766-0.541c0.079-1.57,0.068-3.14-0.038-4.711c-1.652-0.197-3.559-0.375-5.722-0.524
	c-0.076-1.142-0.2-2.271-0.378-3.379c2.1-0.684,3.938-1.336,5.51-1.941c-0.305-1.541-0.693-3.067-1.181-4.562
	c-1.657,0.214-3.558,0.503-5.708,0.889c-0.391-1.183-0.843-2.334-1.351-3.455c1.788-1.206,3.345-2.308,4.67-3.301
	c-0.713-1.4-1.5-2.757-2.377-4.064c-1.491,0.633-3.186,1.406-5.075,2.321c-0.639-0.966-1.324-1.897-2.048-2.796
	c1.429-1.591,2.665-3.03,3.701-4.304c-1.03-1.184-2.126-2.313-3.293-3.366c-1.251,0.951-2.678,2.087-4.233,3.386
	c-0.768-0.724-1.558-1.413-2.384-2.06c1.094-1.993,2.008-3.766,2.759-5.322c-1.276-0.916-2.604-1.756-3.982-2.516
	c-1.089,1.32-2.305,2.873-3.645,4.676c-0.806-0.396-2.251-0.933-3.138-1.148c0.573-2.186,1.029-4.12,1.375-5.805
	c-1.461-0.574-2.954-1.07-4.473-1.471c-0.736,1.545-1.54,3.348-2.399,5.426c-1.003-0.251-3.516-0.59-3.571-0.599
	c-0.043-2.272-0.133-4.266-0.255-5.988c-1.564-0.161-3.135-0.23-4.707-0.198c-0.286,1.684-0.832,5.868-0.832,5.868
	s-3.135,0.252-3.164,0.254c-0.516-2.208-1.014-4.134-1.495-5.789c-1.561,0.172-3.112,0.431-4.643,0.787
	c0.071,1.708,0.202,3.673,0.408,5.903c-0.606,0.165-1.204,0.347-1.796,0.544c-0.306,0.095-0.616,0.171-0.919,0.274
	c-1.109-1.968-2.125-3.675-3.042-5.121c-1.454,0.602-2.868,1.285-4.24,2.053c0.545,1.624,1.223,3.475,2.047,5.564
	c-0.032,0.021-0.064,0.044-0.099,0.063l0.053-0.042c-0.964,0.525-1.904,1.094-2.807,1.712c-1.565-1.654-2.976-3.069-4.223-4.259
	c-1.263,0.936-2.473,1.941-3.614,3.023c0.925,1.439,2.03,3.074,3.339,4.903c-0.743,0.717-2.111,2.382-2.393,2.717
	c-1.953-1.165-3.695-2.141-5.221-2.948c-0.964,1.249-1.85,2.539-2.652,3.89c1.277,1.136,2.786,2.407,4.539,3.81
	c-0.021,0.038-0.028,0.037-0.028,0.037c-0.574,0.937-1.104,1.897-1.583,2.884c-2.18-0.654-4.106-1.184-5.782-1.589
	c-0.627,1.44-1.179,2.911-1.629,4.417c1.463,0.759,3.171,1.594,5.123,2.492c-0.299,0.982-0.563,1.972-0.769,2.972
	c-2.271-0.094-4.27-0.133-5.995-0.111c-0.252,1.552-0.422,3.113-0.485,4.684c1.664,0.386,3.596,0.789,5.807,1.193
	c-0.029,0.907-0.002,1.814,0.046,2.723c-2.184,0.381-4.1,0.761-5.747,1.138c0.082,1.57,0.25,3.132,0.521,4.68
	C6.876,106.608,8.848,106.59,11.094,106.511z"/>
<path d="M156.183,103.068c-2.007-0.292-3.773-0.59-5.298-0.893c0.013-1.451,0.115-2.903,0.294-4.345
	c1.553-0.07,3.353-0.104,5.39-0.093c0.191-1.254,0.462-2.481,0.791-3.686c-1.813-0.802-3.4-1.55-4.762-2.233
	c0.397-1.399,0.882-2.762,1.444-4.104c1.494,0.339,3.206,0.776,5.13,1.322c0.495-1.085,1.044-2.143,1.649-3.164
	c-1.596-1.286-2.969-2.45-4.134-3.489c0.749-1.244,1.575-2.44,2.464-3.589c1.389,0.738,2.98,1.636,4.756,2.701
	c0.799-0.958,1.652-1.861,2.549-2.724c-1.18-1.646-2.188-3.126-3.025-4.433c1.05-1,2.166-1.93,3.328-2.801
	c1.138,1.077,2.419,2.361,3.839,3.846c1.057-0.73,2.16-1.404,3.299-2.011c-0.667-1.933-1.218-3.651-1.652-5.152
	c1.295-0.659,2.629-1.232,3.994-1.732c0.779,1.355,1.639,2.94,2.57,4.764c1.182-0.401,2.39-0.741,3.625-1.009
	c-0.118-1.982-0.186-3.735-0.2-5.258c1.421-0.289,2.858-0.489,4.307-0.601c0.379,1.476,0.778,3.191,1.176,5.142
	c0.613-0.033,1.224-0.054,1.843-0.054c0.583,0,1.163,0.016,1.739,0.046c0.406-1.986,0.805-3.73,1.194-5.231
	c1.445,0.089,2.886,0.277,4.315,0.537c-0.016,1.559-0.082,3.361-0.207,5.4c1.235,0.266,2.447,0.602,3.625,1.001
	c0.908-1.773,1.744-3.32,2.508-4.645c1.372,0.477,2.711,1.036,4.015,1.672c-0.423,1.478-0.964,3.176-1.62,5.073
	c1.411,0.745,2.758,1.587,4.039,2.519c1.438-1.471,2.735-2.731,3.887-3.794c1.17,0.861,2.276,1.794,3.336,2.794
	c-0.869,1.317-1.918,2.813-3.151,4.484c0.784,0.748,1.539,1.623,2.25,2.539c1.785-1.053,3.375-1.939,4.771-2.673
	c0.902,1.138,1.731,2.332,2.494,3.57c-1.195,1.053-2.611,2.238-4.255,3.547l1.79,3.328c2.001-0.539,3.775-0.972,5.318-1.299
	c0.57,1.333,1.046,2.703,1.451,4.097c-1.435,0.701-3.114,1.464-5.049,2.286l0.758,3.752c2.073,0.051,3.895,0.144,5.468,0.266
	c0.163,1.444,0.23,2.894,0.219,4.345c-1.573,0.262-3.401,0.517-5.488,0.749c0,0-0.151,2.238-0.354,3.689
	c1.961,0.599,3.672,1.17,5.143,1.706c-0.231,1.432-0.549,2.847-0.952,4.244c-1.546-0.166-3.333-0.404-5.35-0.726
	c-0.353,1.138-0.768,2.247-1.235,3.329l0.01-0.014c1.759,1.099,3.279,2.105,4.574,3.015c-0.594,1.324-1.276,2.606-2.021,3.853
	c-1.478-0.573-3.17-1.282-5.071-2.136c-0.669,1.048-1.396,2.061-2.175,3.027c1.361,1.497,2.536,2.84,3.518,4.039
	c-0.927,1.116-1.922,2.172-2.977,3.171c-1.244-0.925-2.654-2.038-4.22-3.333c-0.952,0.855-1.956,1.651-3.001,2.394
	c0.909,1.825,1.674,3.451,2.296,4.881c-1.198,0.818-2.448,1.56-3.735,2.237c-0.946-1.238-1.998-2.695-3.153-4.377
	c-1.125,0.551-2.284,1.042-3.472,1.468c0.372,1.942,0.663,3.667,0.875,5.172c-1.372,0.472-2.772,0.85-4.194,1.154
	c-0.568-1.415-1.184-3.064-1.832-4.947c-1.164,0.215-2.347,0.366-3.55,0.458c-0.145,2.032-0.313,3.814-0.504,5.357
	c-1.448,0.097-2.903,0.1-4.353,0.023c-0.186-1.552-0.353-3.354-0.492-5.403c-1.262-0.103-2.502-0.274-3.72-0.516
	c-0.669,1.879-1.302,3.529-1.891,4.946c-1.419-0.292-2.82-0.679-4.198-1.138c0.231-1.529,0.548-3.288,0.953-5.267
	c-1.224-0.457-2.411-0.987-3.562-1.581c-1.189,1.627-2.273,3.038-3.247,4.234c-1.277-0.688-2.51-1.456-3.701-2.29
	c0.657-1.388,1.46-2.983,2.409-4.752c-1.024-0.754-1.999-1.563-2.929-2.427c-1.525,1.201-2.911,2.245-4.133,3.111
	c-1.048-1.002-2.029-2.07-2.95-3.194c0.975-1.134,2.148-2.423,3.489-3.831c-0.744-0.95-1.441-1.94-2.079-2.969
	c-1.823,0.783-3.454,1.438-4.885,1.969c-0.75-1.241-1.422-2.53-2.021-3.854c1.268-0.86,2.756-1.815,4.462-2.853
	c-0.483-1.165-0.901-2.365-1.254-3.592c-1.931,0.258-3.647,0.45-5.145,0.577c-0.392-1.398-0.696-2.817-0.917-4.253
	c1.435-0.486,3.106-1.002,5.004-1.54C156.276,105.639,156.19,104.363,156.183,103.068"/>
<path stroke="#FFFFFF" stroke-width="1.07" d="M156.183,103.068c-2.007-0.292-3.773-0.59-5.298-0.893
	c0.013-1.451,0.115-2.903,0.294-4.345c1.553-0.07,3.353-0.104,5.39-0.093c0.191-1.254,0.462-2.481,0.791-3.686
	c-1.813-0.802-3.4-1.55-4.762-2.233c0.397-1.399,0.882-2.762,1.444-4.104c1.494,0.339,3.206,0.776,5.13,1.322
	c0.495-1.085,1.044-2.143,1.649-3.164c-1.596-1.286-2.969-2.45-4.134-3.489c0.749-1.244,1.575-2.44,2.464-3.589
	c1.389,0.738,2.98,1.636,4.756,2.701c0.799-0.958,1.652-1.861,2.549-2.724c-1.18-1.646-2.188-3.126-3.025-4.433
	c1.05-1,2.166-1.93,3.328-2.801c1.138,1.077,2.419,2.361,3.839,3.846c1.057-0.73,2.16-1.404,3.299-2.011
	c-0.667-1.933-1.218-3.651-1.652-5.152c1.295-0.659,2.629-1.232,3.994-1.732c0.779,1.355,1.639,2.94,2.57,4.764
	c1.182-0.401,2.39-0.741,3.625-1.009c-0.118-1.982-0.186-3.735-0.2-5.258c1.421-0.289,2.858-0.489,4.307-0.601
	c0.379,1.476,0.778,3.191,1.176,5.142c0.613-0.033,1.224-0.054,1.843-0.054c0.583,0,1.163,0.016,1.739,0.046
	c0.406-1.986,0.805-3.73,1.194-5.231c1.445,0.089,2.886,0.277,4.315,0.537c-0.016,1.559-0.082,3.361-0.207,5.4
	c1.235,0.266,2.447,0.602,3.625,1.001c0.908-1.773,1.744-3.32,2.508-4.645c1.372,0.477,2.711,1.036,4.015,1.672
	c-0.423,1.478-0.964,3.176-1.62,5.073c1.411,0.745,2.758,1.587,4.039,2.519c1.438-1.471,2.735-2.731,3.887-3.794
	c1.17,0.861,2.276,1.794,3.336,2.794c-0.869,1.317-1.918,2.813-3.151,4.484c0.784,0.748,1.539,1.623,2.25,2.539
	c1.785-1.053,3.375-1.939,4.771-2.673c0.902,1.138,1.731,2.332,2.494,3.57c-1.195,1.053-2.611,2.238-4.255,3.547l1.79,3.328
	c2.001-0.539,3.775-0.972,5.318-1.299c0.57,1.333,1.046,2.703,1.451,4.097c-1.435,0.701-3.114,1.464-5.049,2.286l0.758,3.752
	c2.073,0.051,3.895,0.144,5.468,0.266c0.163,1.444,0.23,2.894,0.219,4.345c-1.573,0.262-3.401,0.517-5.488,0.749
	c0,0-0.151,2.238-0.354,3.689c1.961,0.599,3.672,1.17,5.143,1.706c-0.231,1.432-0.549,2.847-0.952,4.244
	c-1.546-0.166-3.333-0.404-5.35-0.726c-0.353,1.138-0.768,2.247-1.235,3.329l0.01-0.014c1.759,1.099,3.279,2.105,4.574,3.015
	c-0.594,1.324-1.276,2.606-2.021,3.853c-1.478-0.573-3.17-1.282-5.071-2.136c-0.669,1.048-1.396,2.061-2.175,3.027
	c1.361,1.497,2.536,2.84,3.518,4.039c-0.927,1.116-1.922,2.172-2.977,3.171c-1.244-0.925-2.654-2.038-4.22-3.333
	c-0.952,0.855-1.956,1.651-3.001,2.394c0.909,1.825,1.674,3.451,2.296,4.881c-1.198,0.818-2.448,1.56-3.735,2.237
	c-0.946-1.238-1.998-2.695-3.153-4.377c-1.125,0.551-2.284,1.042-3.472,1.468c0.372,1.942,0.663,3.667,0.875,5.172
	c-1.372,0.472-2.772,0.85-4.194,1.154c-0.568-1.415-1.184-3.064-1.832-4.947c-1.164,0.215-2.347,0.366-3.55,0.458
	c-0.145,2.032-0.313,3.814-0.504,5.357c-1.448,0.097-2.903,0.1-4.353,0.023c-0.186-1.552-0.353-3.354-0.492-5.403
	c-1.262-0.103-2.502-0.274-3.72-0.516c-0.669,1.879-1.302,3.529-1.891,4.946c-1.419-0.292-2.82-0.679-4.198-1.138
	c0.231-1.529,0.548-3.288,0.953-5.267c-1.224-0.457-2.411-0.987-3.562-1.581c-1.189,1.627-2.273,3.038-3.247,4.234
	c-1.277-0.688-2.51-1.456-3.701-2.29c0.657-1.388,1.46-2.983,2.409-4.752c-1.024-0.754-1.999-1.563-2.929-2.427
	c-1.525,1.201-2.911,2.245-4.133,3.111c-1.048-1.002-2.029-2.07-2.95-3.194c0.975-1.134,2.148-2.423,3.489-3.831
	c-0.744-0.95-1.441-1.94-2.079-2.969c-1.823,0.783-3.454,1.438-4.885,1.969c-0.75-1.241-1.422-2.53-2.021-3.854
	c1.268-0.86,2.756-1.815,4.462-2.853c-0.483-1.165-0.901-2.365-1.254-3.592c-1.931,0.258-3.647,0.45-5.145,0.577
	c-0.392-1.398-0.696-2.817-0.917-4.253c1.435-0.486,3.106-1.002,5.004-1.54C156.276,105.639,156.19,104.363,156.183,103.068z"/>
<path d="M35.405,63.659c-0.465-1.436-0.828-2.897-1.112-4.385c1.487-0.563,3.221-1.169,5.203-1.805
	c-0.086-0.994-0.086-1.979-0.039-2.954c-1.979-0.462-3.725-0.908-5.228-1.336c0.135-1.502,0.363-2.993,0.675-4.474
	c1.589,0.061,3.42,0.174,5.487,0.35c0.314-1.013,0.724-1.992,1.178-2.944c-1.646-1.135-3.097-2.18-4.322-3.113
	c0.667-1.352,1.427-2.654,2.26-3.919c1.468,0.636,3.156,1.425,5.037,2.36c0.624-0.746,1.307-1.442,2.025-2.104
	c-1.113-1.736-2.068-3.296-2.858-4.666c1.145-0.984,2.354-1.893,3.607-2.738c1.117,1.174,2.38,2.563,3.769,4.173
	c1.012-0.539,2.082-0.989,3.192-1.372c-0.321-2.068-0.556-3.895-0.725-5.488c1.445-0.439,2.914-0.777,4.405-1.039
	c0.551,1.534,1.14,3.322,1.759,5.372c0.971-0.079,1.934-0.079,2.885-0.033c0.507-2.01,0.99-3.774,1.45-5.296
	c1.5,0.161,2.989,0.414,4.461,0.752c-0.085,1.589-0.229,3.424-0.445,5.492c1.017,0.319,1.993,0.731,2.945,1.188
	c1.152-1.614,2.218-3.039,3.167-4.244c1.342,0.694,2.629,1.474,3.88,2.327c-0.651,1.432-1.45,3.072-2.392,4.894
	c0.765,0.639,1.475,1.342,2.149,2.081c1.697-1.045,3.231-1.95,4.58-2.695c0.965,1.161,1.854,2.383,2.674,3.653
	c-1.148,1.057-2.506,2.246-4.064,3.553c0.573,1.082,1.053,2.224,1.446,3.417c1.986-0.284,3.754-0.488,5.296-0.629
	c0.422,1.448,0.742,2.919,0.985,4.414c-1.497,0.518-3.237,1.071-5.224,1.644c0.069,1.006,0.066,2.001-0.002,2.984
	c1.933,0.511,3.639,1.002,5.11,1.469C88.44,60.043,88.169,61.53,87.814,63c-1.553-0.107-3.343-0.268-5.354-0.497
	c-0.343,1.03-0.763,2.028-1.25,2.994c1.555,1.142,2.935,2.195,4.097,3.137c-0.709,1.333-1.505,2.612-2.373,3.852
	c-1.403-0.659-3.013-1.469-4.791-2.417c-0.664,0.765-1.376,1.482-2.144,2.152c1.012,1.689,1.88,3.209,2.601,4.55
	c-1.171,0.952-2.404,1.82-3.684,2.63c-1.043-1.162-2.215-2.533-3.499-4.103c-1.068,0.537-2.178,1.006-3.346,1.368
	c0.243,1.965,0.417,3.714,0.531,5.235c-1.457,0.398-2.933,0.695-4.432,0.912c-0.489-1.49-1.005-3.223-1.54-5.195
	c-1.016,0.055-2.023,0.046-3.016-0.038c-0.539,1.894-1.051,3.567-1.536,5.013c-1.495-0.205-2.976-0.501-4.438-0.882
	c0.132-1.539,0.32-3.307,0.583-5.293c-1.035-0.362-2.045-0.787-3.011-1.295c-1.15,1.511-2.215,2.854-3.163,3.987
	c-1.321-0.733-2.587-1.55-3.813-2.439c0.679-1.382,1.51-2.964,2.475-4.708c-0.758-0.684-1.483-1.405-2.143-2.189
	c-1.685,0.968-3.2,1.801-4.54,2.492c-0.931-1.188-1.784-2.437-2.569-3.728c1.174-1.017,2.557-2.162,4.139-3.411
	c-0.346-0.728-0.657-1.476-0.926-2.249C38.697,63.217,36.94,63.471,35.405,63.659"/>
<path stroke="#FFFFFF" stroke-width="1.588" d="M35.405,63.659c-0.465-1.436-0.828-2.897-1.112-4.385
	c1.487-0.563,3.221-1.169,5.203-1.805c-0.086-0.994-0.086-1.979-0.039-2.954c-1.979-0.462-3.725-0.908-5.228-1.336
	c0.135-1.502,0.363-2.993,0.675-4.474c1.589,0.061,3.42,0.174,5.487,0.35c0.314-1.013,0.724-1.992,1.178-2.944
	c-1.646-1.135-3.097-2.18-4.322-3.113c0.667-1.352,1.427-2.654,2.26-3.919c1.468,0.636,3.156,1.425,5.037,2.36
	c0.624-0.746,1.307-1.442,2.025-2.104c-1.113-1.736-2.068-3.296-2.858-4.666c1.145-0.984,2.354-1.893,3.607-2.738
	c1.117,1.174,2.38,2.563,3.769,4.173c1.012-0.539,2.082-0.989,3.192-1.372c-0.321-2.068-0.556-3.895-0.725-5.488
	c1.445-0.439,2.914-0.777,4.405-1.039c0.551,1.534,1.14,3.322,1.759,5.372c0.971-0.079,1.934-0.079,2.885-0.033
	c0.507-2.01,0.99-3.774,1.45-5.296c1.5,0.161,2.989,0.414,4.461,0.752c-0.085,1.589-0.229,3.424-0.445,5.492
	c1.017,0.319,1.993,0.731,2.945,1.188c1.152-1.614,2.218-3.039,3.167-4.244c1.342,0.694,2.629,1.474,3.88,2.327
	c-0.651,1.432-1.45,3.072-2.392,4.894c0.765,0.639,1.475,1.342,2.149,2.081c1.697-1.045,3.231-1.95,4.58-2.695
	c0.965,1.161,1.854,2.383,2.674,3.653c-1.148,1.057-2.506,2.246-4.064,3.553c0.573,1.082,1.053,2.224,1.446,3.417
	c1.986-0.284,3.754-0.488,5.296-0.629c0.422,1.448,0.742,2.919,0.985,4.414c-1.497,0.518-3.237,1.071-5.224,1.644
	c0.069,1.006,0.066,2.001-0.002,2.984c1.933,0.511,3.639,1.002,5.11,1.469C88.44,60.043,88.169,61.53,87.814,63
	c-1.553-0.107-3.343-0.268-5.354-0.497c-0.343,1.03-0.763,2.028-1.25,2.994c1.555,1.142,2.935,2.195,4.097,3.137
	c-0.709,1.333-1.505,2.612-2.373,3.852c-1.403-0.659-3.013-1.469-4.791-2.417c-0.664,0.765-1.376,1.482-2.144,2.152
	c1.012,1.689,1.88,3.209,2.601,4.55c-1.171,0.952-2.404,1.82-3.684,2.63c-1.043-1.162-2.215-2.533-3.499-4.103
	c-1.068,0.537-2.178,1.006-3.346,1.368c0.243,1.965,0.417,3.714,0.531,5.235c-1.457,0.398-2.933,0.695-4.432,0.912
	c-0.489-1.49-1.005-3.223-1.54-5.195c-1.016,0.055-2.023,0.046-3.016-0.038c-0.539,1.894-1.051,3.567-1.536,5.013
	c-1.495-0.205-2.976-0.501-4.438-0.882c0.132-1.539,0.32-3.307,0.583-5.293c-1.035-0.362-2.045-0.787-3.011-1.295
	c-1.15,1.511-2.215,2.854-3.163,3.987c-1.321-0.733-2.587-1.55-3.813-2.439c0.679-1.382,1.51-2.964,2.475-4.708
	c-0.758-0.684-1.483-1.405-2.143-2.189c-1.685,0.968-3.2,1.801-4.54,2.492c-0.931-1.188-1.784-2.437-2.569-3.728
	c1.174-1.017,2.557-2.162,4.139-3.411c-0.346-0.728-0.657-1.476-0.926-2.249C38.697,63.217,36.94,63.471,35.405,63.659z"/>
<path d="M78.736,60.874c0-0.125,0.008-0.249,0.01-0.371c-1.916-0.239-3.602-0.485-5.056-0.744c-0.02-1.382,0.047-2.764,0.192-4.143
	c1.478-0.099,3.188-0.17,5.131-0.202c0.127-1.289,0.318-2.558,0.537-3.818c-1.861-0.554-3.488-1.082-4.886-1.577
	c0.205-1.366,0.502-2.72,0.873-4.054c1.482,0.148,3.194,0.361,5.127,0.651c0.333-1.212,0.706-2.409,1.121-3.588
	c-1.71-0.862-3.208-1.663-4.485-2.396c0.452-1.32,0.988-2.61,1.594-3.865c1.406,0.4,3.023,0.908,4.823,1.522
	c0.57-1.233,1.188-2.439,1.851-3.625c-1.521-1.135-2.844-2.171-3.962-3.104c0.664-1.21,1.409-2.379,2.218-3.504
	c1.298,0.631,2.785,1.4,4.432,2.302c0.744-1.075,1.527-2.121,2.345-3.138c-1.277-1.338-2.393-2.556-3.324-3.639
	c0.857-1.082,1.784-2.114,2.768-3.088c1.154,0.819,2.47,1.806,3.912,2.938c0.997-1.023,2.034-2.004,3.107-2.945
	c-1.047-1.522-1.956-2.903-2.702-4.119c1.028-0.945,2.116-1.82,3.249-2.631c1.025,1.005,2.182,2.206,3.445,3.574
	c1.105-0.799,2.234-1.563,3.399-2.275c-0.779-1.706-1.44-3.233-1.972-4.575c1.166-0.745,2.378-1.412,3.626-2.012
	c0.84,1.179,1.777,2.563,2.797,4.148c1.165-0.568,2.357-1.088,3.565-1.573c-0.487-1.818-0.884-3.437-1.189-4.853
	c1.272-0.542,2.578-1.001,3.908-1.388c0.638,1.307,1.336,2.833,2.084,4.576c1.185-0.349,2.385-0.657,3.603-0.926
	c-0.176-1.985-0.293-3.731-0.347-5.246c1.36-0.314,2.736-0.541,4.124-0.688c0.417,1.453,0.853,3.144,1.3,5.078
	c1.318-0.159,2.647-0.278,3.993-0.341c0.168-1.972,0.354-3.696,0.56-5.188c1.381-0.074,2.767-0.061,4.147,0.033
	c0.157,1.485,0.296,3.206,0.401,5.159c1.293,0.062,2.571,0.182,3.839,0.333c0.48-1.872,0.941-3.513,1.383-4.922
	c1.375,0.153,2.738,0.395,4.086,0.716c-0.09,1.463-0.234,3.147-0.447,5.05c1.383,0.3,2.749,0.653,4.09,1.058
	c0.771-1.762,1.483-3.304,2.141-4.624c1.346,0.376,2.663,0.834,3.952,1.37c-0.324,1.445-0.741,3.107-1.259,4.977
	c1.247,0.513,2.469,1.075,3.667,1.676c1.078-1.633,2.059-3.046,2.946-4.244c1.247,0.594,2.455,1.268,3.625,2.011
	c-0.574,1.383-1.279,2.964-2.124,4.739c1.087,0.679,2.148,1.398,3.179,2.153c1.333-1.431,2.538-2.665,3.609-3.704
	c1.134,0.793,2.213,1.66,3.245,2.585c-0.795,1.268-1.755,2.716-2.882,4.33c0.934,0.83,1.839,1.692,2.715,2.588
	c1.54-1.154,2.93-2.145,4.159-2.965c0.981,0.991,1.896,2.043,2.752,3.146c-0.985,1.083-2.16,2.305-3.509,3.643
	c0.852,1.056,1.666,2.144,2.438,3.262c1.687-0.851,3.201-1.576,4.528-2.161c0.791,1.135,1.504,2.322,2.154,3.545
	c-1.135,0.878-2.471,1.859-4.001,2.926c0.638,1.141,1.233,2.309,1.79,3.5c1.748-0.545,3.312-0.994,4.682-1.344
	c0.591,1.252,1.1,2.541,1.537,3.853c-1.232,0.66-2.67,1.389-4.302,2.169c0.479,1.345,0.905,2.715,1.276,4.108
	c1.797-0.257,3.401-0.449,4.8-0.577c0.391,1.345,0.69,2.708,0.913,4.083c-1.335,0.465-2.888,0.957-4.642,1.469
	c0.225,1.347,0.398,2.708,0.521,4.085c1.84,0.06,3.472,0.146,4.887,0.267c0.15,1.373,0.208,2.756,0.193,4.142
	c-1.404,0.228-3.03,0.444-4.862,0.647c-0.006,1.326-0.071,2.629-0.169,3.927c1.8,0.365,3.395,0.722,4.771,1.074
	c-0.081,1.377-0.251,2.753-0.497,4.117c-1.421-0.013-3.058-0.062-4.9-0.164c-0.217,1.26-0.474,2.506-0.778,3.735
	c1.836,0.662,3.44,1.28,4.816,1.858c-0.287,1.368-0.665,2.714-1.113,4.034c-1.499-0.232-3.228-0.551-5.181-0.963
	c-0.446,1.265-0.938,2.504-1.474,3.723c1.618,0.927,3.033,1.779,4.24,2.558c-0.514,1.283-1.112,2.535-1.777,3.75
	c-1.375-0.472-2.96-1.06-4.723-1.761c-0.586,1.051-1.21,2.077-1.864,3.083c1.416,1.163,2.657,2.227,3.705,3.178
	c-0.72,1.179-1.514,2.313-2.373,3.405c-1.256-0.683-2.699-1.509-4.29-2.472c-0.75,0.948-1.524,1.88-2.338,2.774
	c1.244,1.452,2.319,2.759,3.215,3.923c-0.924,1.046-1.91,2.032-2.954,2.958c-1.147-0.908-2.448-1.998-3.879-3.261
	c-1.022,0.932-2.09,1.812-3.183,2.664c1.013,1.706,1.865,3.214,2.565,4.549c-1.079,0.865-2.215,1.661-3.393,2.386
	c-0.997-1.123-2.117-2.451-3.35-3.992c-1.082,0.687-2.179,1.345-3.309,1.955c0.707,1.817,1.292,3.435,1.756,4.845
	c-1.207,0.674-2.458,1.271-3.74,1.797c-0.788-1.26-1.666-2.737-2.614-4.434c-1.206,0.509-2.442,0.962-3.692,1.384
	c0.384,1.813,0.691,3.434,0.92,4.851c-1.315,0.478-2.655,0.869-4.011,1.182c-0.564-1.326-1.174-2.875-1.821-4.634
	c-1.289,0.301-2.592,0.567-3.916,0.773c0.069,1.89,0.094,3.567,0.069,5.017c-1.359,0.247-2.733,0.399-4.119,0.475
	c-0.33-1.424-0.667-3.075-1.006-4.953c-1.088,0.066-2.183,0.109-3.288,0.109c-0.462,0-0.92-0.024-1.382-0.035
	c-0.252,1.931-0.513,3.628-0.78,5.088c-1.382,0.014-2.766-0.06-4.142-0.214c-0.091-1.506-0.155-3.255-0.174-5.244
	c-1.34-0.162-2.666-0.362-3.975-0.621c-0.596,1.83-1.162,3.431-1.693,4.804c-1.374-0.247-2.729-0.58-4.062-0.991
	c0.186-1.465,0.443-3.152,0.784-5.049c-1.3-0.388-2.577-0.827-3.833-1.31c-0.909,1.736-1.741,3.25-2.503,4.538
	c-1.302-0.465-2.574-1.015-3.814-1.632c0.436-1.442,0.977-3.101,1.643-4.965c-1.282-0.639-2.539-1.321-3.76-2.059
	c-1.194,1.457-2.28,2.727-3.254,3.794c-1.181-0.72-2.314-1.518-3.4-2.374c0.673-1.243,1.495-2.672,2.442-4.239
	c-1.142-0.847-2.242-1.742-3.312-2.673c-1.386,1.331-2.641,2.48-3.755,3.441c-1.1-0.873-2.135-1.803-3.117-2.789
	c0.875-1.24,1.927-2.641,3.161-4.204c-1.03-1.085-2.018-2.211-2.956-3.379c-1.647,1.009-3.125,1.868-4.425,2.573
	c-0.886-1.078-1.701-2.211-2.452-3.387c1.089-0.995,2.376-2.11,3.86-3.331c-0.742-1.126-1.444-2.283-2.101-3.467
	c-1.783,0.702-3.372,1.289-4.764,1.757c-0.68-1.206-1.281-2.453-1.816-3.729c1.232-0.783,2.678-1.652,4.333-2.59
	c-0.517-1.188-0.99-2.398-1.421-3.626c-1.839,0.389-3.476,0.699-4.902,0.926c-0.474-1.299-0.861-2.629-1.175-3.978
	c1.323-0.559,2.868-1.168,4.625-1.81c-0.34-1.37-0.625-2.761-0.856-4.169c-1.886,0.095-3.559,0.141-5.011,0.137
	c-0.265-1.372-0.437-2.756-0.532-4.146c1.427-0.35,3.081-0.709,4.96-1.075C78.793,63.334,78.736,62.112,78.736,60.874"/>
<path stroke="#FFFFFF" stroke-width="1.071" d="M78.736,60.874c0-0.125,0.008-0.249,0.01-0.371
	c-1.916-0.239-3.602-0.485-5.056-0.744c-0.02-1.382,0.047-2.764,0.192-4.143c1.478-0.099,3.188-0.17,5.131-0.202
	c0.127-1.289,0.318-2.558,0.537-3.818c-1.861-0.554-3.488-1.082-4.886-1.577c0.205-1.366,0.502-2.72,0.873-4.054
	c1.482,0.148,3.194,0.361,5.127,0.651c0.333-1.212,0.706-2.409,1.121-3.588c-1.71-0.862-3.208-1.663-4.485-2.396
	c0.452-1.32,0.988-2.61,1.594-3.865c1.406,0.4,3.023,0.908,4.823,1.522c0.57-1.233,1.188-2.439,1.851-3.625
	c-1.521-1.135-2.844-2.171-3.962-3.104c0.664-1.21,1.409-2.379,2.218-3.504c1.298,0.631,2.785,1.4,4.432,2.302
	c0.744-1.075,1.527-2.121,2.345-3.138c-1.277-1.338-2.393-2.556-3.324-3.639c0.857-1.082,1.784-2.114,2.768-3.088
	c1.154,0.819,2.47,1.806,3.912,2.938c0.997-1.023,2.034-2.004,3.107-2.945c-1.047-1.522-1.956-2.903-2.702-4.119
	c1.028-0.945,2.116-1.82,3.249-2.631c1.025,1.005,2.182,2.206,3.445,3.574c1.105-0.799,2.234-1.563,3.399-2.275
	c-0.779-1.706-1.44-3.233-1.972-4.575c1.166-0.745,2.378-1.412,3.626-2.012c0.84,1.179,1.777,2.563,2.797,4.148
	c1.165-0.568,2.357-1.088,3.565-1.573c-0.487-1.818-0.884-3.437-1.189-4.853c1.272-0.542,2.578-1.001,3.908-1.388
	c0.638,1.307,1.336,2.833,2.084,4.576c1.185-0.349,2.385-0.657,3.603-0.926c-0.176-1.985-0.293-3.731-0.347-5.246
	c1.36-0.314,2.736-0.541,4.124-0.688c0.417,1.453,0.853,3.144,1.3,5.078c1.318-0.159,2.647-0.278,3.993-0.341
	c0.168-1.972,0.354-3.696,0.56-5.188c1.381-0.074,2.767-0.061,4.147,0.033c0.157,1.485,0.296,3.206,0.401,5.159
	c1.293,0.062,2.571,0.182,3.839,0.333c0.48-1.872,0.941-3.513,1.383-4.922c1.375,0.153,2.738,0.395,4.086,0.716
	c-0.09,1.463-0.234,3.147-0.447,5.05c1.383,0.3,2.749,0.653,4.09,1.058c0.771-1.762,1.483-3.304,2.141-4.624
	c1.346,0.376,2.663,0.834,3.952,1.37c-0.324,1.445-0.741,3.107-1.259,4.977c1.247,0.513,2.469,1.075,3.667,1.676
	c1.078-1.633,2.059-3.046,2.946-4.244c1.247,0.594,2.455,1.268,3.625,2.011c-0.574,1.383-1.279,2.964-2.124,4.739
	c1.087,0.679,2.148,1.398,3.179,2.153c1.333-1.431,2.538-2.665,3.609-3.704c1.134,0.793,2.213,1.66,3.245,2.585
	c-0.795,1.268-1.755,2.716-2.882,4.33c0.934,0.83,1.839,1.692,2.715,2.588c1.54-1.154,2.93-2.145,4.159-2.965
	c0.981,0.991,1.896,2.043,2.752,3.146c-0.985,1.083-2.16,2.305-3.509,3.643c0.852,1.056,1.666,2.144,2.438,3.262
	c1.687-0.851,3.201-1.576,4.528-2.161c0.791,1.135,1.504,2.322,2.154,3.545c-1.135,0.878-2.471,1.859-4.001,2.926
	c0.638,1.141,1.233,2.309,1.79,3.5c1.748-0.545,3.312-0.994,4.682-1.344c0.591,1.252,1.1,2.541,1.537,3.853
	c-1.232,0.66-2.67,1.389-4.302,2.169c0.479,1.345,0.905,2.715,1.276,4.108c1.797-0.257,3.401-0.449,4.8-0.577
	c0.391,1.345,0.69,2.708,0.913,4.083c-1.335,0.465-2.888,0.957-4.642,1.469c0.225,1.347,0.398,2.708,0.521,4.085
	c1.84,0.06,3.472,0.146,4.887,0.267c0.15,1.373,0.208,2.756,0.193,4.142c-1.404,0.228-3.03,0.444-4.862,0.647
	c-0.006,1.326-0.071,2.629-0.169,3.927c1.8,0.365,3.395,0.722,4.771,1.074c-0.081,1.377-0.251,2.753-0.497,4.117
	c-1.421-0.013-3.058-0.062-4.9-0.164c-0.217,1.26-0.474,2.506-0.778,3.735c1.836,0.662,3.44,1.28,4.816,1.858
	c-0.287,1.368-0.665,2.714-1.113,4.034c-1.499-0.232-3.228-0.551-5.181-0.963c-0.446,1.265-0.938,2.504-1.474,3.723
	c1.618,0.927,3.033,1.779,4.24,2.558c-0.514,1.283-1.112,2.535-1.777,3.75c-1.375-0.472-2.96-1.06-4.723-1.761
	c-0.586,1.051-1.21,2.077-1.864,3.083c1.416,1.163,2.657,2.227,3.705,3.178c-0.72,1.179-1.514,2.313-2.373,3.405
	c-1.256-0.683-2.699-1.509-4.29-2.472c-0.75,0.948-1.524,1.88-2.338,2.774c1.244,1.452,2.319,2.759,3.215,3.923
	c-0.924,1.046-1.91,2.032-2.954,2.958c-1.147-0.908-2.448-1.998-3.879-3.261c-1.022,0.932-2.09,1.812-3.183,2.664
	c1.013,1.706,1.865,3.214,2.565,4.549c-1.079,0.865-2.215,1.661-3.393,2.386c-0.997-1.123-2.117-2.451-3.35-3.992
	c-1.082,0.687-2.179,1.345-3.309,1.955c0.707,1.817,1.292,3.435,1.756,4.845c-1.207,0.674-2.458,1.271-3.74,1.797
	c-0.788-1.26-1.666-2.737-2.614-4.434c-1.206,0.509-2.442,0.962-3.692,1.384c0.384,1.813,0.691,3.434,0.92,4.851
	c-1.315,0.478-2.655,0.869-4.011,1.182c-0.564-1.326-1.174-2.875-1.821-4.634c-1.289,0.301-2.592,0.567-3.916,0.773
	c0.069,1.89,0.094,3.567,0.069,5.017c-1.359,0.247-2.733,0.399-4.119,0.475c-0.33-1.424-0.667-3.075-1.006-4.953
	c-1.088,0.066-2.183,0.109-3.288,0.109c-0.462,0-0.92-0.024-1.382-0.035c-0.252,1.931-0.513,3.628-0.78,5.088
	c-1.382,0.014-2.766-0.06-4.142-0.214c-0.091-1.506-0.155-3.255-0.174-5.244c-1.34-0.162-2.666-0.362-3.975-0.621
	c-0.596,1.83-1.162,3.431-1.693,4.804c-1.374-0.247-2.729-0.58-4.062-0.991c0.186-1.465,0.443-3.152,0.784-5.049
	c-1.3-0.388-2.577-0.827-3.833-1.31c-0.909,1.736-1.741,3.25-2.503,4.538c-1.302-0.465-2.574-1.015-3.814-1.632
	c0.436-1.442,0.977-3.101,1.643-4.965c-1.282-0.639-2.539-1.321-3.76-2.059c-1.194,1.457-2.28,2.727-3.254,3.794
	c-1.181-0.72-2.314-1.518-3.4-2.374c0.673-1.243,1.495-2.672,2.442-4.239c-1.142-0.847-2.242-1.742-3.312-2.673
	c-1.386,1.331-2.641,2.48-3.755,3.441c-1.1-0.873-2.135-1.803-3.117-2.789c0.875-1.24,1.927-2.641,3.161-4.204
	c-1.03-1.085-2.018-2.211-2.956-3.379c-1.647,1.009-3.125,1.868-4.425,2.573c-0.886-1.078-1.701-2.211-2.452-3.387
	c1.089-0.995,2.376-2.11,3.86-3.331c-0.742-1.126-1.444-2.283-2.101-3.467c-1.783,0.702-3.372,1.289-4.764,1.757
	c-0.68-1.206-1.281-2.453-1.816-3.729c1.232-0.783,2.678-1.652,4.333-2.59c-0.517-1.188-0.99-2.398-1.421-3.626
	c-1.839,0.389-3.476,0.699-4.902,0.926c-0.474-1.299-0.861-2.629-1.175-3.978c1.323-0.559,2.868-1.168,4.625-1.81
	c-0.34-1.37-0.625-2.761-0.856-4.169c-1.886,0.095-3.559,0.141-5.011,0.137c-0.265-1.372-0.437-2.756-0.532-4.146
	c1.427-0.35,3.081-0.709,4.96-1.075C78.793,63.334,78.736,62.112,78.736,60.874z"/>
<circle stroke="#FFFFFF" stroke-width="2" cx="47.633" cy="100.475" r="11.115"/>
<circle stroke="#FFFFFF" stroke-width="2" cx="131.373" cy="61.486" r="30.684"/>
<circle stroke="#FFFFFF" stroke-width="0.91" cx="131.374" cy="61.486" r="7.601"/>
<circle stroke="#FFFFFF" stroke-width="2" cx="188.814" cy="102.804" r="8.443"/>
<line stroke="#FFFFFF" stroke-width="2" stroke-linecap="round" stroke-dasharray="1.956,5.669" x1="44.975" y1="111.255" x2="100.72" y2="127.564"/>
<line stroke="#FFFFFF" stroke-width="2" stroke-linecap="round" stroke-dasharray="1.956,5.669" x1="38.609" y1="94.043" x2="57.176" y2="54.853"/>
<line stroke="#FFFFFF" stroke-width="2" stroke-linecap="round" stroke-dasharray="1.956,5.669" x1="65.557" y1="53.292" x2="112.223" y2="85.827"/>
<line stroke="#FFFFFF" stroke-width="2" stroke-linecap="round" stroke-dasharray="1.956,5.669" x1="131.611" y1="92.4" x2="189.78" y2="94.7"/>
<circle stroke="#FFFFFF" stroke-width="0.634" cx="188.815" cy="102.805" r="3.955"/>
<circle stroke="#FFFFFF" stroke-width="0.634" cx="47.812" cy="100.604" r="3.955"/>
<circle stroke="#FFFFFF" stroke-width="0.634" cx="131.612" cy="61.508" r="3.955"/>
<path d="M62.312,56.086c0-0.353-0.286-0.638-0.638-0.638c-0.352,0-0.638,0.285-0.638,0.638c0,0.352,0.286,0.637,0.638,0.637
	C62.026,56.723,62.312,56.438,62.312,56.086"/>
<g>
	<path fill="#231F20" d="M53.462,188.19v6.261c-4.174,2.277-8.994,3.415-14.458,3.415c-4.439,0-8.206-0.892-11.298-2.675
		c-3.093-1.783-5.541-4.24-7.343-7.371c-1.803-3.131-2.704-6.518-2.704-10.16c0-5.787,2.063-10.653,6.19-14.601
		c4.126-3.946,9.216-5.919,15.269-5.919c4.174,0,8.813,1.091,13.917,3.272v6.119c-4.648-2.656-9.192-3.984-13.632-3.984
		c-4.554,0-8.334,1.437-11.341,4.312c-3.007,2.874-4.511,6.475-4.511,10.801c0,4.364,1.48,7.95,4.439,10.758
		c2.96,2.808,6.745,4.212,11.356,4.212C44.165,192.629,48.87,191.15,53.462,188.19z"/>
	<path fill="#231F20" d="M60.463,157.652h5.692v34.579h17.901v5.18H60.463V157.652z"/>
	<path fill="#231F20" d="M108.546,157.083c6.143,0,11.257,1.945,15.344,5.835c4.086,3.89,6.129,8.766,6.129,14.628
		c0,5.863-2.062,10.716-6.186,14.558c-4.125,3.842-9.324,5.763-15.6,5.763c-5.992,0-10.983-1.921-14.975-5.763
		s-5.987-8.656-5.987-14.443c0-5.938,2.01-10.853,6.03-14.742C97.321,159.028,102.403,157.083,108.546,157.083z M108.773,162.49
		c-4.549,0-8.288,1.424-11.217,4.27s-4.393,6.479-4.393,10.9c0,4.288,1.469,7.854,4.407,10.701
		c2.938,2.846,6.615,4.269,11.032,4.269c4.436,0,8.137-1.451,11.104-4.354c2.966-2.903,4.45-6.518,4.45-10.843
		c0-4.213-1.484-7.756-4.45-10.63C116.74,163.927,113.095,162.49,108.773,162.49z"/>
	<path fill="#231F20" d="M164.683,157.652h5.721v22.569c0,3.055-0.224,5.36-0.669,6.915c-0.446,1.557-0.996,2.852-1.65,3.885
		c-0.655,1.035-1.457,1.96-2.405,2.775c-3.149,2.713-7.267,4.069-12.352,4.069c-5.18,0-9.335-1.347-12.466-4.041
		c-0.948-0.835-1.75-1.769-2.404-2.804c-0.655-1.033-1.195-2.3-1.622-3.799c-0.428-1.499-0.641-3.852-0.641-7.059v-22.512h5.721
		v22.569c0,3.737,0.427,6.337,1.28,7.798s2.153,2.633,3.899,3.515c1.745,0.882,3.804,1.323,6.176,1.323
		c3.377,0,6.128-0.882,8.253-2.646c1.119-0.948,1.926-2.068,2.419-3.358s0.74-3.501,0.74-6.631V157.652z"/>
	<path fill="#231F20" d="M178.343,197.354v-39.702h13.405c5.407,0,9.686,0.812,12.835,2.434s5.654,4.009,7.514,7.157
		c1.859,3.15,2.789,6.584,2.789,10.303c0,2.656-0.513,5.199-1.537,7.627c-1.024,2.43-2.485,4.563-4.383,6.404
		c-1.935,1.897-4.184,3.329-6.745,4.297c-1.499,0.589-2.874,0.982-4.126,1.182c-1.253,0.199-3.644,0.299-7.172,0.299H178.343z
		 M191.151,162.718h-7.115v29.569h7.286c2.846,0,5.056-0.194,6.631-0.583c1.574-0.389,2.889-0.883,3.941-1.48
		s2.016-1.332,2.889-2.205c2.808-2.847,4.212-6.441,4.212-10.786c0-4.27-1.441-7.751-4.325-10.445
		c-1.063-1.005-2.282-1.831-3.657-2.476c-1.376-0.646-2.681-1.072-3.913-1.281C195.865,162.823,193.882,162.718,191.151,162.718z"/>
</g>
<g>
	<path fill="#231F20" d="M23.574,230.196v-23.192h5.811c2.346,0,4.208,0.581,5.586,1.743s2.067,2.733,2.067,4.715
		c0,1.351-0.337,2.518-1.013,3.503s-1.644,1.721-2.905,2.208c0.741,0.487,1.466,1.151,2.175,1.992
		c0.708,0.841,1.705,2.308,2.988,4.399c0.808,1.317,1.456,2.308,1.942,2.972l1.229,1.66h-3.951l-1.011-1.528
		c-0.033-0.055-0.1-0.149-0.199-0.282l-0.646-0.914l-1.028-1.693l-1.111-1.811c-0.686-0.953-1.313-1.711-1.884-2.274
		c-0.57-0.563-1.086-0.97-1.545-1.218c-0.46-0.249-1.233-0.373-2.319-0.373h-0.864v10.094H23.574z M27.89,209.826h-0.996v7.321
		h1.262c1.682,0,2.836-0.144,3.461-0.432c0.625-0.288,1.112-0.723,1.461-1.304s0.523-1.242,0.523-1.983
		c0-0.73-0.194-1.392-0.581-1.984c-0.388-0.592-0.933-1.01-1.635-1.253C30.682,209.948,29.517,209.826,27.89,209.826z"/>
	<path fill="#231F20" d="M65.893,207.003h3.337v13.165c0,1.782-0.13,3.127-0.39,4.034s-0.581,1.663-0.963,2.266
		c-0.382,0.604-0.85,1.144-1.403,1.619c-1.837,1.583-4.239,2.374-7.205,2.374c-3.021,0-5.445-0.786-7.271-2.357
		c-0.554-0.487-1.021-1.032-1.403-1.636c-0.382-0.603-0.697-1.342-0.946-2.216s-0.374-2.247-0.374-4.117v-13.132h3.337v13.165
		c0,2.181,0.249,3.696,0.747,4.549s1.256,1.535,2.274,2.05c1.018,0.515,2.219,0.772,3.603,0.772c1.97,0,3.575-0.515,4.814-1.544
		c0.653-0.554,1.124-1.206,1.411-1.959s0.432-2.042,0.432-3.868V207.003z"/>
	<path fill="#231F20" d="M99.022,207.003h3.154v23.192h-2.855l-15.506-17.862v17.862h-3.121v-23.192h2.689l15.639,18.014V207.003z"
		/>
	<path fill="#231F20" d="M132.369,207.003h3.154v23.192h-2.855l-15.506-17.862v17.862h-3.121v-23.192h2.689l15.639,18.014V207.003z"
		/>
	<path fill="#231F20" d="M147.287,207.003h13.148v2.955h-9.828v7.072h9.496v2.972h-9.496v7.205h10.144v2.955h-13.464V207.003z"/>
	<path fill="#231F20" d="M171.152,230.196v-23.192h5.811c2.347,0,4.209,0.581,5.587,1.743s2.066,2.733,2.066,4.715
		c0,1.351-0.338,2.518-1.013,3.503s-1.644,1.721-2.905,2.208c0.741,0.487,1.467,1.151,2.175,1.992s1.704,2.308,2.988,4.399
		c0.808,1.317,1.455,2.308,1.942,2.972l1.229,1.66h-3.951l-1.012-1.528c-0.033-0.055-0.1-0.149-0.198-0.282l-0.647-0.914
		l-1.027-1.693l-1.111-1.811c-0.685-0.953-1.312-1.711-1.884-2.274c-0.57-0.563-1.086-0.97-1.546-1.218
		c-0.46-0.249-1.232-0.373-2.318-0.373h-0.864v10.094H171.152z M175.468,209.826h-0.996v7.321h1.262
		c1.683,0,2.836-0.144,3.462-0.432c0.625-0.288,1.112-0.723,1.461-1.304s0.522-1.242,0.522-1.983c0-0.73-0.193-1.392-0.581-1.984
		c-0.388-0.592-0.933-1.01-1.635-1.253C178.26,209.948,177.095,209.826,175.468,209.826z"/>
	<path fill="#231F20" d="M204.099,220.478l-2.523-1.532c-1.583-0.967-2.709-1.918-3.378-2.854c-0.67-0.935-1.005-2.011-1.005-3.229
		c0-1.826,0.634-3.31,1.901-4.449c1.267-1.14,2.913-1.71,4.938-1.71c1.937,0,3.713,0.544,5.329,1.631v3.769
		c-1.671-1.607-3.47-2.411-5.396-2.411c-1.085,0-1.976,0.251-2.673,0.752c-0.697,0.502-1.046,1.145-1.046,1.927
		c0,0.694,0.257,1.346,0.771,1.951c0.514,0.606,1.34,1.243,2.478,1.91l2.536,1.501c2.829,1.689,4.243,3.84,4.243,6.452
		c0,1.859-0.622,3.37-1.867,4.532s-2.864,1.743-4.856,1.743c-2.291,0-4.377-0.704-6.259-2.112v-4.217
		c1.793,2.271,3.868,3.407,6.226,3.407c1.04,0,1.906-0.289,2.599-0.868c0.691-0.579,1.037-1.305,1.037-2.176
		C207.154,223.084,206.135,221.745,204.099,220.478z"/>
</g>
<circle stroke="#FFFFFF" stroke-width="2" cx="61.627" cy="56.113" r="4.622"/>
<circle stroke="#FFFFFF" stroke-width="2" cx="101.419" cy="122.596" r="4.623"/>
<line stroke="#FFFFFF" stroke-width="2" stroke-linecap="round" stroke-dasharray="1.956,5.669" x1="104.335" y1="126.907" x2="189.781" y2="111.46"/>
</svg>
