<?xml version="1.0" encoding="utf-8"?>
<!-- Generator: Adobe Illustrator 14.0.0, SVG Export Plug-In . SVG Version: 6.00 Build 43363)  -->
<!DOCTYPE svg PUBLIC "-//W3C//DTD SVG 1.1//EN" "http://www.w3.org/Graphics/SVG/1.1/DTD/svg11.dtd">
<svg version="1.1" id="Layer_1" xmlns="http://www.w3.org/2000/svg" xmlns:xlink="http://www.w3.org/1999/xlink" x="0px" y="0px"
	 width="120.438px" height="90.129px" viewBox="238 383.761 120.438 90.129" enable-background="new 238 383.761 120.438 90.129"
	 xml:space="preserve">
<polygon fill="#A0A1A6" points="265.816,395.363 264.215,402.272 266.734,398.476 "/>
<polygon fill="#9B9CA0" points="248.812,405.214 264.215,402.272 265.816,395.363 "/>
<polygon fill="#C4C4C6" points="286.543,408.565 302.004,425.593 303.367,394.952 "/>
<polygon fill="#C7C5CA" points="285.027,383.499 266.734,398.476 285.652,383.761 "/>
<polygon fill="#B0B0B1" points="266.734,398.476 264.215,402.272 278.227,417.531 "/>
<polygon fill="#BABAB6" points="330.403,415.16 321,443.89 332.672,414.437 "/>
<polygon fill="#9B9797" points="248.812,405.214 238,445.89 278.227,417.531 "/>
<polygon fill="#A7A7A9" points="264.215,402.272 248.812,405.214 278.227,417.531 "/>
<polygon fill="#9B9797" points="278.227,417.531 238,445.89 294,445.89 "/>
<polygon fill="#C1BFC4" points="285.652,383.761 266.734,398.476 286.543,408.565 "/>
<polygon fill="#CDCCD1" points="266.734,398.476 278.227,417.531 286.543,408.565 "/>
<polygon fill="#A19C9B" points="238,445.89 251,473.89 294,445.89 "/>
<polygon fill="#AAADB2" points="265.816,395.363 266.734,398.476 285.027,383.499 "/>
<polygon fill="#C6C3CA" points="285.652,383.761 286.543,408.565 296.777,394.011 "/>
<polygon fill="#A8A7A3" points="278.227,417.531 294,445.89 302.004,425.593 "/>
<polygon fill="#8F8A84" points="294,445.89 251,473.89 295.336,461.925 "/>
<polygon fill="#D5D5D4" points="286.543,408.565 278.227,417.531 302.004,425.593 "/>
<polygon fill="#C8C8CA" points="296.777,394.011 286.543,408.565 303.367,394.952 "/>
<polygon fill="#A7A2A0" points="302.004,425.593 294,445.89 321,443.89 "/>
<polygon fill="#9B938D" points="294,445.89 295.336,461.925 321,443.89 "/>
<polygon fill="#CCCCCE" points="303.367,394.952 302.004,425.593 319.785,400.906 "/>
<polygon fill="#CCCBC9" points="328.485,400.964 330.403,415.16 332.672,414.437 "/>
<polygon fill="#B9B7B7" points="328.485,400.964 332.672,414.437 346.684,410.937 "/>
<polygon fill="#E3E0E1" points="328.485,400.964 319.785,400.906 330.403,415.16 "/>
<polygon fill="#ACABA7" points="302.004,425.593 321,443.89 330.403,415.16 "/>
<polygon fill="#D4D3D5" points="319.785,400.906 302.004,425.593 330.403,415.16 "/>
<polygon fill="#99928B" points="321,443.89 295.336,461.925 334.563,461.748 "/>
<polygon fill="#ACA6A3" points="346.684,410.937 357.457,436.494 358.438,435.119 "/>
<polygon fill="#918986" points="321,443.89 334.563,461.748 352,447.89 "/>
<polygon fill="#A9A8A4" points="346.684,410.937 332.672,414.437 357.457,436.494 "/>
<polygon fill="#918C87" points="321,443.89 352,447.89 357.457,436.494 "/>
<polygon fill="#989490" points="332.672,414.437 321,443.89 357.457,436.494 "/>
</svg>
